<svg width="150" height="150" viewBox="0 0 150 150" fill="none" xmlns="http://www.w3.org/2000/svg">
<path d="M87.8535 15.2383L87.8525 15.2393C90.1397 15.5341 92.4324 15.9695 94.6602 16.5234L94.7461 16.5498C95.1376 16.6899 95.3694 17.0892 95.3115 17.4961L95.2949 17.583C95.1961 17.9866 94.8341 18.249 94.4473 18.249C94.4123 18.249 94.3765 18.2472 94.3408 18.2432L94.2344 18.2236C92.0718 17.6859 89.8507 17.2649 87.6299 16.9785V16.9795C87.1518 16.9207 86.8244 16.4802 86.8721 16.002L86.873 15.9932L86.8896 15.9043C86.9928 15.4723 87.4022 15.176 87.8535 15.2383Z" fill="#663366" stroke="#663366" stroke-width="0.5"/>
<path d="M80.9482 14.7568H80.9492L81.0371 14.7627C81.4446 14.8111 81.7669 15.1421 81.8018 15.5557L81.8047 15.6455C81.7964 16.1154 81.4105 16.502 80.9326 16.502H80.9229C78.6897 16.4669 76.4273 16.5601 74.2061 16.7822L74.2051 16.7812C74.166 16.7875 74.1352 16.7891 74.1172 16.7891C73.6752 16.7891 73.2866 16.454 73.2451 15.998L73.2461 15.9971C73.1989 15.5185 73.5525 15.095 74.0264 15.0459H74.0273L74.8857 14.9678C76.8933 14.799 78.9364 14.7259 80.9482 14.7568Z" fill="#663366" stroke="#663366" stroke-width="0.5"/>
<path d="M67.2822 16.1104C67.716 16.0629 68.1373 16.341 68.2314 16.793L68.2451 16.8809C68.2918 17.3162 68.0073 17.7343 67.5635 17.8281L67.5645 17.8291C65.3782 18.3026 63.2036 18.9042 61.0879 19.6289L61.0859 19.6299C60.9937 19.6606 60.9018 19.6777 60.8008 19.6777C60.4437 19.6777 60.101 19.4584 59.9824 19.0947L59.9834 19.0938C59.84 18.6659 60.0383 18.2062 60.4434 18.0215L60.5264 17.9873C62.702 17.2385 64.9485 16.6142 67.1943 16.125H67.1953L67.2822 16.1104Z" fill="#663366" stroke="#663366" stroke-width="0.5"/>
<path d="M42.4824 27.8994C42.8523 27.6618 43.3587 27.7425 43.6367 28.0898L43.6885 28.1621C43.9102 28.5075 43.8546 28.9716 43.5635 29.2578L43.498 29.3164C41.7566 30.7073 40.0728 32.2271 38.5 33.8115L38.4951 33.8164C38.3197 33.9838 38.1051 34.0674 37.876 34.0674C37.6604 34.0674 37.4231 33.9886 37.2559 33.8037V33.8027C36.9195 33.4623 36.9258 32.9191 37.2568 32.5801L37.2588 32.5781L37.873 31.9697C39.318 30.5585 40.8377 29.21 42.4111 27.9512L42.4824 27.8994Z" fill="#663366" stroke="#663366" stroke-width="0.5"/>
<path d="M54.1064 20.6055C54.544 20.3923 55.0608 20.5825 55.2666 21.0137L55.3018 21.0977C55.4563 21.5171 55.2622 21.9844 54.8555 22.1768L54.8564 22.1777C52.8454 23.1366 50.8634 24.2237 48.9697 25.416L48.9688 25.415C48.8242 25.5077 48.6602 25.5488 48.5078 25.5488C48.2569 25.5488 48.0123 25.4417 47.8408 25.2461L47.7725 25.1562L47.7686 25.1514C47.5042 24.7383 47.6375 24.1967 48.0391 23.9424L48.04 23.9414L48.7764 23.4873C50.5025 22.4379 52.2908 21.4711 54.1064 20.6045V20.6055Z" fill="#663366" stroke="#663366" stroke-width="0.5"/>
<path d="M32.7236 37.708C33.0301 37.3893 33.536 37.3495 33.8906 37.627L33.958 37.6855C34.2766 37.9921 34.3165 38.498 34.0391 38.8525L34.0381 38.8535C32.6533 40.6064 31.3553 42.4642 30.1865 44.3633L30.1875 44.3643C30.0238 44.6343 29.742 44.7841 29.4453 44.7842C29.2848 44.7842 29.1247 44.7437 28.9805 44.6504V44.6494C28.5723 44.3931 28.4519 43.8614 28.6963 43.4541L28.6982 43.4512L29.1572 42.7197C30.2423 41.0183 31.4222 39.3585 32.665 37.7754L32.7236 37.708Z" fill="#663366" stroke="#663366" stroke-width="0.5"/>
<path d="M92.0938 132.257C92.5613 132.158 93.0295 132.454 93.1289 132.938H93.1299C93.2287 133.407 92.931 133.868 92.4541 133.967L92.4551 133.968C90.2028 134.439 87.9033 134.781 85.6045 134.993L85.6035 134.991C85.5667 134.997 85.5385 135 85.5234 135C85.0709 135 84.6924 134.654 84.6514 134.203V134.202C84.6105 133.727 84.9617 133.299 85.4414 133.257L86.2793 133.174C88.2321 132.966 90.1808 132.657 92.0938 132.258V132.257Z" fill="#663366" stroke="#663366" stroke-width="0.5"/>
<path d="M57.8799 130.103C58.0532 129.65 58.5625 129.429 59.0078 129.602L59.793 129.898C61.6323 130.578 63.5166 131.167 65.4141 131.653H65.415L65.501 131.681C65.9128 131.835 66.1539 132.277 66.0332 132.714L66.0342 132.715C65.9346 133.104 65.5805 133.366 65.1934 133.366C65.1533 133.366 65.0692 133.367 64.9785 133.34V133.341C63.0232 132.84 61.0816 132.232 59.1895 131.535L58.3818 131.23C57.9291 131.057 57.7068 130.548 57.8799 130.103Z" fill="#663366" stroke="#663366" stroke-width="0.5"/>
<path d="M35.9189 114.607C36.2471 114.365 36.7073 114.378 37.0186 114.651L37.083 114.714L37.6426 115.31C38.7702 116.494 39.9511 117.64 41.1738 118.729L41.7891 119.269L41.791 119.271L41.8545 119.333C42.1534 119.656 42.1739 120.16 41.8789 120.502L41.8779 120.503C41.703 120.703 41.4562 120.8 41.2148 120.8C41.0132 120.8 40.8089 120.725 40.6475 120.588L40.6465 120.586C38.9482 119.123 37.3205 117.544 35.7998 115.899L35.7988 115.897C35.4797 115.546 35.4941 114.996 35.8486 114.666L35.8506 114.664L35.9189 114.607Z" fill="#663366" stroke="#663366" stroke-width="0.5"/>
<path d="M45.9111 123.597C46.1607 123.224 46.6536 123.109 47.0439 123.318L47.1211 123.365L47.1221 123.366L47.8193 123.835C49.4553 124.919 51.1573 125.927 52.8857 126.832H52.8848C53.311 127.053 53.4777 127.578 53.2559 128.001L53.2568 128.002C53.0995 128.308 52.7925 128.472 52.4824 128.472C52.3477 128.472 52.2098 128.438 52.083 128.375L52.0781 128.373C50.044 127.306 48.0455 126.103 46.1416 124.807V124.806C45.7447 124.539 45.6419 123.996 45.9111 123.597Z" fill="#663366" stroke="#663366" stroke-width="0.5"/>
<path d="M72.0127 132.953L72.8438 133.062C74.7866 133.3 76.759 133.444 78.7178 133.485H78.7168C79.1748 133.493 79.5337 133.85 79.5703 134.29L79.5732 134.38C79.5649 134.857 79.1774 135.236 78.7012 135.236H78.6777C76.373 135.183 74.0502 135 71.7744 134.688H71.7705V134.687C71.3007 134.614 70.96 134.182 71.0264 133.701L71.0273 133.697L71.0449 133.61C71.1542 133.186 71.5619 132.891 72.0127 132.953Z" fill="#663366" stroke="#663366" stroke-width="0.5"/>
<path d="M128.266 40.2051C128.627 40.0008 129.081 40.0849 129.352 40.3955L129.406 40.4658L129.407 40.4668L129.898 41.1787C130.871 42.6105 131.788 44.0915 132.634 45.5996L133.051 46.3564L133.09 46.4375C133.26 46.8474 133.098 47.3251 132.697 47.541L132.696 47.54C132.562 47.6146 132.415 47.6465 132.279 47.6465C131.971 47.6465 131.669 47.4741 131.514 47.1875L131.513 47.1865C130.455 45.2229 129.263 43.2995 127.977 41.4697L127.978 41.4688C127.697 41.0719 127.798 40.5312 128.189 40.2539L128.266 40.2051Z" fill="#663366" stroke="#663366" stroke-width="0.5"/>
<path d="M139.294 78.8506L139.382 78.8633C139.813 78.9445 140.131 79.3394 140.092 79.791C139.937 81.8023 139.674 83.8176 139.314 85.8018L139.154 86.6514C139.072 87.0691 138.71 87.3572 138.299 87.3574C138.242 87.3574 138.182 87.3489 138.146 87.3438L138.138 87.3428L138.13 87.3408C137.662 87.2438 137.345 86.7955 137.443 86.3145H137.442C137.869 84.1219 138.179 81.8765 138.354 79.6494V79.6475L138.366 79.5605C138.447 79.1298 138.842 78.8119 139.294 78.8506Z" fill="#663366" stroke="#663366" stroke-width="0.5"/>
<path d="M134.94 52.1143C135.338 51.9984 135.762 52.185 135.954 52.5469L135.992 52.627V52.6289L136.308 53.4346C137.029 55.3208 137.659 57.2548 138.185 59.1934L138.205 59.2803C138.282 59.717 138.007 60.1506 137.574 60.2666L137.573 60.2646C137.491 60.2897 137.41 60.2988 137.346 60.2988C136.966 60.2988 136.613 60.0438 136.506 59.6572L136.505 59.6562C135.993 57.769 135.379 55.89 134.678 54.0596L134.371 53.2783C134.19 52.8252 134.414 52.3235 134.855 52.1436L134.94 52.1143Z" fill="#663366" stroke="#663366" stroke-width="0.5"/>
<path d="M138.706 65.2295C139.122 65.2083 139.492 65.4913 139.595 65.8887L139.612 65.9756V65.9766L139.735 66.8301C140.007 68.8264 140.182 70.8569 140.249 72.874L140.248 72.9629C140.219 73.401 139.864 73.7569 139.409 73.7725L139.4 73.7734H139.377C138.911 73.7734 138.522 73.4112 138.505 72.9336L138.469 72.0908C138.37 70.1257 138.176 68.1614 137.885 66.2334L137.886 66.2324C137.813 65.7546 138.142 65.3121 138.616 65.2383L138.706 65.2295Z" fill="#663366" stroke="#663366" stroke-width="0.5"/>
<mask id="path-16-outside-1_254_927" maskUnits="userSpaceOnUse" x="22.082" y="47.0508" width="47" height="66" fill="black">
<rect fill="white" x="22.082" y="47.0508" width="47" height="66"/>
<path d="M60.1859 104.81C60.5206 104.81 60.8611 104.769 61.2016 104.681C64.3543 103.847 65.5989 98.4639 65.822 97.3953C66.1449 95.8043 65.5754 93.7025 65.276 92.7632C68.0177 90.9197 67.6831 88.0899 67.5538 87.0273C67.5362 86.8629 67.5069 86.6457 67.4834 86.3757C67.2486 84.2386 66.6967 79.2425 65.7984 77.1759C65.2818 75.9841 64.0254 75.2326 62.6634 74.6338C63.0627 73.5184 63.7026 70.988 62.7985 68.0877C61.8826 65.1758 60.3679 64.0251 59.6047 63.614C59.6634 60.6962 58.8473 57.7725 56.3933 56.9505C56.2935 56.5631 56.182 56.2225 56.0587 55.9642C55.7886 55.3654 55.4892 54.972 55.225 54.6257C54.7788 54.0386 54.3972 53.5278 54.133 52.0484C53.8806 50.657 53.0528 49.4417 51.8551 48.7197C50.7749 48.0621 49.5302 47.8801 48.4501 48.2148C47.2348 48.5964 46.7885 48.5435 45.5968 48.4026C45.5675 48.3968 45.5323 48.3968 45.5029 48.3909C44.9745 48.3322 44.3287 48.2559 43.4539 48.1971C42.2739 48.1208 41.2583 48.4672 40.4304 49.2363C39.5616 50.0465 38.951 51.3087 38.6105 52.9408C38.405 53.9271 38.3052 55.0542 38.3052 56.3107V60.7549L35.0939 58.1072C34.9295 57.9722 34.7064 57.931 34.5068 57.9956C34.3013 58.0661 34.1487 58.2305 34.0958 58.436L32.7162 63.89C32.5577 63.8724 32.3991 63.8548 32.2348 63.8548C30.0567 63.8548 28.2836 65.6278 28.2836 67.8059C28.2836 69.984 30.0567 71.757 32.2348 71.757C34.4128 71.757 36.18 69.984 36.18 67.8059C36.18 66.2266 35.2465 64.8705 33.908 64.2305L35.0587 59.6865L38.2994 62.3636V85.4474L34.2719 84.0971C33.9607 83.9914 33.6261 84.1441 33.4969 84.4494L31.7592 88.5883C29.8336 88.8525 28.3483 90.5022 28.3483 92.4984C28.3483 94.6765 30.1213 96.4495 32.2994 96.4495C34.4774 96.4554 36.2505 94.6824 36.2505 92.4984C36.2505 90.5963 34.8943 88.9994 33.0919 88.6295L34.4246 85.4592L37.9472 86.6569C38.0646 86.698 38.1879 86.698 38.2995 86.6686V99.2734C37.3131 99.0386 35.0411 98.8272 29.5987 98.839C29.3756 98.839 29.1643 98.9623 29.0586 99.156L27.3619 102.18C27.2504 102.174 27.1447 102.162 27.0331 102.162C24.8551 102.162 23.082 103.935 23.082 106.113C23.082 108.291 24.8551 110.064 27.0331 110.064C29.2112 110.064 30.9843 108.291 30.9843 106.113C30.9843 104.499 30.0097 103.107 28.6183 102.497L29.9686 100.078C33.5674 100.084 37.4775 100.23 38.1761 100.489C38.2113 100.524 38.2583 100.547 38.3053 100.571V102.872L36.1272 108.567L29.5049 109.694C29.1644 109.753 28.9354 110.076 28.9941 110.411C29.0469 110.716 29.3111 110.927 29.6047 110.927C29.6399 110.927 29.6751 110.921 29.7104 110.921L35.64 109.911L36.685 109.735C36.9022 109.7 37.0842 109.553 37.1605 109.342L37.7006 107.927L38.5343 105.749C38.5578 105.855 38.593 105.96 38.6224 106.066C39.4854 108.831 42.145 111.872 47.4698 111.872C50.4523 111.872 52.9415 111.444 54.9258 110.616C57.7145 109.471 59.4991 107.517 60.1859 104.81ZM32.228 70.5189C30.7368 70.5189 29.5215 69.3037 29.5215 67.8124C29.5215 66.3212 30.7368 65.1059 32.228 65.1059C33.7192 65.1059 34.9345 66.3212 34.9345 67.8124C34.9345 69.3095 33.7192 70.5189 32.228 70.5189ZM32.2984 95.2064C30.8072 95.2064 29.5919 93.9912 29.5919 92.4999C29.5919 91.0087 30.8072 89.7934 32.2984 89.7934C33.7897 89.7934 35.005 91.0087 35.005 92.4999C35.005 93.9911 33.7897 95.2064 32.2984 95.2064ZM27.0323 108.833C25.541 108.833 24.3257 107.618 24.3257 106.126C24.3257 104.635 25.541 103.42 27.0323 103.42C28.5235 103.42 29.7388 104.635 29.7388 106.126C29.7388 107.618 28.5235 108.833 27.0323 108.833ZM52.1721 103.009C51.9784 102.721 51.5909 102.645 51.3091 102.839C49.313 104.171 47.7865 103.285 46.172 102.345C45.3501 101.87 44.5751 101.418 43.759 101.3C42.2209 101.089 40.5828 102.023 39.5437 102.774V87.0817C39.755 86.5651 40.9527 83.9055 43.078 83.7882C44.1407 83.7294 45.1622 84.0054 46.2425 84.3048C47.7924 84.7275 49.5537 85.2089 51.6438 84.6512C52.2016 84.4985 52.7358 84.2813 53.2349 84.0054C53.4697 84.7921 54.0626 85.6962 55.3424 86.2481C56.135 86.5886 56.7867 86.7001 57.3092 86.7001C58.0372 86.7001 58.5304 86.4829 58.8356 86.3479C58.8826 86.3244 58.9237 86.3068 58.9648 86.2892C59.2759 86.254 59.5225 85.9898 59.5225 85.6669C59.5225 85.3205 59.2466 85.0446 58.9002 85.0446C58.6947 85.0446 58.5186 85.1209 58.3307 85.2031C57.9197 85.3851 57.227 85.6962 55.8355 85.0915C54.5674 84.5455 54.3736 83.6473 54.3502 83.2304C55.0664 82.6316 55.6476 81.9095 56.0468 81.0875C56.5517 80.0484 56.6574 79.021 56.3345 78.2753C56.1936 77.9583 55.8296 77.8174 55.5126 77.9524C55.1956 78.0933 55.0547 78.4573 55.1897 78.7744C55.3599 79.1736 55.2601 79.8546 54.9255 80.5474C54.2562 81.9329 52.9058 83.0132 51.3208 83.4359C49.5595 83.9056 48.1036 83.5123 46.5653 83.0954C45.4381 82.7901 44.2699 82.4731 43.0075 82.5377C41.4458 82.6258 40.3069 83.6062 39.5378 84.5984V63.8982C40.0016 63.7456 40.9351 63.5695 42.1151 64.0626C43.301 64.5558 45.2208 65.0841 46.8587 65.0841C47.6689 65.0841 48.4085 64.955 48.9487 64.6262C50.4458 63.7221 50.4164 60.405 50.393 59.7475C50.3812 59.407 50.0877 59.1252 49.753 59.1486C49.4066 59.1604 49.1425 59.4481 49.1542 59.7886C49.1953 61.0802 48.9546 63.1761 48.3147 63.5635C47.4105 64.1095 44.7393 63.8101 42.6081 62.9119C42.5846 62.9001 42.5611 62.8943 42.5377 62.8884C41.4868 60.5283 42.8664 58.5557 42.931 58.4676C43.1365 58.1917 43.0719 57.8042 42.796 57.5987C42.52 57.3932 42.1267 57.4578 41.9271 57.7337C41.8566 57.8335 40.3772 59.8942 41.0876 62.5244C40.4829 62.4657 39.9662 62.5185 39.5612 62.6125V62.3013C39.5964 62.1839 39.5964 62.0547 39.5612 61.9314L39.5435 56.3188C39.5435 53.3893 40.16 51.1995 41.2813 50.1543C41.8507 49.6201 42.5376 49.3911 43.3654 49.4439C44.2695 49.5026 44.9271 49.579 45.4495 49.6435C46.7118 49.7903 47.3458 49.8666 48.8136 49.4087C49.5592 49.1797 50.4281 49.3148 51.203 49.7903C52.0954 50.3304 52.7177 51.2404 52.9055 52.2795C53.2226 54.0525 53.7333 54.7277 54.2324 55.3852C54.4789 55.714 54.7138 56.0193 54.9251 56.4948C55.3009 57.3167 55.6707 59.166 55.0778 60.6396C54.7431 61.4674 54.1443 62.0545 53.293 62.3892C52.976 62.5125 52.8175 62.8765 52.9408 63.1994C53.064 63.5164 53.428 63.675 53.7509 63.5517C54.9369 63.0879 55.7706 62.2718 56.2401 61.1152C56.5865 60.2581 56.6746 59.3246 56.6276 58.4616C58.2303 59.5419 58.5651 62.3481 58.2833 64.8668C58.0132 67.3149 57.0797 68.9353 55.3361 69.9627L55.2363 70.0214C53.7568 70.8903 51.9252 71.9764 50.0465 71.1016C50.0347 71.0958 50.0289 71.0958 50.0171 71.0899C50.0112 71.0899 50.0112 71.0899 50.0112 71.084C48.6844 70.4734 47.9798 70.5791 47.3635 70.6789C46.8879 70.7552 46.5122 70.814 45.7314 70.5087C44.023 69.8452 43.0249 67.4264 43.0015 67.3854C42.8723 67.0684 42.5083 66.9098 42.1913 67.039C41.8743 67.1682 41.7157 67.5321 41.8449 67.8492C41.8919 67.9666 43.0543 70.8082 45.2734 71.6771C46.3654 72.0998 46.9994 72.0058 47.5513 71.9119C47.9975 71.8414 48.3615 71.7886 49.0484 72.0352C48.0914 75.7221 44.4866 75.9453 44.3282 75.9511C43.9877 75.9687 43.7176 76.2564 43.7294 76.5969C43.747 76.9316 44.0171 77.1958 44.3517 77.1958H44.3752C44.4221 77.1899 48.9838 76.955 50.2226 72.4873C50.6511 72.6047 51.0738 72.6693 51.4789 72.6693C53.1873 72.6693 54.7315 71.7534 55.8587 71.0959L55.9585 71.0372C58.0192 69.8219 59.1757 67.861 59.5046 65.0605C60.121 65.5478 60.9958 66.5341 61.6063 68.4832C62.3871 70.9784 61.8411 73.1975 61.5065 74.1839C61.3832 74.1369 61.2599 74.0841 61.1366 74.043C60.1562 73.6614 59.2286 73.3091 58.7941 72.9216C58.5358 72.6927 58.1425 72.7162 57.9135 72.9745C57.6845 73.2328 57.708 73.6261 57.9663 73.8551C58.5652 74.3894 59.5456 74.7651 60.6846 75.2054C62.3049 75.8336 64.1484 76.544 64.6474 77.6946C65.4693 79.5909 66.0271 84.6399 66.2384 86.5421C66.2678 86.8121 66.2913 87.0352 66.3147 87.1996C66.4791 88.5734 66.8196 91.4442 62.4869 92.6712C61.5945 92.9237 60.7726 93.1468 60.0094 93.3405C59.9566 93.3347 59.9037 93.3347 59.8509 93.3405C59.757 93.3581 59.6689 93.3875 59.5926 93.4403C56.5279 94.1859 54.5084 94.4032 53.4692 94.1038C51.4085 93.5108 51.5847 90.9981 51.5905 90.8924C51.6199 90.5519 51.3674 90.2466 51.0211 90.2172C50.6806 90.1879 50.3753 90.4403 50.3459 90.7867C50.2344 92.0431 50.6805 94.597 53.1229 95.3014C53.5339 95.4189 54.027 95.4776 54.62 95.4776C55.7824 95.4776 57.3265 95.2486 59.3343 94.7848C59.2756 95.6889 58.894 97.1683 57.1504 97.7731C56.8216 97.8847 56.6513 98.2369 56.7629 98.5657C56.8509 98.824 57.0916 98.9884 57.35 98.9884C57.4204 98.9884 57.485 98.9767 57.5554 98.9532C59.9977 98.1136 60.6082 95.9238 60.5965 94.4795C61.2893 94.3033 62.029 94.0979 62.8275 93.8748C63.3148 93.7339 63.761 93.5754 64.1543 93.3992C64.4302 94.3092 64.8353 95.9765 64.6005 97.1742C64.031 99.9864 62.6572 103.033 60.8842 103.503C58.9467 104.014 56.6747 102.17 56.6513 102.153C56.3871 101.935 55.9937 101.971 55.7765 102.235C55.5593 102.499 55.5945 102.892 55.8587 103.11C55.935 103.174 57.2736 104.26 58.9468 104.671C57.8548 108.646 53.9976 110.666 47.4692 110.666C41.8978 110.666 39.6961 106.914 39.5553 104.366C40.3654 103.662 42.1913 102.346 43.5886 102.546C44.1639 102.622 44.8332 103.022 45.5436 103.433C46.618 104.055 47.8568 104.783 49.2951 104.783C50.1288 104.783 51.027 104.536 52.0017 103.891C52.2893 103.679 52.3659 103.291 52.1721 103.009Z"/>
</mask>
<path d="M60.1859 104.81C60.5206 104.81 60.8611 104.769 61.2016 104.681C64.3543 103.847 65.5989 98.4639 65.822 97.3953C66.1449 95.8043 65.5754 93.7025 65.276 92.7632C68.0177 90.9197 67.6831 88.0899 67.5538 87.0273C67.5362 86.8629 67.5069 86.6457 67.4834 86.3757C67.2486 84.2386 66.6967 79.2425 65.7984 77.1759C65.2818 75.9841 64.0254 75.2326 62.6634 74.6338C63.0627 73.5184 63.7026 70.988 62.7985 68.0877C61.8826 65.1758 60.3679 64.0251 59.6047 63.614C59.6634 60.6962 58.8473 57.7725 56.3933 56.9505C56.2935 56.5631 56.182 56.2225 56.0587 55.9642C55.7886 55.3654 55.4892 54.972 55.225 54.6257C54.7788 54.0386 54.3972 53.5278 54.133 52.0484C53.8806 50.657 53.0528 49.4417 51.8551 48.7197C50.7749 48.0621 49.5302 47.8801 48.4501 48.2148C47.2348 48.5964 46.7885 48.5435 45.5968 48.4026C45.5675 48.3968 45.5323 48.3968 45.5029 48.3909C44.9745 48.3322 44.3287 48.2559 43.4539 48.1971C42.2739 48.1208 41.2583 48.4672 40.4304 49.2363C39.5616 50.0465 38.951 51.3087 38.6105 52.9408C38.405 53.9271 38.3052 55.0542 38.3052 56.3107V60.7549L35.0939 58.1072C34.9295 57.9722 34.7064 57.931 34.5068 57.9956C34.3013 58.0661 34.1487 58.2305 34.0958 58.436L32.7162 63.89C32.5577 63.8724 32.3991 63.8548 32.2348 63.8548C30.0567 63.8548 28.2836 65.6278 28.2836 67.8059C28.2836 69.984 30.0567 71.757 32.2348 71.757C34.4128 71.757 36.18 69.984 36.18 67.8059C36.18 66.2266 35.2465 64.8705 33.908 64.2305L35.0587 59.6865L38.2994 62.3636V85.4474L34.2719 84.0971C33.9607 83.9914 33.6261 84.1441 33.4969 84.4494L31.7592 88.5883C29.8336 88.8525 28.3483 90.5022 28.3483 92.4984C28.3483 94.6765 30.1213 96.4495 32.2994 96.4495C34.4774 96.4554 36.2505 94.6824 36.2505 92.4984C36.2505 90.5963 34.8943 88.9994 33.0919 88.6295L34.4246 85.4592L37.9472 86.6569C38.0646 86.698 38.1879 86.698 38.2995 86.6686V99.2734C37.3131 99.0386 35.0411 98.8272 29.5987 98.839C29.3756 98.839 29.1643 98.9623 29.0586 99.156L27.3619 102.18C27.2504 102.174 27.1447 102.162 27.0331 102.162C24.8551 102.162 23.082 103.935 23.082 106.113C23.082 108.291 24.8551 110.064 27.0331 110.064C29.2112 110.064 30.9843 108.291 30.9843 106.113C30.9843 104.499 30.0097 103.107 28.6183 102.497L29.9686 100.078C33.5674 100.084 37.4775 100.23 38.1761 100.489C38.2113 100.524 38.2583 100.547 38.3053 100.571V102.872L36.1272 108.567L29.5049 109.694C29.1644 109.753 28.9354 110.076 28.9941 110.411C29.0469 110.716 29.3111 110.927 29.6047 110.927C29.6399 110.927 29.6751 110.921 29.7104 110.921L35.64 109.911L36.685 109.735C36.9022 109.7 37.0842 109.553 37.1605 109.342L37.7006 107.927L38.5343 105.749C38.5578 105.855 38.593 105.96 38.6224 106.066C39.4854 108.831 42.145 111.872 47.4698 111.872C50.4523 111.872 52.9415 111.444 54.9258 110.616C57.7145 109.471 59.4991 107.517 60.1859 104.81ZM32.228 70.5189C30.7368 70.5189 29.5215 69.3037 29.5215 67.8124C29.5215 66.3212 30.7368 65.1059 32.228 65.1059C33.7192 65.1059 34.9345 66.3212 34.9345 67.8124C34.9345 69.3095 33.7192 70.5189 32.228 70.5189ZM32.2984 95.2064C30.8072 95.2064 29.5919 93.9912 29.5919 92.4999C29.5919 91.0087 30.8072 89.7934 32.2984 89.7934C33.7897 89.7934 35.005 91.0087 35.005 92.4999C35.005 93.9911 33.7897 95.2064 32.2984 95.2064ZM27.0323 108.833C25.541 108.833 24.3257 107.618 24.3257 106.126C24.3257 104.635 25.541 103.42 27.0323 103.42C28.5235 103.42 29.7388 104.635 29.7388 106.126C29.7388 107.618 28.5235 108.833 27.0323 108.833ZM52.1721 103.009C51.9784 102.721 51.5909 102.645 51.3091 102.839C49.313 104.171 47.7865 103.285 46.172 102.345C45.3501 101.87 44.5751 101.418 43.759 101.3C42.2209 101.089 40.5828 102.023 39.5437 102.774V87.0817C39.755 86.5651 40.9527 83.9055 43.078 83.7882C44.1407 83.7294 45.1622 84.0054 46.2425 84.3048C47.7924 84.7275 49.5537 85.2089 51.6438 84.6512C52.2016 84.4985 52.7358 84.2813 53.2349 84.0054C53.4697 84.7921 54.0626 85.6962 55.3424 86.2481C56.135 86.5886 56.7867 86.7001 57.3092 86.7001C58.0372 86.7001 58.5304 86.4829 58.8356 86.3479C58.8826 86.3244 58.9237 86.3068 58.9648 86.2892C59.2759 86.254 59.5225 85.9898 59.5225 85.6669C59.5225 85.3205 59.2466 85.0446 58.9002 85.0446C58.6947 85.0446 58.5186 85.1209 58.3307 85.2031C57.9197 85.3851 57.227 85.6962 55.8355 85.0915C54.5674 84.5455 54.3736 83.6473 54.3502 83.2304C55.0664 82.6316 55.6476 81.9095 56.0468 81.0875C56.5517 80.0484 56.6574 79.021 56.3345 78.2753C56.1936 77.9583 55.8296 77.8174 55.5126 77.9524C55.1956 78.0933 55.0547 78.4573 55.1897 78.7744C55.3599 79.1736 55.2601 79.8546 54.9255 80.5474C54.2562 81.9329 52.9058 83.0132 51.3208 83.4359C49.5595 83.9056 48.1036 83.5123 46.5653 83.0954C45.4381 82.7901 44.2699 82.4731 43.0075 82.5377C41.4458 82.6258 40.3069 83.6062 39.5378 84.5984V63.8982C40.0016 63.7456 40.9351 63.5695 42.1151 64.0626C43.301 64.5558 45.2208 65.0841 46.8587 65.0841C47.6689 65.0841 48.4085 64.955 48.9487 64.6262C50.4458 63.7221 50.4164 60.405 50.393 59.7475C50.3812 59.407 50.0877 59.1252 49.753 59.1486C49.4066 59.1604 49.1425 59.4481 49.1542 59.7886C49.1953 61.0802 48.9546 63.1761 48.3147 63.5635C47.4105 64.1095 44.7393 63.8101 42.6081 62.9119C42.5846 62.9001 42.5611 62.8943 42.5377 62.8884C41.4868 60.5283 42.8664 58.5557 42.931 58.4676C43.1365 58.1917 43.0719 57.8042 42.796 57.5987C42.52 57.3932 42.1267 57.4578 41.9271 57.7337C41.8566 57.8335 40.3772 59.8942 41.0876 62.5244C40.4829 62.4657 39.9662 62.5185 39.5612 62.6125V62.3013C39.5964 62.1839 39.5964 62.0547 39.5612 61.9314L39.5435 56.3188C39.5435 53.3893 40.16 51.1995 41.2813 50.1543C41.8507 49.6201 42.5376 49.3911 43.3654 49.4439C44.2695 49.5026 44.9271 49.579 45.4495 49.6435C46.7118 49.7903 47.3458 49.8666 48.8136 49.4087C49.5592 49.1797 50.4281 49.3148 51.203 49.7903C52.0954 50.3304 52.7177 51.2404 52.9055 52.2795C53.2226 54.0525 53.7333 54.7277 54.2324 55.3852C54.4789 55.714 54.7138 56.0193 54.9251 56.4948C55.3009 57.3167 55.6707 59.166 55.0778 60.6396C54.7431 61.4674 54.1443 62.0545 53.293 62.3892C52.976 62.5125 52.8175 62.8765 52.9408 63.1994C53.064 63.5164 53.428 63.675 53.7509 63.5517C54.9369 63.0879 55.7706 62.2718 56.2401 61.1152C56.5865 60.2581 56.6746 59.3246 56.6276 58.4616C58.2303 59.5419 58.5651 62.3481 58.2833 64.8668C58.0132 67.3149 57.0797 68.9353 55.3361 69.9627L55.2363 70.0214C53.7568 70.8903 51.9252 71.9764 50.0465 71.1016C50.0347 71.0958 50.0289 71.0958 50.0171 71.0899C50.0112 71.0899 50.0112 71.0899 50.0112 71.084C48.6844 70.4734 47.9798 70.5791 47.3635 70.6789C46.8879 70.7552 46.5122 70.814 45.7314 70.5087C44.023 69.8452 43.0249 67.4264 43.0015 67.3854C42.8723 67.0684 42.5083 66.9098 42.1913 67.039C41.8743 67.1682 41.7157 67.5321 41.8449 67.8492C41.8919 67.9666 43.0543 70.8082 45.2734 71.6771C46.3654 72.0998 46.9994 72.0058 47.5513 71.9119C47.9975 71.8414 48.3615 71.7886 49.0484 72.0352C48.0914 75.7221 44.4866 75.9453 44.3282 75.9511C43.9877 75.9687 43.7176 76.2564 43.7294 76.5969C43.747 76.9316 44.0171 77.1958 44.3517 77.1958H44.3752C44.4221 77.1899 48.9838 76.955 50.2226 72.4873C50.6511 72.6047 51.0738 72.6693 51.4789 72.6693C53.1873 72.6693 54.7315 71.7534 55.8587 71.0959L55.9585 71.0372C58.0192 69.8219 59.1757 67.861 59.5046 65.0605C60.121 65.5478 60.9958 66.5341 61.6063 68.4832C62.3871 70.9784 61.8411 73.1975 61.5065 74.1839C61.3832 74.1369 61.2599 74.0841 61.1366 74.043C60.1562 73.6614 59.2286 73.3091 58.7941 72.9216C58.5358 72.6927 58.1425 72.7162 57.9135 72.9745C57.6845 73.2328 57.708 73.6261 57.9663 73.8551C58.5652 74.3894 59.5456 74.7651 60.6846 75.2054C62.3049 75.8336 64.1484 76.544 64.6474 77.6946C65.4693 79.5909 66.0271 84.6399 66.2384 86.5421C66.2678 86.8121 66.2913 87.0352 66.3147 87.1996C66.4791 88.5734 66.8196 91.4442 62.4869 92.6712C61.5945 92.9237 60.7726 93.1468 60.0094 93.3405C59.9566 93.3347 59.9037 93.3347 59.8509 93.3405C59.757 93.3581 59.6689 93.3875 59.5926 93.4403C56.5279 94.1859 54.5084 94.4032 53.4692 94.1038C51.4085 93.5108 51.5847 90.9981 51.5905 90.8924C51.6199 90.5519 51.3674 90.2466 51.0211 90.2172C50.6806 90.1879 50.3753 90.4403 50.3459 90.7867C50.2344 92.0431 50.6805 94.597 53.1229 95.3014C53.5339 95.4189 54.027 95.4776 54.62 95.4776C55.7824 95.4776 57.3265 95.2486 59.3343 94.7848C59.2756 95.6889 58.894 97.1683 57.1504 97.7731C56.8216 97.8847 56.6513 98.2369 56.7629 98.5657C56.8509 98.824 57.0916 98.9884 57.35 98.9884C57.4204 98.9884 57.485 98.9767 57.5554 98.9532C59.9977 98.1136 60.6082 95.9238 60.5965 94.4795C61.2893 94.3033 62.029 94.0979 62.8275 93.8748C63.3148 93.7339 63.761 93.5754 64.1543 93.3992C64.4302 94.3092 64.8353 95.9765 64.6005 97.1742C64.031 99.9864 62.6572 103.033 60.8842 103.503C58.9467 104.014 56.6747 102.17 56.6513 102.153C56.3871 101.935 55.9937 101.971 55.7765 102.235C55.5593 102.499 55.5945 102.892 55.8587 103.11C55.935 103.174 57.2736 104.26 58.9468 104.671C57.8548 108.646 53.9976 110.666 47.4692 110.666C41.8978 110.666 39.6961 106.914 39.5553 104.366C40.3654 103.662 42.1913 102.346 43.5886 102.546C44.1639 102.622 44.8332 103.022 45.5436 103.433C46.618 104.055 47.8568 104.783 49.2951 104.783C50.1288 104.783 51.027 104.536 52.0017 103.891C52.2893 103.679 52.3659 103.291 52.1721 103.009Z" fill="#663366"/>
<path d="M60.1859 104.81C60.5206 104.81 60.8611 104.769 61.2016 104.681C64.3543 103.847 65.5989 98.4639 65.822 97.3953C66.1449 95.8043 65.5754 93.7025 65.276 92.7632C68.0177 90.9197 67.6831 88.0899 67.5538 87.0273C67.5362 86.8629 67.5069 86.6457 67.4834 86.3757C67.2486 84.2386 66.6967 79.2425 65.7984 77.1759C65.2818 75.9841 64.0254 75.2326 62.6634 74.6338C63.0627 73.5184 63.7026 70.988 62.7985 68.0877C61.8826 65.1758 60.3679 64.0251 59.6047 63.614C59.6634 60.6962 58.8473 57.7725 56.3933 56.9505C56.2935 56.5631 56.182 56.2225 56.0587 55.9642C55.7886 55.3654 55.4892 54.972 55.225 54.6257C54.7788 54.0386 54.3972 53.5278 54.133 52.0484C53.8806 50.657 53.0528 49.4417 51.8551 48.7197C50.7749 48.0621 49.5302 47.8801 48.4501 48.2148C47.2348 48.5964 46.7885 48.5435 45.5968 48.4026C45.5675 48.3968 45.5323 48.3968 45.5029 48.3909C44.9745 48.3322 44.3287 48.2559 43.4539 48.1971C42.2739 48.1208 41.2583 48.4672 40.4304 49.2363C39.5616 50.0465 38.951 51.3087 38.6105 52.9408C38.405 53.9271 38.3052 55.0542 38.3052 56.3107V60.7549L35.0939 58.1072C34.9295 57.9722 34.7064 57.931 34.5068 57.9956C34.3013 58.0661 34.1487 58.2305 34.0958 58.436L32.7162 63.89C32.5577 63.8724 32.3991 63.8548 32.2348 63.8548C30.0567 63.8548 28.2836 65.6278 28.2836 67.8059C28.2836 69.984 30.0567 71.757 32.2348 71.757C34.4128 71.757 36.18 69.984 36.18 67.8059C36.18 66.2266 35.2465 64.8705 33.908 64.2305L35.0587 59.6865L38.2994 62.3636V85.4474L34.2719 84.0971C33.9607 83.9914 33.6261 84.1441 33.4969 84.4494L31.7592 88.5883C29.8336 88.8525 28.3483 90.5022 28.3483 92.4984C28.3483 94.6765 30.1213 96.4495 32.2994 96.4495C34.4774 96.4554 36.2505 94.6824 36.2505 92.4984C36.2505 90.5963 34.8943 88.9994 33.0919 88.6295L34.4246 85.4592L37.9472 86.6569C38.0646 86.698 38.1879 86.698 38.2995 86.6686V99.2734C37.3131 99.0386 35.0411 98.8272 29.5987 98.839C29.3756 98.839 29.1643 98.9623 29.0586 99.156L27.3619 102.18C27.2504 102.174 27.1447 102.162 27.0331 102.162C24.8551 102.162 23.082 103.935 23.082 106.113C23.082 108.291 24.8551 110.064 27.0331 110.064C29.2112 110.064 30.9843 108.291 30.9843 106.113C30.9843 104.499 30.0097 103.107 28.6183 102.497L29.9686 100.078C33.5674 100.084 37.4775 100.23 38.1761 100.489C38.2113 100.524 38.2583 100.547 38.3053 100.571V102.872L36.1272 108.567L29.5049 109.694C29.1644 109.753 28.9354 110.076 28.9941 110.411C29.0469 110.716 29.3111 110.927 29.6047 110.927C29.6399 110.927 29.6751 110.921 29.7104 110.921L35.64 109.911L36.685 109.735C36.9022 109.7 37.0842 109.553 37.1605 109.342L37.7006 107.927L38.5343 105.749C38.5578 105.855 38.593 105.96 38.6224 106.066C39.4854 108.831 42.145 111.872 47.4698 111.872C50.4523 111.872 52.9415 111.444 54.9258 110.616C57.7145 109.471 59.4991 107.517 60.1859 104.81ZM32.228 70.5189C30.7368 70.5189 29.5215 69.3037 29.5215 67.8124C29.5215 66.3212 30.7368 65.1059 32.228 65.1059C33.7192 65.1059 34.9345 66.3212 34.9345 67.8124C34.9345 69.3095 33.7192 70.5189 32.228 70.5189ZM32.2984 95.2064C30.8072 95.2064 29.5919 93.9912 29.5919 92.4999C29.5919 91.0087 30.8072 89.7934 32.2984 89.7934C33.7897 89.7934 35.005 91.0087 35.005 92.4999C35.005 93.9911 33.7897 95.2064 32.2984 95.2064ZM27.0323 108.833C25.541 108.833 24.3257 107.618 24.3257 106.126C24.3257 104.635 25.541 103.42 27.0323 103.42C28.5235 103.42 29.7388 104.635 29.7388 106.126C29.7388 107.618 28.5235 108.833 27.0323 108.833ZM52.1721 103.009C51.9784 102.721 51.5909 102.645 51.3091 102.839C49.313 104.171 47.7865 103.285 46.172 102.345C45.3501 101.87 44.5751 101.418 43.759 101.3C42.2209 101.089 40.5828 102.023 39.5437 102.774V87.0817C39.755 86.5651 40.9527 83.9055 43.078 83.7882C44.1407 83.7294 45.1622 84.0054 46.2425 84.3048C47.7924 84.7275 49.5537 85.2089 51.6438 84.6512C52.2016 84.4985 52.7358 84.2813 53.2349 84.0054C53.4697 84.7921 54.0626 85.6962 55.3424 86.2481C56.135 86.5886 56.7867 86.7001 57.3092 86.7001C58.0372 86.7001 58.5304 86.4829 58.8356 86.3479C58.8826 86.3244 58.9237 86.3068 58.9648 86.2892C59.2759 86.254 59.5225 85.9898 59.5225 85.6669C59.5225 85.3205 59.2466 85.0446 58.9002 85.0446C58.6947 85.0446 58.5186 85.1209 58.3307 85.2031C57.9197 85.3851 57.227 85.6962 55.8355 85.0915C54.5674 84.5455 54.3736 83.6473 54.3502 83.2304C55.0664 82.6316 55.6476 81.9095 56.0468 81.0875C56.5517 80.0484 56.6574 79.021 56.3345 78.2753C56.1936 77.9583 55.8296 77.8174 55.5126 77.9524C55.1956 78.0933 55.0547 78.4573 55.1897 78.7744C55.3599 79.1736 55.2601 79.8546 54.9255 80.5474C54.2562 81.9329 52.9058 83.0132 51.3208 83.4359C49.5595 83.9056 48.1036 83.5123 46.5653 83.0954C45.4381 82.7901 44.2699 82.4731 43.0075 82.5377C41.4458 82.6258 40.3069 83.6062 39.5378 84.5984V63.8982C40.0016 63.7456 40.9351 63.5695 42.1151 64.0626C43.301 64.5558 45.2208 65.0841 46.8587 65.0841C47.6689 65.0841 48.4085 64.955 48.9487 64.6262C50.4458 63.7221 50.4164 60.405 50.393 59.7475C50.3812 59.407 50.0877 59.1252 49.753 59.1486C49.4066 59.1604 49.1425 59.4481 49.1542 59.7886C49.1953 61.0802 48.9546 63.1761 48.3147 63.5635C47.4105 64.1095 44.7393 63.8101 42.6081 62.9119C42.5846 62.9001 42.5611 62.8943 42.5377 62.8884C41.4868 60.5283 42.8664 58.5557 42.931 58.4676C43.1365 58.1917 43.0719 57.8042 42.796 57.5987C42.52 57.3932 42.1267 57.4578 41.9271 57.7337C41.8566 57.8335 40.3772 59.8942 41.0876 62.5244C40.4829 62.4657 39.9662 62.5185 39.5612 62.6125V62.3013C39.5964 62.1839 39.5964 62.0547 39.5612 61.9314L39.5435 56.3188C39.5435 53.3893 40.16 51.1995 41.2813 50.1543C41.8507 49.6201 42.5376 49.3911 43.3654 49.4439C44.2695 49.5026 44.9271 49.579 45.4495 49.6435C46.7118 49.7903 47.3458 49.8666 48.8136 49.4087C49.5592 49.1797 50.4281 49.3148 51.203 49.7903C52.0954 50.3304 52.7177 51.2404 52.9055 52.2795C53.2226 54.0525 53.7333 54.7277 54.2324 55.3852C54.4789 55.714 54.7138 56.0193 54.9251 56.4948C55.3009 57.3167 55.6707 59.166 55.0778 60.6396C54.7431 61.4674 54.1443 62.0545 53.293 62.3892C52.976 62.5125 52.8175 62.8765 52.9408 63.1994C53.064 63.5164 53.428 63.675 53.7509 63.5517C54.9369 63.0879 55.7706 62.2718 56.2401 61.1152C56.5865 60.2581 56.6746 59.3246 56.6276 58.4616C58.2303 59.5419 58.5651 62.3481 58.2833 64.8668C58.0132 67.3149 57.0797 68.9353 55.3361 69.9627L55.2363 70.0214C53.7568 70.8903 51.9252 71.9764 50.0465 71.1016C50.0347 71.0958 50.0289 71.0958 50.0171 71.0899C50.0112 71.0899 50.0112 71.0899 50.0112 71.084C48.6844 70.4734 47.9798 70.5791 47.3635 70.6789C46.8879 70.7552 46.5122 70.814 45.7314 70.5087C44.023 69.8452 43.0249 67.4264 43.0015 67.3854C42.8723 67.0684 42.5083 66.9098 42.1913 67.039C41.8743 67.1682 41.7157 67.5321 41.8449 67.8492C41.8919 67.9666 43.0543 70.8082 45.2734 71.6771C46.3654 72.0998 46.9994 72.0058 47.5513 71.9119C47.9975 71.8414 48.3615 71.7886 49.0484 72.0352C48.0914 75.7221 44.4866 75.9453 44.3282 75.9511C43.9877 75.9687 43.7176 76.2564 43.7294 76.5969C43.747 76.9316 44.0171 77.1958 44.3517 77.1958H44.3752C44.4221 77.1899 48.9838 76.955 50.2226 72.4873C50.6511 72.6047 51.0738 72.6693 51.4789 72.6693C53.1873 72.6693 54.7315 71.7534 55.8587 71.0959L55.9585 71.0372C58.0192 69.8219 59.1757 67.861 59.5046 65.0605C60.121 65.5478 60.9958 66.5341 61.6063 68.4832C62.3871 70.9784 61.8411 73.1975 61.5065 74.1839C61.3832 74.1369 61.2599 74.0841 61.1366 74.043C60.1562 73.6614 59.2286 73.3091 58.7941 72.9216C58.5358 72.6927 58.1425 72.7162 57.9135 72.9745C57.6845 73.2328 57.708 73.6261 57.9663 73.8551C58.5652 74.3894 59.5456 74.7651 60.6846 75.2054C62.3049 75.8336 64.1484 76.544 64.6474 77.6946C65.4693 79.5909 66.0271 84.6399 66.2384 86.5421C66.2678 86.8121 66.2913 87.0352 66.3147 87.1996C66.4791 88.5734 66.8196 91.4442 62.4869 92.6712C61.5945 92.9237 60.7726 93.1468 60.0094 93.3405C59.9566 93.3347 59.9037 93.3347 59.8509 93.3405C59.757 93.3581 59.6689 93.3875 59.5926 93.4403C56.5279 94.1859 54.5084 94.4032 53.4692 94.1038C51.4085 93.5108 51.5847 90.9981 51.5905 90.8924C51.6199 90.5519 51.3674 90.2466 51.0211 90.2172C50.6806 90.1879 50.3753 90.4403 50.3459 90.7867C50.2344 92.0431 50.6805 94.597 53.1229 95.3014C53.5339 95.4189 54.027 95.4776 54.62 95.4776C55.7824 95.4776 57.3265 95.2486 59.3343 94.7848C59.2756 95.6889 58.894 97.1683 57.1504 97.7731C56.8216 97.8847 56.6513 98.2369 56.7629 98.5657C56.8509 98.824 57.0916 98.9884 57.35 98.9884C57.4204 98.9884 57.485 98.9767 57.5554 98.9532C59.9977 98.1136 60.6082 95.9238 60.5965 94.4795C61.2893 94.3033 62.029 94.0979 62.8275 93.8748C63.3148 93.7339 63.761 93.5754 64.1543 93.3992C64.4302 94.3092 64.8353 95.9765 64.6005 97.1742C64.031 99.9864 62.6572 103.033 60.8842 103.503C58.9467 104.014 56.6747 102.17 56.6513 102.153C56.3871 101.935 55.9937 101.971 55.7765 102.235C55.5593 102.499 55.5945 102.892 55.8587 103.11C55.935 103.174 57.2736 104.26 58.9468 104.671C57.8548 108.646 53.9976 110.666 47.4692 110.666C41.8978 110.666 39.6961 106.914 39.5553 104.366C40.3654 103.662 42.1913 102.346 43.5886 102.546C44.1639 102.622 44.8332 103.022 45.5436 103.433C46.618 104.055 47.8568 104.783 49.2951 104.783C50.1288 104.783 51.027 104.536 52.0017 103.891C52.2893 103.679 52.3659 103.291 52.1721 103.009Z" stroke="#663366" mask="url(#path-16-outside-1_254_927)"/>
<path d="M44.2959 92.8584C44.3247 93.097 44.3759 93.4269 44.4668 93.7891C44.6504 94.5205 44.9815 95.3297 45.5605 95.8057H45.5615L45.7305 95.9307C46.1383 96.197 46.6358 96.2869 47.2715 96.1865L47.2754 96.1855L47.3643 96.1777C47.7723 96.162 48.1426 96.4272 48.2529 96.8203L48.2725 96.9062L48.2734 96.9121L48.2822 97.001C48.306 97.4453 47.9982 97.8432 47.5479 97.9131L47.5469 97.9121C47.2876 97.9551 47.0405 97.9746 46.7998 97.9746C46.017 97.9746 45.3131 97.7629 44.7051 97.3418L44.4502 97.1484C43.5312 96.3894 43.0556 95.251 42.8066 94.3145C42.5563 93.3728 42.5257 92.5976 42.5225 92.5293V92.5254C42.5062 92.0479 42.8771 91.6444 43.3623 91.6279L43.4492 91.6289C43.8836 91.6583 44.2453 92.0185 44.2607 92.4678V92.4766L44.2959 92.8584Z" fill="#663366" stroke="#663366" stroke-width="0.5"/>
<path d="M13.9512 82.4453C16.0408 82.4453 17.7747 83.9705 18.0967 85.9688L23.9346 87.6094H23.9336C24.2233 87.6891 24.4348 87.9024 24.5264 88.1699L24.5586 88.2881V88.291L25.7627 94.666L25.7744 94.7529C25.814 95.1901 25.5191 95.6014 25.0703 95.6865L25.0596 95.6885C25.0235 95.6936 24.9629 95.7031 24.9062 95.7031C24.4947 95.7031 24.1328 95.4141 24.0508 94.9961L24.0498 94.9941L22.9453 89.1523L18.0127 87.7666C17.5252 89.5462 15.8933 90.8594 13.9629 90.8594C12.6641 90.8594 11.5021 90.2719 10.7227 89.3242V89.3232C10.1114 88.5985 9.75003 87.6622 9.75 86.6465C9.75 85.3969 10.3004 84.2786 11.1729 83.5059L11.3145 83.3857C12.0354 82.8023 12.949 82.4453 13.9512 82.4453ZM13.957 84.208C12.6039 84.208 11.501 85.3109 11.501 86.6641C11.501 88.0172 12.6039 89.1211 13.957 89.1211C15.3102 89.1211 16.4141 88.0172 16.4141 86.6641C16.414 85.3106 15.3157 84.208 13.957 84.208Z" fill="#663366" stroke="#663366" stroke-width="0.5"/>
<path d="M15.2432 71.4844C15.3775 71.4716 15.5133 71.4929 15.6406 71.5449L15.7646 71.6064L15.7686 71.6084L15.8418 71.6592C16.1915 71.9277 16.2941 72.4202 16.0625 72.8066L16.0615 72.8076L15.6855 73.4297L14.0283 76.1729L20.9678 74.1406C21.2504 74.0519 21.5542 74.1196 21.7744 74.3066L24.4561 76.5684C25.1671 76.0134 26.0591 75.6808 27.0312 75.6807C29.3473 75.6807 31.2324 77.5656 31.2266 79.8877L31.2217 80.1035C31.109 82.3198 29.2692 84.0889 27.0254 84.0889C24.7094 84.0886 22.8242 82.2037 22.8242 79.8877C22.8242 79.1703 23.0096 78.5002 23.3252 77.9092L21.002 75.9492L13.4902 78.1455L13.6904 81.3516H13.6895C13.7217 81.8379 13.3514 82.2473 12.877 82.2803H12.8242C12.3974 82.2803 12.0392 81.9636 11.9688 81.5615L11.959 81.4795L11.958 81.4766L11.8291 79.4043L11.6826 76.999V76.8613C11.6944 76.7266 11.7408 76.6009 11.8037 76.4922L11.8057 76.4883L14.5713 71.9033C14.7226 71.6457 14.9802 71.5095 15.2432 71.4854V71.4844ZM27.0312 77.4248C25.6782 77.425 24.5752 78.5288 24.5752 79.8818C24.5752 81.2348 25.6783 82.3377 27.0312 82.3379C28.3844 82.3379 29.4882 81.2349 29.4883 79.8818C29.4883 78.5287 28.3844 77.4248 27.0312 77.4248Z" fill="#663366" stroke="#663366" stroke-width="0.5"/>
<path d="M16.043 103.638H16.0459L16.3037 103.667H16.3057L19.9512 104.102L19.9541 104.103L20.0449 104.118C20.2555 104.167 20.4489 104.289 20.5752 104.48L23.6045 108.966L23.6055 108.967L23.6504 109.043C23.8556 109.432 23.7352 109.929 23.3525 110.182L23.3535 110.183C23.2436 110.256 23.1241 110.287 23.043 110.306L23.0322 110.309L23.0215 110.31C23.0088 110.311 23.0053 110.313 22.9746 110.319C22.9502 110.324 22.913 110.33 22.8691 110.33C22.5943 110.33 22.3127 110.201 22.1445 109.942L22.0977 109.872V109.873L19.3438 105.788L18.46 105.685L15.8408 105.373C15.3647 105.316 15.0184 104.881 15.0762 104.402L15.0918 104.314C15.1891 103.882 15.6005 103.592 16.043 103.638Z" fill="#663366" stroke="#663366" stroke-width="0.5"/>
<path d="M22.4072 53.8115H22.4111L22.499 53.8271C22.9005 53.9175 23.1889 54.2803 23.1816 54.6934L23.1758 54.7832L23.0879 55.5107L22.7178 58.6162C22.6935 58.8187 22.5972 59.0176 22.4424 59.1553L19.1436 62.125L18.0166 63.1406L18.0156 63.1396C17.8496 63.2949 17.6428 63.3691 17.4326 63.3691C17.194 63.3691 16.956 63.2702 16.7842 63.082L16.7812 63.0791C16.4639 62.7209 16.4848 62.1692 16.8496 61.8457L19.3369 59.6045L21.0283 58.0762L21.0703 57.7178L21.4404 54.5771V54.5762L21.4561 54.4883C21.5534 54.056 21.9647 53.7658 22.4072 53.8115Z" fill="#663366" stroke="#663366" stroke-width="0.5"/>
<path d="M36.1348 47.2168C36.3806 47.2109 36.628 47.309 36.8018 47.4971H36.8008L38.791 49.6338L38.8486 49.7021C39.1156 50.0542 39.0817 50.5587 38.749 50.8682L38.7461 50.8711L38.7451 50.8701C38.5828 51.0161 38.3717 51.0996 38.1562 51.0996C37.9673 51.0996 37.7953 51.0408 37.6455 50.9385L37.6299 50.9268C37.6248 50.9229 37.5617 50.8754 37.5156 50.8232L37.5146 50.8252L36.2764 49.4932L35.8379 49.0205L35.1416 49.1299L35.1406 49.1289L30.1406 49.9277H30.1396C29.6669 50.0011 29.2124 49.6833 29.1377 49.2021L29.1387 49.2012C29.115 49.0773 29.124 48.9474 29.167 48.8271H29.168C29.2581 48.5066 29.5256 48.2627 29.8672 48.207H29.8682L36.0264 47.2266L36.0293 47.2256L36.1348 47.2168Z" fill="#663366" stroke="#663366" stroke-width="0.5"/>
<path d="M11.1875 90.002C11.5773 89.8506 12.0281 89.9875 12.2529 90.3672L13.415 92.3281L13.417 92.332L13.5332 92.5342L13.8145 93.0088L13.8154 93.0107L13.8613 93.1006C13.957 93.316 13.965 93.5637 13.8711 93.7891L13.8721 93.79L13.085 95.6924L13.084 95.6914C13.0276 95.829 12.9441 95.9372 12.8467 96.0215L12.7461 96.0977L12.7344 96.1055C12.6045 96.1818 12.455 96.2344 12.2842 96.2344C12.1717 96.2343 12.0591 96.208 11.96 96.1699L11.9551 96.1689C11.5098 95.9875 11.2965 95.4767 11.4775 95.0322L12.0938 93.5273L10.749 91.2578L10.707 91.1787C10.5197 90.7797 10.6603 90.2942 11.0537 90.0625L11.0771 90.0488L11.1016 90.04L11.1104 90.0361L11.1875 90.002Z" fill="#663366" stroke="#663366" stroke-width="0.5"/>
<path d="M15.4307 95.2656C16.6822 95.2656 17.8065 95.8234 18.5781 96.6963C18.6884 96.6735 18.8041 96.6701 18.916 96.6904L23.2256 97.4834H23.2275L23.3135 97.5049C23.7306 97.6298 24.0076 98.0506 23.9248 98.499L23.9258 98.5C23.8513 98.9223 23.4797 99.2178 23.0684 99.2178C23.0108 99.2177 22.952 99.2082 22.916 99.2021H22.9121L19.5244 98.5801C19.5882 98.8672 19.626 99.165 19.626 99.4727C19.626 101.739 17.8219 103.593 15.5674 103.662H15.5596C15.5489 103.662 15.5354 103.662 15.5117 103.664C15.4915 103.665 15.461 103.668 15.4307 103.668C13.1145 103.668 11.2295 101.783 11.2295 99.4668C11.2295 98.3301 11.6855 97.2994 12.415 96.5449H12.416L12.5635 96.4004C13.3165 95.6994 14.3238 95.2656 15.4307 95.2656ZM15.4307 97.0098C14.0775 97.0098 12.9746 98.1137 12.9746 99.4668C12.9746 100.82 14.0775 101.923 15.4307 101.923C16.7842 101.923 17.8877 100.825 17.8877 99.4668C17.8877 98.1136 16.7838 97.0098 15.4307 97.0098Z" fill="#663366" stroke="#663366" stroke-width="0.5"/>
<path d="M25.4707 63.1113C25.602 62.6904 26.0255 62.4172 26.4775 62.5107L26.5635 62.5322C26.9846 62.6634 27.2586 63.0879 27.165 63.54L27.1641 63.5391L26.1318 68.792V68.793C26.0502 69.2005 25.6973 69.4979 25.2764 69.498H25.252L21.3037 69.4023C20.6779 70.9298 19.1731 72.0107 17.415 72.0107C16.5594 72.0107 15.7605 71.7488 15.0996 71.3125L15.0986 71.3115C13.9639 70.5572 13.2139 69.2711 13.2139 67.8096C13.2141 65.4936 15.099 63.6094 17.415 63.6094C17.9259 63.6094 18.4188 63.7024 18.875 63.877H18.876C20.4286 64.4532 21.5481 65.9204 21.6094 67.6602L24.5537 67.7305L25.4473 63.2002L25.4482 63.1973L25.4707 63.1113ZM17.4268 65.3594C16.0736 65.3594 14.9697 66.4633 14.9697 67.8164C14.97 69.1682 16.0725 70.2657 17.4268 70.2715C18.7797 70.2714 19.8825 69.1693 19.8828 67.8164C19.8828 66.4633 18.7799 65.3594 17.4268 65.3594Z" fill="#663366" stroke="#663366" stroke-width="0.5"/>
<path d="M27.0312 49.3086C29.3474 49.3086 31.2324 51.1936 31.2324 53.5098C31.2324 55.0766 30.3677 56.4352 29.0986 57.1582L30.1465 60.4736H30.1455C30.2936 60.9361 30.0364 61.4204 29.5791 61.5674L29.5684 61.5713C29.4942 61.5915 29.4114 61.6093 29.3154 61.6094C28.9464 61.6094 28.5997 61.3722 28.4834 61L27.4355 57.6855C27.3021 57.6995 27.166 57.7109 27.0312 57.7109C25.3213 57.7109 23.854 56.6845 23.1992 55.2246L23.0801 54.9268L23.0791 54.9258C22.9242 54.4859 22.8301 54.0113 22.8301 53.5156C22.8301 51.6853 24.0044 50.1376 25.626 49.5576L25.96 49.4531C26.3 49.3612 26.6598 49.3086 27.0312 49.3086ZM27.0312 51.0537C25.6777 51.0537 24.5752 52.1511 24.5752 53.5098C24.5752 54.8629 25.6781 55.9658 27.0312 55.9658C28.3844 55.9658 29.4873 54.8629 29.4873 53.5098C29.4873 52.1566 28.3844 51.0537 27.0312 51.0537Z" fill="#663366" stroke="#663366" stroke-width="0.5"/>
<mask id="path-27-outside-2_254_927" maskUnits="userSpaceOnUse" x="67.7207" y="15.9219" width="57" height="60" fill="black">
<rect fill="white" x="67.7207" y="15.9219" width="57" height="60"/>
<path d="M68.7207 58.7224C68.7207 58.7458 68.7266 58.7635 68.7266 58.7869L68.7324 62.1217C68.7383 69.2959 74.4566 75.1434 81.49 75.1493H81.4958C83.9733 75.1493 86.3746 74.4213 88.4411 73.0476C89.6036 72.2726 90.6309 71.3216 91.4939 70.2061C91.4939 70.2002 91.4998 70.2002 91.4998 70.2002C93.0379 68.1571 94.353 65.662 95.3982 63.3254H118.054C119.463 63.3254 120.725 62.6855 121.57 61.6875C122.245 60.889 122.656 59.8498 122.656 58.7226L122.645 28.9867C123.455 27.2841 123.971 25.4113 123.971 23.3858C123.971 19.8221 121.071 16.9219 117.508 16.9219C115.095 16.9219 112.946 18.2428 111.836 20.2859C110.727 18.2428 108.578 16.9219 106.165 16.9219C103.359 16.9219 100.969 18.7242 100.077 21.2311H73.3289C70.7868 21.2311 68.7261 23.2977 68.7261 25.8339V32.8966L68.7207 58.7224ZM111.226 22.1405C111.296 22.4164 111.543 22.616 111.83 22.616C112.118 22.616 112.371 22.4223 112.435 22.1405C113.005 19.798 115.089 18.1601 117.502 18.1601C120.379 18.1601 122.721 20.5026 122.721 23.3794C122.721 31.3579 113.603 37.0879 111.83 38.1271C110.063 37.0879 100.94 31.3579 100.94 23.3794C100.94 20.5026 103.282 18.1601 106.159 18.1601C108.572 18.1601 110.656 19.798 111.226 22.1405ZM111.537 39.3944C111.625 39.4413 111.731 39.4707 111.83 39.4707C111.93 39.4707 112.036 39.4472 112.124 39.3944C112.459 39.2124 118.013 36.1772 121.394 31.1516V58.7218C121.394 60.577 119.885 62.08 118.036 62.08H95.926C97.2176 58.9977 97.9867 56.438 98.1041 56.0447C98.8027 54.4478 98.1158 52.5515 96.5543 51.8118C95.791 51.4478 94.9339 51.4067 94.1413 51.6944C93.3369 51.9879 92.697 52.5809 92.3389 53.3676L90.337 57.7649L90.3253 42.3251C90.3253 40.5462 88.8986 39.102 87.1549 39.102H87.1491C86.3154 39.102 85.5287 39.4308 84.9298 40.0238C84.3192 40.6343 83.9846 41.4504 83.9846 42.3251L83.9904 50.785C83.4562 50.3682 82.7928 50.1216 82.0707 50.1216H82.0648C81.2312 50.1216 80.4445 50.4504 79.8456 51.0434C79.6401 51.2488 79.4757 51.4661 79.3348 51.7068C78.7536 51.0492 77.9082 50.6383 76.9806 50.6324H76.9747C76.1411 50.6324 75.3544 50.9612 74.7555 51.5541C74.55 51.7596 74.3856 51.9768 74.2447 52.2176C73.6635 51.56 72.824 51.149 71.8905 51.1432H71.8846C71.1801 51.1432 70.5167 51.378 69.9708 51.8066L69.9766 25.8281C69.9766 23.9728 71.4854 22.4699 73.3348 22.4699H99.7778C99.7367 22.7693 99.7073 23.0687 99.7073 23.3857C99.6956 32.926 111.055 39.1359 111.537 39.3944ZM81.4898 73.8977H81.484C75.1433 73.8918 69.9771 68.608 69.971 62.1207L69.9652 54.3712C69.9652 53.831 70.1707 53.332 70.5464 52.9563C70.9045 52.5981 71.3801 52.3985 71.885 52.3985C72.9417 52.3985 73.8105 53.2909 73.8105 54.377V55.105C73.8105 55.4514 74.0865 55.7273 74.4329 55.7273C74.7792 55.7273 75.0552 55.4514 75.0552 55.105V53.8604C75.0552 53.3203 75.2606 52.8154 75.6364 52.4455C75.9945 52.0874 76.4701 51.8878 76.9749 51.8878C78.0317 51.8878 78.9005 52.7801 78.9005 53.8663V55.1109C78.9005 55.4573 79.1765 55.7332 79.5228 55.7332C79.8692 55.7332 80.1452 55.4573 80.1452 55.1109V53.3496C80.1452 52.8095 80.3506 52.3104 80.7264 51.9347C81.0845 51.5766 81.56 51.377 82.0649 51.377C83.1158 51.377 83.9788 52.2517 83.9905 53.332V54.653C83.9905 54.9993 84.2664 55.2753 84.6128 55.2753C84.9592 55.2753 85.2351 54.9993 85.2351 54.653V53.3555V53.3261L85.2293 42.3358C85.2293 41.7957 85.4348 41.2966 85.8105 40.9209C86.1686 40.5628 86.6442 40.3632 87.1491 40.3632C88.2058 40.3632 89.0746 41.2555 89.0746 42.3417L89.0923 60.6416C89.0923 60.9352 89.2977 61.1876 89.5854 61.2522C89.8731 61.3168 90.1666 61.17 90.284 60.8999L93.4778 53.89C93.695 53.4086 94.0884 53.0446 94.5757 52.8685C95.0512 52.6982 95.5679 52.7217 96.0258 52.9389C96.9945 53.4027 97.4113 54.5828 96.9592 55.5749C96.9475 55.5984 96.9358 55.6336 96.9299 55.663C96.9064 55.7511 94.4054 64.2991 90.513 69.4538C89.7381 70.4577 88.8046 71.3208 87.7596 72.0193C85.8809 73.2464 83.7208 73.8977 81.4898 73.8977Z"/>
</mask>
<path d="M68.7207 58.7224C68.7207 58.7458 68.7266 58.7635 68.7266 58.7869L68.7324 62.1217C68.7383 69.2959 74.4566 75.1434 81.49 75.1493H81.4958C83.9733 75.1493 86.3746 74.4213 88.4411 73.0476C89.6036 72.2726 90.6309 71.3216 91.4939 70.2061C91.4939 70.2002 91.4998 70.2002 91.4998 70.2002C93.0379 68.1571 94.353 65.662 95.3982 63.3254H118.054C119.463 63.3254 120.725 62.6855 121.57 61.6875C122.245 60.889 122.656 59.8498 122.656 58.7226L122.645 28.9867C123.455 27.2841 123.971 25.4113 123.971 23.3858C123.971 19.8221 121.071 16.9219 117.508 16.9219C115.095 16.9219 112.946 18.2428 111.836 20.2859C110.727 18.2428 108.578 16.9219 106.165 16.9219C103.359 16.9219 100.969 18.7242 100.077 21.2311H73.3289C70.7868 21.2311 68.7261 23.2977 68.7261 25.8339V32.8966L68.7207 58.7224ZM111.226 22.1405C111.296 22.4164 111.543 22.616 111.83 22.616C112.118 22.616 112.371 22.4223 112.435 22.1405C113.005 19.798 115.089 18.1601 117.502 18.1601C120.379 18.1601 122.721 20.5026 122.721 23.3794C122.721 31.3579 113.603 37.0879 111.83 38.1271C110.063 37.0879 100.94 31.3579 100.94 23.3794C100.94 20.5026 103.282 18.1601 106.159 18.1601C108.572 18.1601 110.656 19.798 111.226 22.1405ZM111.537 39.3944C111.625 39.4413 111.731 39.4707 111.83 39.4707C111.93 39.4707 112.036 39.4472 112.124 39.3944C112.459 39.2124 118.013 36.1772 121.394 31.1516V58.7218C121.394 60.577 119.885 62.08 118.036 62.08H95.926C97.2176 58.9977 97.9867 56.438 98.1041 56.0447C98.8027 54.4478 98.1158 52.5515 96.5543 51.8118C95.791 51.4478 94.9339 51.4067 94.1413 51.6944C93.3369 51.9879 92.697 52.5809 92.3389 53.3676L90.337 57.7649L90.3253 42.3251C90.3253 40.5462 88.8986 39.102 87.1549 39.102H87.1491C86.3154 39.102 85.5287 39.4308 84.9298 40.0238C84.3192 40.6343 83.9846 41.4504 83.9846 42.3251L83.9904 50.785C83.4562 50.3682 82.7928 50.1216 82.0707 50.1216H82.0648C81.2312 50.1216 80.4445 50.4504 79.8456 51.0434C79.6401 51.2488 79.4757 51.4661 79.3348 51.7068C78.7536 51.0492 77.9082 50.6383 76.9806 50.6324H76.9747C76.1411 50.6324 75.3544 50.9612 74.7555 51.5541C74.55 51.7596 74.3856 51.9768 74.2447 52.2176C73.6635 51.56 72.824 51.149 71.8905 51.1432H71.8846C71.1801 51.1432 70.5167 51.378 69.9708 51.8066L69.9766 25.8281C69.9766 23.9728 71.4854 22.4699 73.3348 22.4699H99.7778C99.7367 22.7693 99.7073 23.0687 99.7073 23.3857C99.6956 32.926 111.055 39.1359 111.537 39.3944ZM81.4898 73.8977H81.484C75.1433 73.8918 69.9771 68.608 69.971 62.1207L69.9652 54.3712C69.9652 53.831 70.1707 53.332 70.5464 52.9563C70.9045 52.5981 71.3801 52.3985 71.885 52.3985C72.9417 52.3985 73.8105 53.2909 73.8105 54.377V55.105C73.8105 55.4514 74.0865 55.7273 74.4329 55.7273C74.7792 55.7273 75.0552 55.4514 75.0552 55.105V53.8604C75.0552 53.3203 75.2606 52.8154 75.6364 52.4455C75.9945 52.0874 76.4701 51.8878 76.9749 51.8878C78.0317 51.8878 78.9005 52.7801 78.9005 53.8663V55.1109C78.9005 55.4573 79.1765 55.7332 79.5228 55.7332C79.8692 55.7332 80.1452 55.4573 80.1452 55.1109V53.3496C80.1452 52.8095 80.3506 52.3104 80.7264 51.9347C81.0845 51.5766 81.56 51.377 82.0649 51.377C83.1158 51.377 83.9788 52.2517 83.9905 53.332V54.653C83.9905 54.9993 84.2664 55.2753 84.6128 55.2753C84.9592 55.2753 85.2351 54.9993 85.2351 54.653V53.3555V53.3261L85.2293 42.3358C85.2293 41.7957 85.4348 41.2966 85.8105 40.9209C86.1686 40.5628 86.6442 40.3632 87.1491 40.3632C88.2058 40.3632 89.0746 41.2555 89.0746 42.3417L89.0923 60.6416C89.0923 60.9352 89.2977 61.1876 89.5854 61.2522C89.8731 61.3168 90.1666 61.17 90.284 60.8999L93.4778 53.89C93.695 53.4086 94.0884 53.0446 94.5757 52.8685C95.0512 52.6982 95.5679 52.7217 96.0258 52.9389C96.9945 53.4027 97.4113 54.5828 96.9592 55.5749C96.9475 55.5984 96.9358 55.6336 96.9299 55.663C96.9064 55.7511 94.4054 64.2991 90.513 69.4538C89.7381 70.4577 88.8046 71.3208 87.7596 72.0193C85.8809 73.2464 83.7208 73.8977 81.4898 73.8977Z" fill="#663366"/>
<path d="M68.7207 58.7224C68.7207 58.7458 68.7266 58.7635 68.7266 58.7869L68.7324 62.1217C68.7383 69.2959 74.4566 75.1434 81.49 75.1493H81.4958C83.9733 75.1493 86.3746 74.4213 88.4411 73.0476C89.6036 72.2726 90.6309 71.3216 91.4939 70.2061C91.4939 70.2002 91.4998 70.2002 91.4998 70.2002C93.0379 68.1571 94.353 65.662 95.3982 63.3254H118.054C119.463 63.3254 120.725 62.6855 121.57 61.6875C122.245 60.889 122.656 59.8498 122.656 58.7226L122.645 28.9867C123.455 27.2841 123.971 25.4113 123.971 23.3858C123.971 19.8221 121.071 16.9219 117.508 16.9219C115.095 16.9219 112.946 18.2428 111.836 20.2859C110.727 18.2428 108.578 16.9219 106.165 16.9219C103.359 16.9219 100.969 18.7242 100.077 21.2311H73.3289C70.7868 21.2311 68.7261 23.2977 68.7261 25.8339V32.8966L68.7207 58.7224ZM111.226 22.1405C111.296 22.4164 111.543 22.616 111.83 22.616C112.118 22.616 112.371 22.4223 112.435 22.1405C113.005 19.798 115.089 18.1601 117.502 18.1601C120.379 18.1601 122.721 20.5026 122.721 23.3794C122.721 31.3579 113.603 37.0879 111.83 38.1271C110.063 37.0879 100.94 31.3579 100.94 23.3794C100.94 20.5026 103.282 18.1601 106.159 18.1601C108.572 18.1601 110.656 19.798 111.226 22.1405ZM111.537 39.3944C111.625 39.4413 111.731 39.4707 111.83 39.4707C111.93 39.4707 112.036 39.4472 112.124 39.3944C112.459 39.2124 118.013 36.1772 121.394 31.1516V58.7218C121.394 60.577 119.885 62.08 118.036 62.08H95.926C97.2176 58.9977 97.9867 56.438 98.1041 56.0447C98.8027 54.4478 98.1158 52.5515 96.5543 51.8118C95.791 51.4478 94.9339 51.4067 94.1413 51.6944C93.3369 51.9879 92.697 52.5809 92.3389 53.3676L90.337 57.7649L90.3253 42.3251C90.3253 40.5462 88.8986 39.102 87.1549 39.102H87.1491C86.3154 39.102 85.5287 39.4308 84.9298 40.0238C84.3192 40.6343 83.9846 41.4504 83.9846 42.3251L83.9904 50.785C83.4562 50.3682 82.7928 50.1216 82.0707 50.1216H82.0648C81.2312 50.1216 80.4445 50.4504 79.8456 51.0434C79.6401 51.2488 79.4757 51.4661 79.3348 51.7068C78.7536 51.0492 77.9082 50.6383 76.9806 50.6324H76.9747C76.1411 50.6324 75.3544 50.9612 74.7555 51.5541C74.55 51.7596 74.3856 51.9768 74.2447 52.2176C73.6635 51.56 72.824 51.149 71.8905 51.1432H71.8846C71.1801 51.1432 70.5167 51.378 69.9708 51.8066L69.9766 25.8281C69.9766 23.9728 71.4854 22.4699 73.3348 22.4699H99.7778C99.7367 22.7693 99.7073 23.0687 99.7073 23.3857C99.6956 32.926 111.055 39.1359 111.537 39.3944ZM81.4898 73.8977H81.484C75.1433 73.8918 69.9771 68.608 69.971 62.1207L69.9652 54.3712C69.9652 53.831 70.1707 53.332 70.5464 52.9563C70.9045 52.5981 71.3801 52.3985 71.885 52.3985C72.9417 52.3985 73.8105 53.2909 73.8105 54.377V55.105C73.8105 55.4514 74.0865 55.7273 74.4329 55.7273C74.7792 55.7273 75.0552 55.4514 75.0552 55.105V53.8604C75.0552 53.3203 75.2606 52.8154 75.6364 52.4455C75.9945 52.0874 76.4701 51.8878 76.9749 51.8878C78.0317 51.8878 78.9005 52.7801 78.9005 53.8663V55.1109C78.9005 55.4573 79.1765 55.7332 79.5228 55.7332C79.8692 55.7332 80.1452 55.4573 80.1452 55.1109V53.3496C80.1452 52.8095 80.3506 52.3104 80.7264 51.9347C81.0845 51.5766 81.56 51.377 82.0649 51.377C83.1158 51.377 83.9788 52.2517 83.9905 53.332V54.653C83.9905 54.9993 84.2664 55.2753 84.6128 55.2753C84.9592 55.2753 85.2351 54.9993 85.2351 54.653V53.3555V53.3261L85.2293 42.3358C85.2293 41.7957 85.4348 41.2966 85.8105 40.9209C86.1686 40.5628 86.6442 40.3632 87.1491 40.3632C88.2058 40.3632 89.0746 41.2555 89.0746 42.3417L89.0923 60.6416C89.0923 60.9352 89.2977 61.1876 89.5854 61.2522C89.8731 61.3168 90.1666 61.17 90.284 60.8999L93.4778 53.89C93.695 53.4086 94.0884 53.0446 94.5757 52.8685C95.0512 52.6982 95.5679 52.7217 96.0258 52.9389C96.9945 53.4027 97.4113 54.5828 96.9592 55.5749C96.9475 55.5984 96.9358 55.6336 96.9299 55.663C96.9064 55.7511 94.4054 64.2991 90.513 69.4538C89.7381 70.4577 88.8046 71.3208 87.7596 72.0193C85.8809 73.2464 83.7208 73.8977 81.4898 73.8977Z" stroke="#663366" mask="url(#path-27-outside-2_254_927)"/>
<path d="M92.8643 26.2227C94.8609 26.1968 96.5513 27.7337 96.71 29.7412L96.7207 29.9307C96.7504 30.8748 96.4291 31.7774 95.8105 32.4961V32.4971C95.524 32.8269 95.186 33.0947 94.8193 33.3027L97.5723 42.8574C99.3163 42.7894 100.867 43.9579 101.352 45.6006L106.76 45.3604C106.878 44.7029 107.171 44.0926 107.613 43.5771L107.614 43.5762L107.74 43.4385C108.382 42.7678 109.242 42.365 110.171 42.3223L110.364 42.3145C112.357 42.2831 114.054 43.8265 114.212 45.834H114.211C114.293 46.8459 113.972 47.8215 113.312 48.5879L113.311 48.5898C113.218 48.6947 113.115 48.7942 113.01 48.8896L114.559 51.6924C114.792 51.6294 115.038 51.5843 115.29 51.5693L115.484 51.5615C117.482 51.5303 119.173 53.0732 119.331 55.0801L119.342 55.2695C119.371 56.2136 119.05 57.1163 118.432 57.835L118.431 57.8359C117.777 58.5896 116.87 59.0503 115.868 59.1133H115.853C115.817 59.1133 115.781 59.1147 115.742 59.1162C115.704 59.1176 115.662 59.1191 115.618 59.1191C113.722 59.1191 112.096 57.6805 111.854 55.7812L111.834 55.5957C111.752 54.5838 112.074 53.6082 112.733 52.8418L112.735 52.8389C112.828 52.7339 112.93 52.6336 113.035 52.5381L111.486 49.7363C111.253 49.7994 111.007 49.8455 110.754 49.8604L110.746 49.8613H110.739C110.704 49.8613 110.668 49.8628 110.629 49.8643C110.591 49.8657 110.548 49.8672 110.504 49.8672C108.806 49.867 107.33 48.7136 106.864 47.1162L101.46 47.3564C101.342 48.0139 101.049 48.6241 100.607 49.1396L100.606 49.1406C99.9531 49.8945 99.0459 50.3549 98.0439 50.418L98.0361 50.4189H98.0283C97.9927 50.419 97.9572 50.4204 97.918 50.4219C97.8802 50.4233 97.8374 50.4248 97.7939 50.4248C95.8313 50.4248 94.1611 48.8918 94.0039 46.9014L93.9941 46.7119C93.9645 45.7679 94.2848 44.8651 94.9033 44.1465L94.9043 44.1455L95.0332 44.0059C95.2902 43.7393 95.5813 43.5166 95.8945 43.3389L93.1416 33.7822C93.1352 33.7825 93.1287 33.783 93.1221 33.7832C93.0842 33.7846 93.0408 33.7871 92.9971 33.7871C91.0347 33.787 89.3654 32.2538 89.208 30.2637L89.1973 30.0742C89.1675 29.13 89.4888 28.2275 90.1074 27.5088V27.5078L90.2334 27.3701C90.875 26.6982 91.7307 26.2896 92.6699 26.2305L92.8643 26.2227ZM115.483 53.2871C115.464 53.2882 115.438 53.2886 115.411 53.2891L115.412 53.29C114.88 53.3266 114.402 53.5656 114.052 53.9678H114.051C113.698 54.373 113.53 54.899 113.572 55.4453L113.599 55.6533C113.785 56.6773 114.717 57.4257 115.753 57.3525H115.754L115.95 57.3301C116.403 57.2544 116.808 57.0268 117.114 56.6748L117.238 56.5176C117.507 56.138 117.63 55.6754 117.594 55.1973L117.568 54.9971C117.396 54.0158 116.536 53.2843 115.548 53.2842C115.53 53.2842 115.51 53.2856 115.483 53.2871ZM97.583 44.6064H97.582C97.05 44.643 96.5716 44.8822 96.2217 45.2842L96.2207 45.2852C95.8676 45.6904 95.7002 46.2164 95.7422 46.7627L95.7686 46.9707C95.9552 47.9942 96.8928 48.743 97.9229 48.6699H97.9238L98.1201 48.6465C98.5731 48.5708 98.9779 48.344 99.2842 47.9922V47.9912L99.4082 47.834C99.6381 47.5086 99.7619 47.1225 99.7695 46.7178L99.7637 46.5137C99.6742 45.385 98.6928 44.5285 97.583 44.6064ZM110.293 44.043C109.827 44.0749 109.403 44.2624 109.069 44.5781L108.932 44.7207C108.579 45.1256 108.411 45.6514 108.452 46.1973L108.48 46.4062C108.671 47.4315 109.599 48.1796 110.634 48.1064L110.831 48.083C111.219 48.0181 111.572 47.8418 111.857 47.5713L111.995 47.4277C112.344 47.0208 112.516 46.5001 112.475 45.9502L112.447 45.7422C112.274 44.7864 111.455 44.0708 110.5 44.0391L110.293 44.043ZM92.8633 27.9648C92.8411 27.9661 92.8131 27.9674 92.7812 27.9678C92.2508 28.0052 91.7739 28.2445 91.4248 28.6455L91.4238 28.6465C91.0707 29.0518 90.9033 29.5777 90.9453 30.124H90.9443C91.0397 31.2539 92.0231 32.1092 93.126 32.0312H93.127L93.3232 32.0078C93.7762 31.9322 94.181 31.7054 94.4873 31.3535V31.3525L94.6113 31.1953C94.8412 30.87 94.965 30.4838 94.9727 30.0791L94.9668 29.875C94.8829 28.7949 93.9752 27.963 92.9209 27.9629C92.9063 27.9629 92.8905 27.9632 92.8633 27.9648Z" fill="#663366" stroke="#663366" stroke-width="0.5"/>
<path d="M81.2607 26.6055L81.3506 26.6104C81.7922 26.6549 82.1327 27.0236 82.1328 27.4775V33.5488C82.1326 34.033 81.745 34.4209 81.2607 34.4209H73.4404C72.9562 34.4208 72.5686 34.033 72.5684 33.5488V27.4775C72.5685 26.9933 72.9562 26.6056 73.4404 26.6055H81.2607ZM74.3125 32.6758H80.3887V28.3506H74.3125V32.6758Z" fill="#663366" stroke="#663366" stroke-width="0.5"/>
<path d="M81.2607 37.0566L81.3506 37.0615C81.7934 37.1067 82.1327 37.4816 82.1328 37.9287V44C82.1326 44.4842 81.745 44.872 81.2607 44.8721H73.4404C72.9562 44.8719 72.5686 44.4842 72.5684 44V37.9287C72.5685 37.4444 72.9562 37.0568 73.4404 37.0566H81.2607ZM74.3184 43.1328H80.3945V38.8076H74.3184V43.1328Z" fill="#663366" stroke="#663366" stroke-width="0.5"/>
<path d="M112.369 23.9424C112.641 23.9549 112.891 24.0939 113.047 24.3135L113.117 24.4297L113.118 24.4326L114.67 27.6201H119.533C120.018 27.6201 120.405 28.0087 120.405 28.4932C120.405 28.9774 120.018 29.3652 119.533 29.3652H114.12C113.786 29.3652 113.485 29.1662 113.339 28.875L113.338 28.8721L112.642 27.4424L111.688 31.7461C111.609 32.1006 111.316 32.3724 110.957 32.4209L110.958 32.4219C110.955 32.4227 110.951 32.4221 110.947 32.4229C110.938 32.424 110.928 32.4279 110.919 32.4287L110.918 32.4277C110.88 32.4336 110.85 32.4355 110.832 32.4355C110.49 32.4354 110.176 32.2394 110.035 31.9238V31.9248L108.763 29.1182H106.723C106.238 29.118 105.851 28.7305 105.851 28.2461C105.851 27.7617 106.238 27.3742 106.723 27.374H109.33C109.671 27.3742 109.984 27.5698 110.126 27.8848H110.127L110.551 28.8203L111.48 24.6289L111.481 24.6279L111.521 24.4961C111.637 24.1984 111.904 23.9837 112.231 23.9473L112.369 23.9424Z" fill="#663366" stroke="#663366" stroke-width="0.5"/>
<mask id="path-32-outside-3_254_927" maskUnits="userSpaceOnUse" x="78.1553" y="73.4219" width="59" height="59" fill="black">
<rect fill="white" x="78.1553" y="73.4219" width="59" height="59"/>
<path d="M133.578 96.9602H128.835C128.336 95.0932 127.596 93.3143 126.639 91.6469L129.997 88.2887C130.837 87.4492 130.837 86.0753 129.997 85.2359L124.925 80.1635C124.502 79.7408 123.956 79.5353 123.404 79.5294C122.847 79.5235 122.295 79.7349 121.872 80.1635L118.514 83.5217C116.846 82.5588 115.068 81.825 113.201 81.326V76.5824C113.201 75.3906 112.232 74.4219 111.04 74.4219H103.866C102.674 74.4219 101.705 75.3906 101.705 76.5824V81.326C99.8385 81.825 98.0596 82.5648 96.3922 83.5217L93.034 80.1635C92.1945 79.3239 90.8206 79.3239 89.9812 80.1635L84.9087 85.2359C84.0692 86.0755 84.0692 87.4493 84.9087 88.2887L88.2669 91.6469C87.3041 93.3143 86.5702 95.0932 86.0713 96.9602H81.3158C80.124 96.9602 79.1553 97.9288 79.1553 99.1206V106.289C79.1553 107.481 80.124 108.449 81.3158 108.449H86.5468C86.6055 108.449 86.6583 108.438 86.7053 108.426C86.9695 108.356 87.1691 108.115 87.1691 107.827C87.1691 107.481 86.8932 107.205 86.5468 107.205H81.3158C80.8109 107.205 80.3999 106.794 80.3999 106.289V99.1148C80.3999 98.6099 80.8109 98.1989 81.3158 98.1989H86.5468C86.8345 98.1989 87.0869 98.0052 87.1515 97.7234C87.6564 95.6509 88.4725 93.6783 89.5762 91.8643C89.7288 91.6177 89.6878 91.3065 89.4881 91.101L85.7895 87.4024C85.4314 87.0443 85.4314 86.469 85.7895 86.1108L90.862 81.0384C91.2201 80.6802 91.7955 80.6802 92.1536 81.0384L95.8522 84.737C96.0577 84.9425 96.3689 84.9777 96.6154 84.825C98.4236 83.7213 100.396 82.9112 102.475 82.4003C102.75 82.3299 102.95 82.0833 102.95 81.7956V76.5646C102.95 76.0597 103.361 75.6487 103.866 75.6487H111.04C111.545 75.6487 111.956 76.0597 111.956 76.5646V81.7956C111.956 82.0833 112.15 82.3358 112.432 82.4003C114.504 82.9052 116.477 83.7213 118.291 84.825C118.537 84.9777 118.848 84.9366 119.054 84.737L122.753 81.0384C123.111 80.6802 123.686 80.6802 124.044 81.0384L129.117 86.1108C129.475 86.469 129.475 87.0443 129.117 87.4024L125.418 91.101C125.212 91.3065 125.177 91.6177 125.33 91.8643C126.434 93.6725 127.244 95.6451 127.755 97.7234C127.825 97.9993 128.072 98.1989 128.359 98.1989H133.59C134.095 98.1989 134.506 98.6099 134.506 99.1148L134.483 106.289C134.483 106.794 134.072 107.205 133.567 107.205H128.336C128.048 107.205 127.796 107.399 127.731 107.68C127.226 109.753 126.41 111.725 125.306 113.54C125.154 113.786 125.195 114.097 125.394 114.303L129.093 118.001C129.451 118.359 129.451 118.935 129.093 119.293L124.021 124.365C123.663 124.724 123.087 124.724 122.729 124.365L119.03 120.667C118.825 120.461 118.514 120.426 118.267 120.579C116.459 121.682 114.486 122.493 112.408 123.003C112.132 123.074 111.933 123.32 111.933 123.608L111.944 128.833C111.944 129.338 111.533 129.749 111.028 129.749H103.86C103.355 129.749 102.944 129.338 102.944 128.833V124.735C102.944 124.389 102.668 124.113 102.322 124.113C101.976 124.113 101.7 124.389 101.7 124.735V128.833C101.7 130.025 102.668 130.994 103.86 130.994H111.034C112.226 130.994 113.195 130.025 113.195 128.833V124.09C115.062 123.591 116.841 122.851 118.508 121.894L121.866 125.252C122.706 126.092 124.08 126.092 124.919 125.252L129.991 120.18C130.831 119.34 130.831 117.966 129.991 117.127L126.633 113.769C127.596 112.101 128.33 110.322 128.829 108.456H133.573C134.764 108.456 135.733 107.487 135.733 106.295V99.1208C135.739 97.929 134.77 96.9602 133.578 96.9602Z"/>
</mask>
<path d="M133.578 96.9602H128.835C128.336 95.0932 127.596 93.3143 126.639 91.6469L129.997 88.2887C130.837 87.4492 130.837 86.0753 129.997 85.2359L124.925 80.1635C124.502 79.7408 123.956 79.5353 123.404 79.5294C122.847 79.5235 122.295 79.7349 121.872 80.1635L118.514 83.5217C116.846 82.5588 115.068 81.825 113.201 81.326V76.5824C113.201 75.3906 112.232 74.4219 111.04 74.4219H103.866C102.674 74.4219 101.705 75.3906 101.705 76.5824V81.326C99.8385 81.825 98.0596 82.5648 96.3922 83.5217L93.034 80.1635C92.1945 79.3239 90.8206 79.3239 89.9812 80.1635L84.9087 85.2359C84.0692 86.0755 84.0692 87.4493 84.9087 88.2887L88.2669 91.6469C87.3041 93.3143 86.5702 95.0932 86.0713 96.9602H81.3158C80.124 96.9602 79.1553 97.9288 79.1553 99.1206V106.289C79.1553 107.481 80.124 108.449 81.3158 108.449H86.5468C86.6055 108.449 86.6583 108.438 86.7053 108.426C86.9695 108.356 87.1691 108.115 87.1691 107.827C87.1691 107.481 86.8932 107.205 86.5468 107.205H81.3158C80.8109 107.205 80.3999 106.794 80.3999 106.289V99.1148C80.3999 98.6099 80.8109 98.1989 81.3158 98.1989H86.5468C86.8345 98.1989 87.0869 98.0052 87.1515 97.7234C87.6564 95.6509 88.4725 93.6783 89.5762 91.8643C89.7288 91.6177 89.6878 91.3065 89.4881 91.101L85.7895 87.4024C85.4314 87.0443 85.4314 86.469 85.7895 86.1108L90.862 81.0384C91.2201 80.6802 91.7955 80.6802 92.1536 81.0384L95.8522 84.737C96.0577 84.9425 96.3689 84.9777 96.6154 84.825C98.4236 83.7213 100.396 82.9112 102.475 82.4003C102.75 82.3299 102.95 82.0833 102.95 81.7956V76.5646C102.95 76.0597 103.361 75.6487 103.866 75.6487H111.04C111.545 75.6487 111.956 76.0597 111.956 76.5646V81.7956C111.956 82.0833 112.15 82.3358 112.432 82.4003C114.504 82.9052 116.477 83.7213 118.291 84.825C118.537 84.9777 118.848 84.9366 119.054 84.737L122.753 81.0384C123.111 80.6802 123.686 80.6802 124.044 81.0384L129.117 86.1108C129.475 86.469 129.475 87.0443 129.117 87.4024L125.418 91.101C125.212 91.3065 125.177 91.6177 125.33 91.8643C126.434 93.6725 127.244 95.6451 127.755 97.7234C127.825 97.9993 128.072 98.1989 128.359 98.1989H133.59C134.095 98.1989 134.506 98.6099 134.506 99.1148L134.483 106.289C134.483 106.794 134.072 107.205 133.567 107.205H128.336C128.048 107.205 127.796 107.399 127.731 107.68C127.226 109.753 126.41 111.725 125.306 113.54C125.154 113.786 125.195 114.097 125.394 114.303L129.093 118.001C129.451 118.359 129.451 118.935 129.093 119.293L124.021 124.365C123.663 124.724 123.087 124.724 122.729 124.365L119.03 120.667C118.825 120.461 118.514 120.426 118.267 120.579C116.459 121.682 114.486 122.493 112.408 123.003C112.132 123.074 111.933 123.32 111.933 123.608L111.944 128.833C111.944 129.338 111.533 129.749 111.028 129.749H103.86C103.355 129.749 102.944 129.338 102.944 128.833V124.735C102.944 124.389 102.668 124.113 102.322 124.113C101.976 124.113 101.7 124.389 101.7 124.735V128.833C101.7 130.025 102.668 130.994 103.86 130.994H111.034C112.226 130.994 113.195 130.025 113.195 128.833V124.09C115.062 123.591 116.841 122.851 118.508 121.894L121.866 125.252C122.706 126.092 124.08 126.092 124.919 125.252L129.991 120.18C130.831 119.34 130.831 117.966 129.991 117.127L126.633 113.769C127.596 112.101 128.33 110.322 128.829 108.456H133.573C134.764 108.456 135.733 107.487 135.733 106.295V99.1208C135.739 97.929 134.77 96.9602 133.578 96.9602Z" fill="#663366"/>
<path d="M133.578 96.9602H128.835C128.336 95.0932 127.596 93.3143 126.639 91.6469L129.997 88.2887C130.837 87.4492 130.837 86.0753 129.997 85.2359L124.925 80.1635C124.502 79.7408 123.956 79.5353 123.404 79.5294C122.847 79.5235 122.295 79.7349 121.872 80.1635L118.514 83.5217C116.846 82.5588 115.068 81.825 113.201 81.326V76.5824C113.201 75.3906 112.232 74.4219 111.04 74.4219H103.866C102.674 74.4219 101.705 75.3906 101.705 76.5824V81.326C99.8385 81.825 98.0596 82.5648 96.3922 83.5217L93.034 80.1635C92.1945 79.3239 90.8206 79.3239 89.9812 80.1635L84.9087 85.2359C84.0692 86.0755 84.0692 87.4493 84.9087 88.2887L88.2669 91.6469C87.3041 93.3143 86.5702 95.0932 86.0713 96.9602H81.3158C80.124 96.9602 79.1553 97.9288 79.1553 99.1206V106.289C79.1553 107.481 80.124 108.449 81.3158 108.449H86.5468C86.6055 108.449 86.6583 108.438 86.7053 108.426C86.9695 108.356 87.1691 108.115 87.1691 107.827C87.1691 107.481 86.8932 107.205 86.5468 107.205H81.3158C80.8109 107.205 80.3999 106.794 80.3999 106.289V99.1148C80.3999 98.6099 80.8109 98.1989 81.3158 98.1989H86.5468C86.8345 98.1989 87.0869 98.0052 87.1515 97.7234C87.6564 95.6509 88.4725 93.6783 89.5762 91.8643C89.7288 91.6177 89.6878 91.3065 89.4881 91.101L85.7895 87.4024C85.4314 87.0443 85.4314 86.469 85.7895 86.1108L90.862 81.0384C91.2201 80.6802 91.7955 80.6802 92.1536 81.0384L95.8522 84.737C96.0577 84.9425 96.3689 84.9777 96.6154 84.825C98.4236 83.7213 100.396 82.9112 102.475 82.4003C102.75 82.3299 102.95 82.0833 102.95 81.7956V76.5646C102.95 76.0597 103.361 75.6487 103.866 75.6487H111.04C111.545 75.6487 111.956 76.0597 111.956 76.5646V81.7956C111.956 82.0833 112.15 82.3358 112.432 82.4003C114.504 82.9052 116.477 83.7213 118.291 84.825C118.537 84.9777 118.848 84.9366 119.054 84.737L122.753 81.0384C123.111 80.6802 123.686 80.6802 124.044 81.0384L129.117 86.1108C129.475 86.469 129.475 87.0443 129.117 87.4024L125.418 91.101C125.212 91.3065 125.177 91.6177 125.33 91.8643C126.434 93.6725 127.244 95.6451 127.755 97.7234C127.825 97.9993 128.072 98.1989 128.359 98.1989H133.59C134.095 98.1989 134.506 98.6099 134.506 99.1148L134.483 106.289C134.483 106.794 134.072 107.205 133.567 107.205H128.336C128.048 107.205 127.796 107.399 127.731 107.68C127.226 109.753 126.41 111.725 125.306 113.54C125.154 113.786 125.195 114.097 125.394 114.303L129.093 118.001C129.451 118.359 129.451 118.935 129.093 119.293L124.021 124.365C123.663 124.724 123.087 124.724 122.729 124.365L119.03 120.667C118.825 120.461 118.514 120.426 118.267 120.579C116.459 121.682 114.486 122.493 112.408 123.003C112.132 123.074 111.933 123.32 111.933 123.608L111.944 128.833C111.944 129.338 111.533 129.749 111.028 129.749H103.86C103.355 129.749 102.944 129.338 102.944 128.833V124.735C102.944 124.389 102.668 124.113 102.322 124.113C101.976 124.113 101.7 124.389 101.7 124.735V128.833C101.7 130.025 102.668 130.994 103.86 130.994H111.034C112.226 130.994 113.195 130.025 113.195 128.833V124.09C115.062 123.591 116.841 122.851 118.508 121.894L121.866 125.252C122.706 126.092 124.08 126.092 124.919 125.252L129.991 120.18C130.831 119.34 130.831 117.966 129.991 117.127L126.633 113.769C127.596 112.101 128.33 110.322 128.829 108.456H133.573C134.764 108.456 135.733 107.487 135.733 106.295V99.1208C135.739 97.929 134.77 96.9602 133.578 96.9602Z" stroke="#663366" mask="url(#path-32-outside-3_254_927)"/>
<path d="M107.44 85.9434C116.684 85.9434 124.199 93.4642 124.199 102.702C124.199 103.351 124.158 103.987 124.088 104.61C124.088 104.625 124.084 104.655 124.078 104.691L124.08 104.692C123.091 112.994 116.011 119.461 107.446 119.461C106.024 119.461 104.636 119.281 103.303 118.946L99.0576 123.191C98.5056 123.743 97.7732 124.046 96.9912 124.046C96.3328 124.046 95.7063 123.821 95.1973 123.424L89.7002 128.922L89.6992 128.921C88.5719 130.054 87.0589 130.68 85.4609 130.68C83.8622 130.68 82.3536 130.055 81.2207 128.922V128.921C80.0878 127.794 79.463 126.28 79.4629 124.683C79.4629 123.084 80.088 121.576 81.2207 120.443L86.7197 114.943C85.8284 113.795 85.9035 112.138 86.957 111.085L91.2021 106.839C91.0292 106.147 90.8906 105.434 90.8066 104.703C90.7975 104.665 90.7921 104.626 90.79 104.585L90.7891 104.586C90.7175 103.966 90.6826 103.34 90.6826 102.702C90.6826 93.4589 98.2025 85.9434 107.44 85.9434ZM82.4727 121.671C81.668 122.476 81.2246 123.54 81.2246 124.677C81.2247 125.814 81.668 126.877 82.4727 127.682L82.626 127.828C83.41 128.54 84.4117 128.93 85.4775 128.93C86.6087 128.93 87.6788 128.486 88.4834 127.682L93.96 122.205L87.9492 116.194L82.4727 121.671ZM88.208 112.319C87.7483 112.78 87.748 113.525 88.208 113.985L96.1748 121.952L96.2607 122.028C96.7081 122.386 97.4261 122.362 97.8418 121.951L101.446 118.346C97.0329 116.646 93.5188 113.125 91.8145 108.712L88.208 112.319ZM92.6855 105.405C93.9601 112.395 100.089 117.716 107.448 117.716C114.806 117.716 120.941 112.395 122.215 105.411H116.485C116.087 105.883 115.638 106.371 115.121 106.888L115.115 106.894L115.109 106.898L108.241 112.963L108.238 112.965C108.022 113.152 107.746 113.249 107.477 113.249C107.211 113.249 106.933 113.161 106.712 112.963L99.9434 106.998L99.9375 106.993L99.9316 106.987C99.3638 106.419 98.8844 105.896 98.4727 105.405H92.6855ZM103.554 104.84V104.841C103.423 105.176 103.102 105.398 102.739 105.398L102.74 105.399L100.823 105.403C100.922 105.506 101.025 105.612 101.134 105.721L107.471 111.309L113.9 105.616C113.973 105.544 114.041 105.47 114.11 105.399H110.644L109.069 108.563L109.07 108.564C108.921 108.871 108.614 109.051 108.287 109.051H108.234C107.889 109.026 107.595 108.803 107.473 108.478L107.471 108.476C106.674 106.271 105.606 103.337 104.887 101.385L103.554 104.84ZM113.239 96.1963C111.392 95.6756 109.393 96.7662 108.117 98.0244L108.116 98.0234L108.083 98.0576C107.751 98.3901 107.181 98.3901 106.849 98.0576L106.82 98.0293L106.619 97.8389C105.588 96.8902 104.136 96.0703 102.681 96.0703C102.349 96.0703 102.026 96.1094 101.698 96.2021H101.697C99.4543 96.8344 98.6226 98.4058 98.3203 99.626V99.627C98.1617 100.258 98.0728 100.812 98.1904 101.438C98.3044 102.045 98.6189 102.743 99.3018 103.654H102.139L104.073 98.6309L104.074 98.6299L104.132 98.5098C104.285 98.2433 104.569 98.0725 104.885 98.0713H104.888C104.991 98.07 105.129 98.066 105.257 98.1143C105.404 98.1701 105.507 98.2787 105.593 98.4199C105.676 98.5562 105.761 98.7485 105.863 99.0088C105.967 99.2722 106.097 99.6226 106.268 100.083L107.436 103.261L108.422 105.967L109.332 104.14L109.395 104.034C109.556 103.8 109.824 103.655 110.113 103.655H115.639C116.244 102.829 116.564 102.147 116.699 101.524C116.822 100.961 116.797 100.431 116.679 99.8701L116.622 99.627C116.329 98.4499 115.545 96.9324 113.446 96.2588L113.239 96.1963ZM107.441 87.6992C99.1671 87.6992 92.4328 94.4322 92.4326 102.707C92.4326 103.021 92.4496 103.337 92.4707 103.655H97.2109C96.7764 102.902 96.5346 102.214 96.4414 101.539C96.3328 100.752 96.4268 99.9989 96.625 99.2061H96.626L96.6982 98.9404C97.1068 97.5529 98.2252 95.3641 101.228 94.5234L101.453 94.4658C103.703 93.9432 105.932 94.9882 107.47 96.2695C109.06 94.9392 111.389 93.8734 113.715 94.5234L114.009 94.6123C116.796 95.5095 117.85 97.5993 118.244 98.9404L118.316 99.2061V99.207L118.388 99.5225C118.68 100.959 118.482 102.26 117.701 103.655H122.418C122.439 103.341 122.456 103.025 122.456 102.707C122.456 94.433 115.722 87.6995 107.441 87.6992Z" fill="#663366" stroke="#663366" stroke-width="0.5"/>
</svg>
