<svg width="150" height="150" viewBox="0 0 150 150" fill="none" xmlns="http://www.w3.org/2000/svg">
<path d="M106.995 95.225C105.207 94.8797 103.42 95.2657 101.916 96.3018L81.5195 110.543C81.5195 110.523 81.5195 110.482 81.5195 110.462C81.5195 106.073 77.944 102.498 73.5559 102.498H54.4999C50.5791 102.498 46.8816 100.974 44.0984 98.1911C40.7464 94.839 36.277 92.9903 31.5435 92.9903H30.3652C30.0604 91.0807 28.4149 89.5977 26.424 89.5977H13.5237C12.6907 89.5977 12 90.2884 12 91.1213C12 91.9543 12.6907 92.645 13.5237 92.645H26.424C26.9522 92.645 27.3788 93.0716 27.3788 93.5998V126.409C27.3788 126.937 26.9522 127.364 26.424 127.364H13.5237C12.6907 127.384 12 128.075 12 128.908C12 129.741 12.6907 130.432 13.5237 130.432H26.424C28.4149 130.432 30.0604 128.969 30.3652 127.039H33.6563C37.435 127.039 41.0308 128.461 43.7328 131.041C48.3037 135.389 55.5564 140 60.7977 140C60.8587 140 60.8993 140 60.9603 140C77.2939 139.716 110.103 106.703 110.428 106.378C112.622 104.144 112.968 100.751 111.261 98.1098C110.307 96.6065 108.763 95.5704 106.995 95.225ZM108.275 104.245C95.8622 116.8 72.0322 136.77 60.9196 136.973C60.879 136.973 60.8587 136.973 60.8181 136.973C56.6737 136.973 50.0305 132.809 45.8659 128.847C42.5748 125.719 38.2476 124.012 33.6766 124.012H30.4464V96.0377H31.5638C35.4847 96.0377 39.1821 97.5613 41.9653 100.345C45.3174 103.697 49.7664 105.545 54.5203 105.545H73.5762C76.2781 105.545 78.4925 107.739 78.4925 110.462C78.4925 111.538 78.1471 112.554 77.5377 113.367C77.4361 113.468 77.3345 113.59 77.2736 113.712C76.3797 114.748 75.0592 115.378 73.5762 115.378H56.308C55.4751 115.378 54.7844 116.069 54.7844 116.902C54.7844 117.735 55.4751 118.425 56.308 118.425H73.5762C76.0343 118.425 78.2284 117.308 79.6911 115.561L103.684 98.8006C104.496 98.2317 105.451 98.0286 106.426 98.2114C107.381 98.3942 108.214 98.9631 108.742 99.7757C109.656 101.218 109.474 103.046 108.275 104.245Z" fill="#663366"/>
<path d="M136.432 57.378H123.532C123.004 57.378 122.577 56.9514 122.577 56.4232V23.5934C122.577 23.0652 123.004 22.6385 123.532 22.6385H136.432C137.265 22.6385 137.956 21.9478 137.956 21.1149C137.956 20.2819 137.265 19.5912 136.432 19.5912H123.532C121.541 19.5912 119.895 21.0539 119.591 22.9839H116.279C112.501 22.9839 108.905 21.5618 106.203 18.9818C101.591 14.5936 94.176 9.88042 88.9956 10.0023C72.6619 10.2867 39.8321 43.2994 39.5071 43.6244C37.313 45.8591 36.9473 49.2518 38.6742 51.8928C39.6696 53.4165 41.1933 54.4526 42.981 54.7979C44.7688 55.1433 46.5566 54.7573 48.0599 53.7212L68.4566 39.4801C68.4566 39.5004 68.4566 39.541 68.4566 39.5613C68.4566 43.9495 72.0321 47.525 76.4203 47.525H95.4762C99.3971 47.525 103.094 49.0486 105.878 51.8319C109.23 55.1839 113.679 57.0326 118.433 57.0326H119.611C119.916 58.9423 121.561 60.4253 123.552 60.4253H136.452C137.285 60.4253 137.976 59.7346 137.976 58.9016C137.976 58.0687 137.265 57.378 136.432 57.378ZM107.991 49.6784C104.638 46.3264 100.169 44.4777 95.4356 44.4777H76.4C73.698 44.4777 71.4836 42.2836 71.4836 39.5613C71.4836 38.4846 71.829 37.4688 72.4385 36.6562C72.54 36.5546 72.6416 36.4327 72.7026 36.3108C73.5964 35.2748 74.9169 34.6247 76.4 34.6247H93.6681C94.5011 34.6247 95.1918 33.9339 95.1918 33.101C95.1918 32.2681 94.5011 31.5773 93.6681 31.5773H76.4C73.9418 31.5773 71.7477 32.6947 70.285 34.4418L46.2925 51.2021C45.4798 51.7709 44.525 51.9741 43.5499 51.7912C42.595 51.6084 41.7621 51.0396 41.2339 50.2269C40.2994 48.8049 40.5026 46.9561 41.6808 45.7575C54.0936 33.2229 77.9033 13.2528 89.0362 13.0496C89.0768 13.0496 89.1175 13.0496 89.1378 13.0496C93.2821 13.0496 99.9253 17.2143 104.09 21.1758C107.381 24.3044 111.708 26.0109 116.259 26.0109H119.489V53.9853H118.372C114.471 53.9853 110.774 52.4616 107.991 49.6784Z" fill="#663366"/>
<path d="M74.9983 97.0342C87.1266 97.0342 96.9999 87.1608 96.9999 75.0122C96.9999 62.8635 87.1266 52.9902 74.9983 52.9902C62.8496 52.9902 52.9763 62.8635 52.9763 75.0122C52.9763 87.1608 62.8496 97.0342 74.9983 97.0342ZM74.9983 56.0376C85.4404 56.0376 93.9526 64.5497 93.9526 75.0122C93.9526 85.4747 85.4607 93.9868 74.9983 93.9868C64.5358 93.9868 56.0236 85.4747 56.0236 75.0122C56.0236 64.5497 64.5155 56.0376 74.9983 56.0376Z" fill="#663366"/>
<path d="M74.9981 89.5972C80.138 89.5972 84.3229 85.3919 84.3229 80.2318C84.3229 75.6405 77.1313 62.6995 76.3186 61.2368C76.0545 60.7493 75.5467 60.4648 74.9981 60.4648C74.4496 60.4648 73.9417 60.7696 73.6776 61.2368C72.8447 62.6995 65.653 75.6608 65.653 80.2318C65.6327 85.4122 69.838 89.5972 74.9981 89.5972ZM74.9981 65.178C77.8423 70.521 81.2756 77.7939 81.2756 80.2521C81.2756 83.7261 78.4518 86.5702 74.9981 86.5702C71.5242 86.5702 68.68 83.7464 68.68 80.2521C68.68 77.7939 72.1337 70.5007 74.9981 65.178Z" fill="#663366"/>
<path d="M74.9982 82.3262C75.9327 82.3262 76.7657 81.6558 76.9891 80.7416C77.1923 79.929 76.6844 79.0961 75.8718 78.8929C75.5671 78.8117 75.2623 78.832 74.9779 78.9335C74.6935 78.832 74.3888 78.8117 74.084 78.8929C73.2714 79.0961 72.7635 79.929 72.9667 80.7416C73.2105 81.6761 74.0434 82.3262 74.9982 82.3262Z" fill="#663366"/>
</svg>
