<svg xmlns="http://www.w3.org/2000/svg" version="1.1" viewBox="-5.0 -10.0 110.0 135.0">
 <path d="m87.5 5.0781h-68.75c-4.0938 0-7.4219 3.3281-7.4219 7.4219v5.1953c-3.5352 0.56641-6.25 3.6133-6.25 7.3047v46.875c0 4.0938 3.3281 7.4219 7.4219 7.4219h21.156l-3.3203 13.281h-5.3359c-0.64844 0-1.1719 0.52344-1.1719 1.1719s0.52344 1.1719 1.1719 1.1719h40.625c0.64844 0 1.1719-0.52344 1.1719-1.1719s-0.52344-1.1719-1.1719-1.1719h-5.3359l-3.3203-13.281h21.156c4.0938 0 7.4219-3.3281 7.4219-7.4219v-5.0781h1.9531c4.0938 0 7.4219-3.3281 7.4219-7.4219v-46.875c0-4.0938-3.3281-7.4219-7.4219-7.4219zm5.0781 7.4219v22.266h-7.0312v-1.9531c0-3.8711-2.9922-7.0234-6.7773-7.3555 1.2891-1.3359 2.0898-3.1445 2.0898-5.1445 0-4.0938-3.3281-7.4219-7.4219-7.4219s-7.4219 3.3281-7.4219 7.4219c0 2 0.80078 3.8086 2.0898 5.1445-3.7891 0.33203-6.7773 3.4844-6.7773 7.3555v1.9531h-7.0312v-27.344h33.203c2.8008 0 5.0781 2.2773 5.0781 5.0781zm-19.141 12.891c-2.8008 0-5.0781-2.2773-5.0781-5.0781s2.2773-5.0781 5.0781-5.0781 5.0781 2.2773 5.0781 5.0781-2.2773 5.0781-5.0781 5.0781zm-4.6875 2.3438h9.375c2.8008 0 5.0781 2.2773 5.0781 5.0781v1.9531h-19.531v-1.9531c0-2.8008 2.2773-5.0781 5.0781-5.0781zm-55.078-15.234c0-2.8008 2.2773-5.0781 5.0781-5.0781h33.203v27.344h-7.0312v-1.9531c0-3.8711-2.9922-7.0234-6.7773-7.3555 1.2891-1.3359 2.0898-3.1445 2.0898-5.1445 0-4.0938-3.3281-7.4219-7.4219-7.4219s-7.4219 3.3281-7.4219 7.4219c0 2 0.80078 3.8086 2.0898 5.1445-3.7891 0.33203-6.7773 3.4844-6.7773 7.3555v1.9531h-7.0312zm31.25 51.953v-1.9531c0-3.8711-2.9922-7.0234-6.7773-7.3555 1.2891-1.3359 2.0898-3.1445 2.0898-5.1445 0-4.0938-3.3281-7.4219-7.4219-7.4219s-7.4219 3.3281-7.4219 7.4219c0 2 0.80078 3.8086 2.0898 5.1445-3.7891 0.33203-6.7773 3.4844-6.7773 7.3555v1.9531h-1.9531c-2.8008 0-5.0781-2.2773-5.0781-5.0781v-22.266h38.281v27.344zm-12.109-9.375c-2.8008 0-5.0781-2.2773-5.0781-5.0781s2.2773-5.0781 5.0781-5.0781 5.0781 2.2773 5.0781 5.0781-2.2773 5.0781-5.0781 5.0781zm-4.6875 2.3438h9.375c2.8008 0 5.0781 2.2773 5.0781 5.0781v1.9531h-19.531v-1.9531c0-2.8008 2.2773-5.0781 5.0781-5.0781zm4.6875-32.031c-2.8008 0-5.0781-2.2773-5.0781-5.0781s2.2773-5.0781 5.0781-5.0781 5.0781 2.2773 5.0781 5.0781-2.2773 5.0781-5.0781 5.0781zm-4.6875 2.3438h9.375c2.8008 0 5.0781 2.2773 5.0781 5.0781v1.9531h-19.531v-1.9531c0-2.8008 2.2773-5.0781 5.0781-5.0781zm-16.797-7.6641v39.305c0 1.9688 0.78516 3.75 2.0391 5.0781h-5.9453v-39.453c0-2.3945 1.6719-4.3945 3.9062-4.9297zm46.547 72.508h-25.125l3.3203-13.281h18.484zm20.25-15.625h-65.625c-2.8008 0-5.0781-2.2773-5.0781-5.0781v-5.0781h75.781v5.0781c0 2.8008-2.2773 5.0781-5.0781 5.0781zm-4.6875-21.875c-2.8008 0-5.0781-2.2773-5.0781-5.0781s2.2773-5.0781 5.0781-5.0781 5.0781 2.2773 5.0781 5.0781-2.2773 5.0781-5.0781 5.0781zm-4.6875 2.3438h9.375c2.8008 0 5.0781 2.2773 5.0781 5.0781v1.9531h-19.531v-1.9531c0-2.8008 2.2773-5.0781 5.0781-5.0781zm18.75 7.0312h-1.9531v-1.9531c0-3.8711-2.9922-7.0234-6.7773-7.3555 1.2891-1.3359 2.0898-3.1445 2.0898-5.1445 0-4.0938-3.3281-7.4219-7.4219-7.4219s-7.4219 3.3281-7.4219 7.4219c0 2 0.80078 3.8086 2.0898 5.1445-3.7891 0.33203-6.7773 3.4844-6.7773 7.3555v1.9531h-7.0312v-27.344h38.281v22.266c0 2.8008-2.2773 5.0781-5.0781 5.0781z"/>
<text x="0.0" y="117.5" font-size="5.0" font-weight="bold" font-family="Arbeit Regular, Helvetica, Arial-Unicode, Arial, Sans-serif" fill="#000000">Created by Arkinasi</text><text x="0.0" y="122.5" font-size="5.0" font-weight="bold" font-family="Arbeit Regular, Helvetica, Arial-Unicode, Arial, Sans-serif" fill="#000000">from Noun Project</text></svg>