<svg width="150" height="150" viewBox="0 0 150 150" fill="none" xmlns="http://www.w3.org/2000/svg">
<path d="M74.9933 62.7022C75.5525 62.7022 76.1184 62.4192 76.4671 61.9324C77.9409 59.8269 90.7843 40.9501 90.7843 32.8769C90.7843 24.1721 83.6981 17.0859 74.9933 17.0859C66.2884 17.0859 59.2023 24.1721 59.2023 32.8769C59.2023 40.9501 72.0456 59.8269 73.5194 61.9324C73.8682 62.4258 74.3616 62.7022 74.9933 62.7022ZM74.9933 20.5929C81.7308 20.5929 87.2774 26.1395 87.2774 32.877C87.2774 38.1406 79.4147 51.1221 74.9933 57.7939C70.5718 51.1288 62.7091 38.1406 62.7091 32.877C62.7091 26.1395 68.2558 20.5929 74.9933 20.5929Z" fill="#663366"/>
<path d="M83.7637 32.877C83.7637 28.0344 79.8358 24.1064 74.9932 24.1064C70.1506 24.1064 66.2227 28.0344 66.2227 32.877C66.2227 37.7195 70.1506 41.6475 74.9932 41.6475C79.8358 41.6475 83.7637 37.7195 83.7637 32.877ZM69.7295 32.877C69.7295 30.0017 72.118 27.6133 74.9932 27.6133C77.8684 27.6133 80.2568 30.0017 80.2568 32.877C80.2568 35.7522 77.8684 38.1406 74.9932 38.1406C72.118 38.1406 69.7295 35.7522 69.7295 32.877Z" fill="#663366"/>
<path d="M38.9173 10.0661H14.8426C13.5069 10.0661 12.1779 10.349 11.0527 10.8359C10.4211 11.1188 10 11.7505 10 12.4479V19.817C10 20.7974 10.7698 21.5738 11.7568 21.5738H25.0212V42.135H11.7568C10.7764 42.135 10 42.9048 10 43.8918V67.3349C10 68.0389 10.4211 68.6705 11.0527 68.9469C12.1778 69.4403 13.5069 69.7167 14.7701 69.7167H38.8449C44.2467 69.7167 48.6024 65.3676 48.6024 59.9591V19.8171C48.6024 14.4154 44.2534 10.0596 38.8449 10.0596L38.9173 10.0661ZM13.586 13.7178C14.0071 13.6454 14.4282 13.5797 14.8493 13.5797H38.924C41.7336 13.5797 44.1877 15.4746 44.8918 18.0736L13.586 18.067V13.7178ZM28.6007 21.5805H45.1614V42.1416H28.6007V21.5805ZM45.168 59.9656C45.168 63.4068 42.3585 66.2096 38.924 66.2096H14.8493C14.4282 66.2096 14.0071 66.2096 13.586 66.0714V45.6484H45.168V59.9656Z" fill="#663366"/>
<path d="M34.917 61.7217C38.0028 61.7217 40.6742 59.057 40.6742 55.9645C40.6742 52.8787 38.0752 50.1416 34.917 50.1416C31.7588 50.1416 29.0941 52.7406 29.0941 55.9645C29.0941 59.1951 31.6931 61.7217 34.917 61.7217ZM34.917 53.6485C36.1079 53.6485 37.1606 54.7012 37.1606 55.9645C37.1606 57.2278 36.1078 58.2081 34.917 58.2081C33.7261 58.2081 32.601 57.1553 32.601 55.9645C32.601 54.7012 33.6537 53.6485 34.917 53.6485Z" fill="#663366"/>
<path d="M44.326 103.904L40.8849 84.9545C40.6019 82.2898 38.0753 80.25 35.062 80.25H11.8294C10.8491 80.25 10.0726 81.0198 10.0726 82.0068V89.0273C10.0726 90.0076 10.8424 90.7841 11.8294 90.7841H31.5484L34.779 103.489H11.8294C10.8491 103.489 10.0726 104.259 10.0726 105.246V125.742C10.0726 126.722 10.8424 127.498 11.8294 127.498H28.7456V134.025C28.7456 137.256 31.3446 139.921 34.5685 139.921H38.707C41.9376 139.921 44.5298 137.256 44.5298 134.025V127.077C46.9183 126.163 48.6683 123.919 48.6683 121.182V109.885C48.6683 107.075 46.8458 104.759 44.3193 103.917L44.326 103.904ZM34.5685 88.5996C34.3579 87.8298 33.6539 87.2639 32.8841 87.2639H13.5862V83.7571H35.062C36.2529 83.7571 37.3056 84.4611 37.378 85.5139L40.6743 103.483H38.3583L34.5685 88.6064V88.5996ZM41.023 134.012C41.023 135.348 39.9702 136.4 38.707 136.4H34.5685C33.2328 136.4 32.2524 135.348 32.2524 134.012V127.557H41.023V134.012ZM45.168 121.169C45.168 122.715 43.9048 123.978 42.3585 123.978L13.5861 123.972V119.34H22.2909C23.2713 119.34 24.0477 118.57 24.0477 117.583C24.0477 116.602 23.2779 115.826 22.2909 115.826H13.5861V106.983H42.7139C44.1154 107.121 45.168 108.384 45.168 109.858V121.169Z" fill="#663366"/>
<path d="M34.5684 107.621C31.3377 107.621 28.7455 110.286 28.7455 113.516C28.7455 116.747 31.3445 119.339 34.5684 119.339C37.799 119.339 40.4637 116.74 40.4637 113.516C40.4637 110.286 37.8647 107.621 34.5684 107.621ZM34.5684 115.832C33.3051 115.832 32.2523 114.78 32.2523 113.516C32.2523 112.181 33.3051 111.128 34.5684 111.128C35.8316 111.128 36.9568 112.181 36.9568 113.516C36.9568 114.852 35.9041 115.832 34.5684 115.832Z" fill="#663366"/>
<path d="M138.157 80.2502H110.155C107.417 80.2502 105.24 82.2175 104.891 84.9546L104.47 88.8169L102.081 110.01L101.733 113.378V120.609C101.733 124.82 104.753 128.117 108.753 129.031V129.38C108.753 135.203 113.458 139.907 119.28 139.907C125.103 139.907 129.808 135.203 129.808 129.38H138.157C139.138 129.38 139.914 128.61 139.914 127.623V101.167C139.914 100.325 139.355 99.6205 138.578 99.4824C137.736 99.2718 136.966 99.6929 136.611 100.397C136.328 100.956 135.769 101.311 135.065 101.311H128.044C127.064 101.311 126.288 100.542 126.288 99.5547V92.5342C126.288 91.5539 127.057 90.7774 128.044 90.7774H135.065C135.696 90.7774 136.328 91.1261 136.611 91.692C136.96 92.396 137.736 92.8171 138.578 92.6066C139.348 92.396 139.914 91.692 139.914 90.9222V82.0068C139.914 81.0265 139.144 80.2502 138.157 80.2502ZM105.806 108.463L107.773 90.7775H114.017C114.997 90.7775 115.774 91.5473 115.774 92.5343V106.641C115.774 107.621 115.004 108.398 114.017 108.398H105.806V108.463ZM119.281 136.394C115.418 136.394 112.26 133.235 112.26 129.373C112.26 128.814 112.26 128.32 112.332 127.972C113.036 124.675 115.839 122.359 119.28 122.359C122.722 122.359 125.524 124.748 126.156 128.044C126.294 128.465 126.294 128.886 126.294 129.38C126.294 133.242 123.136 136.4 119.274 136.4L119.281 136.394ZM136.4 87.4087C135.979 87.2706 135.558 87.2706 135.065 87.2706H128.044C125.097 87.2706 122.781 89.5866 122.781 92.5342V99.5547C122.781 102.502 125.097 104.818 128.044 104.818H135.065C135.486 104.818 135.979 104.818 136.4 104.68V125.873H129.169C129.031 125.452 128.748 125.169 128.61 124.748L127.979 123.485C127.557 122.925 127.136 122.432 126.643 121.938C126.36 121.655 126.084 121.307 125.728 121.024C125.097 120.53 124.465 120.254 123.761 119.899C123.412 119.761 123.129 119.55 122.781 119.405C121.728 119.057 120.537 118.774 119.339 118.774C118.149 118.774 117.023 118.984 115.971 119.405C115.622 119.543 115.339 119.688 115.056 119.826C114.352 120.175 113.655 120.53 112.951 121.017C112.668 121.228 112.457 121.511 112.181 121.787C111.622 122.346 111.056 122.912 110.635 123.544C110.424 123.893 110.286 124.175 110.075 124.524C109.865 124.945 109.582 125.228 109.444 125.649C107.055 125.156 105.305 123.05 105.305 120.524V113.503L105.443 111.891H114.076C117.024 111.753 119.267 109.437 119.267 106.555V92.4486C119.267 89.5734 116.879 87.1849 114.003 87.1849H108.181L108.391 85.29C108.529 84.3754 109.233 83.678 110.148 83.678H136.394V87.3297L136.4 87.4087Z" fill="#663366"/>
<path d="M115.839 23.0538C116.333 21.0865 118.083 19.6851 120.123 19.6851H135.072C135.914 19.6851 136.618 19.8956 137.249 20.2444C137.809 20.5931 138.44 20.5931 139.006 20.2444C139.566 19.9614 139.921 19.3298 139.921 18.6981V12.2436C139.921 11.4738 139.427 10.8422 138.73 10.5593C137.539 10.1382 136.276 10 134.802 10H120.412C116.833 10 113.326 11.4014 110.8 13.8623C110.662 13.9346 110.517 14.0004 110.451 14.1452C108.628 16.0401 107.365 18.3561 106.734 21.0208L101.753 43.6874C101.615 44.1085 101.542 44.602 101.47 45.2994C101.398 45.7929 101.398 46.4245 101.398 46.9114V57.8598C101.398 63.8932 106.313 68.8082 112.346 68.8082H138.243C139.224 68.8082 140 68.0384 140 67.0514C140 66.0711 139.23 65.2946 138.243 65.2946H116.063L116.412 64.9459C117.603 63.8208 119.077 63.1891 120.623 63.1891H134.73C135.71 63.1891 136.625 63.3997 137.329 63.8208C137.888 64.1695 138.52 64.1695 139.085 63.8208C139.645 63.5378 140 62.9062 140 62.2745V42.4107C140 41.4304 139.23 40.6539 138.243 40.6539H117.116C115.78 40.6539 114.517 40.0223 113.675 38.9696C112.833 37.9168 112.55 36.5811 112.905 35.2522L115.925 22.968L115.839 23.0538ZM104.819 47.3324H107.556C108.049 47.3324 108.326 47.5429 108.608 47.964L110.714 50.9117C111.135 51.4709 110.852 52.0368 110.714 52.2473C110.576 52.4579 110.22 52.9513 109.523 52.9513H104.753V47.2666L104.819 47.3324ZM110.859 41.2265C112.332 43.1939 114.648 44.2466 117.037 44.2466H136.407V59.8271C135.848 59.6889 135.282 59.6889 134.65 59.6889H120.544C118.155 59.6889 115.774 60.6692 113.879 62.426L111.142 65.1631C107.562 64.6038 104.825 61.5114 104.825 57.794V56.4583H109.595C111.352 56.4583 113.036 55.478 113.879 53.9318C114.721 52.3855 114.648 50.4906 113.668 48.9511L111.635 46.0034C110.793 44.602 109.319 43.7598 107.635 43.7598H105.319L110.161 21.7906C110.655 19.8956 111.563 18.2113 112.76 16.8099C112.898 16.8099 112.971 16.6717 113.043 16.5269C114.938 14.5596 117.603 13.5069 120.412 13.5069H134.802C135.361 13.5069 135.927 13.5069 136.414 13.645V16.244C135.993 16.1716 135.499 16.1058 135.078 16.1058H120.129C116.55 16.1058 113.392 18.56 112.477 22.1393L109.457 34.4234C108.826 36.7394 109.385 39.1935 110.859 41.1609L110.859 41.2265Z" fill="#663366"/>
<path d="M126.084 56.5307H129.17C131.834 56.5307 133.94 54.4252 133.94 51.7605C133.94 49.0959 131.834 46.918 129.17 46.918H126.084C123.419 46.918 121.241 49.0959 121.241 51.7605C121.241 54.4252 123.419 56.5307 126.084 56.5307ZM126.084 50.4248H129.17C129.874 50.4248 130.433 50.9841 130.433 51.7605C130.433 52.4645 129.874 53.0238 129.17 53.0238H126.084C125.38 53.0238 124.748 52.4645 124.748 51.7605C124.748 50.9907 125.307 50.4248 126.084 50.4248Z" fill="#663366"/>
<path d="M90.2908 62.1429C90.9948 62.4916 91.6922 62.7021 92.5344 62.7021C95.4096 62.7021 97.798 60.3137 97.798 57.4385C97.798 54.5632 95.4096 52.1748 92.5344 52.1748C89.6591 52.1748 87.2707 54.5632 87.2707 57.4385C87.2707 58.2807 87.4812 58.9847 87.83 59.682L75.059 72.453L62.2881 59.682C62.6369 58.978 62.8474 58.2806 62.8474 57.4385C62.8474 54.5632 60.459 52.1748 57.5837 52.1748C54.7085 52.1748 52.3201 54.5632 52.3201 57.4385C52.3201 60.3137 54.7085 62.7021 57.5837 62.7021C58.4259 62.7021 59.1299 62.4916 59.8273 62.1429L72.5982 74.9138L59.8273 87.6847C59.1233 87.336 58.4259 87.1254 57.5837 87.1254C54.7085 87.1254 52.3201 89.5139 52.3201 92.3891C52.3201 95.2643 54.7085 97.6528 57.5837 97.6528C60.459 97.6528 62.8474 95.2643 62.8474 92.3891C62.8474 91.5469 62.6369 90.8429 62.2881 90.1455L75.059 77.3746L87.83 90.1455C87.4812 90.8495 87.2707 91.547 87.2707 92.3891C87.2707 95.2643 89.6591 97.6528 92.5344 97.6528C95.4096 97.6528 97.798 95.2643 97.798 92.3891C97.798 89.5139 95.4096 87.1254 92.5344 87.1254C91.6922 87.1254 90.9882 87.336 90.2908 87.6847L77.5199 74.9138L90.2908 62.1429ZM57.4455 59.1952C56.4652 59.1952 55.6887 58.4254 55.6887 57.4384C55.6887 56.4581 56.4585 55.6816 57.4455 55.6816C58.4259 55.6816 59.2023 56.4514 59.2023 57.4384C59.2023 58.4188 58.4325 59.1952 57.4455 59.1952ZM57.4455 94.2841C56.4652 94.2841 55.6887 93.5143 55.6887 92.5273C55.6887 91.5469 56.4585 90.7705 57.4455 90.7705C58.4259 90.7705 59.2023 91.5403 59.2023 92.5273C59.2023 93.5076 58.4325 94.2841 57.4455 94.2841ZM92.5411 90.7772C93.5215 90.7772 94.2979 91.547 94.2979 92.534C94.2979 93.5144 93.5281 94.2908 92.5411 94.2908C91.5607 94.2908 90.7843 93.521 90.7843 92.534C90.7843 91.5536 91.5541 90.7772 92.5411 90.7772ZM92.5411 55.6884C93.5215 55.6884 94.2979 56.4582 94.2979 57.4452C94.2979 58.4255 93.5281 59.202 92.5411 59.202C91.5607 59.202 90.7843 58.4321 90.7843 57.4452C90.7843 56.4648 91.5541 55.6884 92.5411 55.6884Z" fill="#663366"/>
</svg>
