<svg width="150" height="150" viewBox="0 0 150 150" fill="none" xmlns="http://www.w3.org/2000/svg">
<mask id="path-1-outside-1_105_1225" maskUnits="userSpaceOnUse" x="14" y="9" width="121" height="132" fill="black">
<rect fill="white" x="14" y="9" width="121" height="132"/>
<path d="M127.596 82.1888C133.081 77.8217 135.316 70.5261 133.227 63.8343C131.132 57.1368 125.141 52.4199 118.153 51.9741C118.294 50.6594 118.362 49.3392 118.362 48.0188C118.362 35.7748 112.477 24.2866 102.555 17.1438C92.6335 10.0006 79.8844 8.08226 68.3075 11.9867C56.7307 15.8912 47.737 25.1447 44.1447 36.8413H39.2852C30.5853 36.909 22.578 41.5978 18.2476 49.1585C13.9175 56.7193 13.9175 66.018 18.2476 73.5782C22.5778 81.139 30.5851 85.8278 39.2852 85.8954H41.6052C41.577 89.1623 41.0703 92.4067 40.1073 95.5326C39.7807 96.8303 39.4372 98.1675 39.1726 99.4597L37.9338 103.951C37.5846 105.243 37.8493 106.626 38.6433 107.703C39.2739 108.567 40.2706 109.08 41.3349 109.08C41.6727 109.08 42.0106 109.057 42.3484 109.012L41.5545 112.465C41.4531 112.917 41.5601 113.391 41.8473 113.758C42.1345 114.119 42.5737 114.327 43.0354 114.327H53.0472C53.7342 114.327 54.3367 113.865 54.5168 113.199L57.7996 100.932H70.9648L67.9015 112.409C67.7776 112.866 67.8734 113.357 68.1606 113.735C68.4477 114.107 68.8926 114.327 69.3656 114.327H79.3774C80.07 114.327 80.6669 113.865 80.847 113.199L88.1503 85.8903H92.0752L90.9208 87.047C90.4873 87.4814 90.3577 88.1359 90.5886 88.7057C90.8251 89.2756 91.3826 89.648 91.9963 89.648H100.353C99.9585 101.345 94.277 112.235 84.9126 119.23C75.5483 126.227 63.5146 128.58 52.2073 125.617C40.9061 122.655 31.5589 114.705 26.812 104.007C26.4854 103.257 25.6295 102.901 24.8693 103.195C24.1091 103.488 23.7205 104.334 23.9852 105.107C29.0981 120.483 41.2042 132.513 56.5881 137.512C71.9778 142.511 88.8191 139.887 101.967 130.448C115.116 121.002 123.005 105.859 123.224 89.6538H131.361C131.98 89.6538 132.532 89.2814 132.768 88.7115C133.005 88.1416 132.875 87.4871 132.436 87.0527L127.596 82.1888ZM41.066 105.865C40.8464 105.543 40.7732 105.142 40.8633 104.764L42.1134 100.222C42.1247 100.189 42.1303 100.155 42.1359 100.121C42.3893 98.8851 42.7103 97.6212 43.0481 96.2841C44.1124 92.0975 45.2104 87.7698 44.3827 83.5324L46.911 83.9669C47.7781 89.6825 46.1057 95.3531 44.3433 101.339C43.966 102.62 43.5775 103.94 43.2059 105.278C43.02 105.966 41.8375 106.039 41.3307 106.039C41.2969 106.039 41.2012 106.04 41.066 105.865ZM50.0474 84.5086L51.1229 84.6948L51.2581 84.723C53.167 85.0785 55.0758 85.4396 56.9848 85.8064C57.8576 85.9531 58.5164 86.6866 58.5672 87.5781C58.6516 88.6727 58.7361 89.7673 58.815 90.8619H55.4194C55.1041 90.8619 54.7944 90.9635 54.5354 91.1497L49.231 94.947C50.0869 91.5389 50.3571 88.0125 50.0474 84.5086ZM51.8887 111.287H44.9514L45.796 107.603C45.8467 107.377 45.8467 107.146 45.796 106.92C45.9424 106.655 46.0607 106.373 46.1395 106.085C46.4999 104.776 46.8884 103.467 47.2601 102.203C47.3839 101.78 47.5078 101.357 47.6317 100.939H54.6591L51.8887 111.287ZM50.3346 97.8922L55.9036 93.9031H59.0401L59.2203 96.3125H59.2259C59.2653 96.8654 59.4117 97.4014 59.6539 97.8924L50.3346 97.8922ZM63.5561 97.1982C62.886 97.249 62.306 96.7468 62.2553 96.081C62.1596 94.8059 62.0639 93.5307 61.9682 92.2556V92.2161L61.94 91.8719C61.8274 90.3597 61.7091 88.8533 61.5965 87.3411V87.3468C61.4501 85.0842 59.7778 83.2165 57.5535 82.8103C55.6446 82.4436 53.7358 82.0825 51.8211 81.727L42.7384 80.1529C41.9838 80.0795 41.2969 79.6958 40.8464 79.0864C39.2923 76.9198 40.1369 71.7683 40.8802 67.2149C41.218 65.1385 41.5446 63.1693 41.6854 61.3637C41.7248 60.8503 41.5052 60.3537 41.0998 60.0378C40.6887 59.7274 40.1538 59.6372 39.6695 59.8121L36.6063 60.8841C35.3506 61.3129 34.3258 62.2383 33.7682 63.4457L29.2803 72.8064C28.9875 73.4101 28.2668 73.664 27.6642 73.3706C27.0561 73.0829 26.8027 72.355 27.0955 71.7513L32.1015 61.3016C32.7378 59.9136 33.9541 58.8754 35.4294 58.4578C38.8361 57.2616 42.468 56.8328 46.0606 57.1882C46.4379 57.2898 46.8208 57.3575 47.2149 57.3913C50.4921 58.1756 53.4596 59.9248 55.7402 62.4075C55.9767 62.6501 56.461 63.22 56.9791 63.8181C59.6988 66.9947 60.4364 67.7338 61.4331 67.7565L62.0975 67.7734C63.7474 67.8185 66.0054 67.875 67.5765 67.9483C67.7848 67.9596 67.9763 67.9596 68.1677 67.9652C68.8885 67.9765 68.9223 68.0047 69.063 68.1458V68.1514C69.2151 68.2981 69.2995 68.5013 69.2995 68.71V68.8285C69.3502 69.4943 68.8547 70.0755 68.1902 70.1263L62.2777 70.572C60.4138 70.7469 58.6063 69.9175 57.5195 68.3884L54.079 63.7165C53.7018 63.2031 53.0486 62.983 52.4405 63.1579C51.8267 63.3328 51.3875 63.8689 51.3424 64.5008L50.3176 77.6023C50.2556 78.3754 50.7906 79.075 51.5564 79.2161L59.5861 80.7283H59.5805C61.2134 81.0217 62.6156 82.0486 63.387 83.5212L63.4095 83.5664V83.5607C63.7586 84.2491 63.9557 85.0052 63.9951 85.7782C64.119 88.0804 64.2654 90.343 64.4287 92.5322V92.5491C64.5075 93.6889 64.592 94.8117 64.6765 95.9006L64.6708 95.9063C64.7215 96.5721 64.2205 97.1475 63.5561 97.1982ZM44.3089 48.7762C44.8776 47.6026 45.987 46.7957 47.2708 46.6151C48.5546 46.4346 49.8498 46.9029 50.7113 47.8734C51.5784 48.8439 51.905 50.1812 51.5841 51.4394C51.2631 52.7033 50.334 53.7189 49.1121 54.1534C48.138 54.4976 47.0681 54.4355 46.139 53.9785C44.2019 53.0475 43.3853 50.7172 44.3089 48.7762ZM72.3451 68.6488C72.3394 68.3328 72.2944 68.0169 72.2099 67.7178H79.8511L78.1 74.2516H64.9405L65.1657 73.4053L68.4316 73.157L68.426 73.1626C70.746 72.9764 72.4857 70.9679 72.3451 68.6488ZM69.5915 64.671C69.2818 64.671 68.9833 64.7612 68.7299 64.9361C68.5441 64.9249 68.3752 64.9249 68.2062 64.9192C68.0429 64.9192 67.8965 64.9192 67.7276 64.9079C66.1228 64.8289 63.8423 64.7725 62.1811 64.7274L61.9051 64.7217C61.6292 64.4735 61.1844 63.9995 60.7283 63.4861L64.5235 60.6931H81.7367L80.6725 64.6709L69.5915 64.671ZM69.3775 57.6462L71.3652 50.2209H84.5359L82.5482 57.6462H69.3775ZM59.6697 47.174L59.6641 41.1706H98.2579V47.174H59.6697ZM61.359 50.2209H68.2231L66.2354 57.6462H64.0281C63.7015 57.6462 63.3918 57.7478 63.1272 57.934L58.735 61.1727C58.6505 61.0768 58.5717 60.9809 58.4985 60.8962L61.359 50.2209ZM61.9615 73.631L61.7982 74.2516H59.6135C59.2869 74.2516 58.9715 74.3532 58.7125 74.5507L55.5704 76.8754L53.4589 76.4748L54.067 68.8012L55.0919 70.1948H55.0862C56.6742 72.4009 59.2418 73.6819 61.9559 73.631L61.9615 73.631ZM60.1484 77.7329L59.6529 77.637L60.1146 77.2928L77.2889 77.2985L76.2246 81.2876L65.6047 81.2819C64.3377 79.4143 62.3668 78.1335 60.1426 77.7329L60.1484 77.7329ZM66.8662 84.3288H75.4139L73.6628 90.8626H67.3505C67.2323 89.1473 67.1196 87.3983 67.0239 85.6096H67.0295C67.0014 85.1751 66.9507 84.7463 66.8662 84.3232L66.8662 84.3288ZM67.2603 97.8986L67.2547 97.893C67.6038 97.2046 67.7559 96.4373 67.6995 95.6699C67.6545 95.0943 67.6094 94.5019 67.57 93.9094H72.8519L71.7877 97.8985L67.2603 97.8986ZM78.2182 111.294L71.3485 111.288L74.4061 99.8791C74.4174 99.8453 74.4286 99.8058 74.4343 99.7663L76.2811 92.8601C76.298 92.8037 76.3149 92.7416 76.3262 92.6852L83.286 66.6563C83.2973 66.6225 83.3029 66.5886 83.3141 66.5491L87.6837 50.2139H94.5478L78.2182 111.294ZM88.9676 82.851L97.6956 50.2153L99.7791 50.2209C100.179 50.2209 100.567 50.0573 100.849 49.7752C101.136 49.4874 101.294 49.0981 101.294 48.6975V39.6472C101.294 39.2466 101.136 38.8572 100.849 38.5695C100.567 38.2874 100.179 38.1238 99.7791 38.1238H58.1493C57.7439 38.1238 57.3554 38.2874 57.0738 38.5695C56.7866 38.8573 56.629 39.2466 56.629 39.6472V48.6975C56.629 49.0981 56.7867 49.4874 57.0738 49.7752C57.3554 50.0573 57.7439 50.2209 58.1493 50.2209H58.2113L55.9926 58.5039H55.987C54.7932 57.5052 53.4868 56.6419 52.096 55.9423C53.988 54.4585 54.9791 52.1056 54.72 49.7188C54.461 47.3265 52.9914 45.2387 50.8291 44.2006C48.0586 42.8634 44.7476 43.5122 42.6812 45.7974C40.6202 48.0769 40.305 51.4511 41.9041 54.0748C39.4039 54.2836 36.9376 54.7745 34.5444 55.5362C32.2583 56.202 30.3663 57.8213 29.3526 59.9823L24.3466 70.4264H24.3523C23.3331 72.548 24.2228 75.0926 26.3344 76.1082C28.4517 77.1295 30.9912 76.238 32.0104 74.1221L36.5039 64.7445C36.7179 64.2705 37.1176 63.9094 37.6132 63.7514L38.3902 63.4806C38.2438 64.5131 38.0693 65.5964 37.8835 66.7193C36.9994 72.1078 36.0872 77.6767 38.3846 80.8648H38.379C39.0378 81.7845 39.9613 82.4785 41.0255 82.8452H39.2856C31.6668 82.7832 24.657 78.6756 20.8672 72.057C17.0776 65.4329 17.0776 57.2962 20.8672 50.6778C24.6568 44.0537 31.6674 39.946 39.2856 39.8839H45.2882C45.9695 39.8839 46.572 39.4269 46.7522 38.7611C49.7591 27.7866 57.9128 18.9621 68.6057 15.1083C79.2989 11.2545 91.1915 12.857 100.488 19.4078C109.785 25.9529 115.32 36.6227 115.325 48.0093C115.32 49.7583 115.19 51.5019 114.937 53.2285C114.875 53.6686 115.004 54.1087 115.292 54.4472C115.579 54.7801 116.001 54.972 116.44 54.972H117.06C123.034 54.9663 128.344 58.7918 130.242 64.468C132.139 70.1442 130.202 76.4016 125.433 80.0073L112.763 67.312H112.758C112.476 67.0242 112.088 66.8606 111.688 66.8606C111.282 66.8606 110.894 67.0242 110.612 67.312L95.1102 82.8513L88.9676 82.851ZM121.718 86.6089H121.712C121.301 86.6089 120.912 86.7725 120.625 87.0659C120.338 87.3593 120.18 87.7599 120.192 88.1662C120.197 88.4314 120.197 88.7078 120.197 88.9787H120.203C120.192 101.877 115.005 114.228 105.81 123.251C96.6148 132.279 84.1815 137.21 71.3087 136.951C58.442 136.685 46.2233 131.246 37.3998 121.852C45.6773 127.946 55.9205 130.75 66.1452 129.706C76.3653 128.668 85.8364 123.866 92.724 116.226C99.6106 108.587 103.423 98.6563 103.423 88.3589V88.1219V88.1275C103.423 87.2812 102.741 86.6041 101.902 86.6041H95.669L111.683 70.552L127.703 86.6041L121.718 86.6089Z"/>
</mask>
<path d="M127.596 82.1888C133.081 77.8217 135.316 70.5261 133.227 63.8343C131.132 57.1368 125.141 52.4199 118.153 51.9741C118.294 50.6594 118.362 49.3392 118.362 48.0188C118.362 35.7748 112.477 24.2866 102.555 17.1438C92.6335 10.0006 79.8844 8.08226 68.3075 11.9867C56.7307 15.8912 47.737 25.1447 44.1447 36.8413H39.2852C30.5853 36.909 22.578 41.5978 18.2476 49.1585C13.9175 56.7193 13.9175 66.018 18.2476 73.5782C22.5778 81.139 30.5851 85.8278 39.2852 85.8954H41.6052C41.577 89.1623 41.0703 92.4067 40.1073 95.5326C39.7807 96.8303 39.4372 98.1675 39.1726 99.4597L37.9338 103.951C37.5846 105.243 37.8493 106.626 38.6433 107.703C39.2739 108.567 40.2706 109.08 41.3349 109.08C41.6727 109.08 42.0106 109.057 42.3484 109.012L41.5545 112.465C41.4531 112.917 41.5601 113.391 41.8473 113.758C42.1345 114.119 42.5737 114.327 43.0354 114.327H53.0472C53.7342 114.327 54.3367 113.865 54.5168 113.199L57.7996 100.932H70.9648L67.9015 112.409C67.7776 112.866 67.8734 113.357 68.1606 113.735C68.4477 114.107 68.8926 114.327 69.3656 114.327H79.3774C80.07 114.327 80.6669 113.865 80.847 113.199L88.1503 85.8903H92.0752L90.9208 87.047C90.4873 87.4814 90.3577 88.1359 90.5886 88.7057C90.8251 89.2756 91.3826 89.648 91.9963 89.648H100.353C99.9585 101.345 94.277 112.235 84.9126 119.23C75.5483 126.227 63.5146 128.58 52.2073 125.617C40.9061 122.655 31.5589 114.705 26.812 104.007C26.4854 103.257 25.6295 102.901 24.8693 103.195C24.1091 103.488 23.7205 104.334 23.9852 105.107C29.0981 120.483 41.2042 132.513 56.5881 137.512C71.9778 142.511 88.8191 139.887 101.967 130.448C115.116 121.002 123.005 105.859 123.224 89.6538H131.361C131.98 89.6538 132.532 89.2814 132.768 88.7115C133.005 88.1416 132.875 87.4871 132.436 87.0527L127.596 82.1888ZM41.066 105.865C40.8464 105.543 40.7732 105.142 40.8633 104.764L42.1134 100.222C42.1247 100.189 42.1303 100.155 42.1359 100.121C42.3893 98.8851 42.7103 97.6212 43.0481 96.2841C44.1124 92.0975 45.2104 87.7698 44.3827 83.5324L46.911 83.9669C47.7781 89.6825 46.1057 95.3531 44.3433 101.339C43.966 102.62 43.5775 103.94 43.2059 105.278C43.02 105.966 41.8375 106.039 41.3307 106.039C41.2969 106.039 41.2012 106.04 41.066 105.865ZM50.0474 84.5086L51.1229 84.6948L51.2581 84.723C53.167 85.0785 55.0758 85.4396 56.9848 85.8064C57.8576 85.9531 58.5164 86.6866 58.5672 87.5781C58.6516 88.6727 58.7361 89.7673 58.815 90.8619H55.4194C55.1041 90.8619 54.7944 90.9635 54.5354 91.1497L49.231 94.947C50.0869 91.5389 50.3571 88.0125 50.0474 84.5086ZM51.8887 111.287H44.9514L45.796 107.603C45.8467 107.377 45.8467 107.146 45.796 106.92C45.9424 106.655 46.0607 106.373 46.1395 106.085C46.4999 104.776 46.8884 103.467 47.2601 102.203C47.3839 101.78 47.5078 101.357 47.6317 100.939H54.6591L51.8887 111.287ZM50.3346 97.8922L55.9036 93.9031H59.0401L59.2203 96.3125H59.2259C59.2653 96.8654 59.4117 97.4014 59.6539 97.8924L50.3346 97.8922ZM63.5561 97.1982C62.886 97.249 62.306 96.7468 62.2553 96.081C62.1596 94.8059 62.0639 93.5307 61.9682 92.2556V92.2161L61.94 91.8719C61.8274 90.3597 61.7091 88.8533 61.5965 87.3411V87.3468C61.4501 85.0842 59.7778 83.2165 57.5535 82.8103C55.6446 82.4436 53.7358 82.0825 51.8211 81.727L42.7384 80.1529C41.9838 80.0795 41.2969 79.6958 40.8464 79.0864C39.2923 76.9198 40.1369 71.7683 40.8802 67.2149C41.218 65.1385 41.5446 63.1693 41.6854 61.3637C41.7248 60.8503 41.5052 60.3537 41.0998 60.0378C40.6887 59.7274 40.1538 59.6372 39.6695 59.8121L36.6063 60.8841C35.3506 61.3129 34.3258 62.2383 33.7682 63.4457L29.2803 72.8064C28.9875 73.4101 28.2668 73.664 27.6642 73.3706C27.0561 73.0829 26.8027 72.355 27.0955 71.7513L32.1015 61.3016C32.7378 59.9136 33.9541 58.8754 35.4294 58.4578C38.8361 57.2616 42.468 56.8328 46.0606 57.1882C46.4379 57.2898 46.8208 57.3575 47.2149 57.3913C50.4921 58.1756 53.4596 59.9248 55.7402 62.4075C55.9767 62.6501 56.461 63.22 56.9791 63.8181C59.6988 66.9947 60.4364 67.7338 61.4331 67.7565L62.0975 67.7734C63.7474 67.8185 66.0054 67.875 67.5765 67.9483C67.7848 67.9596 67.9763 67.9596 68.1677 67.9652C68.8885 67.9765 68.9223 68.0047 69.063 68.1458V68.1514C69.2151 68.2981 69.2995 68.5013 69.2995 68.71V68.8285C69.3502 69.4943 68.8547 70.0755 68.1902 70.1263L62.2777 70.572C60.4138 70.7469 58.6063 69.9175 57.5195 68.3884L54.079 63.7165C53.7018 63.2031 53.0486 62.983 52.4405 63.1579C51.8267 63.3328 51.3875 63.8689 51.3424 64.5008L50.3176 77.6023C50.2556 78.3754 50.7906 79.075 51.5564 79.2161L59.5861 80.7283H59.5805C61.2134 81.0217 62.6156 82.0486 63.387 83.5212L63.4095 83.5664V83.5607C63.7586 84.2491 63.9557 85.0052 63.9951 85.7782C64.119 88.0804 64.2654 90.343 64.4287 92.5322V92.5491C64.5075 93.6889 64.592 94.8117 64.6765 95.9006L64.6708 95.9063C64.7215 96.5721 64.2205 97.1475 63.5561 97.1982ZM44.3089 48.7762C44.8776 47.6026 45.987 46.7957 47.2708 46.6151C48.5546 46.4346 49.8498 46.9029 50.7113 47.8734C51.5784 48.8439 51.905 50.1812 51.5841 51.4394C51.2631 52.7033 50.334 53.7189 49.1121 54.1534C48.138 54.4976 47.0681 54.4355 46.139 53.9785C44.2019 53.0475 43.3853 50.7172 44.3089 48.7762ZM72.3451 68.6488C72.3394 68.3328 72.2944 68.0169 72.2099 67.7178H79.8511L78.1 74.2516H64.9405L65.1657 73.4053L68.4316 73.157L68.426 73.1626C70.746 72.9764 72.4857 70.9679 72.3451 68.6488ZM69.5915 64.671C69.2818 64.671 68.9833 64.7612 68.7299 64.9361C68.5441 64.9249 68.3752 64.9249 68.2062 64.9192C68.0429 64.9192 67.8965 64.9192 67.7276 64.9079C66.1228 64.8289 63.8423 64.7725 62.1811 64.7274L61.9051 64.7217C61.6292 64.4735 61.1844 63.9995 60.7283 63.4861L64.5235 60.6931H81.7367L80.6725 64.6709L69.5915 64.671ZM69.3775 57.6462L71.3652 50.2209H84.5359L82.5482 57.6462H69.3775ZM59.6697 47.174L59.6641 41.1706H98.2579V47.174H59.6697ZM61.359 50.2209H68.2231L66.2354 57.6462H64.0281C63.7015 57.6462 63.3918 57.7478 63.1272 57.934L58.735 61.1727C58.6505 61.0768 58.5717 60.9809 58.4985 60.8962L61.359 50.2209ZM61.9615 73.631L61.7982 74.2516H59.6135C59.2869 74.2516 58.9715 74.3532 58.7125 74.5507L55.5704 76.8754L53.4589 76.4748L54.067 68.8012L55.0919 70.1948H55.0862C56.6742 72.4009 59.2418 73.6819 61.9559 73.631L61.9615 73.631ZM60.1484 77.7329L59.6529 77.637L60.1146 77.2928L77.2889 77.2985L76.2246 81.2876L65.6047 81.2819C64.3377 79.4143 62.3668 78.1335 60.1426 77.7329L60.1484 77.7329ZM66.8662 84.3288H75.4139L73.6628 90.8626H67.3505C67.2323 89.1473 67.1196 87.3983 67.0239 85.6096H67.0295C67.0014 85.1751 66.9507 84.7463 66.8662 84.3232L66.8662 84.3288ZM67.2603 97.8986L67.2547 97.893C67.6038 97.2046 67.7559 96.4373 67.6995 95.6699C67.6545 95.0943 67.6094 94.5019 67.57 93.9094H72.8519L71.7877 97.8985L67.2603 97.8986ZM78.2182 111.294L71.3485 111.288L74.4061 99.8791C74.4174 99.8453 74.4286 99.8058 74.4343 99.7663L76.2811 92.8601C76.298 92.8037 76.3149 92.7416 76.3262 92.6852L83.286 66.6563C83.2973 66.6225 83.3029 66.5886 83.3141 66.5491L87.6837 50.2139H94.5478L78.2182 111.294ZM88.9676 82.851L97.6956 50.2153L99.7791 50.2209C100.179 50.2209 100.567 50.0573 100.849 49.7752C101.136 49.4874 101.294 49.0981 101.294 48.6975V39.6472C101.294 39.2466 101.136 38.8572 100.849 38.5695C100.567 38.2874 100.179 38.1238 99.7791 38.1238H58.1493C57.7439 38.1238 57.3554 38.2874 57.0738 38.5695C56.7866 38.8573 56.629 39.2466 56.629 39.6472V48.6975C56.629 49.0981 56.7867 49.4874 57.0738 49.7752C57.3554 50.0573 57.7439 50.2209 58.1493 50.2209H58.2113L55.9926 58.5039H55.987C54.7932 57.5052 53.4868 56.6419 52.096 55.9423C53.988 54.4585 54.9791 52.1056 54.72 49.7188C54.461 47.3265 52.9914 45.2387 50.8291 44.2006C48.0586 42.8634 44.7476 43.5122 42.6812 45.7974C40.6202 48.0769 40.305 51.4511 41.9041 54.0748C39.4039 54.2836 36.9376 54.7745 34.5444 55.5362C32.2583 56.202 30.3663 57.8213 29.3526 59.9823L24.3466 70.4264H24.3523C23.3331 72.548 24.2228 75.0926 26.3344 76.1082C28.4517 77.1295 30.9912 76.238 32.0104 74.1221L36.5039 64.7445C36.7179 64.2705 37.1176 63.9094 37.6132 63.7514L38.3902 63.4806C38.2438 64.5131 38.0693 65.5964 37.8835 66.7193C36.9994 72.1078 36.0872 77.6767 38.3846 80.8648H38.379C39.0378 81.7845 39.9613 82.4785 41.0255 82.8452H39.2856C31.6668 82.7832 24.657 78.6756 20.8672 72.057C17.0776 65.4329 17.0776 57.2962 20.8672 50.6778C24.6568 44.0537 31.6674 39.946 39.2856 39.8839H45.2882C45.9695 39.8839 46.572 39.4269 46.7522 38.7611C49.7591 27.7866 57.9128 18.9621 68.6057 15.1083C79.2989 11.2545 91.1915 12.857 100.488 19.4078C109.785 25.9529 115.32 36.6227 115.325 48.0093C115.32 49.7583 115.19 51.5019 114.937 53.2285C114.875 53.6686 115.004 54.1087 115.292 54.4472C115.579 54.7801 116.001 54.972 116.44 54.972H117.06C123.034 54.9663 128.344 58.7918 130.242 64.468C132.139 70.1442 130.202 76.4016 125.433 80.0073L112.763 67.312H112.758C112.476 67.0242 112.088 66.8606 111.688 66.8606C111.282 66.8606 110.894 67.0242 110.612 67.312L95.1102 82.8513L88.9676 82.851ZM121.718 86.6089H121.712C121.301 86.6089 120.912 86.7725 120.625 87.0659C120.338 87.3593 120.18 87.7599 120.192 88.1662C120.197 88.4314 120.197 88.7078 120.197 88.9787H120.203C120.192 101.877 115.005 114.228 105.81 123.251C96.6148 132.279 84.1815 137.21 71.3087 136.951C58.442 136.685 46.2233 131.246 37.3998 121.852C45.6773 127.946 55.9205 130.75 66.1452 129.706C76.3653 128.668 85.8364 123.866 92.724 116.226C99.6106 108.587 103.423 98.6563 103.423 88.3589V88.1219V88.1275C103.423 87.2812 102.741 86.6041 101.902 86.6041H95.669L111.683 70.552L127.703 86.6041L121.718 86.6089Z" fill="#663366"/>
<path d="M127.596 82.1888C133.081 77.8217 135.316 70.5261 133.227 63.8343C131.132 57.1368 125.141 52.4199 118.153 51.9741C118.294 50.6594 118.362 49.3392 118.362 48.0188C118.362 35.7748 112.477 24.2866 102.555 17.1438C92.6335 10.0006 79.8844 8.08226 68.3075 11.9867C56.7307 15.8912 47.737 25.1447 44.1447 36.8413H39.2852C30.5853 36.909 22.578 41.5978 18.2476 49.1585C13.9175 56.7193 13.9175 66.018 18.2476 73.5782C22.5778 81.139 30.5851 85.8278 39.2852 85.8954H41.6052C41.577 89.1623 41.0703 92.4067 40.1073 95.5326C39.7807 96.8303 39.4372 98.1675 39.1726 99.4597L37.9338 103.951C37.5846 105.243 37.8493 106.626 38.6433 107.703C39.2739 108.567 40.2706 109.08 41.3349 109.08C41.6727 109.08 42.0106 109.057 42.3484 109.012L41.5545 112.465C41.4531 112.917 41.5601 113.391 41.8473 113.758C42.1345 114.119 42.5737 114.327 43.0354 114.327H53.0472C53.7342 114.327 54.3367 113.865 54.5168 113.199L57.7996 100.932H70.9648L67.9015 112.409C67.7776 112.866 67.8734 113.357 68.1606 113.735C68.4477 114.107 68.8926 114.327 69.3656 114.327H79.3774C80.07 114.327 80.6669 113.865 80.847 113.199L88.1503 85.8903H92.0752L90.9208 87.047C90.4873 87.4814 90.3577 88.1359 90.5886 88.7057C90.8251 89.2756 91.3826 89.648 91.9963 89.648H100.353C99.9585 101.345 94.277 112.235 84.9126 119.23C75.5483 126.227 63.5146 128.58 52.2073 125.617C40.9061 122.655 31.5589 114.705 26.812 104.007C26.4854 103.257 25.6295 102.901 24.8693 103.195C24.1091 103.488 23.7205 104.334 23.9852 105.107C29.0981 120.483 41.2042 132.513 56.5881 137.512C71.9778 142.511 88.8191 139.887 101.967 130.448C115.116 121.002 123.005 105.859 123.224 89.6538H131.361C131.98 89.6538 132.532 89.2814 132.768 88.7115C133.005 88.1416 132.875 87.4871 132.436 87.0527L127.596 82.1888ZM41.066 105.865C40.8464 105.543 40.7732 105.142 40.8633 104.764L42.1134 100.222C42.1247 100.189 42.1303 100.155 42.1359 100.121C42.3893 98.8851 42.7103 97.6212 43.0481 96.2841C44.1124 92.0975 45.2104 87.7698 44.3827 83.5324L46.911 83.9669C47.7781 89.6825 46.1057 95.3531 44.3433 101.339C43.966 102.62 43.5775 103.94 43.2059 105.278C43.02 105.966 41.8375 106.039 41.3307 106.039C41.2969 106.039 41.2012 106.04 41.066 105.865ZM50.0474 84.5086L51.1229 84.6948L51.2581 84.723C53.167 85.0785 55.0758 85.4396 56.9848 85.8064C57.8576 85.9531 58.5164 86.6866 58.5672 87.5781C58.6516 88.6727 58.7361 89.7673 58.815 90.8619H55.4194C55.1041 90.8619 54.7944 90.9635 54.5354 91.1497L49.231 94.947C50.0869 91.5389 50.3571 88.0125 50.0474 84.5086ZM51.8887 111.287H44.9514L45.796 107.603C45.8467 107.377 45.8467 107.146 45.796 106.92C45.9424 106.655 46.0607 106.373 46.1395 106.085C46.4999 104.776 46.8884 103.467 47.2601 102.203C47.3839 101.78 47.5078 101.357 47.6317 100.939H54.6591L51.8887 111.287ZM50.3346 97.8922L55.9036 93.9031H59.0401L59.2203 96.3125H59.2259C59.2653 96.8654 59.4117 97.4014 59.6539 97.8924L50.3346 97.8922ZM63.5561 97.1982C62.886 97.249 62.306 96.7468 62.2553 96.081C62.1596 94.8059 62.0639 93.5307 61.9682 92.2556V92.2161L61.94 91.8719C61.8274 90.3597 61.7091 88.8533 61.5965 87.3411V87.3468C61.4501 85.0842 59.7778 83.2165 57.5535 82.8103C55.6446 82.4436 53.7358 82.0825 51.8211 81.727L42.7384 80.1529C41.9838 80.0795 41.2969 79.6958 40.8464 79.0864C39.2923 76.9198 40.1369 71.7683 40.8802 67.2149C41.218 65.1385 41.5446 63.1693 41.6854 61.3637C41.7248 60.8503 41.5052 60.3537 41.0998 60.0378C40.6887 59.7274 40.1538 59.6372 39.6695 59.8121L36.6063 60.8841C35.3506 61.3129 34.3258 62.2383 33.7682 63.4457L29.2803 72.8064C28.9875 73.4101 28.2668 73.664 27.6642 73.3706C27.0561 73.0829 26.8027 72.355 27.0955 71.7513L32.1015 61.3016C32.7378 59.9136 33.9541 58.8754 35.4294 58.4578C38.8361 57.2616 42.468 56.8328 46.0606 57.1882C46.4379 57.2898 46.8208 57.3575 47.2149 57.3913C50.4921 58.1756 53.4596 59.9248 55.7402 62.4075C55.9767 62.6501 56.461 63.22 56.9791 63.8181C59.6988 66.9947 60.4364 67.7338 61.4331 67.7565L62.0975 67.7734C63.7474 67.8185 66.0054 67.875 67.5765 67.9483C67.7848 67.9596 67.9763 67.9596 68.1677 67.9652C68.8885 67.9765 68.9223 68.0047 69.063 68.1458V68.1514C69.2151 68.2981 69.2995 68.5013 69.2995 68.71V68.8285C69.3502 69.4943 68.8547 70.0755 68.1902 70.1263L62.2777 70.572C60.4138 70.7469 58.6063 69.9175 57.5195 68.3884L54.079 63.7165C53.7018 63.2031 53.0486 62.983 52.4405 63.1579C51.8267 63.3328 51.3875 63.8689 51.3424 64.5008L50.3176 77.6023C50.2556 78.3754 50.7906 79.075 51.5564 79.2161L59.5861 80.7283H59.5805C61.2134 81.0217 62.6156 82.0486 63.387 83.5212L63.4095 83.5664V83.5607C63.7586 84.2491 63.9557 85.0052 63.9951 85.7782C64.119 88.0804 64.2654 90.343 64.4287 92.5322V92.5491C64.5075 93.6889 64.592 94.8117 64.6765 95.9006L64.6708 95.9063C64.7215 96.5721 64.2205 97.1475 63.5561 97.1982ZM44.3089 48.7762C44.8776 47.6026 45.987 46.7957 47.2708 46.6151C48.5546 46.4346 49.8498 46.9029 50.7113 47.8734C51.5784 48.8439 51.905 50.1812 51.5841 51.4394C51.2631 52.7033 50.334 53.7189 49.1121 54.1534C48.138 54.4976 47.0681 54.4355 46.139 53.9785C44.2019 53.0475 43.3853 50.7172 44.3089 48.7762ZM72.3451 68.6488C72.3394 68.3328 72.2944 68.0169 72.2099 67.7178H79.8511L78.1 74.2516H64.9405L65.1657 73.4053L68.4316 73.157L68.426 73.1626C70.746 72.9764 72.4857 70.9679 72.3451 68.6488ZM69.5915 64.671C69.2818 64.671 68.9833 64.7612 68.7299 64.9361C68.5441 64.9249 68.3752 64.9249 68.2062 64.9192C68.0429 64.9192 67.8965 64.9192 67.7276 64.9079C66.1228 64.8289 63.8423 64.7725 62.1811 64.7274L61.9051 64.7217C61.6292 64.4735 61.1844 63.9995 60.7283 63.4861L64.5235 60.6931H81.7367L80.6725 64.6709L69.5915 64.671ZM69.3775 57.6462L71.3652 50.2209H84.5359L82.5482 57.6462H69.3775ZM59.6697 47.174L59.6641 41.1706H98.2579V47.174H59.6697ZM61.359 50.2209H68.2231L66.2354 57.6462H64.0281C63.7015 57.6462 63.3918 57.7478 63.1272 57.934L58.735 61.1727C58.6505 61.0768 58.5717 60.9809 58.4985 60.8962L61.359 50.2209ZM61.9615 73.631L61.7982 74.2516H59.6135C59.2869 74.2516 58.9715 74.3532 58.7125 74.5507L55.5704 76.8754L53.4589 76.4748L54.067 68.8012L55.0919 70.1948H55.0862C56.6742 72.4009 59.2418 73.6819 61.9559 73.631L61.9615 73.631ZM60.1484 77.7329L59.6529 77.637L60.1146 77.2928L77.2889 77.2985L76.2246 81.2876L65.6047 81.2819C64.3377 79.4143 62.3668 78.1335 60.1426 77.7329L60.1484 77.7329ZM66.8662 84.3288H75.4139L73.6628 90.8626H67.3505C67.2323 89.1473 67.1196 87.3983 67.0239 85.6096H67.0295C67.0014 85.1751 66.9507 84.7463 66.8662 84.3232L66.8662 84.3288ZM67.2603 97.8986L67.2547 97.893C67.6038 97.2046 67.7559 96.4373 67.6995 95.6699C67.6545 95.0943 67.6094 94.5019 67.57 93.9094H72.8519L71.7877 97.8985L67.2603 97.8986ZM78.2182 111.294L71.3485 111.288L74.4061 99.8791C74.4174 99.8453 74.4286 99.8058 74.4343 99.7663L76.2811 92.8601C76.298 92.8037 76.3149 92.7416 76.3262 92.6852L83.286 66.6563C83.2973 66.6225 83.3029 66.5886 83.3141 66.5491L87.6837 50.2139H94.5478L78.2182 111.294ZM88.9676 82.851L97.6956 50.2153L99.7791 50.2209C100.179 50.2209 100.567 50.0573 100.849 49.7752C101.136 49.4874 101.294 49.0981 101.294 48.6975V39.6472C101.294 39.2466 101.136 38.8572 100.849 38.5695C100.567 38.2874 100.179 38.1238 99.7791 38.1238H58.1493C57.7439 38.1238 57.3554 38.2874 57.0738 38.5695C56.7866 38.8573 56.629 39.2466 56.629 39.6472V48.6975C56.629 49.0981 56.7867 49.4874 57.0738 49.7752C57.3554 50.0573 57.7439 50.2209 58.1493 50.2209H58.2113L55.9926 58.5039H55.987C54.7932 57.5052 53.4868 56.6419 52.096 55.9423C53.988 54.4585 54.9791 52.1056 54.72 49.7188C54.461 47.3265 52.9914 45.2387 50.8291 44.2006C48.0586 42.8634 44.7476 43.5122 42.6812 45.7974C40.6202 48.0769 40.305 51.4511 41.9041 54.0748C39.4039 54.2836 36.9376 54.7745 34.5444 55.5362C32.2583 56.202 30.3663 57.8213 29.3526 59.9823L24.3466 70.4264H24.3523C23.3331 72.548 24.2228 75.0926 26.3344 76.1082C28.4517 77.1295 30.9912 76.238 32.0104 74.1221L36.5039 64.7445C36.7179 64.2705 37.1176 63.9094 37.6132 63.7514L38.3902 63.4806C38.2438 64.5131 38.0693 65.5964 37.8835 66.7193C36.9994 72.1078 36.0872 77.6767 38.3846 80.8648H38.379C39.0378 81.7845 39.9613 82.4785 41.0255 82.8452H39.2856C31.6668 82.7832 24.657 78.6756 20.8672 72.057C17.0776 65.4329 17.0776 57.2962 20.8672 50.6778C24.6568 44.0537 31.6674 39.946 39.2856 39.8839H45.2882C45.9695 39.8839 46.572 39.4269 46.7522 38.7611C49.7591 27.7866 57.9128 18.9621 68.6057 15.1083C79.2989 11.2545 91.1915 12.857 100.488 19.4078C109.785 25.9529 115.32 36.6227 115.325 48.0093C115.32 49.7583 115.19 51.5019 114.937 53.2285C114.875 53.6686 115.004 54.1087 115.292 54.4472C115.579 54.7801 116.001 54.972 116.44 54.972H117.06C123.034 54.9663 128.344 58.7918 130.242 64.468C132.139 70.1442 130.202 76.4016 125.433 80.0073L112.763 67.312H112.758C112.476 67.0242 112.088 66.8606 111.688 66.8606C111.282 66.8606 110.894 67.0242 110.612 67.312L95.1102 82.8513L88.9676 82.851ZM121.718 86.6089H121.712C121.301 86.6089 120.912 86.7725 120.625 87.0659C120.338 87.3593 120.18 87.7599 120.192 88.1662C120.197 88.4314 120.197 88.7078 120.197 88.9787H120.203C120.192 101.877 115.005 114.228 105.81 123.251C96.6148 132.279 84.1815 137.21 71.3087 136.951C58.442 136.685 46.2233 131.246 37.3998 121.852C45.6773 127.946 55.9205 130.75 66.1452 129.706C76.3653 128.668 85.8364 123.866 92.724 116.226C99.6106 108.587 103.423 98.6563 103.423 88.3589V88.1219V88.1275C103.423 87.2812 102.741 86.6041 101.902 86.6041H95.669L111.683 70.552L127.703 86.6041L121.718 86.6089Z" stroke="#663366" stroke-width="0.6" mask="url(#path-1-outside-1_105_1225)"/>
</svg>
