<svg width="150" height="150" viewBox="0 0 150 150" fill="none" xmlns="http://www.w3.org/2000/svg">
<path d="M124.978 83.9451L74.5619 33.8907C73.1108 35.3375 31.1407 77.1789 25.0772 83.2222C21.6394 86.6644 16.05 86.6792 12.5898 83.2194C9.1367 79.7664 9.1367 74.1818 12.59 70.729L72.7613 10.7438C73.7546 9.75326 75.3618 9.75199 76.3571 10.7405C94.1393 28.4018 108.652 42.8167 137.348 71.3193C141.089 74.9666 140.851 81.1326 136.748 84.4786C133.395 87.2132 128.393 87.2206 124.978 83.9451ZM128.559 80.3169C129.923 81.6358 132.056 81.7275 133.525 80.528L133.526 80.5277C135.257 79.1166 135.377 76.5179 133.772 74.9529C114.037 55.3499 94.3004 35.7473 74.5639 16.1451C55.1064 35.5422 35.6492 54.9394 16.192 74.3368C14.7534 75.7749 14.7169 78.1371 16.1945 79.6147C17.6538 81.0735 20.0154 81.0765 21.4747 79.6157C26.7361 74.3717 71.1618 30.0821 72.7585 28.49C73.7518 27.4997 75.3587 27.4982 76.3541 28.4862L128.559 80.3169Z" fill="#663366"/>
<path d="M27.8461 129.802C26.4386 129.802 25.2972 128.661 25.2972 127.253V76.8651C25.2972 75.4575 26.4386 74.3161 27.8461 74.3161C29.2537 74.3161 30.3951 75.4575 30.3951 76.8651V127.253C30.3951 128.661 29.2539 129.802 27.8461 129.802ZM122.158 129.802C120.75 129.802 119.609 128.661 119.609 127.253V77.5533C119.609 76.1457 120.75 75.0043 122.158 75.0043C123.566 75.0043 124.707 76.1457 124.707 77.5533V127.253C124.707 128.661 123.566 129.802 122.158 129.802ZM22.7482 66.7505C21.3406 66.7505 20.1992 65.6091 20.1992 64.2015V36.7647C20.1992 31.8454 24.2014 27.8433 29.1206 27.8433C34.0399 27.8433 38.042 31.8454 38.042 36.7647V51.4952C38.042 52.903 36.9006 54.0441 35.493 54.0441C34.0855 54.0441 32.9441 52.903 32.9441 51.4952V36.7647C32.9441 34.6564 31.2289 32.9412 29.1206 32.9412C27.0124 32.9412 25.2972 34.6564 25.2972 36.7647V64.2018C25.2972 65.6093 24.156 66.7505 22.7482 66.7505Z" fill="#663366"/>
<path d="M132.353 139.998H17.6489C13.4324 139.998 10.002 136.567 10.002 132.351C10.002 128.134 13.4324 124.704 17.6489 124.704H132.353C136.569 124.704 139.999 128.134 139.999 132.351C139.999 136.567 136.569 139.998 132.353 139.998ZM17.6489 129.802C16.2434 129.802 15.0999 130.945 15.0999 132.351C15.0999 133.756 16.2434 134.9 17.6489 134.9H132.353C133.758 134.9 134.902 133.756 134.902 132.351C134.902 130.945 133.758 129.802 132.353 129.802H17.6489ZM80.4216 115.083C79.7741 115.062 79.1588 114.795 78.7007 114.337C78.2427 113.879 77.9762 113.264 77.9555 112.616C77.7092 104.944 80.6793 97.4317 86.104 92.0075C91.5328 86.5792 99.1262 83.6109 106.933 83.8589C107.58 83.8797 108.195 84.1461 108.654 84.6042C109.112 85.0623 109.378 85.6776 109.399 86.3251C109.64 93.8629 106.59 101.375 101.031 106.934C95.6252 112.339 88.1208 115.329 80.4216 115.083ZM104.233 89.0101C92.8402 89.8776 83.9512 98.7605 83.1049 109.933C88.5154 109.523 93.5271 107.228 97.4255 103.329C101.366 99.3885 103.773 94.2789 104.233 89.0101ZM48.9711 106.934C43.4116 101.374 40.3617 93.8629 40.6031 86.3251C40.6238 85.6776 40.8903 85.0623 41.3484 84.6042C41.8065 84.1461 42.4218 83.8797 43.0692 83.8589C50.8783 83.6081 58.4694 86.5787 63.8979 92.0075C69.3221 97.4317 72.2922 104.944 72.0465 112.616C72.0257 113.264 71.7593 113.879 71.3012 114.337C70.8431 114.795 70.2278 115.062 69.5803 115.083C61.925 115.328 54.4076 112.37 48.9711 106.934ZM45.7686 89.0101C46.2287 94.2789 48.6354 99.3885 52.5761 103.329C56.4743 107.227 61.4868 109.523 66.8968 109.933C66.0505 98.7623 57.1645 89.8783 45.7686 89.0101Z" fill="#663366"/>
<path d="M80.6082 129.802C79.2007 129.802 78.0592 128.661 78.0592 127.253V85.2955C78.0592 83.6744 76.6216 82.3553 75.0005 82.3553C73.3793 82.3553 71.9417 83.6744 71.9417 85.2955V127.253C71.9417 128.661 70.8005 129.802 69.3927 129.802C67.9852 129.802 66.8438 128.661 66.8438 127.253V85.2955C66.8438 80.8631 70.5683 77.2573 75.0005 77.2573C79.4329 77.2573 83.1572 80.8631 83.1572 85.2955V127.253C83.1572 128.66 82.016 129.802 80.6082 129.802Z" fill="#663366"/>
</svg>
