<svg width="150" height="150" viewBox="0 0 150 150" fill="none" xmlns="http://www.w3.org/2000/svg">
<path d="M126.844 64.2157C122.097 64.6832 109.028 59.5804 104.391 57.5742C104.226 57.5026 104.048 57.4656 103.868 57.4656H90.6335L90.5634 54.5874C92.6397 53.3927 94.635 51.2524 96.5047 48.2107C98.2968 45.2967 99.9448 41.5748 101.274 37.4468C103.859 29.4148 104.872 20.9888 103.792 16.4821C102.959 13.0053 101.502 10.8998 99.4617 10.2238C96.822 9.34878 94.4253 11.3165 94.3246 11.3992C94.1658 11.5317 94.0405 11.6998 93.9587 11.8898C93.8769 12.0797 93.841 12.2863 93.8539 12.4927C94.2561 18.9592 92.9691 28.8147 85.2286 40.5346C85.7281 35.0076 86.0999 26.0985 84.3268 19.1479C83.2409 14.891 81.462 12.299 79.0397 11.4437C76.2318 10.4517 73.7747 12.2536 73.6716 12.3311C73.4894 12.4675 73.3455 12.6487 73.2541 12.8572C73.1627 13.0657 73.1269 13.2943 73.1501 13.5208C74.4323 26.0192 74.3224 35.248 73.6347 41.9664C69.7619 34.1089 66.0463 30.1577 62.3329 29.9205C59.0264 29.7173 57.2782 32.6059 57.2052 32.7292C57.0692 32.9603 57.0069 33.2273 57.0264 33.4948C57.0459 33.7622 57.1465 34.0173 57.3146 34.2262C57.3937 34.324 65.1798 44.122 68.656 59.2717C66.4253 73.3106 55.9568 87.6523 52.3266 92.2816C52.0133 91.6994 51.6895 91.1229 51.3554 90.5524C50.9447 89.8339 50.2986 89.2792 49.5263 88.982C48.7539 88.6847 47.9026 88.6632 47.1162 88.921C46.3374 89.1983 45.6816 89.7419 45.2645 90.4557C45.1301 90.4331 44.9945 90.418 44.8584 90.4106C44.2905 90.3846 43.7252 90.5014 43.2141 90.7504C42.703 90.9993 42.2625 91.3725 41.9329 91.8356C41.5282 91.7215 41.1083 91.6703 40.6879 91.6838C40.0732 91.7006 39.471 91.8615 38.9298 92.1536C38.3886 92.4457 37.9236 92.8608 37.5722 93.3655C37.0233 93.2705 36.461 93.2854 35.9179 93.4093C34.5585 93.7058 32.9566 94.716 32.6528 96.2338C32.5313 96.9211 32.5782 97.6276 32.7893 98.2929L23.0013 100.708C22.7154 100.779 22.4614 100.943 22.2799 101.175C22.0984 101.407 21.9997 101.693 21.9998 101.988V137.821C21.9997 138.053 22.0611 138.281 22.1775 138.482C22.294 138.683 22.4615 138.85 22.6631 138.965C22.8646 139.08 23.093 139.14 23.3252 139.139C23.5575 139.138 23.7852 139.075 23.9854 138.957L40.3956 129.311C40.8189 130.494 41.5872 131.985 42.9434 132.953C43.8648 133.615 44.9736 133.965 46.1079 133.952C46.5607 133.95 47.0123 133.904 47.4562 133.814C48.1897 133.664 48.8621 133.299 49.3878 132.766C49.8271 133.006 50.3152 133.144 50.8154 133.168C50.8491 133.168 50.8839 133.17 50.9195 133.17C51.3398 133.165 51.7546 133.074 52.1382 132.903C52.5219 132.731 52.8662 132.482 53.15 132.172C53.1979 132.123 53.2409 132.07 53.2865 132.018C53.7648 132.244 54.2862 132.364 54.8151 132.37C55.6251 132.365 56.403 132.053 56.9915 131.496C57.2194 131.291 57.4228 131.06 57.5976 130.808C57.9444 130.892 58.2997 130.936 58.6566 130.939C59.0242 130.942 59.3897 130.885 59.7387 130.769C60.1416 130.631 60.5107 130.409 60.822 130.119C61.1333 129.828 61.3798 129.475 61.5454 129.083C61.7969 128.509 61.911 127.884 61.8785 127.259C61.7737 124.608 61.5323 121.965 61.1553 119.34L75.0909 111.778C76.7249 111.284 90.0622 106.942 94.8267 95.2826C99.536 83.7599 120.82 79.0692 121.034 79.0233C121.188 78.9904 121.334 78.9303 121.466 78.846C123.162 77.7654 123.607 76.4292 123.683 75.4989C123.731 74.4467 123.465 73.4041 122.918 72.5036C124.212 72.3658 125.425 71.9915 126.386 71.2436C127.985 69.9988 128.623 68.0201 128.281 65.3619C128.238 65.0214 128.063 64.7111 127.795 64.497C127.527 64.283 127.186 64.182 126.844 64.2157ZM96.5239 13.0912C97.0397 12.8045 97.868 12.4713 98.6323 12.7251C99.7174 13.0846 100.639 14.6369 101.228 17.0959C101.732 19.2003 101.711 22.2351 101.267 25.6639C99.3903 24.3501 97.1746 24.1285 95.3693 24.3351C96.2756 20.6591 96.6643 16.8746 96.5239 13.0912ZM78.1626 13.929C79.6819 14.4656 80.9299 16.4955 81.7732 19.7996C82.34 22.1469 82.6968 24.5399 82.8395 26.9503C80.5113 26.2532 78.2435 26.6454 76.7143 27.1172C76.6013 23.2237 76.3319 18.9041 75.8581 14.1069C76.5759 13.7576 77.3996 13.6941 78.1626 13.929ZM76.7697 29.8858C77.9847 29.4085 80.5838 28.6674 82.9716 29.8217C83.0544 34.8786 82.7532 39.9344 82.0705 44.9456C79.5978 48.1276 76.9002 51.1281 73.9985 53.9243C75.4699 49.3635 76.8938 41.8307 76.7694 29.8858H76.7697ZM60.0147 33.4247C60.2916 33.1362 60.6262 32.9093 60.9967 32.7588C61.3672 32.6082 61.7653 32.5374 62.165 32.5511C63.5334 32.6386 66.0724 33.8569 69.5708 39.9384C67.4273 40.2201 66.0023 41.0045 65.0796 41.7875C63.6133 38.8713 61.9198 36.0751 60.0147 33.4247ZM66.2919 44.2807C66.7993 43.6481 68.0841 42.5547 70.9365 42.4703C71.5885 43.7551 72.268 45.197 72.9759 46.8266C72.2379 51.1051 71.2752 53.9525 70.4874 55.7433C69.4079 51.8131 68.0046 47.9791 66.2919 44.2807ZM38.8188 95.2167H38.8215L38.5561 95.4062L38.8188 95.2167ZM24.6353 103.02L35.3492 100.376C39.5546 107.888 42.131 116.202 42.9107 124.775L24.6353 135.518V103.02ZM42.7861 128.162C42.763 128.092 42.734 128.023 42.6993 127.957L43.1063 127.718C43.125 128.17 43.1397 128.625 43.1482 129.085C43.008 128.785 42.8871 128.477 42.7861 128.162V128.162ZM46.9467 131.229C46.4886 131.329 46.0156 131.341 45.5531 131.264C45.7091 131.044 45.7936 130.782 45.795 130.513C45.8957 110.467 36.522 97.1918 36.1227 96.6365C36.021 96.4948 35.892 96.3749 35.7434 96.2836C35.9995 96.1258 36.2833 96.0185 36.5797 95.9673C36.8316 95.9252 37.282 95.8972 37.4887 96.1826C37.7259 96.5179 47.8399 111.027 47.8035 130.362C47.8033 130.7 47.3629 131.147 46.9467 131.229V131.229ZM51.269 130.328C51.0626 130.539 50.9496 130.536 50.9148 130.535C50.7413 130.509 50.5777 130.438 50.4404 130.329C50.4646 111.01 41.0411 96.6858 39.7589 94.8283C39.8796 94.6732 40.0335 94.5471 40.2092 94.4591C40.385 94.3712 40.5782 94.3237 40.7746 94.3201C41.0958 94.3195 41.4107 94.4086 41.684 94.5773C41.9573 94.746 42.178 94.9876 42.3214 95.275C44.5387 99.4654 51.7668 114.298 51.682 129.259C51.6864 129.655 51.5382 130.038 51.2682 130.328L51.269 130.328ZM55.2317 129.534C55.1054 129.647 54.9452 129.714 54.7765 129.725C54.6077 129.736 54.44 129.691 54.2998 129.596C54.3085 129.489 54.3164 129.381 54.317 129.273C54.4053 113.697 46.9402 98.3683 44.6502 94.041C44.5077 93.7722 44.3382 93.5186 44.1444 93.2841C44.2181 93.2038 44.3086 93.1407 44.4095 93.0993C44.5103 93.0578 44.619 93.039 44.7279 93.0443C44.9118 93.062 45.0882 93.1256 45.2412 93.2291C45.3941 93.3327 45.5187 93.4729 45.6034 93.637C47.7118 97.4013 54.6743 111.021 55.7109 128.228C55.7328 128.468 55.7012 128.709 55.6182 128.935C55.5351 129.161 55.4029 129.365 55.231 129.533L55.2317 129.534ZM59.1442 127.997C59.043 128.22 58.9494 128.253 58.8991 128.27C58.7164 128.314 58.5259 128.314 58.3432 128.27C58.3432 128.203 58.3459 128.136 58.3432 128.068C57.2727 110.302 50.0822 96.2359 47.904 92.348C47.7951 92.1541 47.6702 91.9696 47.5305 91.7966C47.632 91.6209 47.7906 91.4852 47.9799 91.4121C48.1906 91.3547 48.4145 91.3703 48.6152 91.4565C48.8158 91.5426 48.9814 91.6942 49.0849 91.8865C51.2911 95.6432 58.5443 109.303 59.2475 127.357C59.2616 127.575 59.226 127.793 59.1434 127.996L59.1442 127.997ZM108.264 80.5369C101.952 83.3664 95.0356 87.8033 92.3877 94.2822C87.9074 105.246 74.3593 109.243 74.2241 109.282L60.7131 116.583C59.3564 109.055 56.9793 101.747 53.6473 94.8612C56.4507 91.4327 68.5938 75.8394 71.2198 59.9391C76.0498 55.9435 80.4168 51.4193 84.2393 46.4513C89.1274 40.1102 92.6025 33.6063 94.5897 27.1659C95.8318 26.8478 98.8569 26.3937 100.768 28.7844C98.917 38.5761 94.1957 50.0857 88.6798 52.5976C88.4447 52.7047 88.2463 52.8785 88.1092 53.0975C87.9721 53.3164 87.9024 53.5709 87.9087 53.8291L87.9972 57.4661H80.8914C80.139 57.4668 79.3976 57.6473 78.7292 57.9928C78.0608 58.3383 77.4847 58.8386 77.0491 59.452L75.0661 62.2488C74.9647 62.3899 74.8923 62.5497 74.8529 62.7189C74.8135 62.8881 74.808 63.0635 74.8366 63.2349C74.8652 63.4062 74.9275 63.5702 75.0198 63.7175C75.112 63.8647 75.2325 63.9922 75.3743 64.0927C75.516 64.1932 75.6762 64.2646 75.8457 64.3029C76.0152 64.3413 76.1905 64.3457 76.3617 64.316C76.5329 64.2862 76.6965 64.223 76.8432 64.1298C76.9898 64.0366 77.1166 63.9153 77.2162 63.7729L79.1991 60.9761C79.391 60.706 79.6448 60.4857 79.9391 60.3335C80.2335 60.1814 80.56 60.1019 80.8914 60.1017H103.598C104.592 60.5233 108.381 62.112 112.685 63.6253C113.195 63.8043 113.69 63.9735 114.177 64.138C114.354 64.7968 114.52 66.307 113.35 68.4834C109.09 69.2002 106.149 67.7702 104.747 66.8196C104.227 66.4602 103.626 66.2334 102.998 66.159C102.37 66.0846 101.733 66.1648 101.142 66.3926C98.4917 67.4736 95.5268 67.4942 92.8613 66.4501C91.9611 66.102 90.9849 65.998 90.0315 66.1485C89.0781 66.299 88.1814 66.6987 87.4322 67.3072C84.8554 69.4 83.4663 71.689 83.4146 73.9268C83.3701 75.8507 84.278 77.6547 86.1134 79.2922C87.3712 80.416 89.0063 81.0246 90.6928 80.9968C91.6842 80.986 92.6682 80.8256 93.6117 80.5211C98.155 79.1127 102.311 75.0189 102.489 74.8426C103.361 74.0386 104.33 73.3454 105.372 72.779C106.067 73.0267 107.701 73.7542 108.485 75.3276C109.162 76.6877 109.086 78.4388 108.264 80.5369ZM105.017 69.9949C103.411 70.7598 101.931 71.7655 100.628 72.9772C100.59 73.0152 96.7632 76.7863 92.8313 78.005C90.7321 78.6559 89.1084 78.4338 87.8676 77.3266C86.6352 76.2273 86.0227 75.1043 86.0491 73.9892C86.0936 72.0719 87.9754 70.2621 89.0934 69.3542C89.6009 68.9424 90.2346 68.7176 90.8881 68.7174C91.2363 68.7172 91.5815 68.7818 91.906 68.908C95.1899 70.1963 98.8433 70.1737 102.111 68.8447C102.302 68.775 102.507 68.7529 102.709 68.7805C102.91 68.808 103.102 68.8844 103.268 69.0028C103.824 69.3779 104.409 69.7091 105.017 69.9935V69.9949ZM121.056 75.2888C121.042 75.457 121.001 75.9477 120.23 76.5012C117.224 77.211 114.271 78.1259 111.391 79.2394C111.764 77.344 111.584 75.6412 110.844 74.1553C110.293 73.0741 109.482 72.1467 108.485 71.4562C108.77 71.3697 109.059 71.2918 109.349 71.2227C110.924 71.3995 112.517 71.3377 114.074 71.0396C115.856 71.6955 117.703 72.1599 119.584 72.4251C120.18 73.0507 121.139 74.2873 121.056 75.2875V75.2888ZM124.768 69.1615C122.916 70.6055 118.614 69.7094 116.068 68.9264C116.644 67.7073 116.939 66.3742 116.93 65.0259C120.669 66.1668 123.616 66.7851 125.731 66.8707C125.683 68.4468 125.016 68.9662 124.768 69.1602V69.1615Z" fill="#663366"/>
</svg>
