<svg width="151" height="151" viewBox="0 0 151 151" fill="none" xmlns="http://www.w3.org/2000/svg">
<mask id="mask0_153_3001" style="mask-type:luminance" maskUnits="userSpaceOnUse" x="10" y="11" width="130" height="130">
<path d="M10 11H140V141H10V11Z" fill="white"/>
</mask>
<g mask="url(#mask0_153_3001)">
<path d="M137.461 138.461H12.5388V117.387H137.461V138.461Z" stroke="#663366" stroke-width="4" stroke-miterlimit="10" stroke-linecap="round" stroke-linejoin="round"/>
</g>
<path d="M75.2083 85.3945H115.625V101.391" stroke="#663366" stroke-width="4" stroke-miterlimit="10" stroke-linecap="round" stroke-linejoin="round"/>
<path d="M34.3748 101.391V85.3945H74.9998" stroke="#663366" stroke-width="4" stroke-miterlimit="10" stroke-linecap="round" stroke-linejoin="round"/>
<mask id="mask1_153_3001" style="mask-type:luminance" maskUnits="userSpaceOnUse" x="10" y="11" width="130" height="130">
<path d="M10 11H140V141H10V11Z" fill="white"/>
</mask>
<g mask="url(#mask1_153_3001)">
<path d="M51.6401 38.9346C51.5716 39.5519 51.2567 41.6872 51.2567 44.1095C51.2567 48.1415 52.247 54.9257 56.5913 54.9257C59.2421 54.9257 60.6868 52.0999 60.6868 46.9888C60.6868 17.4925 77.9728 29.7813 75.2763 13.5389C84.8155 18.4472 79.7679 27.9357 79.7679 33.3921C79.7679 39.6052 84.3763 44.7694 88.3296 44.7694C96.5968 44.7694 95.6167 31.3886 95.6167 30.5458C104.47 40.7628 105.468 52.6634 105.468 57.0534C105.468 67.9206 95.9392 85.3944 75.2077 85.3944H75.1189C74.9462 85.3944 74.7761 85.3921 74.606 85.3868C57.8024 85.0897 44.5308 72.3286 44.5308 56.1904C44.5308 44.9624 51.1856 39.4704 51.6401 38.9346Z" stroke="#663366" stroke-width="4" stroke-miterlimit="10" stroke-linecap="round" stroke-linejoin="round"/>
<path d="M51.6404 38.9346C51.6556 38.9171 51.6632 38.9044 51.6632 38.8968C51.6632 38.8943 51.6607 38.8915 51.6556 38.8915C51.6531 38.8915 51.648 38.8915 51.6429 38.8943C51.6404 38.907 51.6404 38.9194 51.6404 38.9346Z" stroke="#663366" stroke-width="4" stroke-miterlimit="10" stroke-linecap="round" stroke-linejoin="round"/>
<path d="M74.6062 85.3868C69.1802 85.1812 64.8435 80.7152 64.8435 75.2382C64.8435 69.6294 74.9998 54.9257 74.9998 54.9257C74.9998 54.9257 85.156 69.6294 85.156 75.2382C85.156 80.8064 80.672 85.3287 75.1191 85.3944H74.9998C74.8677 85.3944 74.7357 85.3922 74.6062 85.3868Z" stroke="#663366" stroke-width="4" stroke-miterlimit="10" stroke-linecap="round" stroke-linejoin="round"/>
<path d="M12.5388 117.387L29.2966 138.461" stroke="#663366" stroke-width="4" stroke-miterlimit="10" stroke-linecap="round" stroke-linejoin="round"/>
<path d="M44.5308 117.387L59.7651 138.461" stroke="#663366" stroke-width="4" stroke-miterlimit="10" stroke-linecap="round" stroke-linejoin="round"/>
<path d="M74.9995 117.387L90.2339 138.461" stroke="#663366" stroke-width="4" stroke-miterlimit="10" stroke-linecap="round" stroke-linejoin="round"/>
<path d="M105.468 117.387L120.703 138.461" stroke="#663366" stroke-width="4" stroke-miterlimit="10" stroke-linecap="round" stroke-linejoin="round"/>
<path d="M29.2964 138.461L44.5308 117.387" stroke="#663366" stroke-width="4" stroke-miterlimit="10" stroke-linecap="round" stroke-linejoin="round"/>
<path d="M59.7651 138.461L74.9995 117.387" stroke="#663366" stroke-width="4" stroke-miterlimit="10" stroke-linecap="round" stroke-linejoin="round"/>
<path d="M90.2339 138.461L105.468 117.387" stroke="#663366" stroke-width="4" stroke-miterlimit="10" stroke-linecap="round" stroke-linejoin="round"/>
<path d="M120.703 138.461L137.46 117.387" stroke="#663366" stroke-width="4" stroke-miterlimit="10" stroke-linecap="round" stroke-linejoin="round"/>
<path d="M77.5386 101.391C77.5386 102.793 76.4016 103.93 74.9995 103.93C73.5974 103.93 72.4604 102.793 72.4604 101.391C72.4604 99.9886 73.5974 98.8516 74.9995 98.8516C76.4016 98.8516 77.5386 99.9886 77.5386 101.391Z" fill="#663366"/>
<path d="M24.2185 117.387V101.391H63.574" stroke="#663366" stroke-width="4" stroke-miterlimit="10" stroke-linecap="round" stroke-linejoin="round"/>
<path d="M86.4253 101.391H125.781V117.387" stroke="#663366" stroke-width="4" stroke-miterlimit="10" stroke-linecap="round" stroke-linejoin="round"/>
</g>
</svg>
