<svg width="151" height="151" viewBox="0 0 151 151" fill="none" xmlns="http://www.w3.org/2000/svg">
<mask id="path-1-outside-1_153_3046" maskUnits="userSpaceOnUse" x="14" y="10" width="123" height="132" fill="black">
<rect fill="white" x="14" y="10" width="123" height="132"/>
<path fill-rule="evenodd" clip-rule="evenodd" d="M124.056 108.566C125.223 103 124.259 97.2001 121.346 92.3254C121.22 92.1213 121.214 91.8691 121.334 91.659C121.513 91.3408 121.914 91.2327 122.237 91.4068C126.401 93.6944 129.883 97.0626 132.324 101.151C135.321 106.195 136.536 112.103 135.782 117.927C135.022 123.75 132.336 129.148 128.154 133.249C123.452 137.854 117.247 140.598 110.691 140.958C104.128 141.324 97.6603 139.283 92.4847 135.224C87.7584 131.514 84.4319 126.29 83.0678 120.418C82.9961 120.178 83.0738 119.914 83.2593 119.752C83.5345 119.506 83.9533 119.53 84.1986 119.8C88.0037 123.961 93.2385 126.524 98.8504 126.975C104.624 127.455 110.373 125.846 115.064 122.442C119.683 119.109 122.889 114.162 124.05 108.572L124.056 108.566ZM131.169 101.823C129.273 98.629 126.694 95.8972 123.625 93.8077L123.625 93.8134C125.809 98.4965 126.419 103.774 125.36 108.835C124.128 114.744 120.735 119.973 115.847 123.491C110.899 127.088 104.827 128.787 98.7364 128.277C93.657 127.868 88.8469 125.821 85.0179 122.453C86.5855 127.094 89.4692 131.171 93.3161 134.191C98.234 138.051 104.378 139.99 110.612 139.642C116.847 139.3 122.74 136.694 127.209 132.317C131.181 128.421 133.736 123.293 134.454 117.757C135.172 112.228 134.017 106.614 131.169 101.823Z"/>
<path fill-rule="evenodd" clip-rule="evenodd" d="M117.283 104.015L113.149 107.071L114.537 111.928L114.561 112.018H114.567C114.699 112.817 114.603 113.639 114.28 114.378C113.957 115.122 113.425 115.759 112.748 116.209C112.06 116.671 111.259 116.929 110.427 116.959C109.626 116.989 108.83 116.791 108.13 116.389C108.094 116.371 108.058 116.347 108.028 116.323L104.253 113.471L100.436 116.293L100.382 116.329C98.9642 117.175 97.1934 117.139 95.8112 116.239L95.7694 116.209C94.3933 115.284 93.6873 113.639 93.9625 112L95.3206 107.083L91.2344 104.027L91.1925 103.991C90.5882 103.45 90.1455 102.748 89.9301 101.967C89.7207 101.187 89.7327 100.358 89.9839 99.5896C90.2292 98.8211 90.6959 98.1366 91.3241 97.6203C91.9583 97.104 92.724 96.7738 93.5317 96.6777L98.6889 96.5997L100.328 91.7964L100.352 91.7364C100.699 90.9979 101.256 90.3735 101.95 89.9411C102.65 89.5028 103.463 89.2687 104.289 89.2687C105.108 89.2687 105.904 89.4968 106.598 89.9351C107.268 90.3614 107.807 90.9738 108.148 91.6943C108.172 91.7303 108.184 91.7663 108.195 91.8023L109.787 96.5936L114.866 96.6656H114.992C115.806 96.7677 116.571 97.0919 117.2 97.6143C117.828 98.1246 118.294 98.8091 118.546 99.5835C118.791 100.352 118.809 101.175 118.594 101.955C118.378 102.736 117.942 103.444 117.331 103.979L117.283 104.015ZM116.452 102.994L112.025 106.266L112.024 106.26C111.785 106.416 111.671 106.71 111.749 106.987L113.257 112.264C113.346 112.805 113.275 113.357 113.059 113.855C112.838 114.372 112.473 114.81 112.012 115.122C111.528 115.44 110.971 115.62 110.391 115.638C109.84 115.662 109.296 115.53 108.817 115.26H108.823L104.671 112.12C104.432 111.946 104.103 111.946 103.864 112.12L99.6578 115.224C98.6886 115.788 97.4862 115.758 96.5469 115.152L96.5169 115.128C95.5716 114.492 95.0871 113.363 95.2725 112.24V112.234L96.7084 107.035C96.8041 106.764 96.7144 106.464 96.481 106.296L92.0598 102.976C91.6589 102.61 91.3718 102.135 91.2282 101.613C91.0786 101.073 91.0906 100.508 91.2641 99.9798C91.4316 99.4455 91.7487 98.9771 92.1794 98.6229C92.6162 98.2687 93.1367 98.0465 93.6931 97.9805V97.9745L99.1554 97.8964C99.4485 97.9084 99.7118 97.7283 99.8075 97.4521L101.584 92.2406C101.824 91.7483 102.201 91.334 102.667 91.0458C103.158 90.7396 103.72 90.5775 104.295 90.5715C104.857 90.5715 105.408 90.7336 105.886 91.0338C106.341 91.328 106.712 91.7423 106.951 92.2286L108.674 97.4461C108.764 97.7163 109.015 97.8964 109.296 97.8964V97.9024L114.848 97.9805C115.399 98.0465 115.925 98.2687 116.356 98.6229C116.787 98.9771 117.104 99.4454 117.271 99.9798C117.445 100.508 117.457 101.079 117.307 101.613C117.158 102.147 116.865 102.628 116.452 103V102.994Z"/>
<path fill-rule="evenodd" clip-rule="evenodd" d="M128.142 18.7513C133.162 23.6745 135.992 30.417 135.992 37.4662C135.992 44.5089 133.162 51.2516 128.142 56.175C123.081 61.1464 116.278 63.9262 109.195 63.9262C102.111 63.9262 95.3147 61.1464 90.2475 56.175C85.228 51.2517 82.398 44.5092 82.398 37.4662C82.398 30.4175 85.228 23.6748 90.2475 18.7513C95.3149 13.7859 102.111 11 109.195 11C116.278 11 123.081 13.7859 128.142 18.7513ZM117.523 58.8102C115.309 61.0678 112.342 62.4187 109.195 62.6109L109.195 62.6093C102.458 62.6273 95.9907 59.9795 91.1865 55.2423C86.4182 50.5657 83.726 44.1535 83.726 37.465C83.726 30.7709 86.4182 24.3587 91.1865 19.6815C94.4173 16.4934 98.4437 14.2179 102.841 13.1071C101.866 13.7196 100.968 14.4581 100.173 15.2926C95.195 20.5044 95.195 28.73 100.173 33.9415C102.584 36.4753 105.862 38.0063 109.35 38.2224C115.842 38.6247 120.897 44.0283 120.879 50.5607C120.885 53.6467 119.683 56.6127 117.523 58.8102ZM127.209 19.6816C122.452 14.9925 116.057 12.3446 109.386 12.3206L109.375 12.3197C106.245 12.5238 103.302 13.9047 101.136 16.1863C96.6431 20.8997 96.6431 28.3267 101.136 33.0399C103.32 35.3334 106.275 36.7143 109.428 36.9064C116.614 37.3506 122.214 43.3308 122.214 50.5596C122.22 53.9878 120.88 57.278 118.486 59.7277C117.768 60.4661 116.973 61.1206 116.105 61.679C120.293 60.5142 124.11 58.3047 127.209 55.2486C131.978 50.5719 134.67 44.1597 134.67 37.4651C134.67 30.771 131.978 24.3588 127.209 19.6816Z"/>
<path fill-rule="evenodd" clip-rule="evenodd" d="M108.74 48.1889C109.374 48.8133 109.733 49.6659 109.733 50.5605C109.733 51.4491 109.374 52.3077 108.74 52.9322C107.406 54.241 105.27 54.241 103.936 52.9322C103.296 52.3077 102.937 51.4492 102.937 50.5605C102.937 49.6659 103.296 48.8134 103.936 48.1889C105.27 46.88 107.406 46.88 108.74 48.1889ZM107.795 52.0015C108.184 51.6232 108.399 51.1009 108.399 50.5605V50.5545C108.399 50.0141 108.184 49.4978 107.795 49.1195C106.987 48.321 105.689 48.321 104.875 49.1195C104.492 49.4978 104.277 50.0141 104.277 50.5605C104.277 51.1009 104.492 51.6232 104.875 52.0015C105.689 52.794 106.987 52.794 107.795 52.0015Z"/>
<path fill-rule="evenodd" clip-rule="evenodd" d="M116.021 22.2516C116.655 22.876 117.014 23.7345 117.014 24.6232C117.014 25.5178 116.655 26.3703 116.021 26.9948C114.699 28.2917 112.593 28.3097 111.259 27.0309L111.217 26.9948C110.577 26.3704 110.224 25.5178 110.224 24.6232C110.224 23.7346 110.577 22.876 111.217 22.2516C112.551 20.9427 114.687 20.9427 116.021 22.2516ZM115.076 26.0642C115.465 25.6859 115.68 25.1696 115.68 24.6232C115.68 24.0828 115.465 23.5665 115.076 23.1822C114.262 22.3897 112.97 22.3897 112.156 23.1822C111.773 23.5605 111.552 24.0828 111.552 24.6232C111.552 25.1696 111.773 25.6859 112.156 26.0642L112.186 26.0942C113.006 26.8627 114.274 26.8507 115.076 26.0642Z"/>
<path fill-rule="evenodd" clip-rule="evenodd" d="M15.666 23.8372H30.0605L37.1859 11.3368H37.1919C37.2518 11.2347 37.3415 11.1446 37.4492 11.0846C37.7663 10.9105 38.1731 11.0246 38.3526 11.3428L45.4004 23.8432H59.6216V23.8372C59.9865 23.8372 60.2797 24.1314 60.2856 24.4976C60.2856 24.6297 60.2438 24.7558 60.172 24.8639L53.0764 37.4663L60.172 50.0688V50.0748C60.2438 50.1828 60.2856 50.3089 60.2856 50.441C60.2797 50.8073 59.9865 51.1015 59.6216 51.0955H45.3944L38.3466 63.5959C38.1671 63.9141 37.7603 64.0281 37.4432 63.848C37.3355 63.794 37.2458 63.7039 37.186 63.5959L30.0605 51.0955H15.666C15.5523 51.0955 15.4386 51.0654 15.3369 51.0114C15.1873 50.9273 15.0737 50.7893 15.0258 50.6211C14.978 50.453 14.9959 50.2729 15.0856 50.1168L22.2949 37.4722L15.0856 24.8157C15.0019 24.6656 14.978 24.4855 15.0318 24.3173C15.0797 24.1492 15.1874 24.0051 15.3429 23.9211C15.4446 23.867 15.5523 23.8372 15.666 23.8372ZM29.311 49.7728H16.8069L23.059 38.8034L29.311 49.7728ZM23.8265 37.4664L30.8382 49.7746H44.6166L51.5506 37.4664L44.6166 25.1581H30.8442L23.8265 37.4664ZM58.4788 49.7746H46.1303L52.3046 38.8173L58.4788 49.7746ZM37.7663 12.9998L43.8688 23.8372H31.5921L37.7663 12.9998ZM46.1302 25.1581L58.4787 25.1521L58.4785 25.1581L52.3043 36.1154L46.1302 25.1581ZM16.8084 25.1581L29.3125 25.1521L29.3123 25.1581L23.0603 36.1274L16.8084 25.1581ZM37.7661 61.9207L31.5919 51.0834H43.8686L37.7661 61.9207Z"/>
<path fill-rule="evenodd" clip-rule="evenodd" d="M45.7179 115.572V140.339C45.7179 140.519 45.6461 140.687 45.5204 140.807C45.3948 140.933 45.2273 140.999 45.0478 140.999H28.6735C28.494 140.999 28.3265 140.933 28.2009 140.807C28.0752 140.687 28.0034 140.519 28.0034 140.339V115.579H15.6669C15.4934 115.579 15.3258 115.513 15.2002 115.386C15.0746 115.266 15.0028 115.098 15.0028 114.918V99.0022C15.0088 98.6359 15.3019 98.3417 15.6669 98.3417H28.0034V88.477C28.0034 88.2969 28.0752 88.1288 28.2008 88.0087C28.3265 87.8826 28.494 87.8166 28.6735 87.8166H45.06C45.2335 87.8166 45.401 87.8826 45.5267 88.0087C45.6523 88.1288 45.7241 88.2969 45.7241 88.477V98.3477H58.318V98.3417C58.6829 98.3417 58.9821 98.6359 58.988 99.0022V114.918C58.988 115.098 58.9163 115.266 58.7906 115.386C58.665 115.513 58.4974 115.579 58.318 115.579L45.7179 115.572ZM44.3837 114.919V139.673L29.337 139.679V114.919C29.331 114.553 29.0378 114.259 28.6729 114.265H16.3363V99.663H28.6729C28.8464 99.663 29.0139 99.5909 29.1395 99.4708C29.2652 99.3447 29.337 99.1766 29.337 99.0025V89.1318H44.3837V99.0025C44.3837 99.1826 44.4555 99.3507 44.5811 99.4708C44.7068 99.5969 44.8743 99.663 45.0478 99.663H57.6416V114.265H45.0478C44.6828 114.259 44.3897 114.553 44.3837 114.919Z"/>
</mask>
<path fill-rule="evenodd" clip-rule="evenodd" d="M124.056 108.566C125.223 103 124.259 97.2001 121.346 92.3254C121.22 92.1213 121.214 91.8691 121.334 91.659C121.513 91.3408 121.914 91.2327 122.237 91.4068C126.401 93.6944 129.883 97.0626 132.324 101.151C135.321 106.195 136.536 112.103 135.782 117.927C135.022 123.75 132.336 129.148 128.154 133.249C123.452 137.854 117.247 140.598 110.691 140.958C104.128 141.324 97.6603 139.283 92.4847 135.224C87.7584 131.514 84.4319 126.29 83.0678 120.418C82.9961 120.178 83.0738 119.914 83.2593 119.752C83.5345 119.506 83.9533 119.53 84.1986 119.8C88.0037 123.961 93.2385 126.524 98.8504 126.975C104.624 127.455 110.373 125.846 115.064 122.442C119.683 119.109 122.889 114.162 124.05 108.572L124.056 108.566ZM131.169 101.823C129.273 98.629 126.694 95.8972 123.625 93.8077L123.625 93.8134C125.809 98.4965 126.419 103.774 125.36 108.835C124.128 114.744 120.735 119.973 115.847 123.491C110.899 127.088 104.827 128.787 98.7364 128.277C93.657 127.868 88.8469 125.821 85.0179 122.453C86.5855 127.094 89.4692 131.171 93.3161 134.191C98.234 138.051 104.378 139.99 110.612 139.642C116.847 139.3 122.74 136.694 127.209 132.317C131.181 128.421 133.736 123.293 134.454 117.757C135.172 112.228 134.017 106.614 131.169 101.823Z" fill="#663366"/>
<path fill-rule="evenodd" clip-rule="evenodd" d="M117.283 104.015L113.149 107.071L114.537 111.928L114.561 112.018H114.567C114.699 112.817 114.603 113.639 114.28 114.378C113.957 115.122 113.425 115.759 112.748 116.209C112.06 116.671 111.259 116.929 110.427 116.959C109.626 116.989 108.83 116.791 108.13 116.389C108.094 116.371 108.058 116.347 108.028 116.323L104.253 113.471L100.436 116.293L100.382 116.329C98.9642 117.175 97.1934 117.139 95.8112 116.239L95.7694 116.209C94.3933 115.284 93.6873 113.639 93.9625 112L95.3206 107.083L91.2344 104.027L91.1925 103.991C90.5882 103.45 90.1455 102.748 89.9301 101.967C89.7207 101.187 89.7327 100.358 89.9839 99.5896C90.2292 98.8211 90.6959 98.1366 91.3241 97.6203C91.9583 97.104 92.724 96.7738 93.5317 96.6777L98.6889 96.5997L100.328 91.7964L100.352 91.7364C100.699 90.9979 101.256 90.3735 101.95 89.9411C102.65 89.5028 103.463 89.2687 104.289 89.2687C105.108 89.2687 105.904 89.4968 106.598 89.9351C107.268 90.3614 107.807 90.9738 108.148 91.6943C108.172 91.7303 108.184 91.7663 108.195 91.8023L109.787 96.5936L114.866 96.6656H114.992C115.806 96.7677 116.571 97.0919 117.2 97.6143C117.828 98.1246 118.294 98.8091 118.546 99.5835C118.791 100.352 118.809 101.175 118.594 101.955C118.378 102.736 117.942 103.444 117.331 103.979L117.283 104.015ZM116.452 102.994L112.025 106.266L112.024 106.26C111.785 106.416 111.671 106.71 111.749 106.987L113.257 112.264C113.346 112.805 113.275 113.357 113.059 113.855C112.838 114.372 112.473 114.81 112.012 115.122C111.528 115.44 110.971 115.62 110.391 115.638C109.84 115.662 109.296 115.53 108.817 115.26H108.823L104.671 112.12C104.432 111.946 104.103 111.946 103.864 112.12L99.6578 115.224C98.6886 115.788 97.4862 115.758 96.5469 115.152L96.5169 115.128C95.5716 114.492 95.0871 113.363 95.2725 112.24V112.234L96.7084 107.035C96.8041 106.764 96.7144 106.464 96.481 106.296L92.0598 102.976C91.6589 102.61 91.3718 102.135 91.2282 101.613C91.0786 101.073 91.0906 100.508 91.2641 99.9798C91.4316 99.4455 91.7487 98.9771 92.1794 98.6229C92.6162 98.2687 93.1367 98.0465 93.6931 97.9805V97.9745L99.1554 97.8964C99.4485 97.9084 99.7118 97.7283 99.8075 97.4521L101.584 92.2406C101.824 91.7483 102.201 91.334 102.667 91.0458C103.158 90.7396 103.72 90.5775 104.295 90.5715C104.857 90.5715 105.408 90.7336 105.886 91.0338C106.341 91.328 106.712 91.7423 106.951 92.2286L108.674 97.4461C108.764 97.7163 109.015 97.8964 109.296 97.8964V97.9024L114.848 97.9805C115.399 98.0465 115.925 98.2687 116.356 98.6229C116.787 98.9771 117.104 99.4454 117.271 99.9798C117.445 100.508 117.457 101.079 117.307 101.613C117.158 102.147 116.865 102.628 116.452 103V102.994Z" fill="#663366"/>
<path fill-rule="evenodd" clip-rule="evenodd" d="M128.142 18.7513C133.162 23.6745 135.992 30.417 135.992 37.4662C135.992 44.5089 133.162 51.2516 128.142 56.175C123.081 61.1464 116.278 63.9262 109.195 63.9262C102.111 63.9262 95.3147 61.1464 90.2475 56.175C85.228 51.2517 82.398 44.5092 82.398 37.4662C82.398 30.4175 85.228 23.6748 90.2475 18.7513C95.3149 13.7859 102.111 11 109.195 11C116.278 11 123.081 13.7859 128.142 18.7513ZM117.523 58.8102C115.309 61.0678 112.342 62.4187 109.195 62.6109L109.195 62.6093C102.458 62.6273 95.9907 59.9795 91.1865 55.2423C86.4182 50.5657 83.726 44.1535 83.726 37.465C83.726 30.7709 86.4182 24.3587 91.1865 19.6815C94.4173 16.4934 98.4437 14.2179 102.841 13.1071C101.866 13.7196 100.968 14.4581 100.173 15.2926C95.195 20.5044 95.195 28.73 100.173 33.9415C102.584 36.4753 105.862 38.0063 109.35 38.2224C115.842 38.6247 120.897 44.0283 120.879 50.5607C120.885 53.6467 119.683 56.6127 117.523 58.8102ZM127.209 19.6816C122.452 14.9925 116.057 12.3446 109.386 12.3206L109.375 12.3197C106.245 12.5238 103.302 13.9047 101.136 16.1863C96.6431 20.8997 96.6431 28.3267 101.136 33.0399C103.32 35.3334 106.275 36.7143 109.428 36.9064C116.614 37.3506 122.214 43.3308 122.214 50.5596C122.22 53.9878 120.88 57.278 118.486 59.7277C117.768 60.4661 116.973 61.1206 116.105 61.679C120.293 60.5142 124.11 58.3047 127.209 55.2486C131.978 50.5719 134.67 44.1597 134.67 37.4651C134.67 30.771 131.978 24.3588 127.209 19.6816Z" fill="#663366"/>
<path fill-rule="evenodd" clip-rule="evenodd" d="M108.74 48.1889C109.374 48.8133 109.733 49.6659 109.733 50.5605C109.733 51.4491 109.374 52.3077 108.74 52.9322C107.406 54.241 105.27 54.241 103.936 52.9322C103.296 52.3077 102.937 51.4492 102.937 50.5605C102.937 49.6659 103.296 48.8134 103.936 48.1889C105.27 46.88 107.406 46.88 108.74 48.1889ZM107.795 52.0015C108.184 51.6232 108.399 51.1009 108.399 50.5605V50.5545C108.399 50.0141 108.184 49.4978 107.795 49.1195C106.987 48.321 105.689 48.321 104.875 49.1195C104.492 49.4978 104.277 50.0141 104.277 50.5605C104.277 51.1009 104.492 51.6232 104.875 52.0015C105.689 52.794 106.987 52.794 107.795 52.0015Z" fill="#663366"/>
<path fill-rule="evenodd" clip-rule="evenodd" d="M116.021 22.2516C116.655 22.876 117.014 23.7345 117.014 24.6232C117.014 25.5178 116.655 26.3703 116.021 26.9948C114.699 28.2917 112.593 28.3097 111.259 27.0309L111.217 26.9948C110.577 26.3704 110.224 25.5178 110.224 24.6232C110.224 23.7346 110.577 22.876 111.217 22.2516C112.551 20.9427 114.687 20.9427 116.021 22.2516ZM115.076 26.0642C115.465 25.6859 115.68 25.1696 115.68 24.6232C115.68 24.0828 115.465 23.5665 115.076 23.1822C114.262 22.3897 112.97 22.3897 112.156 23.1822C111.773 23.5605 111.552 24.0828 111.552 24.6232C111.552 25.1696 111.773 25.6859 112.156 26.0642L112.186 26.0942C113.006 26.8627 114.274 26.8507 115.076 26.0642Z" fill="#663366"/>
<path fill-rule="evenodd" clip-rule="evenodd" d="M15.666 23.8372H30.0605L37.1859 11.3368H37.1919C37.2518 11.2347 37.3415 11.1446 37.4492 11.0846C37.7663 10.9105 38.1731 11.0246 38.3526 11.3428L45.4004 23.8432H59.6216V23.8372C59.9865 23.8372 60.2797 24.1314 60.2856 24.4976C60.2856 24.6297 60.2438 24.7558 60.172 24.8639L53.0764 37.4663L60.172 50.0688V50.0748C60.2438 50.1828 60.2856 50.3089 60.2856 50.441C60.2797 50.8073 59.9865 51.1015 59.6216 51.0955H45.3944L38.3466 63.5959C38.1671 63.9141 37.7603 64.0281 37.4432 63.848C37.3355 63.794 37.2458 63.7039 37.186 63.5959L30.0605 51.0955H15.666C15.5523 51.0955 15.4386 51.0654 15.3369 51.0114C15.1873 50.9273 15.0737 50.7893 15.0258 50.6211C14.978 50.453 14.9959 50.2729 15.0856 50.1168L22.2949 37.4722L15.0856 24.8157C15.0019 24.6656 14.978 24.4855 15.0318 24.3173C15.0797 24.1492 15.1874 24.0051 15.3429 23.9211C15.4446 23.867 15.5523 23.8372 15.666 23.8372ZM29.311 49.7728H16.8069L23.059 38.8034L29.311 49.7728ZM23.8265 37.4664L30.8382 49.7746H44.6166L51.5506 37.4664L44.6166 25.1581H30.8442L23.8265 37.4664ZM58.4788 49.7746H46.1303L52.3046 38.8173L58.4788 49.7746ZM37.7663 12.9998L43.8688 23.8372H31.5921L37.7663 12.9998ZM46.1302 25.1581L58.4787 25.1521L58.4785 25.1581L52.3043 36.1154L46.1302 25.1581ZM16.8084 25.1581L29.3125 25.1521L29.3123 25.1581L23.0603 36.1274L16.8084 25.1581ZM37.7661 61.9207L31.5919 51.0834H43.8686L37.7661 61.9207Z" fill="#663366"/>
<path fill-rule="evenodd" clip-rule="evenodd" d="M45.7179 115.572V140.339C45.7179 140.519 45.6461 140.687 45.5204 140.807C45.3948 140.933 45.2273 140.999 45.0478 140.999H28.6735C28.494 140.999 28.3265 140.933 28.2009 140.807C28.0752 140.687 28.0034 140.519 28.0034 140.339V115.579H15.6669C15.4934 115.579 15.3258 115.513 15.2002 115.386C15.0746 115.266 15.0028 115.098 15.0028 114.918V99.0022C15.0088 98.6359 15.3019 98.3417 15.6669 98.3417H28.0034V88.477C28.0034 88.2969 28.0752 88.1288 28.2008 88.0087C28.3265 87.8826 28.494 87.8166 28.6735 87.8166H45.06C45.2335 87.8166 45.401 87.8826 45.5267 88.0087C45.6523 88.1288 45.7241 88.2969 45.7241 88.477V98.3477H58.318V98.3417C58.6829 98.3417 58.9821 98.6359 58.988 99.0022V114.918C58.988 115.098 58.9163 115.266 58.7906 115.386C58.665 115.513 58.4974 115.579 58.318 115.579L45.7179 115.572ZM44.3837 114.919V139.673L29.337 139.679V114.919C29.331 114.553 29.0378 114.259 28.6729 114.265H16.3363V99.663H28.6729C28.8464 99.663 29.0139 99.5909 29.1395 99.4708C29.2652 99.3447 29.337 99.1766 29.337 99.0025V89.1318H44.3837V99.0025C44.3837 99.1826 44.4555 99.3507 44.5811 99.4708C44.7068 99.5969 44.8743 99.663 45.0478 99.663H57.6416V114.265H45.0478C44.6828 114.259 44.3897 114.553 44.3837 114.919Z" fill="#663366"/>
<path d="M115.68 24.6292H115.88V24.6232H115.68H115.48V24.6292H115.68ZM116.021 22.2576H116.221V22.2516H116.021H115.821V22.2576H116.021ZM128.148 18.7573L128.29 18.6161L128.284 18.6101L128.142 18.7513L128.001 18.8924L128.007 18.8984L128.148 18.7573ZM16.8069 49.7728L16.4594 49.5747L16.1185 50.1728H16.8069V49.7728ZM29.311 49.7728V50.1728H29.9994L29.6585 49.5747L29.311 49.7728ZM23.059 38.8034L23.4066 38.6054L23.059 37.9956L22.7115 38.6054L23.059 38.8034ZM112.025 106.266L111.625 106.292L111.673 107.023L112.262 106.588L112.025 106.266ZM116.452 102.994H116.852V102.201L116.214 102.672L116.452 102.994ZM116.452 103H116.052V103.899L116.72 103.297L116.452 103ZM117.307 101.613L116.922 101.505L117.307 101.613ZM117.271 99.9798L116.89 100.099L116.891 100.105L117.271 99.9798ZM114.848 97.9805L114.896 97.5833L114.875 97.5808L114.854 97.5805L114.848 97.9805ZM109.296 97.9024H108.896V98.2968L109.291 98.3024L109.296 97.9024ZM109.296 97.8964H109.696V97.4964H109.296V97.8964ZM108.674 97.4461L108.294 97.5715L108.295 97.5722L108.674 97.4461ZM106.951 92.2286L107.331 92.1032L107.322 92.0769L107.31 92.052L106.951 92.2286ZM105.886 91.0338L106.103 90.698L106.099 90.695L105.886 91.0338ZM104.295 90.5715V90.1715L104.29 90.1715L104.295 90.5715ZM102.667 91.0458L102.878 91.3862L102.879 91.3852L102.667 91.0458ZM101.584 92.2406L101.225 92.0658L101.214 92.0881L101.206 92.1115L101.584 92.2406ZM99.8075 97.4521L100.185 97.5831L100.186 97.5812L99.8075 97.4521ZM99.1554 97.8964L99.1718 97.4967L99.1607 97.4963L99.1497 97.4964L99.1554 97.8964ZM93.6931 97.9745L93.6874 97.5745L93.2931 97.5801V97.9745H93.6931ZM93.6931 97.9805L93.7402 98.3777L94.0931 98.3358V97.9805H93.6931ZM92.1794 98.6229L91.9275 98.3122L91.9254 98.3139L92.1794 98.6229ZM91.2641 99.9798L91.6441 100.105L91.6457 100.099L91.2641 99.9798ZM91.2282 101.613L91.6139 101.507L91.6137 101.506L91.2282 101.613ZM92.0598 102.976L91.79 103.271L91.8042 103.284L91.8196 103.296L92.0598 102.976ZM96.481 106.296L96.2408 106.616L96.2472 106.621L96.481 106.296ZM96.7084 107.035L96.3314 106.901L96.3266 106.914L96.3228 106.928L96.7084 107.035ZM95.2725 112.234L94.8869 112.128L94.8725 112.18V112.234H95.2725ZM95.2725 112.24L95.6672 112.305L95.6725 112.273V112.24H95.2725ZM96.5169 115.128L96.7673 114.816L96.7542 114.806L96.7403 114.796L96.5169 115.128ZM96.5469 115.152L96.2965 115.464L96.3126 115.477L96.3299 115.488L96.5469 115.152ZM99.6578 115.224L99.8591 115.57L99.8779 115.559L99.8954 115.546L99.6578 115.224ZM103.864 112.12L103.628 111.797L103.626 111.798L103.864 112.12ZM104.671 112.12L104.913 111.801L104.907 111.797L104.671 112.12ZM108.823 115.26V115.66H110.015L109.065 114.941L108.823 115.26ZM108.817 115.26V114.86H107.295L108.621 115.609L108.817 115.26ZM110.391 115.638L110.378 115.239L110.373 115.239L110.391 115.638ZM112.012 115.122L112.232 115.457L112.237 115.453L112.012 115.122ZM113.059 113.855L112.692 113.697L112.692 113.698L113.059 113.855ZM113.257 112.264L113.651 112.199L113.647 112.176L113.641 112.154L113.257 112.264ZM111.749 106.987L111.364 107.095L111.364 107.096L111.749 106.987ZM112.024 106.26L112.423 106.234L112.379 105.551L111.806 105.925L112.024 106.26ZM117.283 104.015L117.521 104.336L117.524 104.334L117.283 104.015ZM113.149 107.071L112.912 106.749L112.689 106.914L112.765 107.181L113.149 107.071ZM114.537 111.928L114.924 111.825L114.922 111.818L114.537 111.928ZM114.561 112.018L114.175 112.121L114.254 112.418H114.561V112.018ZM114.567 112.018L114.962 111.953L114.907 111.618H114.567V112.018ZM114.28 114.378L113.914 114.217L113.913 114.218L114.28 114.378ZM112.748 116.209L112.527 115.876L112.525 115.877L112.748 116.209ZM110.427 116.959L110.413 116.56L110.412 116.56L110.427 116.959ZM108.13 116.389L108.329 116.042L108.319 116.037L108.309 116.032L108.13 116.389ZM108.028 116.323L108.279 116.011L108.269 116.004L108.028 116.323ZM104.253 113.471L104.494 113.152L104.256 112.972L104.015 113.149L104.253 113.471ZM100.436 116.293L100.658 116.625L100.666 116.62L100.674 116.615L100.436 116.293ZM100.382 116.329L100.587 116.672L100.596 116.667L100.605 116.661L100.382 116.329ZM95.8112 116.239L95.5782 116.564L95.5854 116.569L95.5929 116.574L95.8112 116.239ZM95.7694 116.209L96.0025 115.884L95.9925 115.877L95.7694 116.209ZM93.9625 112L93.577 111.893L93.5715 111.913L93.5681 111.934L93.9625 112ZM95.3206 107.083L95.7062 107.189L95.7789 106.926L95.5602 106.762L95.3206 107.083ZM91.2344 104.027L90.9735 104.33L90.9839 104.339L90.9948 104.347L91.2344 104.027ZM91.1925 103.991L90.9258 104.289L90.9316 104.294L91.1925 103.991ZM89.9301 101.967L89.5437 102.071L89.5445 102.074L89.9301 101.967ZM89.9839 99.5896L90.3641 99.7139L90.365 99.7112L89.9839 99.5896ZM91.3241 97.6203L91.0715 97.3102L91.0701 97.3113L91.3241 97.6203ZM93.5317 96.6777L93.5257 96.2778L93.505 96.2781L93.4845 96.2805L93.5317 96.6777ZM98.6889 96.5997L98.695 96.9996L98.9765 96.9953L99.0675 96.7289L98.6889 96.5997ZM100.328 91.7964L99.9566 91.6483L99.9529 91.6577L99.9496 91.6672L100.328 91.7964ZM100.352 91.7364L99.9901 91.5663L99.985 91.5771L99.9805 91.5883L100.352 91.7364ZM101.95 89.9411L102.161 90.2806L102.162 90.2802L101.95 89.9411ZM106.598 89.9351L106.813 89.5976L106.812 89.5969L106.598 89.9351ZM108.148 91.6943L107.786 91.8654L107.798 91.8915L107.814 91.9156L108.148 91.6943ZM108.195 91.8023L107.816 91.9284L107.816 91.9284L108.195 91.8023ZM109.787 96.5936L109.407 96.7197L109.497 96.9895L109.781 96.9935L109.787 96.5936ZM114.866 96.6656L114.861 97.0656H114.866V96.6656ZM114.992 96.6656L115.042 96.2687L115.017 96.2656H114.992V96.6656ZM117.2 97.6143L116.944 97.9219L116.947 97.9247L117.2 97.6143ZM118.546 99.5835L118.927 99.4619L118.926 99.4601L118.546 99.5835ZM118.594 101.955L118.208 101.849V101.849L118.594 101.955ZM117.331 103.979L117.572 104.298L117.584 104.289L117.595 104.279L117.331 103.979ZM123.625 93.8077L123.85 93.4771L123.245 93.0649L123.225 93.7971L123.625 93.8077ZM131.169 101.823L130.826 102.027L130.826 102.027L131.169 101.823ZM134.454 117.757L134.057 117.706L134.057 117.706L134.454 117.757ZM127.209 132.317L127.489 132.603L127.489 132.603L127.209 132.317ZM110.612 139.642L110.59 139.243L110.59 139.243L110.612 139.642ZM93.3161 134.191L93.0691 134.505L93.0691 134.505L93.3161 134.191ZM85.0179 122.453L85.2821 122.152L84.1612 121.166L84.6389 122.581L85.0179 122.453ZM98.7364 128.277L98.7698 127.878L98.7685 127.878L98.7364 128.277ZM115.847 123.491L115.614 123.167L115.612 123.168L115.847 123.491ZM125.36 108.835L124.968 108.754L124.968 108.754L125.36 108.835ZM123.625 93.8134L123.225 93.8027L123.223 93.897L123.262 93.9825L123.625 93.8134ZM124.056 108.566L124.356 108.83L124.426 108.751L124.447 108.648L124.056 108.566ZM121.346 92.3254L121.689 92.1202L121.686 92.1158L121.346 92.3254ZM121.334 91.659L121.681 91.8569L121.682 91.8555L121.334 91.659ZM122.237 91.4068L122.43 91.0562L122.427 91.0547L122.237 91.4068ZM132.324 101.151L132.668 100.947L132.668 100.946L132.324 101.151ZM135.782 117.927L136.179 117.978L136.179 117.978L135.782 117.927ZM128.154 133.249L128.434 133.535L128.434 133.534L128.154 133.249ZM110.691 140.958L110.669 140.559L110.669 140.559L110.691 140.958ZM92.4847 135.224L92.2377 135.539L92.2379 135.539L92.4847 135.224ZM83.0678 120.418L83.4575 120.328L83.4547 120.316L83.4511 120.304L83.0678 120.418ZM83.2593 119.752L83.5225 120.053L83.526 120.05L83.2593 119.752ZM84.1986 119.8L83.9024 120.069L83.9034 120.07L84.1986 119.8ZM98.8504 126.975L98.8836 126.576L98.8824 126.576L98.8504 126.975ZM115.064 122.442L114.83 122.117L114.829 122.118L115.064 122.442ZM124.05 108.572L123.75 108.308L123.68 108.388L123.658 108.491L124.05 108.572ZM45.7179 115.572L45.7181 115.172L45.3179 115.172V115.572H45.7179ZM45.5204 140.807L45.244 140.518L45.2371 140.525L45.5204 140.807ZM28.2009 140.807L28.4843 140.525L28.4772 140.518L28.2009 140.807ZM28.0034 115.579H28.4034V115.179H28.0034V115.579ZM15.2002 115.386L15.4836 115.104L15.4766 115.097L15.2002 115.386ZM15.0028 99.0022L14.6028 98.9956V99.0022H15.0028ZM28.0034 98.3417V98.7417H28.4034V98.3417H28.0034ZM28.2008 88.0087L28.4773 88.298L28.4842 88.2911L28.2008 88.0087ZM45.5267 88.0087L45.2433 88.2911L45.2503 88.2979L45.5267 88.0087ZM45.7241 98.3477H45.3241V98.7477H45.7241V98.3477ZM58.318 98.3477V98.7477H58.718V98.3477H58.318ZM58.318 98.3417V97.9417H57.918V98.3417H58.318ZM58.988 99.0022H59.3881L59.388 98.9956L58.988 99.0022ZM58.7906 115.386L58.5141 115.097L58.5073 115.104L58.7906 115.386ZM58.318 115.579L58.3178 115.979H58.318V115.579ZM44.3837 139.673L44.3839 140.073L44.7837 140.073V139.673H44.3837ZM44.3837 114.919L43.9837 114.913V114.919H44.3837ZM45.0478 114.265L45.0412 114.665H45.0478V114.265ZM57.6416 114.265V114.665H58.0416V114.265H57.6416ZM57.6416 99.663H58.0416V99.263H57.6416V99.663ZM44.5811 99.4708L44.8646 99.1884L44.8575 99.1817L44.5811 99.4708ZM44.3837 89.1318H44.7837V88.7318H44.3837V89.1318ZM29.337 89.1318V88.7318H28.937V89.1318H29.337ZM29.1395 99.4708L29.416 99.7601L29.4229 99.7532L29.1395 99.4708ZM16.3363 99.663V99.263H15.9363V99.663H16.3363ZM16.3363 114.265H15.9363V114.665H16.3363V114.265ZM28.6729 114.265V114.665L28.6795 114.665L28.6729 114.265ZM29.337 114.919H29.737L29.7369 114.913L29.337 114.919ZM29.337 139.679H28.937V140.079L29.3371 140.079L29.337 139.679ZM109.195 62.6109L108.802 62.5333L108.702 63.0417L109.219 63.0101L109.195 62.6109ZM117.523 58.8102L117.237 58.5298L117.237 58.5302L117.523 58.8102ZM120.879 50.5607L120.479 50.5596V50.5614L120.879 50.5607ZM109.35 38.2224L109.326 38.6217L109.35 38.2224ZM100.173 33.9415L100.462 33.6657L100.462 33.6652L100.173 33.9415ZM100.173 15.2926L100.462 15.5689L100.462 15.5687L100.173 15.2926ZM102.841 13.1071L103.054 13.4459L102.743 12.7193L102.841 13.1071ZM91.1865 19.6815L91.4666 19.967L91.4675 19.9662L91.1865 19.6815ZM91.1865 55.2423L91.4674 54.9575L91.4666 54.9567L91.1865 55.2423ZM109.195 62.6093L109.587 62.6869L109.682 62.208L109.194 62.2093L109.195 62.6093ZM109.386 12.3206L109.355 12.7194L109.37 12.7206L109.385 12.7206L109.386 12.3206ZM127.209 19.6816L126.929 19.9665L126.929 19.9672L127.209 19.6816ZM127.209 55.2486L126.929 54.963L126.928 54.9638L127.209 55.2486ZM116.105 61.679L115.889 61.3426L116.212 62.0643L116.105 61.679ZM118.486 59.7277L118.2 59.4482L118.2 59.4488L118.486 59.7277ZM122.214 50.5596H121.814V50.5603L122.214 50.5596ZM109.428 36.9064L109.453 36.5072L109.453 36.5072L109.428 36.9064ZM101.136 33.0399L101.426 32.764L101.426 32.7639L101.136 33.0399ZM101.136 16.1863L101.426 16.4623L101.426 16.4617L101.136 16.1863ZM109.375 12.3197L109.406 11.921L109.377 11.9187L109.348 11.9206L109.375 12.3197ZM107.795 52.0015L107.516 51.7147L107.515 51.716L107.795 52.0015ZM104.875 52.0015L104.594 52.2861L104.596 52.288L104.875 52.0015ZM104.875 49.1195L104.595 48.8341L104.594 48.835L104.875 49.1195ZM107.795 49.1195L107.513 49.404L107.516 49.4063L107.795 49.1195ZM108.74 48.1889L109.021 47.9038L109.02 47.9033L108.74 48.1889ZM108.74 52.9322L109.02 53.2177L109.021 53.2172L108.74 52.9322ZM103.936 52.9322L104.216 52.6466L104.215 52.6458L103.936 52.9322ZM103.936 48.1889L104.215 48.4752L104.216 48.4744L103.936 48.1889ZM115.076 26.0642L114.797 25.7774L114.796 25.7786L115.076 26.0642ZM112.186 26.0942L111.903 26.3767L111.912 26.386L112.186 26.0942ZM112.156 26.0642L112.44 25.7818L112.437 25.7796L112.156 26.0642ZM112.156 23.1822L111.877 22.8957L111.875 22.8977L112.156 23.1822ZM115.076 23.1822L115.357 22.8977L115.355 22.8957L115.076 23.1822ZM116.021 22.2516L116.302 21.9665L116.301 21.966L116.021 22.2516ZM116.021 26.9948L116.301 27.2804L116.302 27.2799L116.021 26.9948ZM111.259 27.0309L111.535 26.7421L111.528 26.7346L111.52 26.7276L111.259 27.0309ZM111.217 26.9948L110.937 27.2812L110.946 27.2899L110.956 27.2981L111.217 26.9948ZM111.217 22.2516L111.496 22.5379L111.497 22.5371L111.217 22.2516ZM128.142 18.7513L127.862 19.0368L127.862 19.0368L128.142 18.7513ZM128.142 56.175L127.862 55.8894L127.862 55.8896L128.142 56.175ZM90.2475 56.175L90.5276 55.8895L90.5275 55.8894L90.2475 56.175ZM90.2475 18.7513L89.9675 18.4656L89.9674 18.4657L90.2475 18.7513ZM30.8382 49.7746L30.4907 49.9726L30.6058 50.1746H30.8382V49.7746ZM23.8265 37.4664L23.479 37.2682L23.366 37.4663L23.4789 37.6644L23.8265 37.4664ZM30.8442 25.1581V24.7581H30.6118L30.4967 24.96L30.8442 25.1581ZM44.6166 25.1581L44.9651 24.9618L44.8504 24.7581H44.6166V25.1581ZM51.5506 37.4664L51.8991 37.6627L52.0097 37.4664L51.8991 37.27L51.5506 37.4664ZM44.6166 49.7746V50.1746H44.8504L44.9651 49.971L44.6166 49.7746ZM46.1303 49.7746L45.7818 49.5783L45.4458 50.1746H46.1303V49.7746ZM58.4788 49.7746V50.1746H59.1633L58.8273 49.5783L58.4788 49.7746ZM52.3046 38.8173L52.6531 38.6209L52.3046 38.0024L51.9562 38.6209L52.3046 38.8173ZM43.8688 23.8372V24.2372H44.5531L44.2173 23.6409L43.8688 23.8372ZM37.7663 12.9998L38.1148 12.8036L37.7683 12.1882L37.4187 12.8018L37.7663 12.9998ZM31.5921 23.8372L31.2445 23.6392L30.9039 24.2372H31.5921V23.8372ZM30.0605 23.8372V24.2372H30.2929L30.408 24.0353L30.0605 23.8372ZM37.1859 11.3368V10.9368H36.9535L36.8384 11.1387L37.1859 11.3368ZM37.1919 11.3368V11.7368H37.4211L37.537 11.539L37.1919 11.3368ZM37.4492 11.0846L37.2567 10.734L37.2544 10.7352L37.4492 11.0846ZM38.3526 11.3428L38.701 11.1463L38.701 11.1463L38.3526 11.3428ZM45.4004 23.8432L45.0519 24.0396L45.1667 24.2432H45.4004V23.8432ZM59.6216 23.8432V24.2432H60.0216V23.8432H59.6216ZM59.6216 23.8372V23.4372H59.2216V23.8372H59.6216ZM60.2856 24.4976H60.6857L60.6856 24.4911L60.2856 24.4976ZM60.172 24.8639L59.8388 24.6425L59.8306 24.6548L59.8234 24.6676L60.172 24.8639ZM53.0764 37.4663L52.7278 37.2701L52.6173 37.4663L52.7278 37.6626L53.0764 37.4663ZM60.172 50.0688H60.572V49.9639L60.5205 49.8725L60.172 50.0688ZM60.172 50.0748H59.772V50.1955L59.8388 50.2961L60.172 50.0748ZM60.2856 50.441L60.6856 50.4476V50.441H60.2856ZM59.6216 51.0955L59.6281 50.6955H59.6216V51.0955ZM45.3944 51.0955V50.6955H45.1607L45.046 50.899L45.3944 51.0955ZM38.3466 63.5959L38.695 63.7924L38.6951 63.7923L38.3466 63.5959ZM37.4432 63.848L37.6408 63.5002L37.6318 63.4951L37.6226 63.4905L37.4432 63.848ZM37.186 63.5959L37.5359 63.4021L37.5335 63.3978L37.186 63.5959ZM30.0605 51.0955L30.408 50.8974L30.2929 50.6955H30.0605V51.0955ZM15.3369 51.0114L15.1409 51.3602L15.1492 51.3646L15.3369 51.0114ZM15.0856 50.1168L15.4324 50.3162L15.4331 50.3149L15.0856 50.1168ZM22.2949 37.4722L22.6424 37.6704L22.7553 37.4723L22.6424 37.2743L22.2949 37.4722ZM15.0856 24.8157L14.7363 25.0106L14.7381 25.0137L15.0856 24.8157ZM15.0318 24.3173L15.4129 24.4394L15.4165 24.4269L15.0318 24.3173ZM15.3429 23.9211L15.1552 23.5678L15.1527 23.5692L15.3429 23.9211ZM58.4787 25.1521L58.8785 25.1626L58.8893 24.7519L58.4785 24.7521L58.4787 25.1521ZM46.1302 25.1581L46.13 24.7581L45.4458 24.7584L45.7817 25.3544L46.1302 25.1581ZM52.3043 36.1154L51.9558 36.3118L52.3043 36.9302L52.6528 36.3118L52.3043 36.1154ZM58.4785 25.1581L58.827 25.3544L58.8757 25.2679L58.8784 25.1686L58.4785 25.1581ZM29.3125 25.1521L29.7123 25.1623L29.7228 24.7519L29.3123 24.7521L29.3125 25.1521ZM16.8084 25.1581L16.8082 24.7581L16.1202 24.7584L16.4609 25.3561L16.8084 25.1581ZM23.0603 36.1274L22.7128 36.3255L23.0603 36.9352L23.4079 36.3255L23.0603 36.1274ZM29.3123 25.1581L29.6598 25.3561L29.7096 25.2688L29.7122 25.1683L29.3123 25.1581ZM31.5919 51.0834V50.6834H30.9037L31.2444 51.2814L31.5919 51.0834ZM37.7661 61.9207L37.4186 62.1187L37.7681 62.7323L38.1147 62.1169L37.7661 61.9207ZM43.8686 51.0834L44.2171 51.2796L44.5529 50.6834H43.8686V51.0834ZM16.8069 49.7728V50.1728H29.311V49.7728V49.3728H16.8069V49.7728ZM29.311 49.7728L29.6585 49.5747L23.4066 38.6054L23.059 38.8034L22.7115 39.0015L28.9635 49.9708L29.311 49.7728ZM23.059 38.8034L22.7115 38.6054L16.4594 49.5747L16.8069 49.7728L17.1544 49.9709L23.4066 39.0015L23.059 38.8034ZM112.025 106.266L112.262 106.588L116.69 103.315L116.452 102.994L116.214 102.672L111.787 105.944L112.025 106.266ZM116.452 102.994H116.052V103H116.452H116.852V102.994H116.452ZM116.452 103L116.72 103.297C117.19 102.873 117.523 102.326 117.692 101.721L117.307 101.613L116.922 101.505C116.792 101.968 116.539 102.382 116.184 102.703L116.452 103ZM117.307 101.613L117.692 101.721C117.863 101.11 117.85 100.459 117.651 99.855L117.271 99.9798L116.891 100.105C117.04 100.557 117.05 101.047 116.922 101.505L117.307 101.613ZM117.271 99.9798L117.653 99.8601C117.462 99.2512 117.101 98.7173 116.61 98.3139L116.356 98.6229L116.102 98.9318C116.473 99.237 116.746 99.6396 116.89 100.099L117.271 99.9798ZM116.356 98.6229L116.61 98.3139C116.12 97.9105 115.521 97.6583 114.896 97.5833L114.848 97.9805L114.801 98.3776C115.276 98.4347 115.731 98.6268 116.102 98.9318L116.356 98.6229ZM114.848 97.9805L114.854 97.5805L109.302 97.5024L109.296 97.9024L109.291 98.3024L114.843 98.3804L114.848 97.9805ZM109.296 97.9024H109.696V97.8964H109.296H108.896V97.9024H109.296ZM109.296 97.8964V97.4964C109.188 97.4964 109.089 97.4267 109.054 97.32L108.674 97.4461L108.295 97.5722C108.439 98.0059 108.843 98.2964 109.296 98.2964V97.8964ZM108.674 97.4461L109.054 97.3207L107.331 92.1032L106.951 92.2286L106.571 92.3541L108.294 97.5715L108.674 97.4461ZM106.951 92.2286L107.31 92.052C107.038 91.5 106.618 91.031 106.103 90.698L105.886 91.0338L105.669 91.3697C106.064 91.6251 106.385 91.9846 106.592 92.4052L106.951 92.2286ZM105.886 91.0338L106.099 90.695C105.558 90.3559 104.934 90.1715 104.295 90.1715V90.5715V90.9715C104.78 90.9715 105.257 91.1114 105.674 91.3727L105.886 91.0338ZM104.295 90.5715L104.29 90.1715C103.643 90.1783 103.009 90.361 102.456 90.7065L102.667 91.0458L102.879 91.3852C103.307 91.1183 103.797 90.9767 104.299 90.9715L104.295 90.5715ZM102.667 91.0458L102.457 90.7055C101.927 91.033 101.498 91.5043 101.225 92.0658L101.584 92.2406L101.944 92.4155C102.15 91.9923 102.475 91.635 102.878 91.3862L102.667 91.0458ZM101.584 92.2406L101.206 92.1115L99.4289 97.323L99.8075 97.4521L100.186 97.5812L101.963 92.3697L101.584 92.2406ZM99.8075 97.4521L99.4296 97.3211C99.3915 97.4309 99.2882 97.5015 99.1718 97.4967L99.1554 97.8964L99.139 98.2961C99.6088 98.3153 100.032 98.0257 100.185 97.5831L99.8075 97.4521ZM99.1554 97.8964L99.1497 97.4964L93.6874 97.5745L93.6931 97.9745L93.6988 98.3744L99.1611 98.2964L99.1554 97.8964ZM93.6931 97.9745H93.2931V97.9805H93.6931H94.0931V97.9745H93.6931ZM93.6931 97.9805L93.6459 97.5833C93.0133 97.6583 92.422 97.9111 91.9275 98.3122L92.1794 98.6229L92.4314 98.9336C92.8103 98.6262 93.2601 98.4347 93.7402 98.3777L93.6931 97.9805ZM92.1794 98.6229L91.9254 98.3139C91.4349 98.7173 91.0733 99.2513 90.8824 99.8601L91.2641 99.9798L91.6457 100.099C91.7899 99.6397 92.0625 99.237 92.4335 98.9318L92.1794 98.6229ZM91.2641 99.9798L90.884 99.855C90.6856 100.459 90.6723 101.104 90.8427 101.72L91.2282 101.613L91.6137 101.506C91.4849 101.041 91.4955 100.557 91.6441 100.105L91.2641 99.9798ZM91.2282 101.613L90.8425 101.719C91.0057 102.313 91.3324 102.853 91.79 103.271L92.0598 102.976L92.3296 102.681C91.9854 102.366 91.7378 101.958 91.6139 101.507L91.2282 101.613ZM92.0598 102.976L91.8196 103.296L96.2408 106.616L96.481 106.296L96.7212 105.976L92.3 102.656L92.0598 102.976ZM96.481 106.296L96.2472 106.621C96.3327 106.682 96.3692 106.794 96.3314 106.901L96.7084 107.035L97.0854 107.168C97.239 106.735 97.096 106.246 96.7149 105.972L96.481 106.296ZM96.7084 107.035L96.3228 106.928L94.8869 112.128L95.2725 112.234L95.6581 112.341L97.094 107.141L96.7084 107.035ZM95.2725 112.234H94.8725V112.24H95.2725H95.6725V112.234H95.2725ZM95.2725 112.24L94.8779 112.175C94.667 113.452 95.218 114.736 96.2935 115.46L96.5169 115.128L96.7403 114.796C95.9253 114.247 95.5071 113.274 95.6672 112.305L95.2725 112.24ZM96.5169 115.128L96.2666 115.44L96.2965 115.464L96.5469 115.152L96.7972 114.84L96.7673 114.816L96.5169 115.128ZM96.5469 115.152L96.3299 115.488C97.3953 116.176 98.7594 116.21 99.8591 115.57L99.6578 115.224L99.4566 114.878C98.6178 115.367 97.577 115.341 96.7638 114.816L96.5469 115.152ZM99.6578 115.224L99.8954 115.546L104.101 112.442L103.864 112.12L103.626 111.798L99.4203 114.902L99.6578 115.224ZM103.864 112.12L104.099 112.444C104.198 112.371 104.337 112.371 104.436 112.444L104.671 112.12L104.907 111.797C104.527 111.52 104.008 111.52 103.628 111.797L103.864 112.12ZM104.671 112.12L104.43 112.439L108.582 115.579L108.823 115.26L109.065 114.941L104.913 111.801L104.671 112.12ZM108.823 115.26V114.86H108.817V115.26V115.66H108.823V115.26ZM108.817 115.26L108.621 115.609C109.164 115.915 109.782 116.065 110.408 116.038L110.391 115.638L110.373 115.239C109.899 115.26 109.428 115.146 109.014 114.912L108.817 115.26ZM110.391 115.638L110.403 116.038C111.059 116.018 111.687 115.814 112.232 115.456L112.012 115.122L111.793 114.788C111.368 115.067 110.883 115.223 110.378 115.239L110.391 115.638ZM112.012 115.122L112.237 115.453C112.76 115.099 113.175 114.6 113.427 114.013L113.059 113.855L112.692 113.698C112.501 114.143 112.186 114.521 111.788 114.791L112.012 115.122ZM113.059 113.855L113.426 114.014C113.671 113.447 113.754 112.817 113.651 112.199L113.257 112.264L112.862 112.33C112.939 112.792 112.878 113.267 112.692 113.697L113.059 113.855ZM113.257 112.264L113.641 112.154L112.134 106.877L111.749 106.987L111.364 107.096L112.872 112.374L113.257 112.264ZM111.749 106.987L112.134 106.878C112.104 106.773 112.147 106.657 112.243 106.595L112.024 106.26L111.806 105.925C111.423 106.175 111.238 106.647 111.364 107.095L111.749 106.987ZM112.024 106.26L111.625 106.286L111.625 106.292L112.025 106.266L112.424 106.24L112.423 106.234L112.024 106.26ZM117.283 104.015L117.046 103.693L112.912 106.749L113.149 107.071L113.387 107.392L117.521 104.336L117.283 104.015ZM113.149 107.071L112.765 107.181L114.153 112.038L114.537 111.928L114.922 111.818L113.534 106.961L113.149 107.071ZM114.537 111.928L114.151 112.031L114.175 112.121L114.561 112.018L114.948 111.915L114.924 111.825L114.537 111.928ZM114.561 112.018V112.418H114.567V112.018V111.618H114.561V112.018ZM114.567 112.018L114.173 112.083C114.292 112.808 114.205 113.552 113.914 114.217L114.28 114.378L114.647 114.538C115.002 113.726 115.106 112.825 114.962 111.953L114.567 112.018ZM114.28 114.378L113.913 114.218C113.621 114.892 113.139 115.468 112.527 115.876L112.748 116.209L112.97 116.542C113.71 116.049 114.293 115.352 114.647 114.537L114.28 114.378ZM112.748 116.209L112.525 115.877C111.9 116.297 111.171 116.532 110.413 116.56L110.427 116.959L110.442 117.359C111.347 117.326 112.221 117.045 112.972 116.541L112.748 116.209ZM110.427 116.959L110.412 116.56C109.686 116.587 108.965 116.408 108.329 116.042L108.13 116.389L107.93 116.736C108.695 117.175 109.565 117.392 110.442 117.359L110.427 116.959ZM108.13 116.389L108.309 116.032C108.307 116.03 108.302 116.028 108.296 116.024C108.29 116.02 108.284 116.015 108.279 116.011L108.028 116.323L107.778 116.635C107.826 116.674 107.885 116.714 107.95 116.747L108.13 116.389ZM108.028 116.323L108.269 116.004L104.494 113.152L104.253 113.471L104.012 113.79L107.787 116.642L108.028 116.323ZM104.253 113.471L104.015 113.149L100.198 115.971L100.436 116.293L100.674 116.615L104.491 113.793L104.253 113.471ZM100.436 116.293L100.214 115.96L100.16 115.996L100.382 116.329L100.605 116.661L100.658 116.625L100.436 116.293ZM100.382 116.329L100.177 115.985C98.8904 116.754 97.2839 116.721 96.0296 115.904L95.8112 116.239L95.5929 116.574C97.1028 117.558 99.038 117.597 100.587 116.672L100.382 116.329ZM95.8112 116.239L96.0443 115.914L96.0024 115.884L95.7694 116.209L95.5363 116.534L95.5782 116.564L95.8112 116.239ZM95.7694 116.209L95.9925 115.877C94.7473 115.04 94.1077 113.551 94.357 112.066L93.9625 112L93.5681 111.934C93.2669 113.727 94.0394 115.528 95.5463 116.541L95.7694 116.209ZM93.9625 112L94.3481 112.106L95.7062 107.189L95.3206 107.083L94.9351 106.976L93.577 111.893L93.9625 112ZM95.3206 107.083L95.5602 106.762L91.4739 103.706L91.2344 104.027L90.9948 104.347L95.0811 107.403L95.3206 107.083ZM91.2344 104.027L91.4952 103.723L91.4533 103.687L91.1925 103.991L90.9316 104.294L90.9735 104.33L91.2344 104.027ZM91.1925 103.991L91.4591 103.692C90.9105 103.202 90.5101 102.565 90.3157 101.861L89.9301 101.967L89.5445 102.074C89.7809 102.93 90.2659 103.699 90.9258 104.289L91.1925 103.991ZM89.9301 101.967L90.3164 101.864C90.1262 101.155 90.1381 100.405 90.3641 99.7139L89.9839 99.5896L89.6037 99.4653C89.3272 100.311 89.3152 101.219 89.5437 102.071L89.9301 101.967ZM89.9839 99.5896L90.365 99.7112C90.5866 99.0171 91.0086 98.3974 91.578 97.9294L91.3241 97.6203L91.0701 97.3113C90.3832 97.8759 89.8719 98.6251 89.6029 99.468L89.9839 99.5896ZM91.3241 97.6203L91.5766 97.9305C92.1536 97.4608 92.8486 97.1618 93.579 97.0749L93.5317 96.6777L93.4845 96.2805C92.5995 96.3858 91.7629 96.7472 91.0715 97.3102L91.3241 97.6203ZM93.5317 96.6777L93.5378 97.0777L98.695 96.9996L98.6889 96.5997L98.6829 96.1997L93.5257 96.2778L93.5317 96.6777ZM98.6889 96.5997L99.0675 96.7289L100.707 91.9256L100.328 91.7964L99.9496 91.6672L98.3103 96.4705L98.6889 96.5997ZM100.328 91.7964L100.7 91.9445L100.724 91.8845L100.352 91.7364L99.9805 91.5883L99.9566 91.6483L100.328 91.7964ZM100.352 91.7364L100.714 91.9065C101.028 91.2382 101.532 90.6725 102.161 90.2806L101.95 89.9411L101.738 89.6016C100.979 90.0745 100.37 90.7575 99.9901 91.5663L100.352 91.7364ZM101.95 89.9411L102.162 90.2802C102.798 89.8816 103.538 89.6687 104.289 89.6687V89.2687V88.8687C103.388 88.8687 102.501 89.124 101.737 89.6021L101.95 89.9411ZM104.289 89.2687V89.6687C105.033 89.6687 105.755 89.8757 106.385 90.2733L106.598 89.9351L106.812 89.5969C106.053 89.1179 105.183 88.8687 104.289 88.8687V89.2687ZM106.598 89.9351L106.383 90.2726C106.989 90.658 107.477 91.2125 107.786 91.8654L108.148 91.6943L108.509 91.5231C108.136 90.7351 107.547 90.0648 106.813 89.5976L106.598 89.9351ZM108.148 91.6943L107.814 91.9156C107.809 91.9075 107.807 91.9016 107.807 91.9017C107.807 91.9021 107.808 91.9039 107.809 91.9084C107.811 91.9133 107.813 91.9188 107.816 91.9284L108.195 91.8023L108.575 91.6762C108.564 91.644 108.538 91.5593 108.481 91.4729L108.148 91.6943ZM108.195 91.8023L107.816 91.9284L109.407 96.7197L109.787 96.5936L110.167 96.4675L108.575 91.6762L108.195 91.8023ZM109.787 96.5936L109.781 96.9935L114.861 97.0656L114.866 96.6656L114.872 96.2657L109.793 96.1936L109.787 96.5936ZM114.866 96.6656V97.0656H114.992V96.6656V96.2656H114.866V96.6656ZM114.992 96.6656L114.942 97.0625C115.683 97.1554 116.376 97.45 116.944 97.9218L117.2 97.6143L117.455 97.3067C116.766 96.7338 115.929 96.38 115.042 96.2687L114.992 96.6656ZM117.2 97.6143L116.947 97.9247C117.515 98.3858 117.938 99.0049 118.165 99.707L118.546 99.5835L118.926 99.4601C118.651 98.6132 118.141 97.8634 117.452 97.3038L117.2 97.6143ZM118.546 99.5835L118.165 99.7051C118.387 100.4 118.403 101.143 118.208 101.849L118.594 101.955L118.979 102.062C119.215 101.206 119.196 100.304 118.927 99.4619L118.546 99.5835ZM118.594 101.955L118.208 101.849C118.013 102.556 117.617 103.196 117.068 103.678L117.331 103.979L117.595 104.279C118.266 103.692 118.744 102.915 118.979 102.062L118.594 101.955ZM117.331 103.979L117.09 103.659L117.043 103.695L117.283 104.015L117.524 104.334L117.572 104.298L117.331 103.979ZM123.625 93.8077L123.4 94.1384C126.421 96.1952 128.959 98.884 130.826 102.027L131.169 101.823L131.513 101.619C129.587 98.3739 126.967 95.5992 123.85 93.4771L123.625 93.8077ZM131.169 101.823L130.826 102.027C133.628 106.742 134.764 112.265 134.057 117.706L134.454 117.757L134.851 117.809C135.58 112.191 134.407 106.487 131.513 101.619L131.169 101.823ZM134.454 117.757L134.057 117.706C133.351 123.153 130.837 128.198 126.929 132.032L127.209 132.317L127.489 132.603C131.526 128.643 134.121 123.434 134.851 117.809L134.454 117.757ZM127.209 132.317L126.929 132.032C122.529 136.341 116.727 138.906 110.59 139.243L110.612 139.642L110.634 140.042C116.966 139.694 122.95 137.048 127.489 132.603L127.209 132.317ZM110.612 139.642L110.59 139.243C104.453 139.586 98.4048 137.677 93.5631 133.876L93.3161 134.191L93.0691 134.505C98.0633 138.426 104.303 140.395 110.635 140.042L110.612 139.642ZM93.3161 134.191L93.5631 133.876C89.7774 130.904 86.9396 126.892 85.3969 122.325L85.0179 122.453L84.6389 122.581C86.2314 127.295 89.161 131.437 93.0691 134.505L93.3161 134.191ZM85.0179 122.453L84.7537 122.753C88.6471 126.178 93.5385 128.26 98.7044 128.675L98.7364 128.277L98.7685 127.878C93.7755 127.477 89.0467 125.464 85.2821 122.152L85.0179 122.453ZM98.7364 128.277L98.703 128.675C104.889 129.194 111.057 127.468 116.083 123.815L115.847 123.491L115.612 123.168C110.742 126.708 104.765 128.38 98.7698 127.878L98.7364 128.277ZM115.847 123.491L116.081 123.816C121.05 120.239 124.499 114.923 125.752 108.917L125.36 108.835L124.968 108.754C123.756 114.564 120.42 119.707 115.614 123.167L115.847 123.491ZM125.36 108.835L125.752 108.917C126.828 103.771 126.208 98.4058 123.988 93.6444L123.625 93.8134L123.262 93.9825C125.41 98.5872 126.01 103.777 124.968 108.754L125.36 108.835ZM123.625 93.8134L124.025 93.8241L124.025 93.8184L123.625 93.8077L123.225 93.7971L123.225 93.8027L123.625 93.8134ZM124.056 108.566L124.447 108.648C125.635 102.984 124.655 97.0817 121.689 92.1202L121.346 92.3254L121.002 92.5306C123.864 97.3186 124.811 103.016 123.664 108.484L124.056 108.566ZM121.346 92.3254L121.686 92.1158C121.637 92.0347 121.635 91.9388 121.681 91.8569L121.334 91.659L120.986 91.461C120.793 91.7995 120.804 92.2079 121.005 92.5351L121.346 92.3254ZM121.334 91.659L121.682 91.8555C121.75 91.7348 121.908 91.6839 122.047 91.7589L122.237 91.4068L122.427 91.0547C121.92 90.7815 121.276 90.9467 120.985 91.4625L121.334 91.659ZM122.237 91.4068L122.045 91.7574C126.146 94.0105 129.576 97.3283 131.981 101.356L132.324 101.151L132.668 100.946C130.19 96.7969 126.657 93.3783 122.43 91.0562L122.237 91.4068ZM132.324 101.151L131.98 101.356C134.932 106.322 136.128 112.14 135.385 117.875L135.782 117.927L136.179 117.978C136.944 112.066 135.711 106.067 132.668 100.947L132.324 101.151ZM135.782 117.927L135.386 117.875C134.637 123.61 131.992 128.925 127.874 132.963L128.154 133.249L128.434 133.534C132.68 129.371 135.407 123.891 136.179 117.978L135.782 117.927ZM128.154 133.249L127.874 132.963C123.241 137.501 117.128 140.204 110.669 140.559L110.691 140.958L110.713 141.357C117.367 140.992 123.663 138.207 128.434 133.535L128.154 133.249ZM110.691 140.958L110.669 140.559C104.203 140.919 97.8309 138.908 92.7315 134.909L92.4847 135.224L92.2379 135.539C97.4896 139.657 104.053 141.729 110.713 141.357L110.691 140.958ZM92.4847 135.224L92.7317 134.91C88.0771 131.255 84.8009 126.111 83.4575 120.328L83.0678 120.418L82.6782 120.509C84.0629 126.469 87.4396 131.772 92.2377 135.539L92.4847 135.224ZM83.0678 120.418L83.4511 120.304C83.4243 120.214 83.4548 120.112 83.5225 120.053L83.2593 119.752L82.9961 119.451C82.6929 119.716 82.5678 120.142 82.6846 120.533L83.0678 120.418ZM83.2593 119.752L83.526 120.05C83.6368 119.951 83.8043 119.961 83.9024 120.069L84.1986 119.8L84.4947 119.531C84.1023 119.099 83.4322 119.06 82.9926 119.454L83.2593 119.752ZM84.1986 119.8L83.9034 120.07C87.7767 124.305 93.1055 126.915 98.8185 127.373L98.8504 126.975L98.8824 126.576C93.3716 126.134 88.2307 123.616 84.4938 119.53L84.1986 119.8ZM98.8504 126.975L98.8173 127.373C104.686 127.862 110.531 126.226 115.299 122.765L115.064 122.442L114.829 122.118C110.216 125.466 104.561 127.048 98.8836 126.576L98.8504 126.975ZM115.064 122.442L115.298 122.766C119.998 119.375 123.261 114.341 124.442 108.654L124.05 108.572L123.658 108.491C122.518 113.983 119.367 118.844 114.83 122.117L115.064 122.442ZM124.05 108.572L124.351 108.836L124.356 108.83L124.056 108.566L123.755 108.302L123.75 108.308L124.05 108.572ZM45.7179 115.572H45.3179V140.339H45.7179H46.1179V115.572H45.7179ZM45.7179 140.339H45.3179C45.3179 140.412 45.2891 140.475 45.244 140.518L45.5204 140.807L45.7968 141.096C46.003 140.899 46.1179 140.626 46.1179 140.339H45.7179ZM45.5204 140.807L45.2371 140.525C45.1906 140.571 45.1269 140.599 45.0478 140.599V140.999V141.399C45.3276 141.399 45.5989 141.295 45.8038 141.089L45.5204 140.807ZM45.0478 140.999V140.599H28.6735V140.999V141.399H45.0478V140.999ZM28.6735 140.999V140.599C28.5944 140.599 28.5307 140.571 28.4842 140.525L28.2009 140.807L27.9175 141.089C28.1223 141.295 28.3937 141.399 28.6735 141.399V140.999ZM28.2009 140.807L28.4772 140.518C28.4321 140.475 28.4034 140.412 28.4034 140.339H28.0034H27.6034C27.6034 140.626 27.7183 140.899 27.9245 141.096L28.2009 140.807ZM28.0034 140.339H28.4034V115.579H28.0034H27.6034V140.339H28.0034ZM28.0034 115.579V115.179H15.6669V115.579V115.979H28.0034V115.579ZM15.6669 115.579V115.179C15.5956 115.179 15.5313 115.152 15.4836 115.104L15.2002 115.386L14.9169 115.669C15.1204 115.873 15.3911 115.979 15.6669 115.979V115.579ZM15.2002 115.386L15.4766 115.097C15.4315 115.054 15.4028 114.991 15.4028 114.918H15.0028H14.6028C14.6028 115.205 14.7177 115.479 14.9238 115.676L15.2002 115.386ZM15.0028 114.918H15.4028V99.0022H15.0028H14.6028V114.918H15.0028ZM15.0028 99.0022L15.4027 99.0087C15.4052 98.8557 15.5254 98.7417 15.6669 98.7417V98.3417V97.9417C15.0785 97.9417 14.6123 98.4162 14.6028 98.9956L15.0028 99.0022ZM15.6669 98.3417V98.7417H28.0034V98.3417V97.9417H15.6669V98.3417ZM28.0034 98.3417H28.4034V88.477H28.0034H27.6034V98.3417H28.0034ZM28.0034 88.477H28.4034C28.4034 88.4039 28.4321 88.341 28.4772 88.2979L28.2008 88.0087L27.9245 87.7195C27.7183 87.9166 27.6034 88.1899 27.6034 88.477H28.0034ZM28.2008 88.0087L28.4842 88.2911C28.5306 88.2444 28.5943 88.2166 28.6735 88.2166V87.8166V87.4166C28.3937 87.4166 28.1223 87.5208 27.9175 87.7264L28.2008 88.0087ZM28.6735 87.8166V88.2166H45.06V87.8166V87.4166H28.6735V87.8166ZM45.06 87.8166V88.2166C45.1313 88.2166 45.1956 88.2431 45.2433 88.291L45.5267 88.0087L45.81 87.7264C45.6065 87.5221 45.3358 87.4166 45.06 87.4166V87.8166ZM45.5267 88.0087L45.2503 88.2979C45.2954 88.341 45.3241 88.4039 45.3241 88.477H45.7241H46.1241C46.1241 88.1899 46.0092 87.9166 45.8031 87.7195L45.5267 88.0087ZM45.7241 88.477H45.3241V98.3477H45.7241H46.1241V88.477H45.7241ZM45.7241 98.3477V98.7477H58.318V98.3477V97.9477H45.7241V98.3477ZM58.318 98.3477H58.718V98.3417H58.318H57.918V98.3477H58.318ZM58.318 98.3417V98.7417C58.4641 98.7417 58.5857 98.8603 58.5881 99.0087L58.988 99.0022L59.388 98.9956C59.3784 98.4115 58.9017 97.9417 58.318 97.9417V98.3417ZM58.988 99.0022H58.588V114.918H58.988H59.388V99.0022H58.988ZM58.988 114.918H58.588C58.588 114.991 58.5593 115.054 58.5142 115.097L58.7906 115.386L59.067 115.676C59.2732 115.479 59.388 115.205 59.388 114.918H58.988ZM58.7906 115.386L58.5073 115.104C58.4608 115.151 58.3971 115.179 58.318 115.179V115.579V115.979C58.5978 115.979 58.8691 115.874 59.0739 115.669L58.7906 115.386ZM58.318 115.579L58.3182 115.179L45.7181 115.172L45.7179 115.572L45.7177 115.972L58.3178 115.979L58.318 115.579ZM44.3837 139.673H44.7837V114.919H44.3837H43.9837V139.673H44.3837ZM44.3837 114.919L44.7836 114.926C44.7862 114.771 44.9061 114.662 45.0412 114.665L45.0478 114.265L45.0544 113.865C44.4596 113.855 43.9932 114.335 43.9838 114.913L44.3837 114.919ZM45.0478 114.265V114.665H57.6416V114.265V113.865H45.0478V114.265ZM57.6416 114.265H58.0416V99.663H57.6416H57.2416V114.265H57.6416ZM57.6416 99.663V99.263H45.0478V99.663V100.063H57.6416V99.663ZM45.0478 99.663V99.263C44.9766 99.263 44.9122 99.2364 44.8645 99.1885L44.5811 99.4708L44.2978 99.7532C44.5013 99.9574 44.772 100.063 45.0478 100.063V99.663ZM44.5811 99.4708L44.8575 99.1817C44.8124 99.1386 44.7837 99.0756 44.7837 99.0025H44.3837H43.9837C43.9837 99.2896 44.0986 99.5629 44.3047 99.76L44.5811 99.4708ZM44.3837 99.0025H44.7837V89.1318H44.3837H43.9837V99.0025H44.3837ZM44.3837 89.1318V88.7318H29.337V89.1318V89.5318H44.3837V89.1318ZM29.337 89.1318H28.937V99.0025H29.337H29.737V89.1318H29.337ZM29.337 99.0025H28.937C28.937 99.066 28.9106 99.1339 28.8562 99.1885L29.1395 99.4708L29.4229 99.7532C29.6198 99.5556 29.737 99.2873 29.737 99.0025H29.337ZM29.1395 99.4708L28.8632 99.1817C28.8063 99.236 28.7359 99.263 28.6729 99.263V99.663V100.063C28.9569 100.063 29.2215 99.9458 29.4159 99.76L29.1395 99.4708ZM28.6729 99.663V99.263H16.3363V99.663V100.063H28.6729V99.663ZM16.3363 99.663H15.9363V114.265H16.3363H16.7363V99.663H16.3363ZM16.3363 114.265V114.665H28.6729V114.265V113.865H16.3363V114.265ZM28.6729 114.265L28.6795 114.665C28.8146 114.663 28.9345 114.771 28.937 114.926L29.337 114.919L29.7369 114.913C29.7275 114.335 29.261 113.855 28.6663 113.865L28.6729 114.265ZM29.337 114.919H28.937V139.679H29.337H29.737V114.919H29.337ZM29.337 139.679L29.3371 140.079L44.3839 140.073L44.3837 139.673L44.3835 139.273L29.3368 139.279L29.337 139.679ZM109.195 62.6109L109.219 63.0101C112.465 62.812 115.525 61.4187 117.808 59.0903L117.523 58.8102L117.237 58.5302C115.093 60.717 112.219 62.0255 109.17 62.2116L109.195 62.6109ZM117.523 58.8102L117.808 59.0906C120.042 56.8176 121.285 53.7503 121.279 50.5599L120.879 50.5607L120.479 50.5614C120.485 53.5431 119.323 56.4079 117.237 58.5298L117.523 58.8102ZM120.879 50.5607L121.279 50.5618C121.298 43.8187 116.079 38.2386 109.375 37.8232L109.35 38.2224L109.326 38.6217C115.604 39.0107 120.496 44.2379 120.479 50.5596L120.879 50.5607ZM109.35 38.2224L109.375 37.8232C105.988 37.6133 102.804 36.1266 100.462 33.6657L100.173 33.9415L99.8829 34.2172C102.363 36.8239 105.737 38.3993 109.326 38.6217L109.35 38.2224ZM100.173 33.9415L100.462 33.6652C95.6319 28.6083 95.6319 20.6261 100.462 15.5689L100.173 15.2926L99.8834 15.0164C94.7581 20.3827 94.7581 28.8517 99.8834 34.2178L100.173 33.9415ZM100.173 15.2926L100.462 15.5687C101.236 14.7574 102.108 14.0402 103.054 13.4459L102.841 13.1071L102.628 12.7684C101.624 13.3991 100.701 14.1588 99.8832 15.0166L100.173 15.2926ZM102.841 13.1071L102.743 12.7193C98.2762 13.8476 94.1867 16.1589 90.9056 19.3968L91.1865 19.6815L91.4675 19.9662C94.6478 16.8279 98.6111 14.5882 102.939 13.4949L102.841 13.1071ZM91.1865 19.6815L90.9064 19.3959C86.0613 24.1484 83.326 30.6636 83.326 37.465H83.726H84.126C84.126 30.8782 86.7751 24.5689 91.4666 19.967L91.1865 19.6815ZM83.726 37.465H83.326C83.326 44.2609 86.0613 50.776 90.9064 55.5279L91.1865 55.2423L91.4666 54.9567C86.775 50.3554 84.126 44.0462 84.126 37.465H83.726ZM91.1865 55.2423L90.9057 55.5271C95.7847 60.3381 102.353 63.0276 109.196 63.0093L109.195 62.6093L109.194 62.2093C102.563 62.227 96.1966 59.6208 91.4674 54.9575L91.1865 55.2423ZM109.195 62.6093L108.803 62.5317L108.802 62.5333L109.195 62.6109L109.587 62.6885L109.587 62.6869L109.195 62.6093ZM109.386 12.3206L109.385 12.7206C115.95 12.7443 122.246 15.3504 126.929 19.9665L127.209 19.6816L127.49 19.3968C122.659 14.6346 116.164 11.945 109.388 11.9206L109.386 12.3206ZM127.209 19.6816L126.929 19.9672C131.621 24.5691 134.27 30.8783 134.27 37.4651H134.67H135.07C135.07 30.6637 132.335 24.1486 127.489 19.3961L127.209 19.6816ZM134.67 37.4651H134.27C134.27 44.0524 131.621 50.3616 126.929 54.963L127.209 55.2486L127.489 55.5342C132.335 50.7821 135.07 44.267 135.07 37.4651H134.67ZM127.209 55.2486L126.928 54.9638C123.878 57.9722 120.121 60.147 115.998 61.2936L116.105 61.679L116.212 62.0643C120.466 60.8813 124.343 58.6372 127.49 55.5334L127.209 55.2486ZM116.105 61.679L116.322 62.0153C117.215 61.4401 118.035 60.7663 118.773 60.0065L118.486 59.7277L118.2 59.4488C117.502 60.166 116.73 60.801 115.889 61.3426L116.105 61.679ZM118.486 59.7277L118.773 60.0072C121.239 57.4827 122.62 54.092 122.614 50.5589L122.214 50.5596L121.814 50.5603C121.82 53.8836 120.52 57.0732 118.2 59.4482L118.486 59.7277ZM122.214 50.5596H122.614C122.614 43.1209 116.851 36.9645 109.453 36.5072L109.428 36.9064L109.404 37.3057C116.377 37.7367 121.814 43.5407 121.814 50.5596H122.214ZM109.428 36.9064L109.453 36.5072C106.401 36.3212 103.54 34.9849 101.426 32.764L101.136 33.0399L100.847 33.3157C103.1 35.682 106.15 37.1074 109.404 37.3057L109.428 36.9064ZM101.136 33.0399L101.426 32.7639C97.08 28.2052 97.0799 21.0212 101.426 16.4623L101.136 16.1863L100.847 15.9103C96.2063 20.7783 96.2063 28.4482 100.847 33.3159L101.136 33.0399ZM101.136 16.1863L101.426 16.4617C103.523 14.2529 106.372 12.9164 109.401 12.7189L109.375 12.3197L109.348 11.9206C106.119 12.1312 103.081 13.5565 100.846 15.9109L101.136 16.1863ZM109.375 12.3197L109.343 12.7185L109.355 12.7194L109.386 12.3206L109.418 11.9219L109.406 11.921L109.375 12.3197ZM108.399 50.5605H107.999C107.999 50.9953 107.826 51.4135 107.516 51.7147L107.795 52.0015L108.074 52.2882C108.542 51.833 108.799 51.2065 108.799 50.5605H108.399ZM107.795 52.0015L107.515 51.716C106.863 52.3553 105.813 52.3567 105.154 51.715L104.875 52.0015L104.596 52.288C105.564 53.2313 107.111 53.2327 108.075 52.287L107.795 52.0015ZM104.875 52.0015L105.156 51.7169C104.851 51.415 104.677 50.9956 104.677 50.5605H104.277H103.877C103.877 51.2061 104.134 51.8315 104.594 52.286L104.875 52.0015ZM104.277 50.5605H104.677C104.677 50.12 104.85 49.7065 105.156 49.4041L104.875 49.1195L104.594 48.835C104.134 49.2891 103.877 49.9082 103.877 50.5605H104.277ZM104.875 49.1195L105.155 49.405C105.814 48.7586 106.862 48.7601 107.513 49.404L107.795 49.1195L108.076 48.8351C107.112 47.8819 105.564 47.8834 104.595 48.8341L104.875 49.1195ZM107.795 49.1195L107.516 49.4063C107.826 49.7084 107.999 50.121 107.999 50.5545H108.399H108.799C108.799 49.9073 108.541 49.2872 108.074 48.8328L107.795 49.1195ZM108.399 50.5545H107.999V50.5605H108.399H108.799V50.5545H108.399ZM108.74 48.1889L108.459 48.4739C109.017 49.0233 109.333 49.7733 109.333 50.5605H109.733H110.133C110.133 49.5584 109.731 48.6032 109.021 47.9038L108.74 48.1889ZM109.733 50.5605H109.333C109.333 51.342 109.017 52.0979 108.459 52.6471L108.74 52.9322L109.021 53.2172C109.731 52.5174 110.133 51.5562 110.133 50.5605H109.733ZM108.74 52.9322L108.46 52.6466C107.281 53.8029 105.395 53.8029 104.216 52.6466L103.936 52.9322L103.656 53.2177C105.145 54.6792 107.53 54.6792 109.02 53.2177L108.74 52.9322ZM103.936 52.9322L104.215 52.6458C103.653 52.097 103.337 51.3419 103.337 50.5605H102.937H102.537C102.537 51.5564 102.939 52.5184 103.657 53.2185L103.936 52.9322ZM102.937 50.5605H103.337C103.337 49.7736 103.652 49.0243 104.215 48.4752L103.936 48.1889L103.657 47.9025C102.939 48.6024 102.537 49.5582 102.537 50.5605H102.937ZM103.936 48.1889L104.216 48.4744C105.395 47.3181 107.281 47.3181 108.46 48.4744L108.74 48.1889L109.02 47.9033C107.53 46.4418 105.145 46.4418 103.656 47.9033L103.936 48.1889ZM115.68 24.6232H115.28C115.28 25.0633 115.107 25.4757 114.797 25.7774L115.076 26.0642L115.355 26.3509C115.822 25.8961 116.08 25.2758 116.08 24.6232H115.68ZM115.076 26.0642L114.796 25.7786C114.148 26.4144 113.123 26.4248 112.46 25.8024L112.186 26.0942L111.912 26.386C112.888 27.3006 114.4 27.287 115.356 26.3497L115.076 26.0642ZM112.186 26.0942L112.469 25.8118L112.439 25.7818L112.156 26.0642L111.873 26.3465L111.903 26.3765L112.186 26.0942ZM112.156 26.0642L112.437 25.7796C112.129 25.4751 111.952 25.0607 111.952 24.6232H111.552H111.152C111.152 25.2785 111.417 25.8967 111.875 26.3487L112.156 26.0642ZM111.552 24.6232H111.952C111.952 24.1911 112.129 23.7708 112.437 23.4668L112.156 23.1822L111.875 22.8977C111.417 23.3501 111.152 23.9746 111.152 24.6232H111.552ZM112.156 23.1822L112.435 23.4688C113.094 22.8275 114.138 22.8275 114.797 23.4688L115.076 23.1822L115.355 22.8957C114.386 21.9519 112.846 21.9519 111.877 22.8957L112.156 23.1822ZM115.076 23.1822L114.795 23.4668C115.108 23.7762 115.28 24.1903 115.28 24.6232H115.68H116.08C116.08 23.9754 115.821 23.3567 115.357 22.8977L115.076 23.1822ZM116.021 22.2516L115.74 22.5366C116.298 23.0858 116.614 23.8416 116.614 24.6232H117.014H117.414C117.414 23.6275 117.012 22.6662 116.302 21.9665L116.021 22.2516ZM117.014 24.6232H116.614C116.614 25.4103 116.298 26.1603 115.74 26.7098L116.021 26.9948L116.302 27.2799C117.012 26.5804 117.414 25.6253 117.414 24.6232H117.014ZM116.021 26.9948L115.741 26.7093C114.572 27.8559 112.712 27.8703 111.535 26.7421L111.259 27.0309L110.982 27.3196C112.473 28.7491 114.826 28.7275 116.301 27.2804L116.021 26.9948ZM111.259 27.0309L111.52 26.7276L111.478 26.6916L111.217 26.9948L110.956 27.2981L110.998 27.3341L111.259 27.0309ZM111.217 26.9948L111.496 26.7085C110.935 26.1607 110.624 25.412 110.624 24.6232H110.224H109.824C109.824 25.6237 110.219 26.5801 110.937 27.2812L111.217 26.9948ZM110.224 24.6232H110.624C110.624 23.8401 110.935 23.0855 111.496 22.5379L111.217 22.2516L110.937 21.9652C110.218 22.6666 109.824 23.6292 109.824 24.6232H110.224ZM111.217 22.2516L111.497 22.5371C112.675 21.3808 114.562 21.3808 115.741 22.5371L116.021 22.2516L116.301 21.966C114.811 20.5045 112.426 20.5045 110.937 21.966L111.217 22.2516ZM128.142 18.7513L127.862 19.0368C132.805 23.8847 135.592 30.5243 135.592 37.4662H135.992H136.392C136.392 30.3098 133.519 23.4643 128.422 18.4657L128.142 18.7513ZM135.992 37.4662H135.592C135.592 44.4016 132.805 51.0413 127.862 55.8894L128.142 56.175L128.422 56.4605C133.519 51.4618 136.392 44.6162 136.392 37.4662H135.992ZM128.142 56.175L127.862 55.8896C122.875 60.7875 116.173 63.5262 109.195 63.5262V63.9262V64.3262C116.383 64.3262 123.286 61.5052 128.422 56.4604L128.142 56.175ZM109.195 63.9262V63.5262C102.216 63.5262 95.5202 60.7876 90.5276 55.8895L90.2475 56.175L89.9673 56.4605C95.1092 61.5051 102.006 64.3262 109.195 64.3262V63.9262ZM90.2475 56.175L90.5275 55.8894C85.5848 51.0415 82.798 44.4019 82.798 37.4662H82.398H81.998C81.998 44.6165 84.8711 51.4619 89.9674 56.4605L90.2475 56.175ZM82.398 37.4662H82.798C82.798 30.5247 85.5849 23.885 90.5276 19.0368L90.2475 18.7513L89.9674 18.4657C84.871 23.4646 81.998 30.3103 81.998 37.4662H82.398ZM90.2475 18.7513L90.5274 19.037C95.5204 14.1445 102.217 11.4 109.195 11.4V11V10.6C102.006 10.6 95.1093 13.4273 89.9675 18.4656L90.2475 18.7513ZM109.195 11V11.4C116.173 11.4 122.875 14.1446 127.862 19.0368L128.142 18.7513L128.422 18.4657C123.286 13.4272 116.383 10.6 109.195 10.6V11ZM30.8382 49.7746L31.1858 49.5766L24.174 37.2684L23.8265 37.4664L23.4789 37.6644L30.4907 49.9726L30.8382 49.7746ZM23.8265 37.4664L24.1739 37.6645L31.1917 25.3562L30.8442 25.1581L30.4967 24.96L23.479 37.2682L23.8265 37.4664ZM30.8442 25.1581V25.5581H44.6166V25.1581V24.7581H30.8442V25.1581ZM44.6166 25.1581L44.2681 25.3544L51.2021 37.6627L51.5506 37.4664L51.8991 37.27L44.9651 24.9618L44.6166 25.1581ZM51.5506 37.4664L51.2021 37.27L44.2681 49.5783L44.6166 49.7746L44.9651 49.971L51.8991 37.6627L51.5506 37.4664ZM44.6166 49.7746V49.3746H30.8382V49.7746V50.1746H44.6166V49.7746ZM46.1303 49.7746V50.1746H58.4788V49.7746V49.3746H46.1303V49.7746ZM58.4788 49.7746L58.8273 49.5783L52.6531 38.6209L52.3046 38.8173L51.9562 39.0136L58.1303 49.971L58.4788 49.7746ZM52.3046 38.8173L51.9562 38.6209L45.7818 49.5783L46.1303 49.7746L46.4788 49.971L52.6531 39.0136L52.3046 38.8173ZM43.8688 23.8372L44.2173 23.6409L38.1148 12.8036L37.7663 12.9998L37.4177 13.1961L43.5202 24.0334L43.8688 23.8372ZM37.7663 12.9998L37.4187 12.8018L31.2445 23.6392L31.5921 23.8372L31.9397 24.0352L38.1138 13.1979L37.7663 12.9998ZM31.5921 23.8372V24.2372H43.8688V23.8372V23.4372H31.5921V23.8372ZM15.666 23.8372V24.2372H30.0605V23.8372V23.4372H15.666V23.8372ZM30.0605 23.8372L30.408 24.0353L37.5335 11.5349L37.1859 11.3368L36.8384 11.1387L29.713 23.6391L30.0605 23.8372ZM37.1859 11.3368V11.7368H37.1919V11.3368V10.9368H37.1859V11.3368ZM37.1919 11.3368L37.537 11.539C37.5618 11.4967 37.6005 11.4582 37.644 11.434L37.4492 11.0846L37.2544 10.7352C37.0825 10.831 36.9417 10.9727 36.8468 11.1345L37.1919 11.3368ZM37.4492 11.0846L37.6417 11.4352C37.7672 11.3663 37.9326 11.4124 38.0042 11.5393L38.3526 11.3428L38.701 11.1463C38.4136 10.6367 37.7654 10.4547 37.2567 10.734L37.4492 11.0846ZM38.3526 11.3428L38.0042 11.5392L45.0519 24.0396L45.4004 23.8432L45.7488 23.6467L38.701 11.1463L38.3526 11.3428ZM45.4004 23.8432V24.2432H59.6216V23.8432V23.4432H45.4004V23.8432ZM59.6216 23.8432H60.0216V23.8372H59.6216H59.2216V23.8432H59.6216ZM59.6216 23.8372V24.2372C59.7631 24.2372 59.8832 24.3511 59.8857 24.5041L60.2856 24.4976L60.6856 24.4911C60.6761 23.9116 60.2099 23.4372 59.6216 23.4372V23.8372ZM60.2856 24.4976H59.8856C59.8856 24.544 59.871 24.594 59.8388 24.6425L60.172 24.8639L60.5051 25.0852C60.6165 24.9176 60.6856 24.7155 60.6856 24.4976H60.2856ZM60.172 24.8639L59.8234 24.6676L52.7278 37.2701L53.0764 37.4663L53.4249 37.6626L60.5205 25.0601L60.172 24.8639ZM53.0764 37.4663L52.7278 37.6626L59.8234 50.265L60.172 50.0688L60.5205 49.8725L53.4249 37.2701L53.0764 37.4663ZM60.172 50.0688H59.772V50.0748H60.172H60.572V50.0688H60.172ZM60.172 50.0748L59.8388 50.2961C59.871 50.3447 59.8856 50.3947 59.8856 50.441H60.2856H60.6856C60.6856 50.2232 60.6165 50.021 60.5051 49.8534L60.172 50.0748ZM60.2856 50.441L59.8857 50.4345C59.8832 50.5888 59.7633 50.6977 59.6281 50.6955L59.6216 51.0955L59.615 51.4954C60.2097 51.5052 60.6761 51.0257 60.6856 50.4476L60.2856 50.441ZM59.6216 51.0955V50.6955H45.3944V51.0955V51.4955H59.6216V51.0955ZM45.3944 51.0955L45.046 50.899L37.9982 63.3994L38.3466 63.5959L38.6951 63.7923L45.7428 51.2919L45.3944 51.0955ZM38.3466 63.5959L37.9982 63.3993C37.9267 63.5262 37.7639 63.5702 37.6408 63.5002L37.4432 63.848L37.2456 64.1958C37.7567 64.4861 38.4076 64.3019 38.695 63.7924L38.3466 63.5959ZM37.4432 63.848L37.6226 63.4905C37.5935 63.4759 37.5604 63.4463 37.5359 63.4021L37.186 63.5959L36.836 63.7896C36.9312 63.9615 37.0776 64.1121 37.2638 64.2055L37.4432 63.848ZM37.186 63.5959L37.5335 63.3978L30.408 50.8974L30.0605 51.0955L29.713 51.2935L36.8384 63.7939L37.186 63.5959ZM30.0605 51.0955V50.6955H15.666V51.0955V51.4955H30.0605V51.0955ZM15.666 51.0955V50.6955C15.622 50.6955 15.5724 50.6836 15.5246 50.6582L15.3369 51.0114L15.1492 51.3646C15.3048 51.4473 15.4825 51.4955 15.666 51.4955V51.0955ZM15.3369 51.0114L15.5329 50.6627C15.4707 50.6278 15.4281 50.5732 15.4105 50.5116L15.0258 50.6211L14.6411 50.7306C14.7193 51.0053 14.904 51.227 15.1409 51.3601L15.3369 51.0114ZM15.0258 50.6211L15.4105 50.5116C15.3908 50.4422 15.3991 50.3741 15.4324 50.3162L15.0856 50.1168L14.7389 49.9174C14.5927 50.1717 14.5652 50.4638 14.6411 50.7306L15.0258 50.6211ZM15.0856 50.1168L15.4331 50.3149L22.6424 37.6704L22.2949 37.4722L21.9474 37.2741L14.7382 49.9187L15.0856 50.1168ZM22.2949 37.4722L22.6424 37.2743L15.4332 24.6177L15.0856 24.8157L14.7381 25.0137L21.9473 37.6702L22.2949 37.4722ZM15.0856 24.8157L15.4349 24.6208C15.4009 24.5598 15.3952 24.494 15.4127 24.4393L15.0318 24.3173L14.6509 24.1953C14.5607 24.4769 14.6028 24.7713 14.7364 25.0106L15.0856 24.8157ZM15.0318 24.3173L15.4165 24.4269C15.4376 24.3528 15.4809 24.3012 15.5331 24.273L15.3429 23.9211L15.1527 23.5692C14.8938 23.7091 14.7217 23.9456 14.6471 24.2078L15.0318 24.3173ZM15.3429 23.9211L15.5306 24.2743C15.5815 24.2473 15.6252 24.2372 15.666 24.2372V23.8372V23.4372C15.4793 23.4372 15.3077 23.4868 15.1552 23.5678L15.3429 23.9211ZM58.4787 25.1521L58.4785 24.7521L46.13 24.7581L46.1302 25.1581L46.1304 25.5581L58.4788 25.5521L58.4787 25.1521ZM46.1302 25.1581L45.7817 25.3544L51.9558 36.3118L52.3043 36.1154L52.6528 35.9191L46.4786 24.9617L46.1302 25.1581ZM52.3043 36.1154L52.6528 36.3118L58.827 25.3544L58.4785 25.1581L58.13 24.9617L51.9558 35.9191L52.3043 36.1154ZM58.4785 25.1581L58.8784 25.1686L58.8785 25.1626L58.4787 25.1521L58.0788 25.1415L58.0786 25.1476L58.4785 25.1581ZM29.3125 25.1521L29.3123 24.7521L16.8082 24.7581L16.8084 25.1581L16.8086 25.5581L29.3127 25.5521L29.3125 25.1521ZM16.8084 25.1581L16.4609 25.3561L22.7128 36.3255L23.0603 36.1274L23.4079 35.9293L17.1559 24.96L16.8084 25.1581ZM23.0603 36.1274L23.4079 36.3255L29.6598 25.3561L29.3123 25.1581L28.9648 24.96L22.7128 35.9293L23.0603 36.1274ZM29.3123 25.1581L29.7122 25.1683L29.7123 25.1623L29.3125 25.1521L28.9126 25.1418L28.9125 25.1478L29.3123 25.1581ZM31.5919 51.0834L31.2444 51.2814L37.4186 62.1187L37.7661 61.9207L38.1137 61.7227L31.9395 50.8854L31.5919 51.0834ZM37.7661 61.9207L38.1147 62.1169L44.2171 51.2796L43.8686 51.0834L43.5201 50.8871L37.4176 61.7244L37.7661 61.9207ZM43.8686 51.0834V50.6834H31.5919V51.0834V51.4834H43.8686V51.0834Z" fill="#663366" mask="url(#path-1-outside-1_153_3046)"/>
</svg>
