<svg width="151" height="151" viewBox="0 0 151 151" fill="none" xmlns="http://www.w3.org/2000/svg">
<path fill-rule="evenodd" clip-rule="evenodd" d="M130.616 133.358V128.359H135.06C135.784 128.359 136.381 127.767 136.381 127.038V120.962C136.381 120.232 135.784 119.641 135.06 119.641H130.616V108.047H135.06C135.784 108.047 136.381 107.455 136.381 106.726V100.65C136.381 99.9204 135.784 99.3286 135.06 99.3286H130.616V87.73H135.06C135.784 87.73 136.381 87.1382 136.381 86.409V80.3323C136.381 79.6031 135.784 79.0113 135.06 79.0113H130.616V57.0512C130.616 56.322 130.025 55.7302 129.295 55.7302H127.52V50.1238C127.52 49.3946 126.928 48.8028 126.199 48.8028H117.005C116.751 48.8081 116.508 48.8821 116.307 49.0089L105.39 55.7303H100.55V39.8886C100.55 39.1594 99.9582 38.5675 99.229 38.5675H52.7711C52.0419 38.5675 51.4501 39.1594 51.4501 39.8886V55.7303H46.6099L35.693 49.0089C35.4922 48.8821 35.2492 48.8081 34.9955 48.8028H25.8012C25.072 48.8028 24.4802 49.3946 24.4802 50.1238V55.7302H22.7048C21.9756 55.7302 21.3837 56.322 21.3837 57.0512V79.0113H16.9452C16.216 79.0113 15.6242 79.6031 15.6242 80.3323V86.409C15.6242 87.1382 16.216 87.73 16.9452 87.73H21.3837V99.3286H16.9452C16.216 99.3286 15.6242 99.9204 15.6242 100.65V106.726C15.6242 107.455 16.216 108.047 16.9452 108.047H21.3837V119.641H16.9452C16.216 119.641 15.6242 120.232 15.6242 120.962V127.038C15.6242 127.767 16.216 128.359 16.9452 128.359H21.3837V133.358H12.591C11.8618 133.358 11.27 133.95 11.27 134.679C11.27 135.408 11.8618 136 12.591 136H139.409C140.138 136 140.73 135.408 140.73 134.679C140.73 133.95 140.138 133.358 139.409 133.358H130.616ZM97.9075 133.358V51.4547H54.0915V133.358H57.8749V101.643C57.8749 100.914 58.4667 100.322 59.1959 100.322H92.803C93.5322 100.322 94.124 100.914 94.124 101.643V133.358H97.9075ZM127.975 71.1435V67.1857H100.551V133.358H127.975V128.36H112.598H112.572L112.556 128.354H112.545H112.535H112.529C112.524 128.354 112.519 128.354 112.514 128.349H112.492L112.482 128.344H112.477H112.466H112.461H112.445L112.44 128.338C112.429 128.338 112.418 128.333 112.408 128.333H112.397C112.376 128.328 112.35 128.317 112.318 128.312H112.307L112.302 128.307H112.297C112.276 128.301 112.26 128.291 112.239 128.286H112.234C112.212 128.275 112.186 128.264 112.165 128.254H112.154L112.144 128.249C112.128 128.243 112.112 128.233 112.096 128.227L112.091 128.222H112.086L112.075 128.212H112.07C112.064 128.212 112.059 128.206 112.059 128.206C112.038 128.196 112.022 128.185 112.006 128.175C112.001 128.175 111.996 128.175 111.996 128.169C111.964 128.153 111.943 128.138 111.911 128.116C111.911 128.111 111.906 128.111 111.901 128.111C111.858 128.074 111.811 128.037 111.769 127.995C111.753 127.979 111.732 127.963 111.721 127.947C111.716 127.942 111.71 127.937 111.71 127.932C111.695 127.921 111.684 127.905 111.673 127.895L111.668 127.889C111.652 127.873 111.647 127.858 111.631 127.842L111.626 127.836V127.831L111.615 127.826V127.821L111.605 127.81C111.594 127.794 111.584 127.778 111.573 127.768L111.568 127.752C111.562 127.747 111.562 127.741 111.557 127.731L111.552 127.725C111.547 127.72 111.541 127.71 111.541 127.704C111.525 127.683 111.51 127.657 111.499 127.636C111.488 127.604 111.473 127.577 111.457 127.546C111.457 127.541 111.457 127.53 111.451 127.525C111.446 127.519 111.446 127.514 111.446 127.509C111.441 127.498 111.436 127.482 111.436 127.472C111.43 127.467 111.425 127.456 111.425 127.451L111.42 127.44C111.414 127.414 111.404 127.382 111.393 127.356C111.393 127.34 111.388 127.329 111.388 127.313C111.383 127.303 111.383 127.292 111.383 127.282V127.276C111.383 127.271 111.383 127.266 111.377 127.26C111.377 127.255 111.377 127.25 111.372 127.25V127.192C111.367 127.181 111.367 127.165 111.362 127.155V127.039V120.962C111.362 120.233 111.953 119.641 112.683 119.641H115.647V113.094C115.647 112.365 116.234 111.773 116.968 111.773H127.975V108.048H112.615L112.604 108.042H112.546L112.535 108.037H112.504L112.493 108.032H112.461L112.451 108.026H112.44L112.43 108.021H112.414L112.408 108.016H112.387L112.382 108.011H112.366L112.356 108.005H112.345L112.335 108H112.324L112.319 107.995H112.308L112.303 107.99H112.287L112.282 107.984H112.271L112.261 107.979H112.255L112.25 107.974H112.239L112.229 107.968H112.224L112.218 107.963L112.208 107.958L112.192 107.952L112.181 107.947H112.176L112.155 107.937H112.15L112.144 107.931H112.134L112.123 107.921L112.107 107.916H112.102L112.091 107.91L112.081 107.9H112.07L112.06 107.894L112.054 107.889L112.044 107.884L112.039 107.879H112.028L112.017 107.868L111.986 107.852V107.847L111.975 107.842H111.97L111.965 107.836L111.954 107.831L111.943 107.82L111.933 107.815L111.928 107.81L111.917 107.805L111.912 107.799L111.901 107.794V107.789L111.891 107.783L111.88 107.773L111.87 107.768L111.859 107.757H111.848V107.746L111.827 107.736L111.806 107.715L111.796 107.709L111.748 107.662L111.743 107.651H111.737L111.732 107.641L111.722 107.635V107.63L111.711 107.625V107.62L111.7 107.614C111.7 107.609 111.69 107.598 111.685 107.593L111.679 107.583L111.674 107.577L111.663 107.572L111.658 107.567L111.653 107.556L111.648 107.551V107.546L111.637 107.54V107.535L111.632 107.53L111.626 107.519L111.616 107.509C111.616 107.509 111.616 107.503 111.611 107.498L111.605 107.493C111.605 107.487 111.6 107.482 111.595 107.477C111.589 107.472 111.584 107.466 111.584 107.456L111.574 107.451V107.445L111.563 107.435V107.429C111.563 107.424 111.558 107.419 111.552 107.414V107.408C111.537 107.387 111.521 107.361 111.51 107.334C111.5 107.324 111.5 107.313 111.494 107.308L111.489 107.297C111.478 107.276 111.468 107.25 111.457 107.223C111.436 107.181 111.426 107.133 111.41 107.086C111.41 107.081 111.41 107.07 111.405 107.065L111.399 107.054C111.399 107.049 111.399 107.044 111.394 107.038V107.023C111.389 107.001 111.383 106.986 111.383 106.964V106.954C111.378 106.949 111.378 106.943 111.373 106.938V106.922V106.912C111.373 106.896 111.373 106.88 111.368 106.864C111.368 106.853 111.362 106.843 111.362 106.832V106.795V106.779V106.774V106.727V100.65V100.592V100.581V100.565V100.539V100.528C111.373 100.476 111.378 100.417 111.389 100.365C111.389 100.359 111.394 100.354 111.394 100.349V100.333L111.399 100.322V100.317C111.405 100.306 111.41 100.296 111.41 100.285C111.415 100.28 111.415 100.275 111.415 100.269L111.42 100.264V100.254C111.426 100.248 111.426 100.243 111.426 100.232C111.452 100.158 111.484 100.085 111.521 100.011L111.526 100.005C111.526 100 111.531 99.9947 111.531 99.9947L111.547 99.9788V99.9683C111.552 99.9683 111.552 99.963 111.558 99.9577C111.558 99.9524 111.563 99.9471 111.563 99.9418L111.574 99.9313V99.926L111.584 99.9154V99.9101C111.589 99.9049 111.595 99.9048 111.595 99.8996L111.6 99.889L111.605 99.8837V99.8784L111.616 99.8731V99.8626L111.626 99.8573V99.852L111.637 99.8414L111.642 99.8309L111.653 99.8203V99.815L111.663 99.8045L111.674 99.7992L111.679 99.7886L111.69 99.778V99.7728L111.7 99.7622L111.711 99.7569L111.716 99.7463L111.764 99.6988L111.774 99.6935V99.6882L111.801 99.6618L111.811 99.6565L111.827 99.6406L111.838 99.6354V99.6301L111.848 99.6248L111.859 99.6142L111.87 99.6089V99.6037L111.88 99.5984L111.891 99.5878L111.912 99.5772L111.928 99.5614L111.938 99.5561H111.943L111.954 99.5455L111.965 99.5402L111.975 99.5297H111.986V99.5244L112.007 99.5138V99.5085H112.017L112.028 99.498L112.039 99.4927H112.044L112.049 99.4874L112.06 99.4821H112.065L112.076 99.4768L112.086 99.4663H112.091L112.102 99.461L112.107 99.4557H112.113L112.123 99.4504H112.134L112.144 99.4398H112.155L112.165 99.4293H112.176L112.181 99.424H112.187L112.197 99.4187H112.208L112.218 99.4081H112.229L112.234 99.4029H112.239L112.25 99.3976H112.261L112.266 99.3923H112.271L112.282 99.387H112.298L112.303 99.3817H112.308L112.319 99.3764H112.324L112.335 99.3712H112.35L112.356 99.3659H112.377L112.382 99.3606H112.398L112.408 99.3553H112.424L112.43 99.35H112.445L112.456 99.3447H112.482L112.488 99.3395H112.525L112.53 99.3342H112.578L112.588 99.3289H115.648V92.7766C115.648 92.0474 116.234 91.4556 116.969 91.4556H127.975V87.7303H112.566L112.561 87.725H112.519L112.514 87.7197H112.482L112.471 87.7144H112.45L112.445 87.7092H112.418L112.413 87.7039H112.397L112.387 87.6986H112.376L112.366 87.6933H112.355L112.35 87.688H112.334L112.323 87.6827H112.318L112.308 87.6774H112.292L112.286 87.6722H112.281L112.271 87.6669H112.26L112.255 87.6616H112.249L112.239 87.6563H112.228V87.651H112.218L112.212 87.6457L112.202 87.6405H112.191L112.186 87.6352H112.175V87.6299L112.16 87.6246H112.154L112.144 87.6193L112.138 87.614H112.133L112.112 87.6035H112.107L112.101 87.5982L112.091 87.5929H112.086L112.08 87.5876L112.049 87.5718H112.043L112.038 87.5665L112.027 87.5612L112.022 87.5559C112.017 87.5506 112.006 87.5506 112.006 87.5453L111.975 87.5295L111.964 87.5189L111.953 87.5136L111.948 87.5084H111.943L111.938 87.5031L111.927 87.4978L111.911 87.4819H111.901V87.4767L111.89 87.4714L111.88 87.4608L111.869 87.4555L111.858 87.4449L111.848 87.4397V87.4344L111.837 87.4291V87.4238L111.827 87.4185L111.806 87.3974C111.8 87.3974 111.795 87.3921 111.79 87.3921L111.784 87.3815L111.742 87.3393C111.732 87.3287 111.726 87.3234 111.721 87.3181L111.71 87.3128C111.695 87.2917 111.679 87.2706 111.658 87.2441L111.636 87.223L111.631 87.2124C111.626 87.2124 111.626 87.2072 111.626 87.2072L111.615 87.1966C111.615 87.1913 111.615 87.1913 111.61 87.186L111.605 87.1807C111.605 87.1807 111.605 87.1755 111.599 87.1702L111.589 87.1543L111.584 87.149V87.1438C111.578 87.1385 111.573 87.1385 111.573 87.1332C111.573 87.1279 111.573 87.1279 111.568 87.1226L111.562 87.1173C111.562 87.1121 111.557 87.1068 111.552 87.0962L111.547 87.0909V87.0856C111.531 87.0645 111.515 87.0381 111.504 87.0117C111.499 86.9958 111.488 86.9852 111.483 86.9694L111.478 86.9641V86.9588C111.478 86.9535 111.473 86.9482 111.467 86.943V86.9377V86.9271C111.462 86.9218 111.457 86.9113 111.457 86.906V86.9007C111.441 86.8743 111.436 86.8426 111.425 86.8161C111.425 86.8109 111.42 86.8056 111.42 86.8056C111.42 86.8003 111.415 86.7897 111.415 86.7844C111.415 86.7792 111.409 86.7739 111.409 86.7633C111.404 86.7527 111.399 86.7369 111.393 86.721C111.393 86.7105 111.388 86.6999 111.388 86.684C111.383 86.6418 111.372 86.5995 111.367 86.5572V86.5467C111.362 86.5361 111.362 86.5255 111.362 86.5149V86.4621V86.4198V80.3326C111.362 80.211 111.378 80.0948 111.409 79.9785C111.562 79.4237 112.075 79.0116 112.683 79.0116H115.647V72.4647C115.647 71.7355 116.234 71.1436 116.968 71.1436L127.975 71.1435ZM77.3218 109.422V133.358H91.4835V109.422H77.3218ZM51.451 67.1855H24.0272V71.1433H35.0392C35.7684 71.1433 36.3602 71.7351 36.3602 72.4643V79.0112H39.3616L39.3722 79.0165H39.4409L39.4515 79.0218H39.4885L39.499 79.0271H39.5202L39.5307 79.0323H39.5571L39.5624 79.0376H39.5836L39.5889 79.0429H39.6153L39.6206 79.0482H39.6258L39.6364 79.0535H39.6523L39.6575 79.0588H39.6787L39.684 79.064H39.6945L39.6998 79.0693H39.7104L39.7157 79.0746H39.721L39.7315 79.0799H39.7421L39.7474 79.0852H39.7527L39.7632 79.0905H39.7738L39.7949 79.101H39.8002L39.8055 79.1063H39.8161L39.8266 79.1116V79.1169H39.8372L39.8689 79.1327H39.8742L39.8795 79.138L39.89 79.1433H39.8953L39.9006 79.1486H39.9112L39.9218 79.1592H39.9323L39.9429 79.1697H39.9535L39.964 79.1803L39.9746 79.1856H39.9799L39.9852 79.1909L39.9957 79.1961V79.2014H40.0063L40.0169 79.212L40.0274 79.2173L40.038 79.2278H40.0486L40.0591 79.2384L40.0697 79.2437V79.249L40.0803 79.2543H40.0856L40.0908 79.2648H40.1014L40.112 79.2754L40.1225 79.2807L40.1543 79.3124L40.1648 79.3177L40.1807 79.3335H40.186L40.1965 79.3388V79.3494H40.2071C40.2071 79.3547 40.2124 79.36 40.2177 79.36L40.2229 79.3705C40.2282 79.3705 40.2282 79.3758 40.2335 79.3758L40.2441 79.3864L40.2494 79.3969L40.2599 79.4075L40.2705 79.4128V79.4181L40.2811 79.4234V79.4286L40.2916 79.4339V79.4392L40.3022 79.4445V79.4498L40.3128 79.4604V79.4656C40.3233 79.4709 40.3233 79.4762 40.3339 79.4815V79.4868L40.3445 79.4973V79.5026L40.355 79.5079V79.5132L40.3709 79.529L40.3762 79.5343V79.5449L40.3867 79.5502V79.5555L40.3973 79.566C40.4026 79.5713 40.4079 79.5819 40.4185 79.5977V79.603C40.429 79.6136 40.4343 79.6189 40.4396 79.6294V79.6347L40.4502 79.6453V79.6506C40.4607 79.6717 40.4766 79.6928 40.4871 79.7087V79.714C40.4924 79.7193 40.4924 79.7193 40.4924 79.7246C40.5136 79.7563 40.5241 79.788 40.5347 79.8197C40.54 79.825 40.5453 79.8302 40.5453 79.8355V79.8461C40.5506 79.8514 40.5558 79.8567 40.5558 79.8672C40.5558 79.8672 40.5611 79.8725 40.5611 79.8778C40.5664 79.8831 40.5664 79.8884 40.5664 79.8936C40.5664 79.8989 40.5717 79.9042 40.5717 79.9095C40.577 79.9148 40.577 79.9201 40.577 79.9253V79.9306C40.5823 79.9412 40.5875 79.9465 40.5875 79.9571C40.5875 79.9623 40.5875 79.9676 40.5928 79.9729C40.5981 79.9782 40.5981 79.9888 40.5981 79.994V80.0046C40.6087 80.031 40.614 80.0574 40.6192 80.0839C40.6192 80.0944 40.6192 80.105 40.6245 80.1156L40.6298 80.1261C40.6298 80.1684 40.6404 80.2054 40.6404 80.2477V80.2582V80.2635V80.2741V80.2899V80.3322V86.4089C40.6404 87.1381 40.0486 87.7299 39.3194 87.7299H24.0268V91.4552H35.0388C35.768 91.4552 36.3598 92.047 36.3598 92.7762V99.3285H39.414L39.4246 99.3338H39.4721L39.4827 99.3391H39.4986H39.5144C39.5197 99.3444 39.5303 99.3444 39.5408 99.3444H39.5461L39.5567 99.3497H39.562C39.5725 99.3497 39.5725 99.3497 39.5778 99.355H39.5831H39.5937L39.6042 99.3602H39.6201L39.6254 99.3655H39.6465C39.6465 99.3708 39.6571 99.3708 39.6571 99.3708H39.6676L39.6782 99.3761H39.6835L39.6888 99.3814H39.6993L39.7099 99.3867C39.7205 99.3919 39.7416 99.3972 39.7628 99.4025C39.7786 99.4078 39.7945 99.4131 39.8156 99.4236C39.8737 99.4448 39.9318 99.4765 39.9847 99.5082C39.9953 99.5135 40.0005 99.5135 40.0058 99.5188C40.0111 99.524 40.0164 99.524 40.0164 99.5293H40.0217C40.027 99.5293 40.0322 99.5346 40.0375 99.5399C40.0428 99.5399 40.0481 99.5452 40.0481 99.5452C40.0534 99.5505 40.0587 99.5505 40.0587 99.5557C40.0692 99.5557 40.0692 99.561 40.0692 99.561C40.0798 99.5663 40.0798 99.5663 40.0851 99.5716C40.0904 99.5769 40.0957 99.5769 40.1009 99.5822C40.1009 99.5875 40.1115 99.5875 40.1115 99.5875L40.1221 99.598C40.1326 99.6086 40.1432 99.6139 40.1485 99.6192L40.1538 99.6244L40.1643 99.6297L40.1749 99.6403C40.1855 99.6509 40.2013 99.6614 40.2172 99.6773C40.2225 99.6826 40.2278 99.6931 40.2383 99.6984L40.2595 99.7196C40.2647 99.7248 40.27 99.7248 40.27 99.7301C40.2806 99.7407 40.2912 99.7513 40.3017 99.7618C40.307 99.7671 40.3123 99.7777 40.3229 99.783L40.3334 99.7988V99.8041C40.3493 99.82 40.3651 99.8411 40.3757 99.8569C40.3863 99.8622 40.3863 99.8675 40.3916 99.8728C40.3968 99.8781 40.3968 99.8834 40.3968 99.8834L40.4021 99.8886L40.4074 99.8992L40.418 99.9098V99.9151L40.4285 99.9256V99.9309L40.4338 99.9362C40.4391 99.9415 40.4391 99.9468 40.4391 99.9468L40.4497 99.9573V99.9626L40.455 99.9679L40.4603 99.9785V99.9838L40.4708 99.989V99.9996C40.4708 100.005 40.4761 100.005 40.4814 100.01C40.4814 100.021 40.492 100.031 40.492 100.042L40.5025 100.052C40.5131 100.074 40.5184 100.095 40.5289 100.111C40.5342 100.121 40.5342 100.126 40.5342 100.137C40.5395 100.137 40.5448 100.142 40.5448 100.148C40.5448 100.158 40.5554 100.169 40.5554 100.179C40.5606 100.19 40.5659 100.2 40.5659 100.211C40.5712 100.222 40.5765 100.227 40.5765 100.237C40.5818 100.253 40.5871 100.269 40.5924 100.285L40.5976 100.296V100.311V100.317L40.6029 100.327L40.6082 100.333V100.343V100.348V100.359C40.6188 100.412 40.6293 100.465 40.6346 100.517V100.523C40.6399 100.565 40.6399 100.607 40.6399 100.65V106.726C40.6399 107.45 40.0587 108.042 39.3295 108.047H24.0275V111.773H35.0394C35.7686 111.773 36.3605 112.364 36.3605 113.094V119.64H39.3724L39.383 119.646H39.4464L39.457 119.651H39.4728H39.4887C39.4992 119.651 39.4992 119.656 39.5098 119.656H39.5309L39.5415 119.662H39.5627L39.5732 119.667H39.5891L39.5944 119.672H39.6155L39.6208 119.677H39.6261C39.6578 119.683 39.6895 119.693 39.7106 119.699L39.7317 119.709H39.7423C39.7476 119.709 39.7529 119.714 39.7634 119.714L39.7952 119.73C39.7952 119.73 39.8004 119.73 39.8057 119.736H39.8163L39.8374 119.746C39.8427 119.751 39.848 119.751 39.8586 119.757L39.8691 119.762H39.8744L39.8903 119.767L39.9008 119.778H39.9114L39.922 119.788L39.9325 119.794H39.9431V119.799H39.9537L39.9642 119.81L39.9748 119.815H39.9801L39.9854 119.82C39.9907 119.825 39.9959 119.825 39.9959 119.831L40.0065 119.836C40.0118 119.836 40.0171 119.841 40.0171 119.841H40.0224C40.0382 119.852 40.0594 119.868 40.0699 119.878C40.0805 119.878 40.0858 119.884 40.0911 119.889C40.0911 119.889 40.0963 119.894 40.1016 119.894V119.899L40.1122 119.905C40.1122 119.905 40.1122 119.91 40.1175 119.91L40.1228 119.915L40.1333 119.921V119.926L40.1492 119.931C40.1545 119.936 40.1545 119.936 40.1598 119.942L40.165 119.947C40.1756 119.952 40.1862 119.963 40.1915 119.968L40.1967 119.973C40.2073 119.979 40.2073 119.984 40.2179 119.994L40.2232 120C40.2284 120.005 40.2337 120.005 40.239 120.01C40.239 120.016 40.2443 120.016 40.2496 120.021C40.2496 120.026 40.2549 120.026 40.2601 120.031V120.037L40.2707 120.042C40.2707 120.042 40.2707 120.047 40.2813 120.053L40.2919 120.063C40.3024 120.079 40.313 120.09 40.3236 120.105C40.3341 120.111 40.3341 120.116 40.3394 120.121C40.3447 120.127 40.3447 120.132 40.35 120.137L40.3605 120.148C40.3658 120.153 40.3658 120.158 40.3711 120.158C40.3975 120.195 40.424 120.232 40.4504 120.269V120.275C40.4609 120.301 40.4821 120.327 40.4926 120.354C40.4979 120.359 40.5032 120.364 40.5032 120.37V120.375C40.5032 120.38 40.5085 120.38 40.5085 120.386L40.5138 120.391V120.396C40.5138 120.401 40.5191 120.401 40.5191 120.407C40.5244 120.412 40.5244 120.417 40.5244 120.417C40.5296 120.428 40.5349 120.433 40.5349 120.438C40.5349 120.449 40.5402 120.454 40.5455 120.46V120.465C40.5455 120.475 40.5561 120.486 40.5561 120.491C40.5561 120.496 40.5613 120.502 40.5613 120.507C40.5666 120.523 40.5719 120.539 40.5772 120.555C40.5825 120.565 40.5878 120.576 40.5878 120.592C40.5983 120.607 40.5983 120.629 40.6089 120.65C40.6089 120.66 40.6089 120.671 40.6142 120.681C40.6142 120.692 40.6195 120.697 40.6195 120.708C40.6195 120.718 40.6195 120.734 40.6248 120.745L40.63 120.755V120.777V120.814C40.6353 120.835 40.6406 120.861 40.6406 120.882V120.961V127.038V127.07V127.08V127.133V127.144C40.6406 127.154 40.6353 127.165 40.6353 127.176C40.63 127.191 40.63 127.207 40.63 127.223V127.234V127.239L40.6248 127.25V127.265C40.6195 127.276 40.6195 127.287 40.6195 127.297V127.308C40.5983 127.387 40.5772 127.461 40.5455 127.53C40.5402 127.556 40.5296 127.577 40.5191 127.598L40.5138 127.604C40.5085 127.625 40.5032 127.641 40.4926 127.656C40.4874 127.662 40.4821 127.667 40.4821 127.678L40.4768 127.683L40.4715 127.693C40.4715 127.699 40.4609 127.704 40.4609 127.709L40.4557 127.72L40.4504 127.725V127.73L40.4398 127.741V127.746L40.4345 127.752C40.4292 127.757 40.4292 127.767 40.4187 127.773V127.778L40.4134 127.783L40.4081 127.794L40.3975 127.804V127.81L40.387 127.82V127.826L40.3764 127.831V127.836L40.3711 127.841L40.3658 127.852L40.3447 127.873V127.878L40.3341 127.889V127.894L40.3236 127.899V127.905L40.313 127.91V127.915L40.3024 127.921V127.931L40.2919 127.936V127.942L40.2813 127.947V127.952L40.2707 127.958V127.963L40.2601 127.968L40.239 127.989V127.995L40.2284 128V128.005L40.2179 128.01L40.2073 128.021L40.1967 128.026L40.1756 128.047L40.165 128.053L40.1598 128.063L40.1545 128.069H40.1492L40.1439 128.074L40.1333 128.079L40.1122 128.1L40.1016 128.106L40.0911 128.116L40.0699 128.127L40.0594 128.137L40.0488 128.143L40.0435 128.148L40.0329 128.153L40.0276 128.158L39.9959 128.174L39.9854 128.185L39.9642 128.195H39.959L39.9537 128.201L39.9431 128.206L39.9378 128.211H39.9325L39.922 128.217L39.9167 128.222H39.9114L39.9008 128.227L39.8955 128.232H39.8903L39.848 128.254H39.8427L39.8374 128.259H39.8269L39.8163 128.269H39.8057L39.7952 128.275H39.7899L39.7846 128.28H39.774L39.7687 128.285H39.7634L39.7529 128.29H39.7423L39.737 128.296H39.7317L39.7212 128.301H39.7106L39.7053 128.306H39.7L39.6895 128.312H39.6789L39.6683 128.317H39.6578L39.6525 128.322H39.6366L39.6261 128.327H39.6155L39.6049 128.333H39.5838L39.5785 128.338H39.5627L39.5521 128.343H39.5204L39.5151 128.349H39.4887L39.4781 128.354H39.4411L39.4305 128.359H39.3196H24.027V133.358H51.4508L51.451 67.1855ZM74.6799 109.422V133.358H60.5183V109.422H74.6799ZM37.9981 122.283V125.718H18.2673V122.283H37.9981ZM129.296 122.283H133.74V125.718H114.004V122.283H129.296ZM127.975 119.641H118.289V114.415H127.975V119.641ZM24.0265 114.415V119.641H33.7175V114.415H24.0265ZM60.5189 106.78H91.4841V102.964H60.5189V106.78ZM37.9987 101.971V105.406H18.2679V101.971H37.9987ZM129.297 101.971H133.741V105.406H114.004V101.971H129.297ZM127.976 99.329H118.29V94.0978H127.976V99.329ZM24.0271 94.0978V99.329H33.7181V94.0978H24.0271ZM59.8688 95.4505H92.134C92.8632 95.4505 93.455 94.8587 93.455 94.1295C93.455 93.4003 92.8632 92.8085 92.134 92.8085H59.8688C59.1396 92.8085 58.5478 93.4003 58.5478 94.1295C58.5478 94.8587 59.1396 95.4505 59.8688 95.4505ZM59.8688 90.3883H92.134C92.8632 90.3883 93.455 89.7965 93.455 89.0673C93.455 88.3381 92.8632 87.7463 92.134 87.7463H59.8688C59.1396 87.7463 58.5478 88.3381 58.5478 89.0673C58.5478 89.7965 59.1396 90.3883 59.8688 90.3883ZM85.9507 85.3262H92.133C92.8622 85.3262 93.454 84.7344 93.454 84.0051C93.454 83.276 92.8622 82.6841 92.133 82.6841H85.9507C85.2215 82.6841 84.6296 83.276 84.6296 84.0051C84.6296 84.7344 85.2215 85.3262 85.9507 85.3262ZM59.8688 85.3262H80.9361C81.6653 85.3262 82.2571 84.7344 82.2571 84.0051C82.2571 83.276 81.6653 82.6841 80.9361 82.6841H59.8688C59.1396 82.6841 58.5478 83.276 58.5478 84.0051C58.5478 84.7344 59.1396 85.3262 59.8688 85.3262ZM37.998 81.6538V85.0885H18.2672V81.6538H37.998ZM129.296 81.6538H133.74V85.0885H114.004V81.6538H129.296ZM24.0271 73.7858V79.0118H33.7181V73.7858H24.0271ZM127.976 78.066V79.0118H118.29V73.7858H127.976V78.066ZM81.2013 61.3368V56.5019C81.2013 55.7727 80.6094 55.1809 79.8802 55.1809H72.1232C71.394 55.1809 70.8022 55.7727 70.8022 56.5019V61.3368H65.962C65.2328 61.3368 64.641 61.9287 64.641 62.6579V70.4202C64.641 71.1494 65.2328 71.7412 65.962 71.7412H70.8022V76.5761C70.8022 77.3053 71.394 77.8971 72.1232 77.8971H79.8802C80.6094 77.8971 81.2013 77.3053 81.2013 76.5761V71.7412H86.0414C86.7706 71.7412 87.3624 71.1494 87.3624 70.4202V62.6579C87.3624 61.9287 86.7706 61.3368 86.0414 61.3368H81.2013ZM78.5592 62.6579C78.5592 63.3871 79.1511 63.9789 79.8803 63.9789H84.7204V69.0992H79.8803C79.1511 69.0992 78.5592 69.6857 78.5592 70.4202V75.2551H73.4443V70.4202C73.4443 69.6857 72.8525 69.0992 72.1233 69.0992H67.2831V63.9789H72.1233C72.8525 63.9789 73.4443 63.3871 73.4443 62.6579V57.823H78.5592V62.6579ZM127.976 64.5442H100.552V58.3724H127.976V64.5442ZM51.452 64.5442H24.0283V58.3724H51.452V64.5442ZM110.433 55.7304H115.696V52.4913L110.433 55.7304ZM118.339 55.7304V51.445H124.88V55.7304H118.339ZM27.1244 55.7304V51.445H33.666V55.7304H27.1244ZM36.3082 55.7304H41.5711L36.3082 52.4913V55.7304ZM54.0938 48.8136V41.2098H97.9098V48.8136H54.0938ZM30.4319 26.9644C30.2946 26.9538 30.1572 26.9485 30.0198 26.9485C26.9022 26.9485 24.3763 29.4796 24.3763 32.5972C24.3763 35.7096 26.9022 38.2406 30.0198 38.2406H43.7431C46.8608 38.2406 49.3918 35.7096 49.3918 32.5972C49.3918 29.4796 46.8608 26.9485 43.7431 26.9485C43.611 26.9485 43.4842 26.9538 43.3574 26.9644C42.2266 24.5284 39.7536 22.8322 36.895 22.8322C34.0311 22.8322 31.5627 24.5284 30.4319 26.9644ZM30.9022 29.7227C31.2457 29.8284 31.6156 29.7914 31.9326 29.617C32.2444 29.4426 32.4716 29.1467 32.5667 28.8033C33.074 26.8851 34.8178 25.4744 36.8943 25.4744C38.9656 25.4744 40.7094 26.8853 41.222 28.798C41.3118 29.1415 41.539 29.4374 41.8561 29.6065C42.1625 29.7809 42.5324 29.8231 42.8812 29.7174C43.1507 29.6382 43.4413 29.5906 43.7425 29.5906C45.4017 29.5906 46.7492 30.9381 46.7492 32.5973C46.7492 34.2513 45.4017 35.5987 43.7425 35.5987H30.0191C28.3598 35.5987 27.0177 34.2513 27.0177 32.5973C27.0177 30.9381 28.3598 29.5906 30.0191 29.5906C30.3256 29.5906 30.6222 29.6382 30.9022 29.7227ZM108.668 20.1322C108.53 20.1216 108.398 20.1163 108.261 20.1163C105.143 20.1163 102.612 22.6421 102.612 25.7597C102.612 28.8721 105.143 31.4032 108.261 31.4032H121.984C125.102 31.4032 127.627 28.8721 127.627 25.7597C127.627 22.6421 125.102 20.1163 121.984 20.1163C121.852 20.1163 121.725 20.1216 121.598 20.1269C120.462 17.6909 117.995 16 115.136 16C112.272 16 109.798 17.6909 108.668 20.1322ZM109.138 22.8905C109.481 22.9962 109.851 22.9539 110.168 22.7795C110.485 22.6052 110.713 22.3145 110.802 21.9658C111.31 20.0529 113.059 18.6422 115.135 18.6422C117.201 18.6422 118.95 20.0478 119.458 21.9605C119.553 22.304 119.78 22.5999 120.092 22.7743C120.403 22.9486 120.773 22.9856 121.117 22.8852C121.392 22.8007 121.682 22.7584 121.983 22.7584C123.643 22.7584 124.985 24.1006 124.985 25.7598C124.985 27.4138 123.643 28.7613 121.983 28.7613H108.26C106.601 28.7613 105.253 27.4138 105.253 25.7598C105.253 24.1006 106.601 22.7584 108.26 22.7584C108.561 22.7584 108.858 22.8007 109.138 22.8905Z" fill="#663366"/>
</svg>
