<svg width="150" height="150" viewBox="0 0 150 150" fill="none" xmlns="http://www.w3.org/2000/svg">
<path d="M42.2795 112.819H15.9628C14.371 112.819 12.8691 113.438 11.7458 114.555C10.6354 115.658 10 117.183 10 118.74V134.36C10 135.266 10.7317 135.994 11.6432 135.994H46.5979C47.5093 135.994 48.241 135.266 48.241 134.36V118.747C48.241 117.183 47.6056 115.658 46.4952 114.561C45.372 113.432 43.8713 112.819 42.2795 112.819ZM44.9561 132.732H13.2876V118.746C13.2876 118.044 13.57 117.361 14.0707 116.87C14.5777 116.366 15.2517 116.085 15.9641 116.085H42.2808C42.9932 116.085 43.6672 116.366 44.1742 116.87C44.6684 117.361 44.9572 118.044 44.9572 118.746L44.9561 132.732ZM88.1594 112.819H61.8361C60.2636 112.819 58.7232 113.457 57.632 114.555C56.5151 115.652 55.8733 117.183 55.8733 118.747V134.367C55.8733 135.273 56.605 136 57.5165 136H92.4712C93.3826 136 94.1144 135.273 94.1144 134.367V118.747C94.1144 117.177 93.4789 115.652 92.3685 114.561C91.2453 113.432 89.7511 112.819 88.1594 112.819ZM90.8359 132.732H59.1609V118.746C59.1609 118.044 59.4498 117.361 59.9504 116.864C60.4446 116.366 61.1314 116.085 61.831 116.085H88.1477C88.8602 116.085 89.5341 116.366 90.0475 116.877C90.5417 117.361 90.8242 118.044 90.8242 118.746L90.8306 132.732L90.8359 132.732ZM138.256 114.56C137.145 113.45 135.611 112.818 134.039 112.818H107.715C106.149 112.818 104.615 113.456 103.511 114.554C102.394 115.651 101.759 117.176 101.759 118.746V134.366C101.759 135.272 102.491 135.999 103.402 135.999H138.357C139.268 135.999 140 135.272 140 134.366V118.746C140 117.176 139.36 115.651 138.256 114.56ZM136.715 132.732H105.047V118.746C105.047 118.044 105.329 117.361 105.83 116.87C106.33 116.372 107.017 116.085 107.717 116.085H134.04C134.746 116.085 135.433 116.372 135.933 116.877C136.428 117.368 136.717 118.051 136.717 118.746L136.715 132.732ZM29.1151 106.865C36.6504 106.865 42.7802 100.771 42.7802 93.287C42.7802 85.7962 36.6504 79.7026 29.1151 79.7026C21.5862 79.7026 15.4564 85.7962 15.4564 93.287C15.4628 100.771 21.5862 106.865 29.1151 106.865ZM29.1151 82.9693C34.8341 82.9693 39.4939 87.5952 39.4939 93.2868C39.4939 98.9721 34.8405 103.598 29.1151 103.598C23.3961 103.598 18.7427 98.9721 18.7427 93.2868C18.7491 87.6016 23.4025 82.9693 29.1151 82.9693ZM61.3356 93.2868C61.3356 100.771 67.4654 106.865 75.0007 106.865C82.5296 106.865 88.6594 100.771 88.6594 93.2868C88.6594 85.796 82.5296 79.7024 75.0007 79.7024C67.4654 79.7024 61.3356 85.796 61.3356 93.2868ZM75.0007 82.9693C80.7197 82.9693 85.3731 87.5952 85.3731 93.2868C85.3731 98.9721 80.7197 103.598 75.0007 103.598C69.2817 103.598 64.6219 98.9721 64.6219 93.2868C64.6219 87.6016 69.2817 82.9693 75.0007 82.9693ZM107.221 93.2868C107.221 100.771 113.351 106.865 120.88 106.865C128.409 106.865 134.539 100.771 134.539 93.2868C134.539 85.796 128.409 79.7024 120.88 79.7024C113.345 79.7024 107.221 85.796 107.221 93.2868ZM120.88 82.9693C126.599 82.9693 131.252 87.5952 131.252 93.2868C131.252 98.9721 126.599 103.598 120.88 103.598C115.161 103.598 110.508 98.9721 110.508 93.2868C110.508 87.6016 115.155 82.9693 120.88 82.9693ZM75.0771 14C61.4827 14 50.4167 24.994 50.4167 38.5149C50.4167 52.0291 61.476 63.0297 75.0771 63.0297C88.6716 63.0297 99.7375 52.0358 99.7375 38.5149C99.7311 25.0007 88.6719 14 75.0771 14ZM75.0771 59.7628C63.2926 59.7628 53.703 50.2302 53.703 38.5149C53.703 26.7999 63.2923 17.2669 75.0771 17.2669C86.862 17.2669 96.4512 26.7996 96.4512 38.5149C96.4448 50.2298 86.862 59.7628 75.0771 59.7628ZM85.9566 32.9317H80.687V27.6932C80.687 26.7936 79.9553 26.0598 79.0439 26.0598H71.0978C70.1863 26.0598 69.4546 26.7936 69.4546 27.6932V32.9317H64.1914C63.28 32.9317 62.5483 33.6655 62.5483 34.5652V42.4644C62.5483 43.3641 63.28 44.0978 64.1914 44.0978H69.461V49.3363C69.461 50.236 70.1927 50.9698 71.1042 50.9698H79.0503C79.9617 50.9698 80.6934 50.236 80.6934 49.3363V44.0978H85.963C86.8745 44.0978 87.6062 43.3641 87.6062 42.4644V34.5652C87.5997 33.6655 86.868 32.9317 85.9566 32.9317ZM84.3135 40.8309H79.0439C78.1324 40.8309 77.4007 41.5647 77.4007 42.4644V47.7029H72.7409V42.4644C72.7409 41.5647 72.0092 40.8309 71.0978 40.8309H65.8346V36.1986H71.1042C72.0156 36.1986 72.7473 35.4648 72.7473 34.5652V29.3267H77.4071V34.5652C77.4071 35.4648 78.1388 36.1986 79.0503 36.1986H84.3199L84.3135 40.8309ZM30.2045 72.1148V37.3533C30.2045 36.4536 30.9362 35.7199 31.8477 35.7199H43.8632C44.7746 35.7199 45.5063 36.4536 45.5063 37.3533C45.5063 38.253 44.7746 38.9868 43.8632 38.9868H33.4908V72.1214C33.4908 73.021 32.7591 73.7548 31.8477 73.7548C30.9426 73.7548 30.2045 73.0209 30.2045 72.1148ZM105.346 37.3533C105.346 36.4536 106.077 35.7199 106.989 35.7199H119.004C119.916 35.7199 120.648 36.4536 120.648 37.3533V72.1214C120.648 73.021 119.916 73.7548 119.004 73.7548C118.093 73.7548 117.361 73.021 117.361 72.1214V38.9868H106.989C106.077 38.9868 105.346 38.253 105.346 37.3533ZM75.4289 77.3403C74.5175 77.3403 73.7858 76.6065 73.7858 75.7068V67.0227C73.7858 66.123 74.5175 65.3893 75.4289 65.3893C76.3404 65.3893 77.0721 66.123 77.0721 67.0227V75.7068C77.0721 76.6129 76.334 77.3403 75.4289 77.3403Z" fill="#663366"/>
</svg>
