<svg width="151" height="151" viewBox="0 0 151 151" fill="none" xmlns="http://www.w3.org/2000/svg">
<path d="M109.428 30.7272C109.428 37.239 114.729 42.5405 121.241 42.5405C127.753 42.5405 133.054 37.2388 133.054 30.7272C133.054 24.2155 127.753 18.9139 121.241 18.9139C114.729 18.9139 109.428 24.2157 109.428 30.7272ZM121.241 22.8478C125.584 22.8478 129.115 26.3784 129.115 30.7214C129.115 35.0644 125.584 38.595 121.241 38.595C116.898 38.595 113.367 35.0644 113.367 30.7214C113.367 26.3784 116.898 22.8478 121.241 22.8478Z" fill="#663366"/>
<path d="M123.211 14.9745V13.0046C123.211 11.9174 122.328 11.0348 121.241 11.0348C120.154 11.0348 119.271 11.9174 119.271 13.0046V14.9745C119.271 16.0617 120.154 16.9443 121.241 16.9443C122.328 16.9443 123.211 16.0617 123.211 14.9745Z" fill="#663366"/>
<path d="M110.106 16.8047C109.334 16.0331 108.089 16.0331 107.323 16.8047C106.552 17.5763 106.552 18.8214 107.323 19.5871L108.715 20.9783C109.1 21.3641 109.603 21.557 110.106 21.557C110.608 21.557 111.111 21.3641 111.497 20.9783C112.268 20.2067 112.268 18.9616 111.497 18.1959L110.106 16.8047Z" fill="#663366"/>
<path d="M103.524 28.758C102.437 28.758 101.554 29.6406 101.554 30.7278C101.554 31.815 102.437 32.6977 103.524 32.6977H105.494C106.581 32.6977 107.464 31.815 107.464 30.7278C107.464 29.6406 106.581 28.758 105.494 28.758H103.524Z" fill="#663366"/>
<path d="M108.715 40.4717L107.323 41.8629C106.552 42.6345 106.552 43.8796 107.323 44.6453C107.709 45.0311 108.212 45.224 108.715 45.224C109.217 45.224 109.72 45.0311 110.106 44.6453L111.497 43.2541C112.268 42.4826 112.268 41.2375 111.497 40.4717C110.725 39.7002 109.48 39.7002 108.715 40.4717Z" fill="#663366"/>
<path d="M119.277 46.4754V48.4452C119.277 49.5324 120.16 50.4151 121.247 50.4151C122.334 50.4151 123.217 49.5324 123.217 48.4452V46.4754C123.217 45.3881 122.334 44.5055 121.247 44.5055C120.16 44.5055 119.277 45.3881 119.277 46.4754Z" fill="#663366"/>
<path d="M130.991 40.4717C130.219 41.2433 130.219 42.4884 130.991 43.2541L132.382 44.6453C132.768 45.0311 133.27 45.224 133.773 45.224C134.276 45.224 134.779 45.0311 135.164 44.6453C135.936 43.8738 135.936 42.6286 135.164 41.8629L133.773 40.4717C133.002 39.7002 131.756 39.7002 130.991 40.4717Z" fill="#663366"/>
<path d="M138.964 28.758H136.994C135.907 28.758 135.024 29.6406 135.024 30.7278C135.024 31.815 135.907 32.6977 136.994 32.6977H138.964C140.051 32.6977 140.934 31.815 140.934 30.7278C140.934 29.6406 140.051 28.758 138.964 28.758Z" fill="#663366"/>
<path d="M135.164 16.8047C134.393 16.0331 133.148 16.0331 132.382 16.8047L130.991 18.1959C130.219 18.9675 130.219 20.2126 130.991 20.9783C131.377 21.3641 131.879 21.557 132.382 21.557C132.885 21.557 133.387 21.3641 133.773 20.9783L135.164 19.5871C135.936 18.8155 135.936 17.5704 135.164 16.8047Z" fill="#663366"/>
<path d="M16.8904 140.988H83.8362C87.0921 140.988 89.7458 138.34 89.7458 135.078V131.139C89.7458 129.619 89.1554 128.251 88.2086 127.199C89.1555 126.153 89.7458 124.779 89.7458 123.259V119.319C89.7458 117.8 89.1554 116.432 88.2086 115.38C89.1555 114.333 89.7458 112.96 89.7458 111.44V107.5C89.7458 105.98 89.1554 104.613 88.2086 103.561C89.1555 102.514 89.7458 101.141 89.7458 99.6208V95.6811C89.7458 94.1613 89.1554 92.7935 88.2086 91.7414C89.1555 90.6951 89.7458 89.3214 89.7458 87.8016V82.3597C89.7458 79.9339 87.7701 77.9582 85.3443 77.9582C83.6667 77.9582 82.1586 78.8934 81.4046 80.3898L78.8151 85.5746C78.1136 86.9833 78.061 88.5674 78.5871 90.0052C77.1199 90.4378 75.8749 91.4549 75.1617 92.8753L72.9054 97.3879C72.204 98.7966 72.1514 100.381 72.6775 101.819C71.2103 102.251 69.9653 103.268 69.2521 104.689L68.083 107.021V93.7054C68.7669 93.7054 69.3982 93.3488 69.7606 92.7701C70.123 92.1915 70.1523 91.4666 69.8483 90.853L63.0618 77.2802C62.0564 75.2693 60.0282 74.0126 57.7777 74.0126H54.3056V70.0729H62.1793C62.9041 70.0729 63.5704 69.6754 63.9154 69.0325C64.2603 68.3895 64.2193 67.6179 63.816 67.0099L57.1114 56.9501C56.0125 55.3016 54.1771 54.3197 52.1954 54.3197H48.3959V50.38H56.2695C56.9943 50.38 57.6607 49.9825 58.0056 49.3395C58.3505 48.6965 58.3096 47.925 57.9063 47.317L51.2017 37.2572C50.132 35.6497 48.3492 34.6911 46.426 34.6443V30.6871H50.3658C51.0497 30.6871 51.681 30.3305 52.0434 29.7518C52.4058 29.1731 52.435 28.4483 52.1311 27.8346L47.9868 19.5459C46.8703 17.3072 44.8536 15.7523 42.498 15.1853V12.9699C42.498 11.8826 41.6154 11 40.5281 11C39.4409 11 38.5583 11.8826 38.5583 12.9699V15.1853C36.2026 15.7523 34.1859 17.3072 33.0695 19.5459L28.9252 27.8346C28.6213 28.4425 28.6505 29.1674 29.0129 29.7518C29.3753 30.3305 30.0066 30.6871 30.6905 30.6871H34.6302V34.6443C32.707 34.6911 30.9242 35.6497 29.8546 37.2572L23.15 47.317C22.7467 47.9191 22.7116 48.6965 23.0506 49.3395C23.3955 49.9825 24.0619 50.38 24.7867 50.38H32.6603V54.3197H28.8608C26.8851 54.3197 25.0438 55.3017 23.9449 56.9501L17.2403 67.0099C16.8369 67.612 16.8019 68.3894 17.1409 69.0325C17.4858 69.6754 18.1521 70.0729 18.877 70.0729H26.7506V74.0126H23.2785C21.0281 74.0126 18.9997 75.2635 17.9944 77.2802L11.208 90.853C10.904 91.4609 10.9332 92.1857 11.2956 92.7701C11.6581 93.3488 12.2893 93.7054 12.9733 93.7054V126.743C11.775 127.824 11.0034 129.373 11.0034 131.115V135.055C11.0034 138.311 13.6513 140.965 16.913 140.965L16.8904 140.988ZM82.3279 87.3569L84.9174 82.1722C84.9992 82.0144 85.157 81.915 85.3324 81.915C85.5896 81.915 85.8 82.1254 85.8 82.3826V87.8246C85.8 88.9118 84.9174 89.7944 83.8302 89.7944C82.9826 89.7944 82.55 89.2391 82.3981 88.9936C82.2519 88.754 81.948 88.1168 82.3221 87.3568L82.3279 87.3569ZM76.4241 99.1761L78.6804 94.6635C78.9668 94.0907 79.5455 93.7341 80.1826 93.7341H83.8359C84.9232 93.7341 85.8058 94.6168 85.8058 95.704V99.6437C85.8058 100.731 84.9232 101.614 83.8359 101.614H77.9264C77.0788 101.614 76.6462 101.058 76.4943 100.813C76.3481 100.573 76.0442 99.936 76.4183 99.176L76.4241 99.1761ZM70.5145 110.989L72.7708 106.477C73.0572 105.904 73.6359 105.547 74.273 105.547H83.8301C84.9173 105.547 85.8 106.43 85.8 107.517V111.457C85.8 112.544 84.9173 113.427 83.8301 113.427H72.0168C71.1692 113.427 70.7367 112.872 70.5847 112.626C70.4385 112.386 70.1346 111.749 70.5087 110.989L70.5145 110.989ZM68.3693 117.361H83.8361C84.9233 117.361 85.8059 118.243 85.8059 119.331V123.27C85.8059 124.358 84.9233 125.24 83.8361 125.24H66.1127C65.2652 125.24 64.8326 124.685 64.6806 124.439C64.5345 124.2 64.2306 123.563 64.6047 122.803L66.8609 118.29C67.1473 117.717 67.726 117.361 68.3632 117.361L68.3693 117.361ZM33.8594 26.7882L36.5774 21.3463C37.3256 19.844 38.8395 18.9146 40.5171 18.9146C42.1947 18.9146 43.7028 19.8499 44.4569 21.3463L47.1749 26.7882H33.8594ZM42.487 30.728V34.6677H38.5473V30.728H42.487ZM28.4408 46.4746L33.1053 39.4777C33.4736 38.9282 34.0815 38.6009 34.7421 38.6009H46.2807C46.9412 38.6009 47.5549 38.9282 47.9174 39.4777L52.582 46.4746H28.4346H28.4408ZM44.4567 50.4143V54.354H36.5831V50.4143H44.4567ZM22.5375 66.1669L27.202 59.17C27.5703 58.6205 28.1782 58.2932 28.8388 58.2932H52.1901C52.8506 58.2932 53.4644 58.6205 53.8269 59.17L58.4914 66.1669H22.5375ZM50.3615 70.1007V74.0405H30.6749V70.1007H50.3615ZM21.5034 79.0675C21.8366 78.3952 22.5147 77.9802 23.2629 77.9802H57.7729C58.5269 77.9802 59.1991 78.3952 59.5323 79.0675L64.8924 89.7936H16.1368L21.4969 79.0675H21.5034ZM60.754 125.234H59.8421C60.0642 124.615 60.2045 123.96 60.2045 123.265V95.6978C60.2045 95.0023 60.0642 94.3476 59.8421 93.728H64.1443V115.355C63.8403 115.706 63.5597 116.092 63.3434 116.524L61.0872 121.037C60.4208 122.364 60.3214 123.861 60.754 125.234ZM56.2706 95.6984V123.265C56.2706 124.352 55.388 125.235 54.3008 125.235H26.7341C25.6469 125.235 24.7643 124.352 24.7643 123.265V95.6984C24.7643 94.6112 25.6469 93.7286 26.7341 93.7286H54.3008C55.388 93.7286 56.2706 94.6112 56.2706 95.6984ZM21.1935 125.234H16.8914V93.7337H21.1935C20.9714 94.3533 20.8311 95.0079 20.8311 95.7035V123.27C20.8311 123.966 20.9714 124.62 21.1935 125.24V125.234ZM14.9215 131.144C14.9215 130.057 15.8042 129.174 16.8914 129.174H83.8373C84.9245 129.174 85.8071 130.057 85.8071 131.144V135.084C85.8071 136.171 84.9245 137.054 83.8373 137.054L16.8914 137.048C15.8042 137.048 14.9215 136.165 14.9215 135.078V131.138V131.144Z" fill="#663366"/>
<path d="M135.024 125.235H134.475C134.907 123.862 134.808 122.371 134.142 121.038L131.885 116.526C131.172 115.105 129.927 114.088 128.46 113.656C128.986 112.218 128.939 110.634 128.232 109.225L125.976 104.712C125.263 103.292 124.018 102.275 122.55 101.842C123.076 100.404 123.03 98.8204 122.322 97.4117L120.066 92.8992C119.639 92.0399 118.991 91.3561 118.242 90.8299C119.148 89.205 119.219 87.2702 118.383 85.5925L115.787 80.4078C115.033 78.9056 113.525 77.9762 111.853 77.9762C109.428 77.9762 107.452 79.9519 107.452 82.3777V87.8196C107.452 88.8776 107.756 89.8538 108.241 90.7131C106.587 91.7594 105.482 93.5948 105.482 95.6932V99.6329C105.482 101.153 106.072 102.521 107.019 103.573C106.072 104.619 105.482 105.993 105.482 107.512V111.452C105.482 112.972 106.072 114.34 107.019 115.392C106.072 116.438 105.482 117.812 105.482 119.332V123.271C105.482 124.791 106.072 126.159 107.019 127.211C106.072 128.257 105.482 129.631 105.482 131.151V135.09C105.482 138.346 108.13 141 111.392 141H135.018C138.274 141 140.928 138.352 140.928 135.09V131.151C140.928 127.895 138.28 125.241 135.018 125.241L135.024 125.235ZM111.398 82.3829C111.398 82.1257 111.608 81.9153 111.865 81.9153C112.041 81.9153 112.204 82.0147 112.28 82.1725L114.87 87.3572C115.25 88.1171 114.946 88.7542 114.794 88.994C114.648 89.2336 114.209 89.7948 113.362 89.7948C112.275 89.7948 111.392 88.9121 111.392 87.8249V82.383L111.398 82.3829ZM109.428 95.6985C109.428 94.6112 110.31 93.7286 111.398 93.7286H115.051C115.694 93.7286 116.267 94.0852 116.553 94.658L118.81 99.1705C119.189 99.9304 118.886 100.568 118.734 100.807C118.587 101.047 118.149 101.608 117.301 101.608H111.392C110.305 101.608 109.422 100.725 109.422 99.6383V95.6985L109.428 95.6985ZM109.428 107.512C109.428 106.425 110.31 105.542 111.398 105.542H120.955C121.598 105.542 122.171 105.898 122.457 106.471L124.713 110.984C125.093 111.744 124.789 112.381 124.637 112.621C124.491 112.86 124.053 113.421 123.205 113.421H111.392C110.305 113.421 109.422 112.539 109.422 111.452V107.512L109.428 107.512ZM109.428 119.331C109.428 118.244 110.31 117.361 111.398 117.361H126.864C127.507 117.361 128.08 117.718 128.367 118.29L130.623 122.803C131.003 123.563 130.699 124.2 130.547 124.44C130.401 124.679 129.962 125.241 129.115 125.241H111.392C110.304 125.241 109.422 124.358 109.422 123.271V119.331L109.428 119.331ZM136.995 135.078C136.995 136.165 136.112 137.047 135.025 137.047H111.398C110.311 137.047 109.428 136.165 109.428 135.078V131.138C109.428 130.051 110.311 129.168 111.398 129.168H135.025C136.112 129.168 136.995 130.051 136.995 131.138V135.078Z" fill="#663366"/>
<path d="M46.4211 97.6686H34.6078C31.352 97.6686 28.6982 100.316 28.6982 103.578C28.6982 106.834 31.3461 109.488 34.6078 109.488H46.4211C49.677 109.488 52.3307 106.84 52.3307 103.578C52.3307 100.322 49.6828 97.6686 46.4211 97.6686ZM46.4211 105.548H34.6078C33.5206 105.548 32.638 104.665 32.638 103.578C32.638 102.491 33.5206 101.608 34.6078 101.608H46.4211C47.5084 101.608 48.391 102.491 48.391 103.578C48.391 104.665 47.5084 105.548 46.4211 105.548Z" fill="#663366"/>
<path d="M44.4572 111.452H36.5836C35.4964 111.452 34.6138 112.335 34.6138 113.422C34.6138 114.509 35.4964 115.392 36.5836 115.392H44.4572C45.5445 115.392 46.4271 114.509 46.4271 113.422C46.4271 112.335 45.5445 111.452 44.4572 111.452Z" fill="#663366"/>
<path d="M42.4872 117.361H38.5475C37.4603 117.361 36.5776 118.244 36.5776 119.331C36.5776 120.418 37.4603 121.301 38.5475 121.301H42.4872C43.5744 121.301 44.4571 120.418 44.4571 119.331C44.4571 118.244 43.5744 117.361 42.4872 117.361Z" fill="#663366"/>
</svg>
