<svg width="512" height="512" viewBox="0 0 512 512" fill="none" xmlns="http://www.w3.org/2000/svg">
<g clip-path="url(#clip0_136_2)">
<path d="M264.76 509.88L261.5 511.97L512 512H0L125.75 511.98C250.82 511.97 251.48 511.96 248.46 510.02C242.53 506.22 215.54 473.94 189.91 440C128.34 358.47 87.01 280.32 74.99 222.7C67.75 187.96 70.7 150.52 83.2 118.78C108.85 53.6 168.78 8.05 238 1.12C243.15 0.6 197.91 0.21 123.25 0.13L0 0H512L388.75 0.14C313.16 0.22 268.98 0.6 274.5 1.13C297.47 3.31 317.95 9.26 339.5 20C383.15 41.75 416.54 80.25 431.9 126.5C441.47 155.33 443.91 183.05 439.41 212C428.92 279.53 378.49 371.83 296.5 473.57C279.56 494.58 268.01 507.8 264.76 509.88ZM241.34 277.52C285.25 285.49 330.77 257.64 344.88 214.18C349.54 199.85 350.55 181.4 347.5 166.5C340.89 134.3 316.9 107.52 285 96.76C275.63 93.6 275.24 93.55 256.5 93.55C237.76 93.55 237.37 93.6 228 96.76C214.5 101.31 203.15 108.07 193.23 117.44C179.77 130.17 171.64 143.24 166.35 160.71C163.96 168.59 163.69 171.11 163.67 185C163.66 202.92 165.31 210.82 171.97 224.76C177.02 235.33 180.7 240.62 189.19 249.56C203.16 264.27 220.99 273.83 241.34 277.52Z" fill="#8A8A99"/>
<path d="M228.49 2.31998C207.95 5.56998 188.51 12.04 170.73 21.29C131.52 41.8 100 76.08 83.2 118.78C100.06 75.93 131.3 41.79 170.73 21.29C188.6 11.93 208.08 5.43998 228.49 2.31998C229.02 2.23998 229.55 2.14998 230.09 2.06998L237.69 0.93998C238.51 0.98998 238.62 1.04998 238 1.11998C234.81 1.43998 231.64 1.83998 228.49 2.31998ZM301 5.59998C314.27 8.78998 325.95 13.25 339.5 20C326.54 13.54 313.96 8.80998 301 5.59998ZM280.9 0.72998C276.41 0.90998 276.17 1.14998 278.5 1.46998C279.99 1.67998 281.45 1.88998 282.88 2.10998C280.12 1.71998 277.33 1.39998 274.5 1.12998C272.98 0.97998 275.24 0.84998 280.9 0.72998Z" fill="#7997C5"/>
<path d="M228.32 2.35002C207.84 5.61002 188.46 12.07 170.73 21.29C167.3 23.07 163.93 24.96 160.62 26.95C178.47 16.11 198.15 8.25002 218.91 4.02002C222.24 3.34002 225.69 2.73002 228.22 2.36002L228.32 2.35002ZM360.1 32.01C373.42 40.89 385.43 51.29 395.16 62.62C396.79 64.52 398.37 66.42 399.91 68.34C388.53 54.4 375.13 42.13 360.1 32.01ZM441.14 171.82C442.15 183.21 441.77 195.22 439.98 208.09C441.62 195.85 442.01 183.82 441.14 171.82ZM417 284.73C393.04 340.23 352.01 404.69 296.53 473.53C352 404.69 393.03 340.17 417 284.73ZM297.74 4.82002C299.4 5.19002 301.07 5.59002 302.73 6.02002C312.27 8.48002 321.82 11.86 331.13 16.02C334.1 17.34 337.05 18.75 339.96 20.23C339.81 20.15 339.65 20.08 339.5 20C336.76 18.63 334.04 17.35 331.33 16.13C321.77 11.86 312.33 8.52002 302.7 6.03002C302.13 5.88002 301.57 5.74002 301 5.60002C299.92 5.33002 298.83 5.07002 297.74 4.82002ZM235.01 0.820024C236.23 0.860024 237.13 0.900024 237.69 0.940024L235.48 1.27002C235.68 1.18002 235.86 1.09002 236 1.00002C236.1 0.940024 235.77 0.880024 235.01 0.820024ZM284.84 0.650024C282.91 0.690024 281.29 0.730024 280.01 0.770024C280.28 0.750024 280.58 0.740024 280.9 0.730024C282.07 0.700024 283.38 0.680024 284.84 0.650024ZM282.84 2.10002C283.4 2.17002 284.05 2.27002 284.78 2.38002C284.15 2.29002 283.52 2.20002 282.88 2.11002L282.84 2.10002Z" fill="#C5DCF6"/>
</g>
<defs>
<clipPath id="clip0_136_2">
<rect width="512" height="512" fill="white"/>
</clipPath>
</defs>
</svg>
