<svg width="512" height="512" viewBox="0 0 512 512" fill="none" xmlns="http://www.w3.org/2000/svg">
<path d="M264.76 509.88L261.5 511.97L512 512H0L125.75 511.98C250.82 511.97 251.48 511.96 248.46 510.02C242.53 506.22 215.54 473.94 189.91 440C128.34 358.47 87.01 280.32 74.99 222.7C67.75 187.96 70.7 150.52 83.2 118.78C108.85 53.6 168.78 8.05 238 1.12C243.15 0.6 197.91 0.21 123.25 0.13L0 0H512L388.75 0.14C313.16 0.22 268.98 0.6 274.5 1.13C297.47 3.31 317.95 9.26 339.5 20C383.15 41.75 416.54 80.25 431.9 126.5C441.47 155.33 443.91 183.05 439.41 212C428.92 279.53 378.49 371.83 296.5 473.57C279.56 494.58 268.01 507.8 264.76 509.88ZM241.34 277.52C285.25 285.49 330.77 257.64 344.88 214.18C349.54 199.85 350.55 181.4 347.5 166.5C340.89 134.3 316.9 107.52 285 96.76C275.63 93.6 275.24 93.55 256.5 93.55C237.76 93.55 237.37 93.6 228 96.76C214.5 101.31 203.15 108.07 193.23 117.44C179.77 130.17 171.64 143.24 166.35 160.71C163.96 168.59 163.69 171.11 163.67 185C163.66 202.92 165.31 210.82 171.97 224.76C177.02 235.33 180.7 240.62 189.19 249.56C203.16 264.27 220.99 273.83 241.34 277.52Z" fill="#A44294"/>
</svg>
