<svg width="150" height="150" viewBox="0 0 150 150" fill="none" xmlns="http://www.w3.org/2000/svg">
<path d="M51.3497 53.5V67.85C51.3497 71.3 54.1497 74.1 57.5997 74.1H89.8997C93.3497 74.1 96.1497 71.3 96.1497 67.85V53.5C96.1497 50.05 93.3497 47.25 89.8997 47.25H57.5997C54.1497 47.25 51.3497 50.05 51.3497 53.5ZM92.7497 53.5V67.85C92.7497 69.4 91.4997 70.7 89.8997 70.7H57.5997C56.0497 70.7 54.7497 69.45 54.7497 67.85V53.5C54.7497 51.95 55.9997 50.65 57.5997 50.65H89.8997C91.4997 50.7 92.7497 51.95 92.7497 53.5ZM145.25 51.6C144.8 50 143.8 48.65 142.35 47.8L78.8497 11.15C76.3497 9.7 73.5497 9.7 71.0497 11.15L7.6497 47.8C6.1997 48.65 5.1497 50 4.7497 51.6C4.2997 53.2 4.5497 54.9 5.3997 56.35L7.1997 59.45C8.9497 62.45 12.7997 63.5 15.7497 61.75L20.0997 59.25V133.6C20.0997 137.05 22.8997 139.85 26.3497 139.85H121.3C124.75 139.85 127.55 137.05 127.55 133.6V57.85L134.3 61.75C135.25 62.3 136.35 62.6 137.45 62.6C138 62.6 138.55 62.5 139.1 62.4C140.7 61.95 142.05 60.95 142.9 59.5L144.7 56.4C145.45 54.95 145.7 53.25 145.25 51.6ZM124.1 133.6C124.1 135.15 122.85 136.45 121.25 136.45H26.2997C24.7497 136.45 23.4497 135.2 23.4497 133.6V57.25L72.7997 28.75C74.1997 27.95 75.7497 27.95 77.1497 28.75L124.05 55.85V133.6H124.1ZM141.65 54.65L139.85 57.75C139.45 58.4 138.85 58.85 138.15 59.05C137.4 59.25 136.65 59.15 136 58.75L78.8497 25.75C76.3497 24.3 73.5497 24.3 71.0497 25.75L13.8997 58.75C12.5497 59.55 10.7997 59.05 9.9997 57.7L8.1997 54.6C7.7997 53.95 7.6997 53.2 7.8997 52.45C8.0997 51.7 8.5497 51.1 9.1997 50.75L72.6497 14.1C73.3497 13.7 74.0997 13.5 74.8497 13.5C75.5997 13.5 76.2997 13.7 77.0497 14.1L140.5 50.75C141.15 51.15 141.6 51.75 141.8 52.45C142.15 53.25 142.05 54 141.65 54.65ZM63.6997 100.65C63.6997 96.6 60.3997 93.3 56.3497 93.3H44.4997V84.95C44.4997 84 43.7497 83.25 42.7997 83.25C41.8497 83.25 41.0997 84 41.0997 84.95V129.25C41.0997 130.2 41.8497 130.95 42.7997 130.95C43.7497 130.95 44.4997 130.2 44.4997 129.25V120.9H103.1V129.25C103.1 130.2 103.85 130.95 104.8 130.95C105.75 130.95 106.5 130.2 106.5 129.25V110.6C106.5 109 105.85 107.5 104.75 106.35C103.6 105.2 102.1 104.6 100.5 104.6H62.5497C63.2497 103.4 63.6997 102.05 63.6997 100.65ZM44.4997 96.7H56.3497C58.4997 96.7 60.2497 98.45 60.2497 100.6C60.2497 102.75 58.4997 104.5 56.3497 104.5C56.3497 104.5 56.3497 104.5 56.2997 104.5H44.4497L44.4997 96.7ZM100.5 108C101.2 108 101.85 108.3 102.3 108.75C102.8 109.25 103.05 109.9 103.05 110.55V117.4H44.4997V108H100.5Z" fill="#663366"/>
</svg>
