<svg width="150" height="150" viewBox="0 0 150 150" fill="none" xmlns="http://www.w3.org/2000/svg">
<path fill-rule="evenodd" clip-rule="evenodd" d="M42.0004 29.8C32.5504 33.15 25.1504 42.15 19.8004 56.9C14.4004 71.7 11.1004 92.2 9.90039 118.4L26.8504 122.1C29.0004 110.2 30.7004 100.8 32.0504 94C33.3504 87.25 34.3004 82.6 34.9004 80.2C34.2504 68.9 33.2004 57.95 31.7004 47.4C31.6004 46.55 32.2004 45.75 33.0504 45.65C33.9004 45.55 34.7004 46.1 34.8004 47C36.2504 57.45 37.3504 68.25 38.0004 79.45C38.1504 79.75 38.1504 80.1 38.1004 80.45V80.5C38.2504 83.25 38.4004 86.05 38.5004 88.85C39.0504 102.9 38.9504 117.55 38.2504 132.75L59.1004 131.8L55.5004 54.15C55.5004 54.05 55.5004 53.95 55.5004 53.9C55.5504 53.5 55.7004 53.1 56.0504 52.85C56.3504 52.6 56.7504 52.45 57.2004 52.45C58.2004 52.5 59.2004 52.6 60.1504 52.65C58.3504 51.3 56.8504 49.6 55.7004 47.65C53.7004 44.2 52.9504 40.15 53.5504 36.2C53.6504 35.6 53.7504 35 53.9004 34.4C49.9504 33.8 46.2004 32.5 42.7504 30.5C42.5004 30.2 42.2004 30 42.0004 29.8ZM76.9004 110.7C81.0504 110.7 84.6504 113.65 85.5004 117.75C86.3004 121.85 84.1504 125.95 80.3004 127.55C76.4504 129.15 72.0004 127.8 69.7004 124.35C67.4004 120.9 67.8504 116.25 70.8004 113.3C72.3504 111.65 74.6004 110.7 76.9004 110.7ZM80.9004 115.5C79.0004 113.6 76.0504 113.3 73.8004 114.8C71.6004 116.3 70.7004 119.15 71.7504 121.6C72.7504 124.05 75.4004 125.45 78.0504 124.95C80.6504 124.45 82.5504 122.15 82.5504 119.45C82.5004 117.95 81.9504 116.55 80.9004 115.5ZM75.5504 85.2C79.7004 85.2 83.3004 88.15 84.1004 92.25C84.9004 96.35 82.7004 100.45 78.8504 102C75.0004 103.6 70.5504 102.25 68.2504 98.8C65.9504 95.35 66.4004 90.7 69.3504 87.75C71.0004 86.1 73.2504 85.2 75.5504 85.2ZM79.5004 89.95C77.6004 88.05 74.6504 87.75 72.4004 89.25C70.2004 90.75 69.3004 93.6 70.3504 96.05C71.4004 98.5 74.0004 99.9 76.6504 99.4C79.3004 98.9 81.1504 96.6 81.1504 93.9C81.1504 92.45 80.5504 91 79.5004 89.95ZM74.9004 61.35C79.0504 61.35 82.6504 64.3 83.4504 68.4C84.2504 72.5 82.0504 76.6 78.2004 78.15C74.3504 79.75 69.9004 78.4 67.6004 74.95C65.3004 71.5 65.7504 66.85 68.7004 63.9C70.3504 62.25 72.5504 61.35 74.9004 61.35ZM78.8504 66.1C76.9504 64.2 74.0004 63.9 71.8004 65.4C69.6004 66.9 68.7004 69.75 69.7504 72.2C70.8004 74.65 73.4004 76.05 76.0004 75.55C78.6004 75.05 80.5004 72.75 80.5004 70.05C80.5004 68.6 79.9004 67.15 78.8504 66.1ZM36.5504 135.95C36.4504 135.95 36.3504 135.95 36.2504 135.95H36.2004C35.4004 135.85 34.8504 135.15 34.9004 134.35C35.6004 120.05 35.7504 106.25 35.3504 92.95C35.2504 93.5 35.1504 94.05 35.0504 94.6C33.6004 102.1 31.8004 111.95 29.6004 124.15C29.6004 124.2 29.6004 124.3 29.5504 124.35C29.3504 125.2 28.5504 125.75 27.7004 125.55L7.90039 121.2C7.15039 121.05 6.65039 120.35 6.65039 119.6C7.85039 92.5 11.2004 71.25 16.8004 55.9C22.3504 40.7 30.0504 31.15 40.0004 27.25C39.8504 26.9 39.7504 26.5 39.7004 26.1C39.5504 24.25 40.2004 22.4 41.4504 21C43.5504 18.3 47.7504 15.25 54.0004 11.9C54.1504 11.8 54.3004 11.75 54.4504 11.7C54.6004 11.65 54.8004 11.65 54.9504 11.65L90.2004 11.25C90.5504 11.25 90.9004 11.35 91.2004 11.55C91.3504 11.65 91.4504 11.8 91.6004 11.95L101.35 25.95C101.55 26.1 101.65 26.3 101.75 26.55L101.95 26.85C111.3 33.1 119.45 44.2 126.3 60.1C133.15 76 138.85 96.75 143.25 122.35C143.3 122.75 143.25 123.2 143 123.5C142.75 123.85 142.4 124.05 142 124.15C141.95 124.15 141.9 124.15 141.85 124.15L121.1 126.8C120.4 126.9 119.75 126.5 119.45 125.85C114.9 114.85 111.15 104.8 108.2 95.75L109 135.95C109 136.8 108.35 137.55 107.5 137.55L92.7504 137.95C91.9004 137.95 91.2004 137.3 91.2004 136.45C91.2004 135.6 91.8504 134.9 92.7004 134.85L105.85 134.5L104.85 84.55C103.7 80.25 102.75 76.25 102.05 72.5C99.3504 58.2 99.9504 47.7 103.8 41.05C104.25 40.3 105.2 40.05 105.95 40.45C106.7 40.9 106.95 41.85 106.5 42.6C103 48.6 102.55 58.4 105.1 71.95C107.65 85.5 113.25 102.75 121.85 123.6L139.9 121.3C135.55 96.65 130.05 76.7 123.4 61.35C117.15 46.9 109.9 36.65 101.7 30.55C101.35 33.35 99.9004 35.9 97.7004 37.65C94.9504 39.9 90.8504 41.3 85.4004 41.85C87.3504 47.05 86.0004 50.8 81.3504 53.25C78.4004 54.75 74.0504 55.65 68.2004 55.85C68.1004 55.85 68.0004 55.85 67.9004 55.85C65.1004 55.95 62.0004 55.9 58.6004 55.7L62.0504 133.3L62.1504 135.7L82.9504 135.15C83.8004 135.15 84.5004 135.85 84.5004 136.65C84.5004 137.5 83.8504 138.2 83.0004 138.25L60.7504 138.85H60.7004C60.3004 138.85 59.9004 138.7 59.5504 138.45C59.2504 138.15 59.0504 137.8 59.0504 137.35L58.9504 135L36.5504 135.95ZM56.9004 14.7L87.2004 14.35C80.5504 23.65 74.9004 31.55 70.6004 37.65C67.4504 34.85 64.7004 31.55 62.5504 27.9C60.1504 23.75 58.2504 19.35 56.9004 14.7ZM68.8004 40.25C65.4504 45 63.0504 48.35 61.8504 50.05C60.4504 48.95 59.2504 47.6 58.3504 46.05C56.7004 43.2 56.1004 39.85 56.6004 36.6C56.7504 35.65 56.9504 34.7 57.3004 33.75C57.5004 33.3 57.4504 32.8 57.2504 32.4C57.0004 32 56.6004 31.7 56.1504 31.6C50.5504 30.6 46.7004 29.35 44.5504 27.85C43.7004 27.4 43.1004 26.6 42.8504 25.65C42.8504 24.6 43.2504 23.6 43.9504 22.85C45.6504 20.7 48.9504 18.25 53.9004 15.45C55.3004 20.35 57.3504 25.05 59.9004 29.45C62.3004 33.55 65.3004 37.15 68.8004 40.25ZM90.3004 15.5C76.5004 34.8 67.4504 47.5 64.5504 51.65C64.9004 51.8 65.2504 51.95 65.6504 52.1C66.5004 52.4 67.3504 52.6 68.2504 52.75C73.5504 52.55 77.4504 51.8 80.0004 50.45C83.4004 48.7 84.0004 45.6 81.8004 41.25C81.5504 40.8 81.5004 40.2 81.7504 39.7C82.0004 39.2 82.5004 38.9 83.0504 38.9C83.6504 38.85 84.1504 38.85 84.6004 38.8C89.7004 38.35 93.4504 37.15 95.8004 35.2C98.0004 33.4 99.1004 30.55 98.8004 27.75L90.3004 15.5Z" fill="#663366"/>
</svg>
