<svg width="150" height="150" viewBox="0 0 150 150" fill="none" xmlns="http://www.w3.org/2000/svg">
<path d="M69.2004 67.3501H47.4004C46.3004 67.3501 45.3504 66.9001 44.7504 66.1001C44.1504 65.3001 44.0004 64.2501 44.3004 63.2501L48.4504 48.7501C49.0004 46.8501 50.9504 45.3501 52.9504 45.3501H69.2004C71.3004 45.3501 73.0504 47.1001 73.0504 49.2001V63.5001C73.0004 65.6501 71.3004 67.3501 69.2004 67.3501ZM52.9504 47.9001C52.1004 47.9001 51.1504 48.6501 50.9004 49.4501L46.7504 63.9501C46.6504 64.2001 46.7004 64.4501 46.8004 64.5501C46.9004 64.7001 47.1004 64.7501 47.4004 64.7501H69.2004C69.9004 64.7501 70.5004 64.2001 70.5004 63.4501V49.2001C70.5004 48.5001 69.9504 47.9001 69.2004 47.9001H52.9504Z" fill="#663366"/>
<path d="M105.35 67.3501H79.6996C77.5996 67.3501 75.8496 65.6001 75.8496 63.5001V49.2001C75.8496 47.1001 77.5996 45.3501 79.6996 45.3501H99.7996C101.8 45.3501 103.75 46.8501 104.3 48.7501L108.45 63.2501C108.75 64.3001 108.6 65.3501 108 66.1001C107.35 66.9001 106.4 67.3501 105.35 67.3501ZM79.6996 47.9001C78.9996 47.9001 78.3996 48.5001 78.3996 49.2001V63.5001C78.3996 64.2001 78.9496 64.8001 79.6996 64.8001H105.35C105.6 64.8001 105.85 64.7001 105.95 64.6001C106.05 64.4501 106.05 64.2501 106 64.0001L101.85 49.5001C101.6 48.7001 100.65 47.9501 99.7996 47.9501H79.6996V47.9001Z" fill="#663366"/>
<path d="M51.3488 102.75C46.8988 102.75 43.2988 99.1504 43.2988 94.7004C43.2988 90.2504 46.8988 86.6504 51.3488 86.6504C55.7988 86.6504 59.3988 90.2504 59.3988 94.7004C59.3988 99.1504 55.7988 102.75 51.3488 102.75ZM51.3488 89.2004C48.2988 89.2004 45.8488 91.6504 45.8488 94.7004C45.8488 97.7504 48.2988 100.2 51.3488 100.2C54.3988 100.2 56.8488 97.7504 56.8488 94.7004C56.8488 91.6504 54.3488 89.2004 51.3488 89.2004Z" fill="#663366"/>
<path d="M118.499 102.75C114.049 102.75 110.449 99.1504 110.449 94.7004C110.449 90.2504 114.049 86.6504 118.499 86.6504C122.949 86.6504 126.549 90.2504 126.549 94.7004C126.549 99.1504 122.949 102.75 118.499 102.75ZM118.499 89.2004C115.449 89.2004 112.999 91.6504 112.999 94.7004C112.999 97.7504 115.449 100.2 118.499 100.2C121.549 100.2 123.999 97.7504 123.999 94.7004C123.999 91.6504 121.549 89.2004 118.499 89.2004Z" fill="#663366"/>
<path d="M118.5 109.35C112.25 109.35 106.85 105.4 104.8 99.8502H65.0504C62.9504 105.4 57.6004 109.35 51.3504 109.35C45.1004 109.35 39.7504 105.4 37.6504 99.8502H31.3504C29.6004 99.8502 28.1504 98.4002 28.1504 96.6502V92.6002C28.1504 90.8502 29.2504 89.4502 30.6504 89.4002C30.7504 89.3002 30.8504 89.1002 30.9004 88.7002C30.9004 88.4502 31.1504 82.6502 32.2504 76.7502C33.7504 68.9502 36.0004 64.8002 39.2004 64.0502L43.0504 48.2002C43.1004 48.1002 43.0504 48.0002 43.0504 48.0002C43.0504 47.9502 42.9504 47.9502 42.8504 47.9502H42.1004C40.3504 47.9502 38.9004 46.5002 38.9004 44.7502V43.9002C38.9004 42.1502 40.3504 40.7002 42.1004 40.7002H104C105.6 40.7002 107.25 41.8002 107.8 43.3002L114.6 60.4502C114.8 60.9502 115.45 61.4002 116 61.4002C116.45 61.4002 127.25 61.2002 134.95 68.7502C139.65 73.3502 142.2 79.8002 142.4 87.9002C144.15 87.9002 145.6 89.3502 145.6 91.1002V96.6502C145.6 98.4002 144.15 99.8502 142.4 99.8502H132.15C130.15 105.4 124.75 109.35 118.5 109.35ZM118.5 82.6502C111.85 82.6502 106.45 88.0502 106.45 94.7002C106.45 101.35 111.85 106.75 118.5 106.75C125.15 106.75 130.55 101.35 130.55 94.7002C130.55 88.0502 125.15 82.6502 118.5 82.6502ZM51.3504 82.6502C44.7004 82.6502 39.3004 88.0502 39.3004 94.7002C39.3004 101.35 44.7004 106.75 51.3504 106.75C58.0004 106.75 63.4004 101.35 63.4004 94.7002C63.4004 88.0502 58.0004 82.6502 51.3504 82.6502ZM132.9 97.2502H142.45C142.8 97.2502 143.1 96.9502 143.1 96.6002V91.0502C143.1 90.7002 142.8 90.4002 142.45 90.4002H141.2C140.5 90.4002 139.9 89.8502 139.9 89.1002C139.9 81.1002 137.65 74.8502 133.2 70.5002C126.2 63.7002 116.2 63.8502 116.1 63.8502C114.45 63.8502 112.85 62.8002 112.25 61.3002L105.45 44.1502C105.25 43.6502 104.55 43.1502 104 43.1502H42.0504C41.7004 43.1502 41.4004 43.4502 41.4004 43.8002V44.6502C41.4004 45.0002 41.7004 45.3002 42.0504 45.3002H42.8004C43.7004 45.3002 44.5004 45.7002 45.0504 46.3502C45.5504 47.0002 45.7504 47.9002 45.5504 48.7502L41.5004 65.4502C41.3504 66.0002 40.8504 66.4502 40.2504 66.4502C36.1504 66.4502 33.8504 79.4502 33.5004 88.7002C33.4504 90.4002 32.3004 91.8002 30.9504 91.8502C30.9004 91.9502 30.7504 92.1502 30.7504 92.5002V96.5502C30.7504 96.9002 31.0504 97.2002 31.4004 97.2002H36.9504C36.8004 96.3502 36.7504 95.5002 36.7504 94.6502C36.7504 86.6002 43.3004 80.0002 51.4004 80.0002C59.4504 80.0002 66.0504 86.5502 66.0504 94.6502C66.0504 95.5502 65.9504 96.4002 65.8504 97.2002H104.2C104.05 96.3502 104 95.5002 104 94.6502C104 86.6002 110.55 80.0002 118.65 80.0002C126.7 80.0002 133.3 86.5502 133.3 94.6502C133.15 95.6002 133.05 96.4502 132.9 97.2502Z" fill="#663366"/>
<path d="M23.3492 82.9501H10.7492C10.0492 82.9501 9.44922 82.4001 9.44922 81.6501C9.44922 80.9501 9.99922 80.3501 10.7492 80.3501H23.3492C24.0492 80.3501 24.6492 80.9001 24.6492 81.6501C24.6492 82.4001 24.0492 82.9501 23.3492 82.9501Z" fill="#663366"/>
<path d="M18.2496 90.85H5.64961C4.94961 90.85 4.34961 90.3 4.34961 89.55C4.34961 88.85 4.89961 88.25 5.64961 88.25H18.2496C18.9496 88.25 19.5496 88.8 19.5496 89.55C19.4996 90.3 18.9496 90.85 18.2496 90.85Z" fill="#663366"/>
<path d="M23.3492 98.7504H10.7492C10.0492 98.7504 9.44922 98.2004 9.44922 97.4504C9.44922 96.7504 9.99922 96.1504 10.7492 96.1504H23.3492C24.0492 96.1504 24.6492 96.7004 24.6492 97.4504C24.6492 98.2004 24.0492 98.7504 23.3492 98.7504Z" fill="#663366"/>
</svg>
