<svg width="150" height="150" viewBox="0 0 150 150" fill="none" xmlns="http://www.w3.org/2000/svg">
<path fill-rule="evenodd" clip-rule="evenodd" d="M111.449 66.9V13.55C111.449 11.4 110.599 9.35 109.099 7.85C107.599 6.35 105.549 5.5 103.399 5.5H21.9992C19.8492 5.5 17.7992 6.35 16.2992 7.85C14.7992 9.35 13.9492 11.4 13.9492 13.55V100.1C13.9492 102.25 14.7992 104.3 16.2992 105.8C17.7992 107.3 19.8492 108.15 21.9992 108.15H103.449C105.599 108.15 107.649 107.3 109.149 105.8C110.649 104.3 111.499 102.25 111.499 100.1C111.499 98.9 110.499 97.9 109.299 97.9C108.099 97.9 107.099 98.9 107.099 100.1C107.099 101.05 106.699 102 106.049 102.7C105.349 103.4 104.449 103.75 103.449 103.75H21.9992C21.0492 103.75 20.0992 103.35 19.3992 102.7C18.6992 102 18.3492 101.1 18.3492 100.1V13.55C18.3492 12.6 18.7492 11.65 19.3992 10.95C20.0992 10.25 20.9992 9.9 21.9992 9.9H103.449C104.399 9.9 105.349 10.3 106.049 10.95C106.749 11.65 107.099 12.55 107.099 13.55V66.9C107.099 68.1 108.099 69.1 109.299 69.1C110.499 69.1 111.449 68.15 111.449 66.9Z" fill="#663366"/>
<path fill-rule="evenodd" clip-rule="evenodd" d="M37.5996 7.7V21.4C37.5996 24.25 39.8996 26.5 42.6996 26.5H82.5996C85.4496 26.5 87.6996 24.2 87.6996 21.4V7.7C87.6996 6.5 86.6996 5.5 85.4996 5.5C84.2996 5.5 83.2996 6.5 83.2996 7.7V21.4C83.2996 21.8 82.9496 22.15 82.5496 22.15H42.7496C42.3496 22.15 41.9996 21.8 41.9996 21.4V7.7C41.9996 6.5 40.9996 5.5 39.7996 5.5C38.5996 5.5 37.5996 6.5 37.5996 7.7Z" fill="#663366"/>
<path fill-rule="evenodd" clip-rule="evenodd" d="M87.7984 105.95V92.2499C87.7984 89.3999 85.4984 87.1499 82.6984 87.1499H42.7484C39.8984 87.1499 37.6484 89.4499 37.6484 92.2499V105.95C37.6484 107.15 38.6484 108.15 39.8484 108.15C41.0484 108.15 42.0484 107.15 42.0484 105.95V92.2499C42.0484 91.8499 42.3984 91.4999 42.7984 91.4999H82.6984C83.0984 91.4999 83.4484 91.8499 83.4484 92.2499V105.95C83.4484 107.15 84.4484 108.15 85.6484 108.15C86.7984 108.15 87.7984 107.15 87.7984 105.95Z" fill="#663366"/>
<path fill-rule="evenodd" clip-rule="evenodd" d="M47.8984 36.1499H42.7484C39.8984 36.1499 37.6484 38.4499 37.6484 41.2499V72.2999C37.6484 75.1499 39.9484 77.3999 42.7484 77.3999H82.6484C85.4984 77.3999 87.7484 75.0999 87.7484 72.2999V41.2999C87.7484 38.4499 85.4484 36.1999 82.6484 36.1999H56.2484C55.0484 36.1999 54.0484 37.1999 54.0484 38.3999C54.0484 39.5999 55.0484 40.5999 56.2484 40.5999H82.6484C83.0484 40.5999 83.3984 40.9499 83.3984 41.3499V72.3999C83.3984 72.7999 83.0484 73.1499 82.6484 73.1499H42.7484C42.3484 73.1499 41.9984 72.7999 41.9984 72.3999V41.2999C41.9984 40.8999 42.3484 40.5499 42.7484 40.5499H47.9484C49.1484 40.5499 50.1484 39.5499 50.1484 38.3499C50.0984 37.1499 49.1484 36.1499 47.8984 36.1499Z" fill="#663366"/>
<path fill-rule="evenodd" clip-rule="evenodd" d="M26.1484 99.9V104.3C26.1484 105.5 27.1484 106.5 28.3484 106.5C29.5484 106.5 30.5484 105.5 30.5484 104.3V99.9C30.5484 98.7 29.5484 97.7 28.3484 97.7C27.1484 97.7 26.1484 98.65 26.1484 99.9ZM26.1484 86.7V91.1C26.1484 92.3 27.1484 93.3 28.3484 93.3C29.5484 93.3 30.5484 92.3 30.5484 91.1V86.7C30.5484 85.5 29.5484 84.5 28.3484 84.5C27.1484 84.5 26.1484 85.5 26.1484 86.7ZM26.1484 73.55V77.95C26.1484 79.15 27.1484 80.15 28.3484 80.15C29.5484 80.15 30.5484 79.15 30.5484 77.95V73.55C30.5484 72.35 29.5484 71.35 28.3484 71.35C27.1484 71.35 26.1484 72.35 26.1484 73.55ZM26.1484 60.35V64.75C26.1484 65.95 27.1484 66.95 28.3484 66.95C29.5484 66.95 30.5484 65.95 30.5484 64.75V60.35C30.5484 59.15 29.5484 58.15 28.3484 58.15C27.1484 58.15 26.1484 59.15 26.1484 60.35ZM26.1484 47.2V51.6C26.1484 52.8 27.1484 53.8 28.3484 53.8C29.5484 53.8 30.5484 52.8 30.5484 51.6V47.2C30.5484 46 29.5484 45 28.3484 45C27.1484 45 26.1484 46 26.1484 47.2ZM26.1484 34.05V38.45C26.1484 39.65 27.1484 40.65 28.3484 40.65C29.5484 40.65 30.5484 39.65 30.5484 38.45V34.05C30.5484 32.85 29.5484 31.85 28.3484 31.85C27.1484 31.85 26.1484 32.8 26.1484 34.05ZM26.1484 20.85V25.25C26.1484 26.45 27.1484 27.45 28.3484 27.45C29.5484 27.45 30.5484 26.45 30.5484 25.25V20.85C30.5484 19.65 29.5484 18.65 28.3484 18.65C27.1484 18.65 26.1484 19.65 26.1484 20.85ZM26.1484 7.7V12.1C26.1484 13.3 27.1484 14.3 28.3484 14.3C29.5484 14.3 30.5484 13.3 30.5484 12.1V7.7C30.5484 6.5 29.5484 5.5 28.3484 5.5C27.1484 5.5 26.1484 6.5 26.1484 7.7Z" fill="#663366"/>
<path fill-rule="evenodd" clip-rule="evenodd" d="M94.8984 60.35V64.75C94.8984 65.95 95.8984 66.95 97.0984 66.95C98.2984 66.95 99.2984 65.95 99.2984 64.75V60.35C99.2984 59.15 98.2984 58.15 97.0984 58.15C95.8484 58.15 94.8984 59.15 94.8984 60.35ZM94.8984 47.2V51.6C94.8984 52.8 95.8984 53.8 97.0984 53.8C98.2984 53.8 99.2984 52.8 99.2984 51.6V47.2C99.2984 46 98.2984 45 97.0984 45C95.8484 45 94.8984 46 94.8984 47.2ZM94.8984 34.05V38.45C94.8984 39.65 95.8984 40.65 97.0984 40.65C98.2984 40.65 99.2984 39.65 99.2984 38.45V34.05C99.2984 32.85 98.2984 31.85 97.0984 31.85C95.8484 31.85 94.8984 32.8 94.8984 34.05ZM94.8984 20.85V25.25C94.8984 26.45 95.8984 27.45 97.0984 27.45C98.2984 27.45 99.2984 26.45 99.2984 25.25V20.85C99.2984 19.65 98.2984 18.65 97.0984 18.65C95.8484 18.65 94.8984 19.65 94.8984 20.85ZM94.8984 7.7V12.1C94.8984 13.3 95.8984 14.3 97.0984 14.3C98.2984 14.3 99.2984 13.3 99.2984 12.1V7.7C99.2984 6.5 98.2984 5.5 97.0984 5.5C95.8484 5.5 94.8984 6.5 94.8984 7.7Z" fill="#663366"/>
<path fill-rule="evenodd" clip-rule="evenodd" d="M97.65 128.2V78.9998C97.65 77.7998 96.65 76.7998 95.45 76.7998C94.25 76.7998 93.25 77.7998 93.25 78.9998V128.2C93.25 129.4 94.25 130.4 95.45 130.4C96.7 130.35 97.65 129.4 97.65 128.2Z" fill="#663366"/>
<path fill-rule="evenodd" clip-rule="evenodd" d="M136.048 128.2V91.3001C136.048 90.1001 135.048 89.1001 133.848 89.1001C132.648 89.1001 131.648 90.1001 131.648 91.3001V128.2C131.648 129.4 132.648 130.4 133.848 130.4C135.098 130.35 136.048 129.4 136.048 128.2Z" fill="#663366"/>
<path fill-rule="evenodd" clip-rule="evenodd" d="M81.3488 111.85C72.3488 111.85 65.0488 119.15 65.0488 128.15C65.0488 137.15 72.3488 144.45 81.3488 144.45C90.3488 144.45 97.6488 137.15 97.6488 128.15C97.6488 119.15 90.3488 111.85 81.3488 111.85ZM81.3488 116.25C87.9488 116.25 93.2988 121.6 93.2988 128.2C93.2988 134.8 87.9488 140.15 81.3488 140.15C74.7488 140.15 69.3988 134.8 69.3988 128.2C69.3988 121.6 74.7488 116.25 81.3488 116.25Z" fill="#663366"/>
<path fill-rule="evenodd" clip-rule="evenodd" d="M119.749 111.85C110.749 111.85 103.449 119.15 103.449 128.15C103.449 137.15 110.749 144.45 119.749 144.45C128.749 144.45 136.049 137.15 136.049 128.15C136.049 119.15 128.749 111.85 119.749 111.85ZM119.749 116.25C126.349 116.25 131.699 121.6 131.699 128.2C131.699 134.8 126.349 140.15 119.749 140.15C113.149 140.15 107.799 134.8 107.799 128.2C107.799 121.6 113.149 116.25 119.749 116.25Z" fill="#663366"/>
<path fill-rule="evenodd" clip-rule="evenodd" d="M136.05 88.4499C136.05 85.0499 133.9 81.9999 130.65 80.8499C123.25 78.2999 107.4 72.7499 100.05 70.1999C98.5 69.6499 96.75 69.8999 95.4 70.8499C94.05 71.7999 93.25 73.3499 93.25 75.0499V85.6499C93.25 86.5999 93.85 87.3999 94.7 87.6999L133.1 101.1C133.75 101.35 134.5 101.25 135.1 100.8C135.7 100.4 136.05 99.6999 136.05 98.9999V88.4499ZM131.7 88.4499V95.8999L97.7 84.0499V74.9999C97.7 74.7499 97.8 74.5499 98 74.3999C98.2 74.2499 98.45 74.2499 98.65 74.2999L129.25 84.9499C130.7 85.4999 131.7 86.8999 131.7 88.4499Z" fill="#663366"/>
</svg>
