<svg width="200" height="200" viewBox="0 0 200 200" fill="none" xmlns="http://www.w3.org/2000/svg">
<mask id="mask0_452_116" style="mask-type:luminance" maskUnits="userSpaceOnUse" x="10" y="10" width="180" height="180">
<path d="M190 10V190H10V10H190Z" fill="white"/>
<path d="M190 10V190H10V10H190Z" stroke="white"/>
</mask>
<g mask="url(#mask0_452_116)">
<path d="M147.734 11.7754L147.919 11.7842C148.829 11.8766 149.539 12.6458 149.539 13.5801V109.135C149.539 110.132 148.731 110.94 147.734 110.94H52.2588C51.2622 110.94 50.4551 110.132 50.4551 109.135V13.5801C50.4552 12.5837 51.2622 11.7754 52.2588 11.7754H147.734ZM54.0625 107.331H145.931V15.3857H54.0625V107.331Z" fill="black" stroke="black" stroke-width="0.45"/>
<path d="M137.244 22.2773C138.24 22.2774 139.047 23.0857 139.047 24.082L139.048 98.6338L139.038 98.8184C138.946 99.7283 138.178 100.439 137.244 100.439H62.751C61.7548 100.439 60.9473 99.63 60.9473 98.6338V24.082L60.9561 23.8975C61.0485 22.9875 61.8172 22.2773 62.751 22.2773H137.244ZM64.5547 96.8291H135.439V25.8877H64.5547V96.8291Z" fill="black" stroke="black" stroke-width="0.45"/>
<path d="M80.2842 58.7939H80.2861L80.5 58.835C80.988 58.9589 81.407 59.2812 81.6494 59.7295L95.8135 85.9795L95.8926 86.1465C96.2435 86.9925 95.9053 87.9824 95.084 88.4277L95.083 88.4287C94.8116 88.5738 94.5175 88.6445 94.2275 88.6445C93.5865 88.6445 92.9647 88.3009 92.6387 87.6943V87.6934L79.6777 63.6738L64.0781 80.6572L64.0791 80.6582C63.4052 81.3965 62.2625 81.4429 61.5293 80.7656V80.7646C60.7972 80.092 60.749 78.9515 61.4219 78.2188L78.7344 59.3633V59.3623L78.8906 59.2129C79.2734 58.8869 79.7794 58.7326 80.2842 58.7939Z" fill="black" stroke="black" stroke-width="0.45"/>
<path d="M98.4277 49.334C98.8587 49.3333 99.2771 49.4862 99.6055 49.7656L99.7617 49.915L99.7627 49.916L116.887 68.5615L117.004 68.7041C117.55 69.439 117.467 70.4821 116.779 71.1133V71.1143C116.091 71.7443 115.045 71.7424 114.361 71.1348L114.23 71.0049L98.8174 54.2227L88.291 73.7324L88.292 73.7334C87.9861 74.3024 87.4199 74.639 86.8223 74.6787L86.7031 74.6826C86.4133 74.6826 86.1194 74.6122 85.8477 74.4668H85.8467C84.9708 73.9922 84.6439 72.897 85.1162 72.0186L85.1172 72.0176L96.8467 50.2783L96.9609 50.0938C97.2515 49.6828 97.7043 49.4086 98.2109 49.3467L98.4277 49.334Z" fill="black" stroke="black" stroke-width="0.45"/>
<path d="M120.688 58.0576C121.193 57.9957 121.699 58.1505 122.082 58.4766L122.238 58.626L122.239 58.627L138.574 76.416L138.692 76.5586C139.24 77.2907 139.152 78.3324 138.466 78.9629L138.467 78.9639C137.779 79.5986 136.733 79.597 136.049 78.9863L135.917 78.8564L121.294 62.9336L110.769 82.4443C110.442 83.0506 109.82 83.3936 109.179 83.3936C108.889 83.3935 108.596 83.3236 108.324 83.1787L108.323 83.1777C107.447 82.7029 107.12 81.6081 107.593 80.7295V80.7285L119.324 58.9893L119.438 58.8047C119.729 58.3941 120.181 58.1204 120.688 58.0586V58.0576Z" fill="black" stroke="black" stroke-width="0.45"/>
<path d="M112.947 29.3799C114.655 29.3799 116.264 30.0489 117.471 31.1709C118.678 30.0485 120.288 29.3838 121.995 29.3838C125.656 29.3839 128.635 32.3654 128.635 36.0283C128.635 36.2572 128.62 36.4861 128.597 36.7129C130.2 37.9559 131.183 39.8927 131.183 41.9707C131.182 45.6333 128.205 48.6141 124.544 48.6143H107.767C104.105 48.6142 101.127 45.6334 101.127 41.9707C101.127 38.8012 103.357 36.1427 106.33 35.4814C106.608 32.07 109.469 29.3799 112.947 29.3799ZM112.791 32.9941C111.192 33.0759 109.915 34.4063 109.915 36.0283C109.915 36.2067 109.931 36.3848 109.962 36.5596L109.998 36.7324V36.7334L110.036 36.9473C110.094 37.4484 109.939 37.9537 109.604 38.3398L109.604 38.3408C109.221 38.7772 108.65 39.0076 108.069 38.9512H108.065C107.971 38.9402 107.87 38.9365 107.767 38.9365C106.095 38.9366 104.734 40.2965 104.734 41.9707C104.735 43.6443 106.095 45.0038 107.767 45.0039H124.544L124.699 45C126.298 44.9187 127.576 43.5922 127.576 41.9707C127.576 40.7947 126.885 39.7097 125.818 39.2158L125.817 39.2148C124.984 38.8251 124.573 37.8722 124.868 37.002L124.938 36.7637C124.997 36.5238 125.027 36.2783 125.027 36.0283C125.027 34.3541 123.667 32.9943 121.995 32.9941C120.82 32.9941 119.745 33.6846 119.249 34.7363L119.158 34.9512C118.892 35.6511 118.222 36.1171 117.471 36.1172C116.768 36.1172 116.134 35.7081 115.839 35.0801L115.784 34.9512C115.34 33.7793 114.2 32.9903 112.947 32.9902L112.791 32.9941Z" fill="black" stroke="black" stroke-width="0.45"/>
<path d="M82.1123 34.1201C86.9391 34.3656 90.79 38.3708 90.79 43.2627C90.79 48.3125 86.6859 52.417 81.6416 52.417C76.5974 52.4168 72.4942 48.3125 72.4941 43.2627C72.4941 38.213 76.5974 34.1086 81.6416 34.1084L82.1123 34.1201ZM81.6416 37.7188C78.587 37.719 76.1016 40.2061 76.1016 43.2627L76.1084 43.5479C76.2573 46.4725 78.6826 48.8064 81.6416 48.8066C84.6959 48.8066 87.1826 46.3194 87.1826 43.2627L87.1748 42.9775C87.026 40.0526 84.6004 37.7188 81.6416 37.7188Z" fill="black" stroke="black" stroke-width="0.45"/>
<path d="M17.8799 91.1016C18.7898 91.1938 19.4999 91.9631 19.5 92.8975V172.445C19.5 173.441 18.6926 174.251 17.6963 174.251C16.6998 174.251 15.8926 173.441 15.8926 172.445V92.8975C15.8927 91.901 16.6999 91.0928 17.6963 91.0928L17.8799 91.1016ZM29.168 91.1016C30.0778 91.1939 30.788 91.9632 30.7881 92.8975V172.445C30.7881 173.441 29.9799 174.251 28.9834 174.251C27.9871 174.251 27.1797 173.441 27.1797 172.445V92.8975C27.1798 91.9011 27.9873 91.093 28.9834 91.0928L29.168 91.1016Z" fill="black" stroke="black" stroke-width="0.45"/>
<path d="M35.0957 170.641L35.2793 170.649C36.1891 170.742 36.8993 171.511 36.8994 172.445V185.626C36.8994 186.622 36.092 187.431 35.0957 187.432H11.5791C10.5827 187.432 9.77539 186.622 9.77539 185.626V172.445C9.77556 171.448 10.5828 170.641 11.5791 170.641H35.0957ZM13.3828 183.82H33.291V174.251H13.3828V183.82Z" fill="black" stroke="black" stroke-width="0.45"/>
<path d="M23.3369 74.1465C29.5185 74.1465 34.5469 79.1768 34.5469 85.3623C34.5469 91.552 29.5186 96.583 23.3369 96.583C17.1552 96.583 12.127 91.552 12.127 85.3623C12.127 79.1767 17.1552 74.1465 23.3369 74.1465ZM23.3369 77.7568C19.1451 77.7568 15.7344 81.1698 15.7344 85.3623C15.7344 89.5591 19.1451 92.9727 23.3369 92.9727C27.5286 92.9726 30.9395 89.5591 30.9395 85.3623C30.9394 81.1698 27.5286 77.7568 23.3369 77.7568Z" fill="black" stroke="black" stroke-width="0.45"/>
<path d="M171.2 91.1016C172.11 91.1938 172.82 91.963 172.82 92.8975V172.445C172.82 173.441 172.012 174.251 171.017 174.251C170.02 174.251 169.213 173.441 169.213 172.445V92.8975C169.213 91.9011 170.02 91.093 171.016 91.0928L171.2 91.1016ZM182.489 91.1016C183.398 91.194 184.108 91.9633 184.108 92.8975V172.445C184.108 173.441 183.3 174.251 182.305 174.251C181.307 174.251 180.5 173.441 180.5 172.445V92.8975C180.5 91.901 181.307 91.0928 182.305 91.0928L182.489 91.1016Z" fill="black" stroke="black" stroke-width="0.45"/>
<path d="M188.416 170.641L188.601 170.649C189.51 170.742 190.22 171.511 190.22 172.445V185.626C190.22 186.622 189.413 187.432 188.416 187.432H164.899C163.903 187.431 163.096 186.622 163.096 185.626V172.445C163.096 171.448 163.903 170.641 164.899 170.641H188.416ZM166.703 183.82H186.612V174.251H166.703V183.82Z" fill="black" stroke="black" stroke-width="0.45"/>
<path d="M176.664 74.1465C182.846 74.1465 187.875 79.1768 187.875 85.3623C187.875 91.552 182.846 96.583 176.664 96.583C170.483 96.5829 165.455 91.5519 165.455 85.3623C165.455 79.1767 170.483 74.1465 176.664 74.1465ZM176.664 77.7568C172.473 77.7569 169.062 81.1698 169.062 85.3623C169.062 89.5591 172.473 92.9726 176.664 92.9727C180.856 92.9727 184.268 89.5591 184.268 85.3623C184.268 81.1698 180.856 77.7568 176.664 77.7568Z" fill="black" stroke="black" stroke-width="0.45"/>
<path d="M170.37 131.916C171.298 131.554 172.343 132.016 172.705 132.945L172.764 133.12C172.992 133.942 172.607 134.818 171.848 135.207L171.679 135.282C147.008 144.899 123.562 149.577 100.005 149.577C77.1838 149.577 54.4671 145.188 30.6396 136.17L28.3311 135.282C27.4027 134.92 26.9431 133.872 27.3047 132.945L27.3799 132.776C27.7959 131.961 28.7699 131.577 29.6396 131.916H29.6406C53.8944 141.371 76.9098 145.966 100.005 145.966C122.378 145.966 144.677 141.655 168.1 132.789L170.37 131.916ZM170.676 120.128C171.653 119.93 172.602 120.571 172.794 121.548C172.974 122.464 172.426 123.357 171.551 123.623L171.371 123.668C161.542 125.599 153.968 127.998 146.633 130.319L146.634 130.32C133.721 134.413 121.505 138.281 100.005 138.281C79.8495 138.281 67.8526 134.881 55.792 131.084L53.377 130.32C46.5007 128.144 39.4135 125.9 30.4551 124.036L28.6377 123.668C27.6602 123.476 27.0237 122.525 27.2158 121.548L27.2598 121.369C27.5256 120.494 28.417 119.943 29.334 120.128L29.333 120.129C39.3646 122.099 47.0463 124.529 54.4648 126.879L56.9229 127.655C69.135 131.498 80.3713 134.671 100.005 134.671C120.947 134.671 132.335 131.062 145.544 126.879L148.343 125.995C154.92 123.929 161.898 121.853 170.676 120.129V120.128Z" fill="black" stroke="black" stroke-width="0.45"/>
</g>
</svg>
