<svg width="150" height="150" viewBox="0 0 150 150" fill="none" xmlns="http://www.w3.org/2000/svg">
<path fill-rule="evenodd" clip-rule="evenodd" d="M101.15 19.1501C101.3 18.0001 102.3 17.1001 103.55 17.1001H111.75C113.1 17.1001 114.15 18.2001 114.15 19.5001V25.3001H117.55C117.7 24.1501 118.75 23.2501 119.95 23.2501H128.15C129.5 23.2501 130.55 24.3501 130.55 25.6501V27.3501H136.35C137.7 27.3501 138.75 28.4001 138.75 29.7501V50.0001H142.5C143.15 50.0001 143.8 50.2501 144.25 50.7501C144.7 51.2501 144.95 51.8501 144.9 52.5001L141.4 130.6C141.35 131.9 140.3 132.9 139 132.9H19.6C16.45 132.9 13.4 131.65 11.2 129.4C9 127.15 7.7 124.15 7.7 121V113.2C7.3 112.95 6.95 112.7 6.65 112.35C5.6 111.3 5 109.9 5 108.45V102.55C5 101.1 5.6 99.6501 6.65 98.6501C7.65 97.6501 9 97.0501 10.45 97.0001V92.4501C10.45 92.2501 10.45 92.1001 10.5 91.9501C10.35 91.8001 10.15 91.6501 10 91.5001C8.55 90.0501 7.75 88.1501 7.75 86.1001V83.1501C7.75 65.4501 22.1 51.0501 39.85 51.0501H56.2C61.3 51.0501 66.1 52.2501 70.4 54.3501L70.3 52.4501C70.25 51.8001 70.5 51.1501 70.95 50.7001C71.4 50.2501 72.05 49.9501 72.7 49.9501H76.45V33.9001C76.45 32.5501 77.55 31.5001 78.85 31.5001H84.65V27.7501C84.65 26.4001 85.75 25.3501 87.05 25.3501H92.85V21.6001C92.85 20.2501 93.95 19.2001 95.25 19.2001L101.15 19.1501ZM85.9 128.1H136.8L140.1 54.8001H137.15C137.1 55.0001 137 55.2001 136.9 55.3501C135.75 58.2501 134.35 60.4001 132.4 62.6001C131.9 63.1501 131.4 63.7001 130.85 64.2501C130.75 64.4001 130.6 64.5001 130.5 64.6001C130.45 64.6501 130.35 64.7501 130.3 64.8001C129.25 65.7501 128.15 66.6501 127 67.4501L126.95 67.5001C126.85 67.6001 126.75 67.6501 126.65 67.7001H126.6C125.4 68.5001 124.1 69.2501 122.75 69.9001C122.65 69.9501 122.55 70.0001 122.4 70.0501C118.05 72.1001 113 73.2501 107.7 73.2501C102.25 73.2501 97.1 72.0501 92.65 69.9001C91.3 69.2501 90.05 68.5501 88.8 67.7001H88.75C88.65 67.6501 88.55 67.5501 88.45 67.5001L88.4 67.4501C85.35 65.3501 82.8 62.8001 80.8 59.8501C79.8 58.3501 78.95 56.8001 78.3 55.1501L78.25 55.0501C78.2 54.9501 78.15 54.8501 78.15 54.7501H75.2L75.3 57.3501C83.15 63.2001 88.2 72.5501 88.2 83.1001V86.0501C88.2 88.1001 87.4 90.0001 85.95 91.4501C85.8 91.6001 85.6 91.7501 85.45 91.9001C85.45 92.0501 85.5 92.2501 85.5 92.4001V96.9501C86.9 97.0001 88.3 97.5501 89.3 98.6001C90.35 99.6501 90.95 101.05 90.95 102.5V108.4C90.95 109.85 90.35 111.3 89.3 112.3C88.95 112.65 88.6 112.9 88.25 113.15V121C88.25 123.6 87.4 126.05 85.9 128.1ZM12.55 114H83.4V121C83.4 122.9 82.65 124.7 81.35 126C80 127.35 78.2 128.05 76.35 128.05H19.65C17.75 128.05 15.95 127.3 14.65 126C13.3 124.65 12.6 122.85 12.6 121L12.55 114ZM24.75 101.85H10.55C10.35 101.85 10.2 101.95 10.05 102.05C9.9 102.2 9.85 102.35 9.85 102.55V108.45C9.85 108.65 9.95 108.8 10.05 108.95C10.2 109.1 10.35 109.15 10.55 109.15H85.35C85.55 109.15 85.7 109.05 85.85 108.95C86 108.8 86.05 108.65 86.05 108.45V102.55C86.05 102.35 85.95 102.2 85.85 102.05C85.7 101.9 85.55 101.85 85.35 101.85H43.2L32.95 107.6C32.9 107.6 32.9 107.65 32.85 107.65L32.75 107.7L32.6 107.75H32.5L32.4 107.8C32.3 107.8 32.25 107.85 32.15 107.85C32.05 107.85 31.9 107.9 31.8 107.9H31.7H31.65C31.6 107.9 31.55 107.9 31.5 107.9H31.4H31.3L31.2 107.85H31.15C31.1 107.85 31.05 107.85 31.05 107.8C31 107.8 30.9 107.75 30.85 107.7H30.8C30.75 107.65 30.7 107.65 30.65 107.6C30.45 107.5 30.3 107.35 30.15 107.2L24.75 101.85ZM15.25 97.0001H25.75C26.4 97.0001 27 97.2501 27.45 97.7001L32.15 102.45L41.35 97.2501C41.7 97.0501 42.1 96.9501 42.55 96.9501H80.7V93.6501H15.25V97.0001ZM83.4 83.1501V86.1001C83.4 86.8501 83.1 87.5501 82.55 88.1001C82.05 88.6501 81.3 88.9501 80.55 88.9501H15.35C14.6 88.9501 13.9 88.6501 13.35 88.1001C12.8 87.6001 12.5 86.8501 12.5 86.1001V83.1501C12.5 68.1001 24.7 55.9001 39.75 55.9001H56.1C71.2 55.9001 83.4 68.1001 83.4 83.1501ZM109.35 68.3501L107.65 68.5001L105.95 68.3501V21.9001H109.35V68.3501ZM114.15 30.1501H117.55V66.8001C116.45 67.2001 115.3 67.5001 114.15 67.8001V30.1501ZM101.1 26.4001V67.7501C99.95 67.5001 98.8 67.2001 97.7 66.8001V23.9501H101.1V26.4001ZM122.4 64.5501V28.0501H125.8V62.2001L124.05 63.6001L122.4 64.5501ZM89.5 62.2001V30.1501H92.9V64.6001L91.25 63.6501L89.5 62.2001ZM130.6 32.2001V57.0501C131.2 56.1501 131.7 55.2501 132.15 54.2501C132.5 53.4501 132.8 52.6001 133.1 51.6501C133.25 51.1501 133.6 50.7001 134 50.4001V32.2001H130.6ZM81.25 50.4001C81.7 50.7001 82 51.1501 82.15 51.7001L82.2 51.8501L82.25 52.0001C82.8 53.7501 83.6 55.4501 84.65 57.0501V36.3001H81.25V50.4001Z" fill="#663366"/>
</svg>
