<svg width="200" height="200" viewBox="0 0 200 200" fill="none" xmlns="http://www.w3.org/2000/svg">
<mask id="mask0_452_53" style="mask-type:luminance" maskUnits="userSpaceOnUse" x="1" y="1" width="198" height="198">
<path d="M198.5 1.5V198.5H1.5V1.5H198.5Z" fill="white" stroke="white"/>
</mask>
<g mask="url(#mask0_452_53)">
<mask id="path-2-outside-1_452_53" maskUnits="userSpaceOnUse" x="9" y="49" width="182" height="103" fill="black">
<rect fill="white" x="9" y="49" width="182" height="103"/>
<path d="M22.3803 124.086C22.8228 124.086 23.2203 123.839 23.4303 123.456C24.1054 122.174 25.1404 120.576 26.3329 118.724C30.1954 112.746 35.4757 104.571 34.6807 97.5881C34.0282 91.8354 28.5081 87.1627 22.3804 87.1627C16.2528 87.1627 10.7326 91.8429 10.0802 97.5881C9.28515 104.571 14.5727 112.754 18.428 118.724C19.6206 120.576 20.6557 122.174 21.3306 123.456C21.5331 123.839 21.9378 124.086 22.3803 124.086ZM12.435 97.851C12.96 93.2609 17.4227 89.5258 22.3803 89.5258C27.3454 89.5258 31.8082 93.2609 32.3257 97.851C33.0232 103.994 28.0055 111.764 24.3378 117.434C23.6103 118.551 22.9502 119.586 22.3728 120.524C21.8028 119.586 21.1353 118.551 20.4078 117.434C16.7553 111.764 11.7299 103.993 12.435 97.851ZM27.9756 99.5911C27.9756 96.5084 25.463 93.9958 22.3803 93.9958C19.2977 93.9958 16.7851 96.5084 16.7851 99.5911C16.7851 102.674 19.2977 105.186 22.3803 105.186C25.463 105.194 27.9756 102.681 27.9756 99.5911ZM19.1477 99.5911C19.1477 97.8135 20.5952 96.3584 22.3803 96.3584C24.1579 96.3584 25.6129 97.806 25.6129 99.5911C25.6129 101.376 24.1653 102.824 22.3803 102.824C20.5952 102.824 19.1477 101.376 19.1477 99.5911ZM60.2638 79.273C60.2638 82.2281 61.1863 84.9656 62.7465 87.2307L62.709 133.335C62.709 133.65 62.8365 133.95 63.054 134.175C63.279 134.4 63.579 134.52 63.894 134.52H136.077C136.729 134.52 137.261 133.987 137.261 133.335L137.306 87.1711C138.844 84.921 139.752 82.1986 139.752 79.2659C139.752 79.1909 139.744 79.1159 139.729 79.0408C139.722 79.0109 139.714 78.9884 139.707 78.9584C139.699 78.9209 139.691 78.8833 139.677 78.8534L129.289 50.7725C129.116 50.3075 128.674 50 128.179 50H106.196H106.189L71.8368 50.0075C71.3418 50.0075 70.8992 50.315 70.7268 50.78L60.3389 78.8608C60.3239 78.8984 60.3164 78.9283 60.3088 78.9659C60.3014 78.9958 60.2939 79.0183 60.2863 79.0484C60.2714 79.1234 60.2638 79.198 60.2638 79.273ZM105.28 52.3768L111.355 78.0883H88.6444L94.7196 52.3768H105.28ZM125.704 90.9431C119.673 90.9431 114.693 86.3381 114.101 80.4579H137.314C136.706 86.3381 131.734 90.9431 125.704 90.9431ZM111.603 80.4579C111.01 86.3381 106.03 90.9431 99.9999 90.9431C93.9695 90.9431 88.9894 86.3381 88.3969 80.4579H111.603ZM65.1008 86.4431C65.0483 86.0681 64.8083 85.7456 64.4858 85.5805C63.5183 84.073 62.8883 82.333 62.6933 80.4653H85.9068C85.3142 86.3454 80.3342 90.9506 74.3039 90.9506C70.5613 90.943 67.2384 89.1807 65.1008 86.4431ZM77.7012 132.158V106.575H87.5191V132.158H77.7012ZM89.8892 132.158V105.39C89.8892 104.737 89.3567 104.205 88.7041 104.205H76.5162C75.8637 104.205 75.3311 104.737 75.3311 105.39V132.158H65.0707L65.1083 89.8781C67.5759 92.0156 70.7859 93.3133 74.2961 93.3133C80.0338 93.3133 84.9689 89.8556 87.1439 84.9205C89.319 89.8556 94.2616 93.3133 99.9918 93.3133C105.723 93.3133 110.664 89.8556 112.84 84.9205C115.015 89.8556 119.957 93.3133 125.687 93.3133C129.213 93.3133 132.438 92.0007 134.905 89.8481L134.868 132.164L89.8892 132.158ZM136.848 78.0889H113.785L107.709 52.3774H127.338L136.848 78.0889ZM72.6605 52.3774H92.2893L86.214 78.0889H63.1502L72.6605 52.3774ZM123.475 104.242H101.634C100.981 104.242 100.449 104.774 100.449 105.427V122.363C100.449 123.015 100.981 123.547 101.634 123.547H123.482C124.135 123.547 124.668 123.015 124.668 122.363V105.427C124.668 104.774 124.135 104.242 123.475 104.242ZM122.297 121.178H102.818V106.612H122.297V121.178ZM178.805 133.343C178.805 144.271 138.205 150.166 99.9997 150.166C61.7944 150.166 21.1947 144.271 21.1947 133.343C21.1947 124.838 44.9938 120.607 59.1831 118.845C59.8281 118.762 60.4206 119.227 60.5031 119.873C60.5856 120.525 60.1206 121.11 59.4756 121.192C34.6722 124.275 23.5647 129.51 23.5647 133.335C23.5647 135.998 29.2874 139.996 45.3536 143.228C59.9415 146.168 79.352 147.781 100.008 147.781C120.664 147.781 140.074 146.161 154.663 143.228C170.728 139.995 176.451 135.99 176.451 133.335C176.451 129.51 165.343 124.267 140.518 121.185C139.872 121.102 139.407 120.51 139.49 119.865C139.573 119.212 140.165 118.755 140.81 118.838C154.993 120.6 178.805 124.83 178.805 133.343ZM189.92 97.5817C189.267 91.829 183.747 87.1564 177.62 87.1564C171.492 87.1564 165.972 91.8365 165.32 97.5817C164.524 104.564 169.812 112.747 173.667 118.718C174.86 120.57 175.895 122.168 176.57 123.45C176.772 123.84 177.177 124.08 177.62 124.08C178.062 124.08 178.46 123.833 178.67 123.45C179.345 122.168 180.38 120.57 181.572 118.718C185.435 112.747 190.715 104.564 189.92 97.5817ZM179.585 117.435C178.858 118.552 178.197 119.587 177.62 120.525C177.05 119.587 176.383 118.553 175.655 117.435C171.987 111.757 166.97 103.988 167.667 97.8524C168.192 93.2623 172.655 89.5272 177.612 89.5272C182.577 89.5272 187.041 93.2623 187.558 97.8524C188.27 103.995 183.245 111.765 179.585 117.435ZM177.62 93.997C174.537 93.997 172.025 96.5095 172.025 99.5922C172.025 102.674 174.537 105.187 177.62 105.187C180.703 105.187 183.215 102.674 183.215 99.5922C183.215 96.5095 180.71 93.997 177.62 93.997ZM177.62 102.825C175.843 102.825 174.387 101.378 174.387 99.5922C174.387 97.8146 175.835 96.3596 177.62 96.3596C179.398 96.3596 180.852 97.8072 180.852 99.5922C180.852 101.378 179.405 102.825 177.62 102.825Z"/>
</mask>
<path d="M22.3803 124.086C22.8228 124.086 23.2203 123.839 23.4303 123.456C24.1054 122.174 25.1404 120.576 26.3329 118.724C30.1954 112.746 35.4757 104.571 34.6807 97.5881C34.0282 91.8354 28.5081 87.1627 22.3804 87.1627C16.2528 87.1627 10.7326 91.8429 10.0802 97.5881C9.28515 104.571 14.5727 112.754 18.428 118.724C19.6206 120.576 20.6557 122.174 21.3306 123.456C21.5331 123.839 21.9378 124.086 22.3803 124.086ZM12.435 97.851C12.96 93.2609 17.4227 89.5258 22.3803 89.5258C27.3454 89.5258 31.8082 93.2609 32.3257 97.851C33.0232 103.994 28.0055 111.764 24.3378 117.434C23.6103 118.551 22.9502 119.586 22.3728 120.524C21.8028 119.586 21.1353 118.551 20.4078 117.434C16.7553 111.764 11.7299 103.993 12.435 97.851ZM27.9756 99.5911C27.9756 96.5084 25.463 93.9958 22.3803 93.9958C19.2977 93.9958 16.7851 96.5084 16.7851 99.5911C16.7851 102.674 19.2977 105.186 22.3803 105.186C25.463 105.194 27.9756 102.681 27.9756 99.5911ZM19.1477 99.5911C19.1477 97.8135 20.5952 96.3584 22.3803 96.3584C24.1579 96.3584 25.6129 97.806 25.6129 99.5911C25.6129 101.376 24.1653 102.824 22.3803 102.824C20.5952 102.824 19.1477 101.376 19.1477 99.5911ZM60.2638 79.273C60.2638 82.2281 61.1863 84.9656 62.7465 87.2307L62.709 133.335C62.709 133.65 62.8365 133.95 63.054 134.175C63.279 134.4 63.579 134.52 63.894 134.52H136.077C136.729 134.52 137.261 133.987 137.261 133.335L137.306 87.1711C138.844 84.921 139.752 82.1986 139.752 79.2659C139.752 79.1909 139.744 79.1159 139.729 79.0408C139.722 79.0109 139.714 78.9884 139.707 78.9584C139.699 78.9209 139.691 78.8833 139.677 78.8534L129.289 50.7725C129.116 50.3075 128.674 50 128.179 50H106.196H106.189L71.8368 50.0075C71.3418 50.0075 70.8992 50.315 70.7268 50.78L60.3389 78.8608C60.3239 78.8984 60.3164 78.9283 60.3088 78.9659C60.3014 78.9958 60.2939 79.0183 60.2863 79.0484C60.2714 79.1234 60.2638 79.198 60.2638 79.273ZM105.28 52.3768L111.355 78.0883H88.6444L94.7196 52.3768H105.28ZM125.704 90.9431C119.673 90.9431 114.693 86.3381 114.101 80.4579H137.314C136.706 86.3381 131.734 90.9431 125.704 90.9431ZM111.603 80.4579C111.01 86.3381 106.03 90.9431 99.9999 90.9431C93.9695 90.9431 88.9894 86.3381 88.3969 80.4579H111.603ZM65.1008 86.4431C65.0483 86.0681 64.8083 85.7456 64.4858 85.5805C63.5183 84.073 62.8883 82.333 62.6933 80.4653H85.9068C85.3142 86.3454 80.3342 90.9506 74.3039 90.9506C70.5613 90.943 67.2384 89.1807 65.1008 86.4431ZM77.7012 132.158V106.575H87.5191V132.158H77.7012ZM89.8892 132.158V105.39C89.8892 104.737 89.3567 104.205 88.7041 104.205H76.5162C75.8637 104.205 75.3311 104.737 75.3311 105.39V132.158H65.0707L65.1083 89.8781C67.5759 92.0156 70.7859 93.3133 74.2961 93.3133C80.0338 93.3133 84.9689 89.8556 87.1439 84.9205C89.319 89.8556 94.2616 93.3133 99.9918 93.3133C105.723 93.3133 110.664 89.8556 112.84 84.9205C115.015 89.8556 119.957 93.3133 125.687 93.3133C129.213 93.3133 132.438 92.0007 134.905 89.8481L134.868 132.164L89.8892 132.158ZM136.848 78.0889H113.785L107.709 52.3774H127.338L136.848 78.0889ZM72.6605 52.3774H92.2893L86.214 78.0889H63.1502L72.6605 52.3774ZM123.475 104.242H101.634C100.981 104.242 100.449 104.774 100.449 105.427V122.363C100.449 123.015 100.981 123.547 101.634 123.547H123.482C124.135 123.547 124.668 123.015 124.668 122.363V105.427C124.668 104.774 124.135 104.242 123.475 104.242ZM122.297 121.178H102.818V106.612H122.297V121.178ZM178.805 133.343C178.805 144.271 138.205 150.166 99.9997 150.166C61.7944 150.166 21.1947 144.271 21.1947 133.343C21.1947 124.838 44.9938 120.607 59.1831 118.845C59.8281 118.762 60.4206 119.227 60.5031 119.873C60.5856 120.525 60.1206 121.11 59.4756 121.192C34.6722 124.275 23.5647 129.51 23.5647 133.335C23.5647 135.998 29.2874 139.996 45.3536 143.228C59.9415 146.168 79.352 147.781 100.008 147.781C120.664 147.781 140.074 146.161 154.663 143.228C170.728 139.995 176.451 135.99 176.451 133.335C176.451 129.51 165.343 124.267 140.518 121.185C139.872 121.102 139.407 120.51 139.49 119.865C139.573 119.212 140.165 118.755 140.81 118.838C154.993 120.6 178.805 124.83 178.805 133.343ZM189.92 97.5817C189.267 91.829 183.747 87.1564 177.62 87.1564C171.492 87.1564 165.972 91.8365 165.32 97.5817C164.524 104.564 169.812 112.747 173.667 118.718C174.86 120.57 175.895 122.168 176.57 123.45C176.772 123.84 177.177 124.08 177.62 124.08C178.062 124.08 178.46 123.833 178.67 123.45C179.345 122.168 180.38 120.57 181.572 118.718C185.435 112.747 190.715 104.564 189.92 97.5817ZM179.585 117.435C178.858 118.552 178.197 119.587 177.62 120.525C177.05 119.587 176.383 118.553 175.655 117.435C171.987 111.757 166.97 103.988 167.667 97.8524C168.192 93.2623 172.655 89.5272 177.612 89.5272C182.577 89.5272 187.041 93.2623 187.558 97.8524C188.27 103.995 183.245 111.765 179.585 117.435ZM177.62 93.997C174.537 93.997 172.025 96.5095 172.025 99.5922C172.025 102.674 174.537 105.187 177.62 105.187C180.703 105.187 183.215 102.674 183.215 99.5922C183.215 96.5095 180.71 93.997 177.62 93.997ZM177.62 102.825C175.843 102.825 174.387 101.378 174.387 99.5922C174.387 97.8146 175.835 96.3596 177.62 96.3596C179.398 96.3596 180.852 97.8072 180.852 99.5922C180.852 101.378 179.405 102.825 177.62 102.825Z" fill="black"/>
<path d="M22.3803 124.086C22.8228 124.086 23.2203 123.839 23.4303 123.456C24.1054 122.174 25.1404 120.576 26.3329 118.724C30.1954 112.746 35.4757 104.571 34.6807 97.5881C34.0282 91.8354 28.5081 87.1627 22.3804 87.1627C16.2528 87.1627 10.7326 91.8429 10.0802 97.5881C9.28515 104.571 14.5727 112.754 18.428 118.724C19.6206 120.576 20.6557 122.174 21.3306 123.456C21.5331 123.839 21.9378 124.086 22.3803 124.086ZM12.435 97.851C12.96 93.2609 17.4227 89.5258 22.3803 89.5258C27.3454 89.5258 31.8082 93.2609 32.3257 97.851C33.0232 103.994 28.0055 111.764 24.3378 117.434C23.6103 118.551 22.9502 119.586 22.3728 120.524C21.8028 119.586 21.1353 118.551 20.4078 117.434C16.7553 111.764 11.7299 103.993 12.435 97.851ZM27.9756 99.5911C27.9756 96.5084 25.463 93.9958 22.3803 93.9958C19.2977 93.9958 16.7851 96.5084 16.7851 99.5911C16.7851 102.674 19.2977 105.186 22.3803 105.186C25.463 105.194 27.9756 102.681 27.9756 99.5911ZM19.1477 99.5911C19.1477 97.8135 20.5952 96.3584 22.3803 96.3584C24.1579 96.3584 25.6129 97.806 25.6129 99.5911C25.6129 101.376 24.1653 102.824 22.3803 102.824C20.5952 102.824 19.1477 101.376 19.1477 99.5911ZM60.2638 79.273C60.2638 82.2281 61.1863 84.9656 62.7465 87.2307L62.709 133.335C62.709 133.65 62.8365 133.95 63.054 134.175C63.279 134.4 63.579 134.52 63.894 134.52H136.077C136.729 134.52 137.261 133.987 137.261 133.335L137.306 87.1711C138.844 84.921 139.752 82.1986 139.752 79.2659C139.752 79.1909 139.744 79.1159 139.729 79.0408C139.722 79.0109 139.714 78.9884 139.707 78.9584C139.699 78.9209 139.691 78.8833 139.677 78.8534L129.289 50.7725C129.116 50.3075 128.674 50 128.179 50H106.196H106.189L71.8368 50.0075C71.3418 50.0075 70.8992 50.315 70.7268 50.78L60.3389 78.8608C60.3239 78.8984 60.3164 78.9283 60.3088 78.9659C60.3014 78.9958 60.2939 79.0183 60.2863 79.0484C60.2714 79.1234 60.2638 79.198 60.2638 79.273ZM105.28 52.3768L111.355 78.0883H88.6444L94.7196 52.3768H105.28ZM125.704 90.9431C119.673 90.9431 114.693 86.3381 114.101 80.4579H137.314C136.706 86.3381 131.734 90.9431 125.704 90.9431ZM111.603 80.4579C111.01 86.3381 106.03 90.9431 99.9999 90.9431C93.9695 90.9431 88.9894 86.3381 88.3969 80.4579H111.603ZM65.1008 86.4431C65.0483 86.0681 64.8083 85.7456 64.4858 85.5805C63.5183 84.073 62.8883 82.333 62.6933 80.4653H85.9068C85.3142 86.3454 80.3342 90.9506 74.3039 90.9506C70.5613 90.943 67.2384 89.1807 65.1008 86.4431ZM77.7012 132.158V106.575H87.5191V132.158H77.7012ZM89.8892 132.158V105.39C89.8892 104.737 89.3567 104.205 88.7041 104.205H76.5162C75.8637 104.205 75.3311 104.737 75.3311 105.39V132.158H65.0707L65.1083 89.8781C67.5759 92.0156 70.7859 93.3133 74.2961 93.3133C80.0338 93.3133 84.9689 89.8556 87.1439 84.9205C89.319 89.8556 94.2616 93.3133 99.9918 93.3133C105.723 93.3133 110.664 89.8556 112.84 84.9205C115.015 89.8556 119.957 93.3133 125.687 93.3133C129.213 93.3133 132.438 92.0007 134.905 89.8481L134.868 132.164L89.8892 132.158ZM136.848 78.0889H113.785L107.709 52.3774H127.338L136.848 78.0889ZM72.6605 52.3774H92.2893L86.214 78.0889H63.1502L72.6605 52.3774ZM123.475 104.242H101.634C100.981 104.242 100.449 104.774 100.449 105.427V122.363C100.449 123.015 100.981 123.547 101.634 123.547H123.482C124.135 123.547 124.668 123.015 124.668 122.363V105.427C124.668 104.774 124.135 104.242 123.475 104.242ZM122.297 121.178H102.818V106.612H122.297V121.178ZM178.805 133.343C178.805 144.271 138.205 150.166 99.9997 150.166C61.7944 150.166 21.1947 144.271 21.1947 133.343C21.1947 124.838 44.9938 120.607 59.1831 118.845C59.8281 118.762 60.4206 119.227 60.5031 119.873C60.5856 120.525 60.1206 121.11 59.4756 121.192C34.6722 124.275 23.5647 129.51 23.5647 133.335C23.5647 135.998 29.2874 139.996 45.3536 143.228C59.9415 146.168 79.352 147.781 100.008 147.781C120.664 147.781 140.074 146.161 154.663 143.228C170.728 139.995 176.451 135.99 176.451 133.335C176.451 129.51 165.343 124.267 140.518 121.185C139.872 121.102 139.407 120.51 139.49 119.865C139.573 119.212 140.165 118.755 140.81 118.838C154.993 120.6 178.805 124.83 178.805 133.343ZM189.92 97.5817C189.267 91.829 183.747 87.1564 177.62 87.1564C171.492 87.1564 165.972 91.8365 165.32 97.5817C164.524 104.564 169.812 112.747 173.667 118.718C174.86 120.57 175.895 122.168 176.57 123.45C176.772 123.84 177.177 124.08 177.62 124.08C178.062 124.08 178.46 123.833 178.67 123.45C179.345 122.168 180.38 120.57 181.572 118.718C185.435 112.747 190.715 104.564 189.92 97.5817ZM179.585 117.435C178.858 118.552 178.197 119.587 177.62 120.525C177.05 119.587 176.383 118.553 175.655 117.435C171.987 111.757 166.97 103.988 167.667 97.8524C168.192 93.2623 172.655 89.5272 177.612 89.5272C182.577 89.5272 187.041 93.2623 187.558 97.8524C188.27 103.995 183.245 111.765 179.585 117.435ZM177.62 93.997C174.537 93.997 172.025 96.5095 172.025 99.5922C172.025 102.674 174.537 105.187 177.62 105.187C180.703 105.187 183.215 102.674 183.215 99.5922C183.215 96.5095 180.71 93.997 177.62 93.997ZM177.62 102.825C175.843 102.825 174.387 101.378 174.387 99.5922C174.387 97.8146 175.835 96.3596 177.62 96.3596C179.398 96.3596 180.852 97.8072 180.852 99.5922C180.852 101.378 179.405 102.825 177.62 102.825Z" stroke="black" stroke-width="1.85836" mask="url(#path-2-outside-1_452_53)"/>
</g>
</svg>
