<svg width="150" height="150" viewBox="0 0 150 150" fill="none" xmlns="http://www.w3.org/2000/svg">
<path d="M102.251 141.65H46.1505C40.6005 141.65 36.0505 137.5 35.5005 132L27.6505 64.5497C27.5505 63.6497 28.0005 62.7997 28.8005 62.4497C29.6505 62.0497 30.3505 61.3997 31.1505 60.6497C32.8005 59.0997 34.8505 57.1997 38.6505 57.1997C42.4505 57.1997 44.4505 59.0997 46.0005 60.6497C47.3505 61.9997 48.3505 62.9497 50.4505 62.9497C52.5505 62.9497 53.5505 61.9997 54.9005 60.6497C56.5005 59.0997 58.4505 57.1997 62.2505 57.1997C66.0505 57.1997 68.0505 59.0997 69.6005 60.6497C70.9505 61.9997 71.9505 62.9497 74.0505 62.9497C76.1505 62.9497 77.1505 61.9997 78.5005 60.6497C80.1005 59.0997 82.0505 57.1997 85.8505 57.1997C89.6505 57.1997 91.6505 59.0997 93.2005 60.6497C94.5505 61.9997 95.5505 62.9497 97.6505 62.9497C99.7505 62.9497 100.751 61.9997 102.101 60.6497C103.701 59.0997 105.651 57.1997 109.451 57.1997C113.251 57.1997 115.301 59.0997 116.951 60.6497C117.751 61.3997 118.451 62.0497 119.251 62.4497C119.401 62.4997 119.551 62.5997 119.651 62.6997C119.751 62.7997 119.851 62.8497 119.901 62.9497C120.201 63.2997 120.401 63.7997 120.401 64.2997V64.3997C120.401 64.4497 120.401 64.4997 120.401 64.5497L112.901 132C112.351 137.5 107.751 141.65 102.251 141.65ZM31.9505 65.3997L39.6505 131.55V131.6C39.9505 134.95 42.7505 137.5 46.1505 137.5H102.251C105.651 137.5 108.401 134.95 108.751 131.6V131.55L116.451 65.3997C115.651 64.8497 115.001 64.2497 114.401 63.6497C112.951 62.2997 111.901 61.2997 109.701 61.2997C107.601 61.2997 106.601 62.2497 105.251 63.5997C103.651 65.1497 101.701 67.0497 97.9005 67.0497C94.1005 67.0497 92.1005 65.1497 90.5505 63.5997C89.2005 62.2497 88.2005 61.2997 86.1005 61.2997C84.0005 61.2997 83.0005 62.2497 81.6505 63.5997C80.0505 65.1497 78.1005 67.0497 74.3005 67.0497C70.5005 67.0497 68.5005 65.1497 66.9505 63.5997C65.6005 62.2497 64.6005 61.2997 62.5005 61.2997C60.4005 61.2997 59.4005 62.2497 58.0505 63.5997C56.4505 65.1497 54.5005 67.0497 50.7005 67.0497C46.9005 67.0497 44.9005 65.1497 43.3505 63.5997C42.0005 62.2497 41.0005 61.2997 38.9005 61.2997C36.7505 61.2997 35.7005 62.2997 34.2005 63.6497C33.4005 64.1997 32.7505 64.8497 31.9505 65.3997Z" fill="#663366"/>
<path d="M95.7012 130.15H52.6512C51.7012 130.15 50.8512 129.5 50.6512 128.55L47.8012 117.1C47.6512 116.5 47.8012 115.8 48.2012 115.3C48.6012 114.8 49.2012 114.5 49.8512 114.5H98.6012C99.2512 114.5 99.8512 114.8 100.251 115.3C100.651 115.8 100.801 116.45 100.651 117.1L97.8012 128.55C97.5012 129.5 96.6512 130.15 95.7012 130.15ZM54.3012 126H94.1012L95.9512 118.7H52.5012L54.3012 126Z" fill="#663366"/>
<path d="M100.001 81.3997H48.4008C47.2508 81.3997 46.3008 80.4497 46.3008 79.2997C46.3008 78.1497 47.2508 77.1997 48.4008 77.1997H100.001C101.151 77.1997 102.101 78.1497 102.101 79.2997C102.101 80.4497 101.151 81.3997 100.001 81.3997Z" fill="#663366"/>
<path d="M80.7007 63.5996C80.4507 63.5996 80.2007 63.5496 79.9507 63.4496C78.9007 63.0496 78.3507 61.7996 78.8007 60.7496L87.2007 39.4996C87.9007 37.6996 89.0507 36.0996 90.5507 34.8496C92.0507 33.5996 93.8007 32.7496 95.7007 32.3496C98.2007 31.7996 100.251 30.0996 101.151 27.7496L107.701 11.1996C107.901 10.6996 108.301 10.2996 108.801 10.0496C109.301 9.84964 109.901 9.79964 110.401 10.0496L121.051 14.2996C122.101 14.6996 122.651 15.9496 122.201 16.9996L115.651 33.4996C115.301 34.3996 115.101 35.3496 115.101 36.2996C115.101 37.8496 115.551 39.3496 116.451 40.5996C118.701 43.8496 119.151 47.9496 117.701 51.5996L114.201 60.3996C113.801 61.4496 112.551 61.9996 111.501 61.5496C110.451 61.1496 109.901 59.8996 110.351 58.8496L113.851 50.0496C114.801 47.6996 114.501 45.0496 113.051 42.9496C111.701 40.9996 110.951 38.6496 110.951 36.2496C110.951 34.7496 111.251 33.2996 111.801 31.9496L117.601 17.3496L110.801 14.6496L105.001 29.2996C103.551 32.9496 100.401 35.6496 96.5507 36.4496C95.3507 36.6996 94.2007 37.2496 93.2507 38.0996C92.3007 38.8996 91.5507 39.9496 91.1007 41.0996L82.7007 62.3496C82.3007 63.0996 81.5507 63.5996 80.7007 63.5996Z" fill="#663366"/>
<path d="M116.05 28.9496C115.8 28.9496 115.55 28.8996 115.3 28.7996L104.65 24.5496C103.6 24.1496 103.05 22.8996 103.5 21.8496C103.9 20.7996 105.15 20.2496 106.2 20.6996L116.85 24.9496C117.9 25.3496 118.45 26.5996 118 27.6496C117.65 28.4496 116.85 28.9496 116.05 28.9496Z" fill="#663366"/>
<path d="M115.601 53.4498C115.351 53.4498 115.101 53.3998 114.851 53.2998L88.2007 42.7498C87.1507 42.3498 86.6007 41.0998 87.0507 40.0498C87.4507 38.9998 88.7007 38.4498 89.7507 38.8998L116.401 49.4498C117.451 49.8498 118.001 51.0998 117.551 52.1498C117.201 52.9498 116.401 53.4498 115.601 53.4498Z" fill="#663366"/>
<path d="M66.9512 62.9498C65.8512 62.9498 64.9512 62.0998 64.9012 60.9998C64.5512 55.0498 63.0512 48.4498 60.6012 41.7998C54.0012 23.8998 43.3012 13.6498 37.9012 15.6498C32.4512 17.6498 31.0012 32.3498 37.6012 50.2498C38.6512 53.0498 39.8012 55.7498 41.1012 58.2998C41.6012 59.3498 41.2012 60.5998 40.1512 61.0998C39.1012 61.5998 37.8512 61.1998 37.3512 60.1498C36.0012 57.4498 34.7512 54.5998 33.7012 51.6498C30.4512 42.7498 28.8012 33.8498 29.1012 26.5498C29.4512 18.5998 32.0512 13.3498 36.5012 11.6998C40.9512 10.0498 46.3512 12.3498 51.7512 18.1998C56.7012 23.5498 61.2512 31.3998 64.5512 40.2998C67.1512 47.2998 68.7012 54.3998 69.1012 60.6998C69.1512 61.8498 68.3012 62.8498 67.1512 62.8998C67.0012 62.9498 67.0012 62.9498 66.9512 62.9498Z" fill="#663366"/>
<path d="M42.4006 38.2998C41.5506 38.2998 40.7506 37.7998 40.4506 36.9498C40.0506 35.8498 40.6006 34.6498 41.7006 34.2998L47.1006 32.2998C48.2006 31.8998 49.4006 32.4498 49.7506 33.5498C50.1506 34.6498 49.6006 35.8498 48.5006 36.1998L43.1006 38.1998C42.9006 38.2998 42.6506 38.2998 42.4006 38.2998Z" fill="#663366"/>
<path d="M46.3498 49.0996C45.4998 49.0996 44.6999 48.5996 44.3999 47.7496C43.9999 46.6496 44.5499 45.4496 45.6499 45.0996L51.0498 43.0996C52.1498 42.6996 53.3499 43.2496 53.6999 44.3496C54.0999 45.4496 53.5499 46.6496 52.4499 46.9996L47.0498 48.9996C46.8498 49.0496 46.5998 49.0996 46.3498 49.0996Z" fill="#663366"/>
<path d="M52.8514 107.2C51.9014 107.2 51.0014 106.55 50.8014 105.55L47.7514 91.1999C47.5014 90.0999 48.2514 88.9499 49.3514 88.7499C50.4514 88.4999 51.6014 89.2499 51.8014 90.3499L54.8514 104.7C55.1014 105.8 54.3514 106.95 53.2514 107.15C53.1514 107.2 53.0014 107.2 52.8514 107.2Z" fill="#663366"/>
<path d="M68.1014 107.2C67.1514 107.2 66.2514 106.55 66.0514 105.55L63.0014 91.1999C62.7514 90.0999 63.5014 88.9499 64.6014 88.7499C65.7014 88.4999 66.8514 89.2499 67.0514 90.3499L70.1014 104.7C70.3514 105.8 69.6014 106.95 68.5014 107.15C68.4014 107.2 68.2514 107.2 68.1014 107.2Z" fill="#663366"/>
<path d="M80.3014 107.2C80.1514 107.2 80.0014 107.2 79.8514 107.15C78.7514 106.9 78.0014 105.8 78.2514 104.7L81.3014 90.3499C81.5514 89.2499 82.6514 88.4999 83.7514 88.7499C84.8514 88.9999 85.6014 90.0999 85.3514 91.1999L82.3014 105.55C82.1014 106.55 81.2514 107.2 80.3014 107.2Z" fill="#663366"/>
<path d="M95.5514 107.2C95.4014 107.2 95.2514 107.2 95.1014 107.15C94.0014 106.9 93.2514 105.8 93.5014 104.7L96.5514 90.3499C96.8014 89.2499 97.9014 88.4999 99.0014 88.7499C100.101 88.9999 100.851 90.0999 100.601 91.1999L97.5514 105.55C97.3514 106.55 96.5014 107.2 95.5514 107.2Z" fill="#663366"/>
<path d="M96.5006 36.3998C95.4506 36.3998 94.5506 35.5998 94.4506 34.5498C94.4506 34.3998 94.4006 34.2498 94.4006 34.0998C94.4006 32.6498 95.1006 31.2998 95.7006 30.1498C96.0006 29.5998 96.5006 28.6498 96.5006 28.2998C96.3506 27.9998 95.3506 27.3498 94.8006 27.0498C93.7006 26.3498 92.4506 25.5998 91.7506 24.3998C91.0506 23.1498 91.0006 21.6998 90.9506 20.3998C90.9506 19.7498 90.9006 18.5998 90.7006 18.3498C90.4506 18.1498 89.3506 18.1498 88.6506 18.0998C87.3506 18.0498 85.9006 17.9998 84.6506 17.2998C83.4506 16.5998 82.6506 15.3498 82.0006 14.2498C81.6506 13.6998 81.0506 12.6998 80.7506 12.5998C80.4006 12.5998 79.4506 13.0998 78.9006 13.3998C77.7506 13.9998 76.4506 14.6998 74.9506 14.6998C73.5006 14.6998 72.2006 13.9998 71.0006 13.3998C70.4506 13.0998 69.5006 12.5998 69.1506 12.5998C68.8506 12.7498 68.2006 13.7498 67.9006 14.2998C67.2006 15.3998 66.4506 16.6498 65.2506 17.3498C64.0006 18.0498 62.5506 18.0998 61.2506 18.1498C60.6006 18.1498 59.4506 18.1998 59.2006 18.3998C59.0006 18.6498 59.0006 19.7498 58.9506 20.4498C58.9006 21.7498 58.8506 23.1998 58.1506 24.4498C57.5006 25.5498 56.4506 26.2498 55.5506 26.8498C54.6006 27.4498 53.3006 27.1498 52.7006 26.1998C52.1006 25.2498 52.4006 23.9498 53.3506 23.3498C53.6006 23.1998 54.4006 22.6998 54.6006 22.3998C54.8006 22.0498 54.8506 21.0498 54.8506 20.3498C54.9006 18.7998 54.9506 16.8498 56.3006 15.4998C57.6506 14.1498 59.6006 14.0998 61.1506 14.0498C61.9006 14.0498 62.8506 13.9998 63.2006 13.7998C63.5006 13.5998 64.0506 12.7998 64.4006 12.1498C65.2506 10.7998 66.2506 9.14977 68.1506 8.64977C69.9506 8.14977 71.6506 9.04977 73.0506 9.79977C73.7506 10.1498 74.6006 10.6498 75.0006 10.6498C75.4006 10.6498 76.3006 10.1998 76.9506 9.79977C78.3006 9.04977 80.0006 8.14977 81.8506 8.64977C83.7006 9.14977 84.7506 10.7998 85.6006 12.1498C85.9506 12.7498 86.5006 13.5998 86.8006 13.7498C87.1506 13.9498 88.1506 13.9998 88.8506 13.9998C90.4006 14.0498 92.3506 14.0998 93.7006 15.4498C95.0506 16.7998 95.1006 18.7498 95.1506 20.2998C95.1506 21.0498 95.2006 21.9998 95.4006 22.3498C95.6006 22.6498 96.4006 23.1998 97.0006 23.5498C98.3506 24.3998 100.001 25.3998 100.501 27.2998C101.001 29.0998 100.101 30.7998 99.3506 32.1998C99.0006 32.8998 98.5006 33.7498 98.5006 34.1498C98.6506 35.2998 97.8006 36.2998 96.6506 36.4498C96.6506 36.3998 96.5506 36.3998 96.5006 36.3998Z" fill="#663366"/>
<path d="M92.9499 37.7497C91.8999 37.7497 90.9999 36.9497 90.8999 35.8997C90.7999 34.8997 90.5999 34.5997 90.5499 34.4997C90.3499 34.2497 89.3499 34.1997 88.6499 34.1997C87.3499 34.1497 85.7499 34.0497 84.4499 33.0497C83.2499 32.1497 82.5499 30.6497 81.8999 29.1997C81.5499 28.4997 80.9999 27.2997 80.6499 26.8997C80.2499 27.0497 79.5499 27.5497 79.1499 27.8497C77.9499 28.6997 76.5999 29.6497 74.9999 29.6497C73.3999 29.6497 72.0499 28.6997 70.8499 27.8497C70.3999 27.5497 69.6999 27.0497 69.3499 26.8997C68.9499 27.2997 68.4499 28.4497 68.0999 29.1997C67.3999 30.6497 66.6999 32.1497 65.5499 33.0497C64.2499 34.0497 62.6499 34.0997 61.3499 34.1997C60.6999 34.2497 59.9999 34.2497 59.6499 34.3997C58.5999 34.7997 57.3499 34.2997 56.9499 33.2497C56.5499 32.1997 57.0499 30.9497 58.0999 30.5497C59.0999 30.1497 60.1999 30.0997 61.1499 30.0497C61.7999 29.9997 62.7499 29.9997 62.9999 29.7497C63.3499 29.4497 63.9499 28.2497 64.3499 27.4497C65.1999 25.6497 66.15 23.5997 68.0499 22.9497C70.0999 22.2497 71.8499 23.4997 73.2999 24.4997C73.8499 24.8497 74.75 25.4997 75.0499 25.5497C75.3499 25.4997 76.25 24.8997 76.7999 24.4997C78.25 23.4997 80 22.2497 82.0499 22.9497C83.9499 23.5997 84.8999 25.6497 85.7499 27.4497C86.1499 28.2497 86.6999 29.4997 87.0499 29.7497C87.2999 29.9497 88.2499 29.9997 88.8999 30.0497C90.4499 30.0997 92.5499 30.1997 93.8999 31.9997C94.7499 33.0997 94.95 34.4997 95.0499 35.4497C95.1499 36.5997 94.3499 37.5997 93.1999 37.7497C93.0999 37.7497 92.9999 37.7497 92.9499 37.7497Z" fill="#663366"/>
</svg>
