<svg width="200" height="200" viewBox="0 0 200 200" fill="none" xmlns="http://www.w3.org/2000/svg">
<path d="M39.2988 51.5996C40.5133 51.5998 41.498 52.5852 41.498 53.7998C41.4978 55.0141 40.5131 55.9988 39.2988 55.999H26.5039C25.2896 55.9988 24.3049 55.0141 24.3047 53.7998C24.3047 52.5852 25.2894 51.5998 26.5039 51.5996H39.2988Z" fill="black" stroke="black" stroke-width="0.781042"/>
<path d="M68.9707 51.5996C70.1852 51.5998 71.1699 52.5852 71.1699 53.7998C71.1697 55.0141 70.185 55.9988 68.9707 55.999H56.1758C54.9615 55.9988 53.9768 55.0141 53.9766 53.7998C53.9766 52.5852 54.9613 51.5998 56.1758 51.5996H68.9707Z" fill="black" stroke="black" stroke-width="0.781042"/>
<path d="M98.918 51.5996C100.133 51.5996 101.117 52.5852 101.117 53.7998C101.117 55.0141 100.133 55.999 98.918 55.999H86.1221C84.9075 55.999 83.9221 55.0142 83.9219 53.7998C83.9219 52.5851 84.9073 51.5996 86.1221 51.5996H98.918Z" fill="black" stroke="black" stroke-width="0.781042"/>
<path d="M39.2988 69.5674C40.5132 69.5676 41.4978 70.5523 41.498 71.7666C41.498 72.9811 40.5133 73.9666 39.2988 73.9668H26.5039C25.2895 73.9666 24.3047 72.9811 24.3047 71.7666C24.3049 70.5523 25.2896 69.5676 26.5039 69.5674H39.2988Z" fill="black" stroke="black" stroke-width="0.781042"/>
<path d="M68.9707 69.5674C70.185 69.5676 71.1697 70.5523 71.1699 71.7666C71.1699 72.9811 70.1852 73.9666 68.9707 73.9668H56.1758C54.9613 73.9666 53.9766 72.9811 53.9766 71.7666C53.9768 70.5523 54.9615 69.5676 56.1758 69.5674H68.9707Z" fill="black" stroke="black" stroke-width="0.781042"/>
<path d="M98.918 69.5674C100.133 69.5674 101.117 70.5523 101.117 71.7666C101.117 72.9811 100.133 73.9668 98.918 73.9668H86.1221C84.9074 73.9668 83.9219 72.9812 83.9219 71.7666C83.9221 70.5521 84.9075 69.5674 86.1221 69.5674H98.918Z" fill="black" stroke="black" stroke-width="0.781042"/>
<path d="M39.2988 87.2764C40.5132 87.2766 41.4978 88.2613 41.498 89.4756C41.498 90.6902 40.5133 91.6756 39.2988 91.6758H26.5039C25.2894 91.6756 24.3047 90.6902 24.3047 89.4756C24.3049 88.2613 25.2896 87.2766 26.5039 87.2764H39.2988Z" fill="black" stroke="black" stroke-width="0.781042"/>
<path d="M68.9707 87.2764C70.185 87.2766 71.1697 88.2613 71.1699 89.4756C71.1699 90.6902 70.1852 91.6756 68.9707 91.6758H56.1758C54.9613 91.6756 53.9766 90.6902 53.9766 89.4756C53.9768 88.2613 54.9615 87.2766 56.1758 87.2764H68.9707Z" fill="black" stroke="black" stroke-width="0.781042"/>
<path d="M98.918 87.2764C100.133 87.2764 101.117 88.2613 101.117 89.4756C101.117 90.6902 100.133 91.6758 98.918 91.6758H86.1221C84.9073 91.6758 83.9219 90.6903 83.9219 89.4756C83.9221 88.2611 84.9075 87.2764 86.1221 87.2764H98.918Z" fill="black" stroke="black" stroke-width="0.781042"/>
<path d="M39.2988 105.243C40.5132 105.243 41.498 106.228 41.498 107.443C41.4978 108.657 40.5132 109.642 39.2988 109.643H26.5039C25.2896 109.642 24.3049 108.657 24.3047 107.443C24.3047 106.228 25.2895 105.243 26.5039 105.243H39.2988Z" fill="black" stroke="black" stroke-width="0.781042"/>
<path d="M68.9707 105.243C70.1851 105.243 71.1699 106.228 71.1699 107.443C71.1697 108.657 70.1851 109.642 68.9707 109.643H56.1758C54.9614 109.642 53.9768 108.657 53.9766 107.443C53.9766 106.228 54.9614 105.243 56.1758 105.243H68.9707Z" fill="black" stroke="black" stroke-width="0.781042"/>
<path d="M98.918 105.243C100.133 105.243 101.117 106.228 101.117 107.443C101.117 108.657 100.133 109.643 98.918 109.643H86.1221C84.9075 109.643 83.9221 108.658 83.9219 107.443C83.9219 106.228 84.9074 105.243 86.1221 105.243H98.918Z" fill="black" stroke="black" stroke-width="0.781042"/>
<path d="M39.2988 123.206C40.5133 123.206 41.498 124.192 41.498 125.406C41.4978 126.62 40.5132 127.605 39.2988 127.605H26.5039C25.2896 127.605 24.3049 126.62 24.3047 125.406C24.3047 124.192 25.2894 123.206 26.5039 123.206H39.2988Z" fill="black" stroke="black" stroke-width="0.781042"/>
<path d="M68.9707 123.206C70.1852 123.206 71.1699 124.192 71.1699 125.406C71.1697 126.62 70.1851 127.605 68.9707 127.605H56.1758C54.9614 127.605 53.9768 126.62 53.9766 125.406C53.9766 124.192 54.9613 123.206 56.1758 123.206H68.9707Z" fill="black" stroke="black" stroke-width="0.781042"/>
<path d="M98.918 123.206C100.133 123.206 101.117 124.192 101.117 125.406C101.117 126.62 100.133 127.605 98.918 127.605H86.1221C84.9075 127.605 83.9221 126.62 83.9219 125.406C83.9219 124.192 84.9073 123.206 86.1221 123.206H98.918Z" fill="black" stroke="black" stroke-width="0.781042"/>
<path d="M39.2988 141.175C40.5133 141.175 41.498 142.161 41.498 143.375C41.4978 144.589 40.5132 145.574 39.2988 145.574H26.5039C25.2896 145.574 24.3049 144.589 24.3047 143.375C24.3047 142.161 25.2894 141.175 26.5039 141.175H39.2988Z" fill="black" stroke="black" stroke-width="0.781042"/>
<path d="M68.9707 141.175C70.1852 141.175 71.1699 142.161 71.1699 143.375C71.1697 144.589 70.1851 145.574 68.9707 145.574H56.1758C54.9614 145.574 53.9768 144.589 53.9766 143.375C53.9766 142.161 54.9613 141.175 56.1758 141.175H68.9707Z" fill="black" stroke="black" stroke-width="0.781042"/>
<path d="M98.918 141.175C100.133 141.175 101.117 142.161 101.117 143.375C101.117 144.589 100.133 145.574 98.918 145.574H86.1221C84.9075 145.574 83.9221 144.589 83.9219 143.375C83.9219 142.161 84.9073 141.175 86.1221 141.175H98.918Z" fill="black" stroke="black" stroke-width="0.781042"/>
<path d="M39.2988 159.136C40.5133 159.136 41.498 160.122 41.498 161.336C41.4978 162.55 40.5132 163.535 39.2988 163.535H26.5039C25.2896 163.535 24.3049 162.55 24.3047 161.336C24.3047 160.122 25.2894 159.136 26.5039 159.136H39.2988Z" fill="black" stroke="black" stroke-width="0.781042"/>
<path d="M68.9707 159.136C70.1852 159.136 71.1699 160.122 71.1699 161.336C71.1697 162.55 70.1851 163.535 68.9707 163.535H56.1758C54.9614 163.535 53.9768 162.55 53.9766 161.336C53.9766 160.122 54.9613 159.136 56.1758 159.136H68.9707Z" fill="black" stroke="black" stroke-width="0.781042"/>
<path d="M98.918 159.136C100.133 159.136 101.117 160.122 101.117 161.336C101.117 162.55 100.133 163.535 98.918 163.535H86.1221C84.9075 163.535 83.9221 162.55 83.9219 161.336C83.9219 160.122 84.9073 159.136 86.1221 159.136H98.918Z" fill="black" stroke="black" stroke-width="0.781042"/>
<path d="M39.2988 176.846C40.5129 176.846 41.4978 177.83 41.498 179.044C41.498 180.259 40.5132 181.244 39.2988 181.244H26.5039C25.2895 181.244 24.3047 180.259 24.3047 179.044C24.305 177.83 25.2898 176.846 26.5039 176.846H39.2988Z" fill="black" stroke="black" stroke-width="0.781042"/>
<path d="M68.9707 176.846C70.1848 176.846 71.1697 177.83 71.1699 179.044C71.1699 180.259 70.1851 181.244 68.9707 181.244H56.1758C54.9614 181.244 53.9766 180.259 53.9766 179.044C53.9768 177.83 54.9617 176.846 56.1758 176.846H68.9707Z" fill="black" stroke="black" stroke-width="0.781042"/>
<path d="M98.918 176.846C100.133 176.846 101.117 177.83 101.117 179.044C101.117 180.259 100.133 181.244 98.918 181.244H86.1221C84.9074 181.244 83.9219 180.259 83.9219 179.044C83.9221 177.829 84.9077 176.846 86.1221 176.846H98.918Z" fill="black" stroke="black" stroke-width="0.781042"/>
<path d="M46.9219 1.60938C48.1364 1.60938 49.1209 2.59413 49.1211 3.80859V20.8779H104.634C107.31 20.8779 109.904 21.8842 111.999 23.7119L112.411 24.0879L112.414 24.0908L112.528 24.21H112.529C114.507 26.4149 115.545 29.2704 115.545 32.4521V86.7559H138.635V70.208C138.635 68.9936 139.619 68.008 140.834 68.0078C142.048 68.0078 143.034 68.9933 143.034 70.208V86.7559H181.667C183.816 86.7559 185.933 87.4702 187.63 88.7705L187.631 88.7715L187.815 88.9307L188.108 89.2266C189.538 90.7411 190.391 92.7465 190.391 94.6836V189.461C190.391 191.526 189.422 193.67 187.815 195.214H187.814C187.757 195.269 187.697 195.321 187.634 195.37L187.632 195.371C186.3 196.395 184.164 197.651 181.667 197.651H20.7998C17.7788 197.651 14.9695 196.371 12.8926 194.056L12.8916 194.055C10.7804 191.694 9.60939 188.771 9.60938 185.817V32.4521C9.60945 29.495 10.7802 26.5704 12.8906 24.2119L13.0107 24.0879L13.0117 24.0859L13.4248 23.71C15.5238 21.883 18.1217 20.8779 20.7998 20.8779H44.7227V3.80859C44.7229 2.59415 45.7074 1.6094 46.9219 1.60938ZM20.7998 25.2773C19.1175 25.2773 17.4534 25.9573 16.1084 27.2119C15.1261 28.3309 14.0088 30.1182 14.0088 32.4521V185.816C14.0088 188.194 15.1722 190.006 16.168 191.118L16.4082 191.374C17.6266 192.61 19.1363 193.252 20.7998 193.252H104.633C106.402 193.252 107.997 192.521 109.253 191.119V191.118L109.478 190.855C110.565 189.516 111.145 187.787 111.146 185.816V32.4521C111.145 30.3794 110.505 28.5749 109.311 27.21C107.969 25.9564 106.311 25.2773 104.634 25.2773H20.7998ZM115.545 185.816C115.545 188.623 114.73 191.174 113.179 193.251H181.667C182.577 193.251 183.704 192.815 184.846 191.962C185.556 191.24 185.992 190.258 185.992 189.46V94.6836C185.992 93.8878 185.56 92.908 184.854 92.1875C183.938 91.5213 182.812 91.1543 181.667 91.1543H115.545V185.816Z" fill="black" stroke="black" stroke-width="0.781042"/>
<path d="M142.462 104.204C143.676 104.204 144.661 105.19 144.661 106.404C144.661 107.619 143.676 108.604 142.462 108.604H129.669C128.454 108.604 127.469 107.618 127.469 106.404C127.469 105.19 128.453 104.204 129.669 104.204H142.462Z" fill="black" stroke="black" stroke-width="0.781042"/>
<path d="M172.131 104.204C173.346 104.204 174.329 105.19 174.329 106.404C174.329 107.618 173.345 108.604 172.131 108.604H159.341C158.127 108.604 157.141 107.619 157.141 106.404C157.141 105.19 158.126 104.204 159.341 104.204H172.131Z" fill="black" stroke="black" stroke-width="0.781042"/>
<path d="M142.462 121.906C143.676 121.906 144.661 122.891 144.661 124.105C144.661 125.321 143.676 126.305 142.462 126.305H129.669C128.454 126.305 127.469 125.321 127.469 124.105C127.469 122.891 128.454 121.906 129.669 121.906H142.462Z" fill="black" stroke="black" stroke-width="0.781042"/>
<path d="M172.131 121.906C173.345 121.906 174.329 122.891 174.329 124.105C174.329 125.321 173.345 126.305 172.131 126.305H159.341C158.127 126.305 157.141 125.321 157.141 124.105C157.141 122.891 158.127 121.906 159.341 121.906H172.131Z" fill="black" stroke="black" stroke-width="0.781042"/>
<path d="M142.462 139.868C143.676 139.868 144.661 140.854 144.661 142.068C144.661 143.283 143.676 144.268 142.462 144.268H129.669C128.454 144.268 127.469 143.282 127.469 142.068C127.469 140.854 128.453 139.868 129.669 139.868H142.462Z" fill="black" stroke="black" stroke-width="0.781042"/>
<path d="M172.131 139.868C173.346 139.868 174.329 140.854 174.329 142.068C174.329 143.282 173.345 144.268 172.131 144.268H159.341C158.127 144.268 157.141 143.283 157.141 142.068C157.141 140.854 158.126 139.868 159.341 139.868H172.131Z" fill="black" stroke="black" stroke-width="0.781042"/>
<path d="M142.462 157.836C143.676 157.836 144.661 158.822 144.661 160.036C144.661 161.25 143.676 162.235 142.462 162.235H129.669C128.454 162.235 127.469 161.25 127.469 160.036C127.469 158.822 128.453 157.836 129.669 157.836H142.462Z" fill="black" stroke="black" stroke-width="0.781042"/>
<path d="M172.131 157.836C173.346 157.836 174.329 158.822 174.329 160.036C174.329 161.25 173.345 162.235 172.131 162.235H159.341C158.127 162.235 157.141 161.25 157.141 160.036C157.141 158.822 158.126 157.836 159.341 157.836H172.131Z" fill="black" stroke="black" stroke-width="0.781042"/>
<path d="M142.462 175.804C143.676 175.804 144.661 176.789 144.661 178.004C144.661 179.218 143.676 180.203 142.462 180.203H129.669C128.454 180.203 127.469 179.218 127.469 178.004C127.469 176.79 128.453 175.804 129.669 175.804H142.462Z" fill="black" stroke="black" stroke-width="0.781042"/>
<path d="M172.131 175.804C173.346 175.804 174.329 176.79 174.329 178.004C174.329 179.218 173.345 180.203 172.131 180.203H159.341C158.127 180.203 157.141 179.218 157.141 178.004C157.141 176.789 158.126 175.804 159.341 175.804H172.131Z" fill="black" stroke="black" stroke-width="0.781042"/>
</svg>
