<svg width="200" height="200" viewBox="0 0 200 200" fill="none" xmlns="http://www.w3.org/2000/svg">
<mask id="mask0_452_44" style="mask-type:luminance" maskUnits="userSpaceOnUse" x="10" y="10" width="180" height="180">
<path d="M190 10H10V190H190V10Z" fill="white"/>
</mask>
<g mask="url(#mask0_452_44)">
<path d="M183.444 75.2225C187.682 70.3191 190.009 64.053 190 57.5731C190.006 56.4389 189.664 55.3301 189.021 54.3963C188.376 53.4625 187.462 52.7486 186.4 52.3508C185.359 51.9519 184.22 51.8817 183.138 52.1499C182.057 52.4181 181.083 53.0117 180.348 53.8507C176.775 57.7914 172.166 60.6487 167.046 62.0964C159.421 35.1965 130.54 15.9993 96.9998 15.9993C88.735 15.9775 80.5118 17.1721 72.5949 19.5448C71.7994 18.3269 70.8794 17.195 69.8499 16.1673C67.9099 14.2027 65.597 12.6452 63.0471 11.5862C60.497 10.5271 57.7611 9.98795 54.9999 10.0002C53.4086 10.0002 51.8825 10.6323 50.7573 11.7573C49.632 12.8823 49 14.4082 49 15.9993V31.2971C40.7128 37.3003 34.0874 45.3109 29.746 54.5765L17.236 57.0872C15.1991 57.5023 13.3675 58.6065 12.0495 60.2138C10.7316 61.8211 10.0078 63.8334 10 65.9119V86.0689C10.0093 88.1467 10.7341 90.1579 12.0526 91.7641C13.371 93.3702 15.2026 94.4733 17.239 94.8876L29.746 97.3982C34.208 106.924 41.0783 115.12 49.6779 121.179L51.4179 136.962C51.6597 139.167 52.7072 141.205 54.3593 142.684C56.0114 144.164 58.1519 144.981 60.3699 144.98H73.6299C75.8472 144.986 77.9883 144.171 79.641 142.693C81.2937 141.215 82.3412 139.178 82.5818 136.975L82.8219 134.812C86.6634 135.428 90.5423 135.784 94.4319 135.877C93.3029 144.611 94.6004 153.487 98.1823 161.533C101.764 169.579 107.492 176.485 114.738 181.491C121.984 186.499 130.469 189.415 139.262 189.921C148.056 190.427 156.82 188.502 164.592 184.359C172.365 180.215 178.847 174.012 183.327 166.43C187.808 158.847 190.115 150.179 189.995 141.372C189.876 132.566 187.333 123.962 182.648 116.505C177.962 109.048 171.314 103.023 163.432 99.0929C165.857 94.3345 167.531 89.2285 168.391 83.9571C174.255 82.8393 179.564 79.7588 183.444 75.2225ZM184 141.981C184 150.286 181.536 158.405 176.921 165.311C172.306 172.217 165.747 177.599 158.072 180.778C150.398 183.957 141.953 184.788 133.806 183.167C125.659 181.547 118.175 177.548 112.301 171.674C106.428 165.802 102.427 158.319 100.807 150.173C99.1863 142.027 100.018 133.583 103.197 125.91C106.376 118.237 111.759 111.678 118.666 107.064C125.573 102.45 133.693 99.9868 141.999 99.9868C153.135 99.9987 163.811 104.427 171.685 112.299C179.559 120.173 183.988 130.847 184 141.981ZM165.1 78.39C164.479 78.5174 163.913 78.8382 163.486 79.3065C163.058 79.7748 162.791 80.3665 162.721 80.9966C162.077 86.4952 160.434 91.83 157.873 96.7383C151.614 94.5159 144.96 93.6229 138.336 94.1159C131.713 94.609 125.266 96.4775 119.405 99.602C113.544 102.727 108.399 107.039 104.298 112.262C100.198 117.487 97.2321 123.509 95.5899 129.943C90.6206 129.865 85.6694 129.326 80.7998 128.333C80.3904 128.246 79.9674 128.246 79.5582 128.334C79.1489 128.42 78.7623 128.592 78.4232 128.837C78.0842 129.083 77.8002 129.396 77.5896 129.758C77.3789 130.118 77.2461 130.521 77.1998 130.937L76.5999 136.314C76.5176 137.051 76.1656 137.731 75.6116 138.223C75.0578 138.715 74.3411 138.985 73.5999 138.981H60.3699C59.6282 138.985 58.9112 138.715 58.3573 138.222C57.8032 137.729 57.4515 137.048 57.3699 136.311L55.48 119.183C55.4325 118.758 55.2942 118.346 55.0742 117.977C54.8543 117.609 54.5578 117.293 54.2049 117.048C45.5761 111.263 38.7828 103.13 34.627 93.6097C34.4377 93.1568 34.1402 92.7572 33.7604 92.4459C33.3806 92.1348 32.9304 91.9216 32.449 91.825L18.427 89.0084C17.7462 88.8719 17.1332 88.5051 16.6912 87.9698C16.2491 87.4344 16.0051 86.7631 16 86.0689V65.9119C16.0049 65.2181 16.2486 64.5471 16.69 64.0118C17.1314 63.4765 17.7437 63.1094 18.424 62.9723L32.4609 60.1557C32.9439 60.0576 33.3953 59.8422 33.7751 59.5283C34.155 59.2144 34.4516 58.8118 34.6389 58.356C38.7164 49.0219 45.3323 41.0196 53.734 35.2594C54.1231 34.9838 54.4411 34.6193 54.6612 34.1962C54.8814 33.7731 54.9975 33.3037 54.9999 32.8268V15.9993C56.9699 15.99 58.922 16.3743 60.7415 17.1294C62.5611 17.8845 64.2115 18.9953 65.5959 20.3966C66.7806 21.5838 67.7618 22.958 68.4999 24.4641C68.8209 25.1159 69.3678 25.629 70.0387 25.9082C70.7097 26.1874 71.4591 26.2135 72.1479 25.9818C80.1608 23.3142 88.5545 21.9687 96.9998 21.9984C128.985 21.9984 156.295 40.6736 161.932 66.3918C162.103 67.1679 162.574 67.8445 163.244 68.273C163.913 68.7016 164.725 68.847 165.502 68.6775C172.511 67.2952 178.944 63.8393 183.966 58.7579C183.711 63.3853 181.93 67.7976 178.899 71.305C175.658 75.1005 171.13 77.5675 166.182 78.234C165.84 78.273 165.469 78.315 165.1 78.39Z" fill="black"/>
<path d="M56.5 45.9951C54.4233 45.9951 52.3932 46.6109 50.6665 47.7644C48.9398 48.918 47.594 50.5577 46.7993 52.476C46.0046 54.3944 45.7966 56.5052 46.2018 58.5417C46.6069 60.5783 47.6069 62.4489 49.0754 63.9171C50.5438 65.3853 52.4147 66.3852 54.4515 66.7903C56.4883 67.1954 58.5995 66.9874 60.5182 66.1929C62.4368 65.3983 64.0767 64.0526 65.2304 62.3262C66.3842 60.5998 67 58.57 67 56.4936C67 53.7092 65.8937 51.0389 63.9246 49.0701C61.9555 47.1012 59.2847 45.9951 56.5 45.9951ZM56.5 60.9929C55.61 60.9929 54.74 60.729 53.9999 60.2346C53.2599 59.7403 52.6831 59.0376 52.3426 58.2154C52.0019 57.3933 51.9128 56.4886 52.0864 55.6158C52.2601 54.743 52.6887 53.9413 53.318 53.3121C53.9473 52.6828 54.7492 52.2543 55.6221 52.0807C56.495 51.9071 57.3998 51.9962 58.2221 52.3368C59.0443 52.6773 59.7471 53.254 60.2416 53.9939C60.7361 54.7338 60.9999 55.6037 60.9999 56.4936C60.9999 57.6869 60.5259 58.8313 59.682 59.6751C58.838 60.5189 57.6934 60.9929 56.5 60.9929Z" fill="black"/>
<path d="M123.74 113.767C123.404 113.061 122.805 112.514 122.071 112.243C121.338 111.972 120.528 111.997 119.813 112.315C119.098 112.633 118.536 113.217 118.245 113.943C117.955 114.669 117.96 115.48 118.259 116.202C124.921 132.771 128.826 150.318 129.815 168.148C127.232 167.815 124.696 167.18 122.261 166.255C121.544 165.943 120.733 165.923 120.001 166.201C119.269 166.478 118.675 167.029 118.344 167.739C118.014 168.447 117.973 169.257 118.231 169.996C118.489 170.734 119.026 171.342 119.726 171.691C120.011 171.826 126.89 174.976 141.263 174.976C160.595 174.976 170.479 167.137 170.891 166.802C171.479 166.293 171.847 165.575 171.917 164.8C171.987 164.025 171.752 163.253 171.262 162.647C170.774 162.043 170.068 161.65 169.296 161.556C168.524 161.46 167.744 161.669 167.122 162.138C166.306 162.735 165.446 163.268 164.548 163.736C161.434 155.895 159.256 147.714 158.059 139.362C159.629 138.684 160.46 138.222 160.568 138.162C161.258 137.766 161.763 137.113 161.971 136.345C162.179 135.577 162.073 134.758 161.677 134.068C161.282 133.378 160.628 132.873 159.86 132.665C159.093 132.457 158.273 132.562 157.582 132.958C157.501 133.003 149.666 137.325 131.915 139.731C129.974 130.849 127.238 122.159 123.74 113.767ZM141.263 168.976C139.28 168.976 137.516 168.899 135.863 168.791C135.716 165.428 135.476 162.143 135.134 158.967L155.879 157.095C156.785 160.161 157.847 163.178 159.058 166.136C153.33 168.082 147.313 169.043 141.263 168.976ZM152.306 141.474C152.828 144.752 153.491 148.024 154.27 151.216L134.369 153.016C133.999 150.466 133.586 148.003 133.129 145.628C139.628 144.788 146.043 143.398 152.306 141.474Z" fill="black"/>
<path d="M112.628 29.6342C102.32 27.4525 91.6677 27.4606 81.3625 29.6582C80.6426 29.8187 80.0072 30.2389 79.5774 30.8382C79.1477 31.4375 78.9539 32.1741 79.0329 32.9073C79.1119 33.6405 79.4583 34.3188 80.0059 34.8128C80.5535 35.3068 81.2639 35.5819 82.0015 35.5853C82.2174 35.5859 82.4327 35.5628 82.6434 35.5164C92.114 33.5046 101.901 33.4975 111.374 35.4953C111.764 35.5903 112.169 35.6063 112.565 35.5421C112.961 35.4779 113.34 35.335 113.68 35.1217C114.02 34.9085 114.313 34.6293 114.543 34.3006C114.773 33.972 114.935 33.6005 115.019 33.2083C115.102 32.8161 115.107 32.411 115.031 32.0171C114.956 31.6231 114.803 31.2483 114.579 30.9148C114.356 30.5813 114.069 30.2958 113.734 30.0753C113.399 29.8549 113.023 29.7069 112.628 29.6342Z" fill="black"/>
</g>
</svg>
