<svg width="200" height="200" viewBox="0 0 200 200" fill="none" xmlns="http://www.w3.org/2000/svg">
<mask id="mask0_452_71" style="mask-type:luminance" maskUnits="userSpaceOnUse" x="10" y="10" width="180" height="180">
<path d="M190 10H10V190H190V10Z" fill="white"/>
</mask>
<g mask="url(#mask0_452_71)">
<mask id="mask1_452_71" style="mask-type:luminance" maskUnits="userSpaceOnUse" x="9" y="9" width="182" height="182">
<path d="M190.45 9.5498V190.45H9.5498V9.5498H190.45Z" fill="white" stroke="white" stroke-width="0.9"/>
</mask>
<g mask="url(#mask1_452_71)">
<path d="M141.119 48.8203C146.613 48.8203 151.065 53.3027 151.065 58.7998V58.8018C151.044 64.2984 146.591 68.7586 141.099 68.7588C135.605 68.7588 131.151 64.2764 131.151 58.7793V58.7773L131.166 58.2656C131.452 53.0065 135.798 48.8203 141.119 48.8203ZM141.099 52.1807C137.465 52.1807 134.509 55.1223 134.509 58.7588V58.7607C134.489 62.3966 137.446 65.3574 141.078 65.3574C144.711 65.3572 147.667 62.4156 147.667 58.7793V58.7773L147.66 58.4385C147.501 54.9592 144.617 52.1808 141.099 52.1807Z" fill="black" stroke="black" stroke-width="0.9"/>
<path d="M141.091 74.5557C142.03 74.5557 142.759 75.3259 142.759 76.2461V82.9639C142.759 83.8938 142.001 84.6542 141.07 84.6543C140.13 84.6543 139.401 83.8843 139.401 82.9639V76.2461C139.401 75.3158 140.161 74.5557 141.091 74.5557Z" fill="black" stroke="black" stroke-width="0.9"/>
<path d="M140.146 9.99316C140.793 9.4024 141.779 9.40186 142.426 9.99316L142.425 9.99414C142.785 10.3204 152.438 19.4285 159.854 34.6172C160.075 34.8473 160.191 35.139 160.244 35.4033C164.714 44.8457 168.274 56.5517 168.274 69.9414C168.274 73.15 168.136 76.2993 167.881 79.3896C175.076 84.2009 179.34 92.1209 179.34 100.824C179.34 110.501 173.981 119.275 165.389 123.714C165.14 123.86 164.857 123.909 164.625 123.909C164.263 123.909 163.89 123.797 163.575 123.538L163.572 123.536V123.535C163.081 123.125 162.82 122.455 162.991 121.796C163.416 120.075 163.638 118.294 163.638 116.514C163.638 113.245 162.921 110.06 161.581 107.138C160.199 110.442 158.644 113.417 156.926 115.96L156.924 115.963C156.612 116.417 156.08 116.695 155.521 116.695H150.841C149.435 127.953 142.732 136.399 142.437 136.778L142.43 136.786L142.423 136.795C142.093 137.181 141.618 137.407 141.11 137.407C140.618 137.407 140.115 137.191 139.795 136.789V136.79C139.793 136.788 139.792 136.786 139.79 136.783C139.789 136.782 139.787 136.781 139.786 136.779V136.778C139.36 136.259 132.795 127.841 131.441 116.674H126.763C126.203 116.674 125.668 116.395 125.355 115.915V115.916C123.639 113.337 122.083 110.361 120.717 107.071C119.363 109.977 118.646 113.162 118.646 116.431C118.646 118.217 118.848 119.999 119.272 121.718H119.271C119.442 122.361 119.175 123.028 118.689 123.433L118.688 123.435C118.373 123.693 118.001 123.806 117.638 123.806C117.594 123.806 117.551 123.803 117.51 123.8V123.994L116.853 123.651C108.28 119.191 102.964 110.396 102.964 100.721V100.72L102.979 99.8955C103.259 91.4992 107.517 83.9436 114.485 79.3047C114.249 76.1956 114.112 73.0276 114.112 69.8584L114.125 68.6055C114.36 55.7277 117.88 44.4307 122.273 35.2998C122.338 35.0593 122.435 34.8068 122.63 34.5859C130.091 19.405 139.795 10.3122 140.146 9.99414V9.99316ZM134.853 116.653C135.841 123.819 139.178 129.845 141.081 132.764C143.006 129.846 146.379 123.82 147.368 116.653H134.853ZM167.479 83.2451C166.661 90.3188 165.202 96.973 163.137 102.938C165.647 107.018 166.974 111.684 166.974 116.492C166.974 117.252 166.94 118.012 166.872 118.773C172.523 114.61 175.942 107.985 175.942 100.783V100.781L175.935 100.107C175.757 93.4228 172.654 87.3339 167.479 83.2451ZM114.861 83.1406C109.492 87.3487 106.321 93.7122 106.321 100.659C106.321 107.861 109.701 114.486 115.348 118.686C115.28 117.926 115.247 117.167 115.247 116.41V116.408L115.253 115.951C115.354 111.304 116.694 106.805 119.125 102.874C117.098 96.9411 115.659 90.1889 114.861 83.1406ZM123.97 106.111C125.08 108.755 126.319 111.156 127.672 113.273L154.579 113.313C155.938 111.21 157.181 108.818 158.311 106.151L123.97 106.111ZM125.005 37.3799C120.81 46.3223 117.469 57.307 117.469 69.8379C117.469 73.2361 117.613 76.655 117.9 79.9697L118.043 81.4902C118.806 89.0683 120.368 96.3065 122.56 102.526L122.636 102.73L159.599 102.792C159.604 102.777 159.61 102.763 159.615 102.748L159.619 102.737L159.934 101.85C163.137 92.6174 164.856 81.5936 164.856 69.9004V69.8994L164.849 68.7178C164.668 56.6762 161.443 46.0996 157.4 37.4199L125.005 37.3799ZM141.263 13.6055C138.673 16.2529 132.229 23.4322 126.698 34L155.77 34.0381C150.259 23.4702 143.835 16.2731 141.263 13.6055Z" fill="black" stroke="black" stroke-width="0.9"/>
<path d="M64.3379 127.468C73.9557 123.999 84.8162 124.572 94.3203 129.047V129.048L134.846 148.168L135.229 148.357C138.954 150.284 141.319 154.037 141.581 158.137L174.726 145.2L175.265 145.004C177.977 144.093 180.918 144.224 183.557 145.394L184.076 145.639C186.636 146.925 188.61 149.08 189.657 151.782L189.688 151.86V151.882C191.914 157.706 189.099 164.25 183.381 166.659L183.105 166.771L133.042 186.326H133.041C128.694 188.022 124.056 188.88 119.377 188.88C115.282 188.88 111.167 188.21 107.222 186.914H107.221L67.9346 173.933L67.9326 173.932C63.5106 172.456 58.7259 172.576 54.4688 174.232L54.4697 174.233L38.4766 180.478L39.9639 184.275H39.9619C40.1578 184.715 40.1187 185.168 39.9629 185.558C39.7879 185.996 39.4405 186.306 39.0312 186.47L39.0264 186.471L29.0967 190.337L29.0957 190.336C28.8805 190.425 28.656 190.45 28.4795 190.45C27.8157 190.45 27.1631 190.062 26.9043 189.377V189.378L9.66602 145.101V145.1C9.35184 144.287 9.69815 143.368 10.4658 142.976L10.624 142.904L20.5527 139.019V139.02C20.9359 138.849 21.3291 138.859 21.6816 138.967L21.833 139.02L21.834 139.021L21.9922 139.094C22.2962 139.256 22.5268 139.508 22.6768 139.803L22.7451 139.953L22.7471 139.957L24.0068 143.196L63.4111 127.815L64.3379 127.468ZM13.4121 145.419L29.416 186.544L36.1953 183.894L20.1924 142.77L13.4121 145.419ZM92.8633 132.135C84.0282 127.979 74.3402 127.468 65.4619 130.668L64.6055 130.989L25.2002 146.37L37.2402 177.304L53.2334 171.06H53.2354L53.7383 170.871C56.2614 169.962 58.9087 169.499 61.5928 169.499C64.0771 169.499 66.5817 169.9 69.001 170.7L108.287 183.682L109.014 183.912C116.536 186.218 124.603 185.958 131.806 183.152L181.868 163.597L181.874 163.605C186.04 161.972 188.105 157.226 186.486 153.041L186.327 152.667C185.545 150.945 184.223 149.555 182.529 148.706L182.16 148.532C180.166 147.651 177.956 147.61 175.918 148.396L175.917 148.395L141.204 161.954C141.052 162.548 140.843 163.136 140.6 163.699L140.565 163.777L140.535 163.807C139.35 166.392 137.291 168.366 134.693 169.377L134.692 169.376C131.93 170.455 128.891 170.324 126.162 169.033V169.032L124.695 168.345C122.901 168.942 121.026 169.22 119.11 169.138H119.107C117.096 169.038 115.122 168.564 113.24 167.718L112.865 167.543L100.747 161.734V161.733C100.319 161.532 100.011 161.162 99.8721 160.72V160.719C99.73 160.283 99.7899 159.783 100.015 159.39L102.076 155.694C102.477 154.974 103.341 154.664 104.111 154.926L104.264 154.986L104.271 154.989L104.08 155.396L104.271 154.99L125.514 164.994L125.516 164.995L127.602 165.987H127.601C129.493 166.886 131.572 166.962 133.456 166.223L133.783 166.084C135.403 165.35 136.717 164.047 137.485 162.362L137.489 162.353L137.594 162.127C137.826 161.592 137.988 161.01 138.092 160.405C138.719 156.673 136.732 152.842 133.387 151.256V151.255L92.8633 132.135ZM103.817 159.477L114.328 164.521H114.329L114.626 164.659C116.104 165.33 117.642 165.716 119.211 165.776L104.247 158.71L103.817 159.477Z" fill="black" stroke="black" stroke-width="0.9"/>
</g>
</g>
</svg>
